<?xml version="1.0" encoding="iso-8859-1"?>
<!-- Generator: Adobe Illustrator 19.0.0, SVG Export Plug-In . SVG Version: 6.00 Build 0)  -->
<svg version="1.1" id="Layer_1" xmlns="http://www.w3.org/2000/svg" xmlns:xlink="http://www.w3.org/1999/xlink" x="0px" y="0px"
	 viewBox="0 0 512 512" style="enable-background:new 0 0 512 512;" xml:space="preserve">
<path style="fill:#1E0478;" d="M512,384.662c0.013,14.463-11.736,26.239-26.199,26.265l-459.182,0.629c-0.013,0-0.026,0-0.039,0
	c-6.989,0-13.572-2.714-18.515-7.658c-4.957-4.943-7.697-11.526-7.71-18.528L0,127.338c-0.013-7.002,2.714-13.598,7.658-18.555
	s11.526-7.697,18.528-7.71l459.195-0.629c0.013,0,0.026,0,0.039,0c14.437,0,26.199,11.749,26.225,26.186L512,384.662z
	 M485.762,371.681l-0.328-233.066L263.527,292.873c-2.255,1.56-4.865,2.347-7.487,2.347c-2.609,0-5.206-0.774-7.461-2.321
	L26.239,139.244l0.328,232.463l128.898-99.958c5.73-4.445,13.965-3.396,18.397,2.321c4.445,5.73,3.396,13.965-2.321,18.397
	L51.848,385.292l407.964-0.564l-118.972-92.261c-5.717-4.432-6.766-12.667-2.321-18.397c4.432-5.717,12.68-6.766,18.397-2.321
	L485.762,371.681z M256.013,266.149l200.599-139.441l-401.578,0.551L256.013,266.149z"/>
<path style="fill:#6F7CCD;" d="M485.434,138.615l0.328,233.066l-128.846-99.932c-5.717-4.445-13.965-3.396-18.397,2.321
	c-4.445,5.73-3.396,13.965,2.321,18.397l118.972,92.261l-407.964,0.564l119.693-92.825c5.717-4.432,6.766-12.667,2.321-18.397
	c-4.432-5.717-12.667-6.766-18.397-2.321L26.566,371.707l-0.328-232.463l222.34,153.655c2.255,1.547,4.852,2.321,7.461,2.321
	c2.623,0,5.232-0.787,7.487-2.347L485.434,138.615z"/>
<polygon style="fill:#9B8CCC;" points="456.612,126.708 256.013,266.149 55.034,127.259 "/>
<g>
</g>
<g>
</g>
<g>
</g>
<g>
</g>
<g>
</g>
<g>
</g>
<g>
</g>
<g>
</g>
<g>
</g>
<g>
</g>
<g>
</g>
<g>
</g>
<g>
</g>
<g>
</g>
<g>
</g>
</svg>
