<?xml version="1.0" encoding="iso-8859-1"?>
<!-- Generator: Adobe Illustrator 19.0.0, SVG Export Plug-In . SVG Version: 6.00 Build 0)  -->
<svg version="1.1" id="Capa_1" xmlns="http://www.w3.org/2000/svg" xmlns:xlink="http://www.w3.org/1999/xlink" x="0px" y="0px"
	 viewBox="0 0 512 512" style="enable-background:new 0 0 512 512;" xml:space="preserve">
<path style="fill:#DDDDDD;" d="M469.574,186.128H42.426C19.032,186.128,0,205.16,0,228.552v203.377
	c0,23.394,19.032,42.426,42.426,42.426h427.15c23.393,0,42.424-19.032,42.424-42.426V228.552
	C512,205.16,492.968,186.128,469.574,186.128z"/>
<path style="fill:#C6C5CA;" d="M469.574,442.287H42.426C19.032,442.287,0,423.255,0,399.862v32.068
	c0,23.394,19.032,42.426,42.426,42.426h427.15c23.393,0,42.424-19.032,42.424-42.426v-32.068
	C512,423.255,492.968,442.287,469.574,442.287z"/>
<path style="fill:#4CE166;" d="M434.584,218.195H98.871c-4.143,0-7.502,3.359-7.502,7.502v209.087c0,4.144,3.359,7.502,7.502,7.502
	h335.714c4.143,0,7.502-3.358,7.502-7.502V225.698C442.086,221.554,438.728,218.195,434.584,218.195z"/>
<path style="fill:#A8EEFC;" d="M99.343,218.362c-4.143,0-7.502,3.358-7.502,7.502v143.707l246.056-151.21L99.343,218.362
	L99.343,218.362z"/>
<path style="fill:#44C868;" d="M91.369,407.776v27.009c0,4.144,3.359,7.502,7.502,7.502h335.714c4.143,0,7.502-3.358,7.502-7.502
	v-27.009H91.369z"/>
<path style="fill:#FFDB56;" d="M434.584,218.195h-97.16L91.369,369.406v65.379c0,1.434,0.41,2.771,1.108,3.91L271.64,329.104
	l94.891,113.183h68.054c1.838,0,3.519-0.663,4.823-1.76L320.246,298.636l120.66-76.971
	C439.572,219.582,437.242,218.195,434.584,218.195z"/>
<g>
	<path style="fill:#475D63;" d="M468.898,374.141c-4.143,0-7.502-3.358-7.502-7.502v-37.535c0-4.143,3.359-7.502,7.502-7.502
		s7.502,3.359,7.502,7.502v37.535C476.401,370.782,473.042,374.141,468.898,374.141z"/>
	<path style="fill:#475D63;" d="M468.898,314.806c-4.143,0-7.502-3.358-7.502-7.502v-13.461c0-4.143,3.359-7.502,7.502-7.502
		s7.502,3.359,7.502,7.502v13.461C476.401,311.448,473.042,314.806,468.898,314.806z"/>
</g>
<path style="fill:#FF4A4A;" d="M275.73,37.644c-57.999,0-105.185,47.186-105.185,105.185c0,35.88,17.022,74.402,50.591,114.496
	c24.657,29.449,48.979,48.389,50.003,49.181c1.351,1.046,2.972,1.568,4.591,1.568s3.24-0.522,4.591-1.568
	c1.023-0.792,25.345-19.733,50.003-49.181c33.57-40.094,50.592-78.616,50.592-114.496C380.915,84.83,333.729,37.644,275.73,37.644z
	 M275.73,103.87c21.517,0,38.961,17.443,38.961,38.96s-17.443,38.96-38.961,38.96s-38.96-17.443-38.96-38.96
	S254.213,103.87,275.73,103.87z"/>
<path style="fill:#E7343F;" d="M275.73,37.644c-5.205,0-10.321,0.386-15.326,1.12c50.761,7.442,89.859,51.271,89.859,104.066
	c0,35.88-17.022,74.402-50.592,114.496c-14.906,17.803-29.681,31.755-39.269,40.19c6.272,5.518,10.329,8.679,10.734,8.992
	c1.351,1.046,2.972,1.568,4.591,1.568s3.24-0.522,4.591-1.568c1.023-0.792,25.345-19.733,50.003-49.181
	c33.57-40.094,50.592-78.616,50.592-114.496C380.915,84.83,333.729,37.644,275.73,37.644z"/>
<circle style="fill:#FFFFFF;" cx="275.731" cy="142.832" r="38.96"/>
<circle style="fill:#475D63;" cx="53.426" cy="330.237" r="23.895"/>
<g>
	<path style="fill:#FFBB24;" d="M366.531,442.287h68.054c1.838,0,3.519-0.663,4.823-1.76l-27.505-32.752h-74.305L366.531,442.287z"
		/>
	<path style="fill:#FFBB24;" d="M143.024,407.776H91.369v27.009c0,1.434,0.41,2.771,1.108,3.91L143.024,407.776z"/>
</g>
<g>
</g>
<g>
</g>
<g>
</g>
<g>
</g>
<g>
</g>
<g>
</g>
<g>
</g>
<g>
</g>
<g>
</g>
<g>
</g>
<g>
</g>
<g>
</g>
<g>
</g>
<g>
</g>
<g>
</g>
</svg>
