<?xml version="1.0" encoding="iso-8859-1"?>
<!-- Generator: Adobe Illustrator 19.0.0, SVG Export Plug-In . SVG Version: 6.00 Build 0)  -->
<svg version="1.1" id="Capa_1" xmlns="http://www.w3.org/2000/svg" xmlns:xlink="http://www.w3.org/1999/xlink" x="0px" y="0px"
	 viewBox="0 0 512 512" style="enable-background:new 0 0 512 512;" xml:space="preserve">
<path style="fill:#E0E0E0;" d="M489.512,50.939H22.488C10.088,50.939,0,61.031,0,73.434v365.133
	c0,12.403,10.088,22.494,22.488,22.494h467.023c12.401,0,22.488-10.091,22.488-22.494V73.434
	C512,61.031,501.913,50.939,489.512,50.939z"/>
<path style="fill:#546F7A;" d="M489.512,50.939H22.488C10.068,50.939,0,61.01,0,73.434v67.451h512V73.434
	C512,61.01,501.932,50.939,489.512,50.939z"/>
<path style="fill:#C6C5CA;" d="M489.512,50.939h-35.096c12.401,0,22.488,10.091,22.488,22.494v365.133
	c0,12.403-10.088,22.494-22.488,22.494h35.096c12.401,0,22.488-10.091,22.488-22.494V73.434
	C512,61.031,501.913,50.939,489.512,50.939z"/>
<path style="fill:#FF4A4A;" d="M53.03,107.753c-6.929,0-12.566-5.639-12.566-12.569c0-6.931,5.637-12.569,12.566-12.569
	s12.566,5.639,12.566,12.569C65.597,102.114,59.96,107.753,53.03,107.753z"/>
<path style="fill:#FFDB56;" d="M90.629,107.753c-6.929,0-12.566-5.639-12.566-12.569c0-6.931,5.637-12.569,12.566-12.569
	s12.566,5.639,12.566,12.569C103.195,102.114,97.558,107.753,90.629,107.753z"/>
<path style="fill:#4CE166;" d="M128.227,107.753c-6.929,0-12.566-5.639-12.566-12.569c0-6.931,5.637-12.569,12.566-12.569
	c6.929,0,12.566,5.639,12.566,12.569C140.793,102.114,135.155,107.753,128.227,107.753z"/>
<path style="fill:#A8EEFC;" d="M469.408,164.033H42.592c-4.14,0-7.496,3.356-7.496,7.498v248.627c0,4.142,3.356,7.498,7.496,7.498
	h426.816c4.14,0,7.496-3.356,7.496-7.498V171.531C476.904,167.389,473.548,164.033,469.408,164.033z"/>
<path style="fill:#7EE5F2;" d="M469.408,164.033h-26.986v263.624h26.986c4.14,0,7.496-3.356,7.496-7.498V171.531
	C476.904,167.389,473.548,164.033,469.408,164.033z"/>
<g>
	<path style="fill:#4CE166;" d="M35.096,420.158c0,4.142,3.356,7.498,7.496,7.498h95.4V321.62H35.096V420.158z"/>
	<path style="fill:#4CE166;" d="M469.408,164.033H245.475v114.351h231.429V171.531C476.904,167.389,473.548,164.033,469.408,164.033
		z"/>
</g>
<path style="fill:#44C868;" d="M469.408,164.033h-26.986v114.351h34.482V171.531C476.904,167.389,473.548,164.033,469.408,164.033z"
	/>
<rect x="181.214" y="321.617" style="fill:#4CE166;" width="85.448" height="106.033"/>
<polygon style="fill:#FFDB56;" points="316.543,321.62 476.904,321.62 476.904,278.383 245.475,278.383 245.475,164.033 
	202.249,164.033 202.249,278.383 137.678,278.383 137.678,164.033 94.451,164.033 94.451,278.383 35.096,278.383 35.096,321.62 
	137.992,321.62 137.992,427.656 181.219,427.656 181.219,321.62 266.672,321.62 266.672,427.656 309.898,427.656 309.898,376.12 
	361.421,427.656 422.552,427.656 "/>
<rect x="442.427" y="278.378" style="fill:#FFBB24;" width="34.482" height="43.239"/>
<path style="fill:#FF4A4A;" d="M350.744,193.211c-42.115,0-76.378,34.272-76.378,76.398c0,25.84,12.176,53.487,36.19,82.175
	c17.539,20.953,34.872,34.454,35.602,35.018c1.351,1.046,2.969,1.568,4.588,1.568c1.619,0,3.237-0.522,4.588-1.568
	c0.73-0.564,18.062-14.065,35.601-35.018c24.014-28.688,36.19-56.336,36.19-82.175C427.123,227.484,392.859,193.211,350.744,193.211
	z M378.218,269.609c0,15.177-12.3,27.481-27.474,27.481c-15.173,0-27.473-12.304-27.473-27.481s12.3-27.481,27.473-27.481
	C365.917,242.13,378.218,254.433,378.218,269.609z"/>
<path style="fill:#E7343F;" d="M350.744,193.211c-4.691,0-9.277,0.448-13.736,1.262c35.579,6.493,62.642,37.703,62.642,75.137
	c0,25.84-12.176,53.487-36.19,82.175c-9.85,11.768-19.636,21.186-26.451,27.281c5.319,4.757,8.83,7.49,9.15,7.738
	c1.351,1.046,2.969,1.568,4.588,1.568c1.619,0,3.237-0.522,4.588-1.568c0.73-0.564,18.062-14.065,35.601-35.018
	c24.014-28.688,36.19-56.336,36.19-82.175C427.123,227.484,392.859,193.211,350.744,193.211z"/>
<ellipse style="fill:#FFFFFF;" cx="350.74" cy="269.611" rx="27.474" ry="27.481"/>
<path style="fill:#475D63;" d="M489.512,50.939h-35.096c12.401,0,22.488,10.091,22.488,22.494v67.451H512V73.434
	C512,61.01,501.932,50.939,489.512,50.939z"/>
<g>
</g>
<g>
</g>
<g>
</g>
<g>
</g>
<g>
</g>
<g>
</g>
<g>
</g>
<g>
</g>
<g>
</g>
<g>
</g>
<g>
</g>
<g>
</g>
<g>
</g>
<g>
</g>
<g>
</g>
</svg>
