<?xml version="1.0" encoding="iso-8859-1"?>
<!-- Generator: Adobe Illustrator 19.0.0, SVG Export Plug-In . SVG Version: 6.00 Build 0)  -->
<svg version="1.1" id="Capa_1" xmlns="http://www.w3.org/2000/svg" xmlns:xlink="http://www.w3.org/1999/xlink" x="0px" y="0px"
	 viewBox="0 0 512 512" style="enable-background:new 0 0 512 512;" xml:space="preserve">
<path style="fill:#919191;" d="M330.213,476.587l-6.002-52.285c-0.435-3.787-3.641-6.647-7.454-6.647H195.243
	c-3.812,0-7.019,2.859-7.454,6.647l-6.002,52.285c-0.244,2.125,0.431,4.253,1.855,5.85c1.423,1.597,3.46,2.509,5.6,2.509h133.518
	c2.139,0,4.176-0.912,5.6-2.509C329.782,480.84,330.457,478.712,330.213,476.587z"/>
<path style="fill:#777777;" d="M298.612,484.945h24.147c2.139,0,4.176-0.912,5.6-2.509s2.099-3.725,1.854-5.85l-6.002-52.285
	c-0.435-3.787-3.641-6.647-7.454-6.647h-25.87L298.612,484.945z"/>
<path style="fill:#E0E0E0;" d="M365.071,469.94H146.929c-4.143,0-7.503,3.358-7.503,7.503v26.327c0,4.144,3.359,7.503,7.503,7.503
	h218.142c4.144,0,7.503-3.358,7.503-7.503v-26.327C372.574,473.299,369.215,469.94,365.071,469.94z"/>
<path style="fill:#C6C5CA;" d="M365.071,469.94h-25.009v41.332h25.009c4.144,0,7.503-3.358,7.503-7.503v-26.327
	C372.574,473.299,369.215,469.94,365.071,469.94z"/>
<path style="fill:#A8EEFC;" d="M512,356.048L512,356.048V76.704c0-12.41-10.097-22.508-22.508-22.508H22.508
	C10.096,54.196,0,64.294,0,76.704v279.344l0,0H512z"/>
<path style="fill:#7EE5F2;" d="M489.492,54.196h-31.97c12.41,0,22.508,10.097,22.508,22.508v279.344l0,0H512l0,0V76.704
	C512,64.294,501.903,54.196,489.492,54.196z"/>
<path style="fill:#E0E0E0;" d="M0,356.048v54.105c0,12.41,10.096,22.508,22.508,22.508h466.985c12.41,0,22.508-10.097,22.508-22.508
	v-54.105H0z"/>
<path style="fill:#C6C5CA;" d="M480.03,356.048v54.105c0,12.41-10.097,22.508-22.508,22.508h31.97
	c12.41,0,22.508-10.097,22.508-22.508v-54.105H480.03z"/>
<path style="fill:#FFDB56;" d="M255.998,256.591c-40.03,0-82.572,13.352-82.572,38.096c0,24.744,42.543,38.096,82.572,38.096
	s82.572-13.352,82.572-38.096C338.57,269.943,296.027,256.591,255.998,256.591z"/>
<path style="fill:#FFBB24;" d="M255.998,307.82c-32.668,0-67.006-8.894-78.532-25.615c-2.597,3.768-4.04,7.932-4.04,12.482
	c0,24.744,42.543,38.096,82.572,38.096s82.572-13.352,82.572-38.096c0-4.551-1.443-8.714-4.04-12.482
	C323.004,298.926,288.665,307.82,255.998,307.82z"/>
<circle style="fill:#FFFFFF;" cx="255.997" cy="117.3" r="43.503"/>
<path style="fill:#FF4A4A;" d="M256,0.728c-64.279,0-116.574,52.295-116.574,116.574c0,39.853,18.937,82.676,56.286,127.283
	c27.472,32.811,54.558,53.903,55.697,54.786c1.351,1.046,2.972,1.569,4.592,1.569c1.62,0,3.239-0.522,4.592-1.569
	c1.14-0.882,28.225-21.974,55.697-54.786c37.349-44.607,56.286-87.431,56.286-127.283C372.574,53.023,320.279,0.728,256,0.728z
	 M256,73.799c24.026,0,43.503,19.477,43.503,43.503S280.026,160.805,256,160.805s-43.503-19.477-43.503-43.503
	C212.497,93.276,231.974,73.799,256,73.799z"/>
<path style="fill:#E7343F;" d="M256,0.728c-4.827,0-9.583,0.3-14.257,0.873c57.578,7.052,102.317,56.248,102.317,115.7
	c0,39.853-18.937,82.676-56.286,127.283c-17.845,21.312-35.517,37.672-46.031,46.769c5.672,4.908,9.266,7.708,9.665,8.017
	c1.351,1.046,2.972,1.569,4.592,1.569c1.62,0,3.239-0.522,4.592-1.569c1.14-0.882,28.225-21.974,55.697-54.786
	c37.349-44.607,56.286-87.431,56.286-127.283C372.574,53.023,320.279,0.728,256,0.728z"/>
<g>
</g>
<g>
</g>
<g>
</g>
<g>
</g>
<g>
</g>
<g>
</g>
<g>
</g>
<g>
</g>
<g>
</g>
<g>
</g>
<g>
</g>
<g>
</g>
<g>
</g>
<g>
</g>
<g>
</g>
</svg>
