<svg height="512pt" viewBox="0 0 512 512" width="512pt" xmlns="http://www.w3.org/2000/svg"><g fill="#0082a0"><path d="m80.210938 192.46875v215.332031h142.890624v-215.332031c0-39.457031-31.988281-71.441406-71.445312-71.441406s-71.445312 31.984375-71.445312 71.441406zm0 0"/><path d="m80.210938 357.667969v50.132812h142.890624"/><path d="m151.65625 121.027344c-33.519531 0-61.644531 23.078125-69.351562 54.214844"/></g><path d="m219.585938 177.769531h-199.851563c-5.375 0-9.734375 4.359375-9.734375 9.734375v158.050782c0 5.378906 4.359375 9.734374 9.734375 9.734374h201.363281" fill="#fed271"/><path d="m110.222656 267.53125-89.789062 87.757812h202.667968v-24.222656l-65.007812-63.535156" fill="#8de3a8"/><path d="m220.585938 177.769531h-200.152344l113.722656 111.179688 87.945312-85.953125" fill="#5fd696"/><path d="m430.554688 121.027344h-278.898438c39.457031 0 71.445312 31.984375 71.445312 71.441406v215.332031h278.898438v-215.332031c0-39.457031-31.988281-71.441406-71.445312-71.441406zm0 0" fill="#4dbaf6"/><path d="m393.382812 185.800781c0 18.378907-14.898437 33.277344-33.277343 33.277344-18.378907 0-33.277344-14.898437-33.277344-33.277344 0-18.378906 14.898437-33.277343 33.277344-33.277343 18.378906 0 33.277343 14.898437 33.277343 33.277343zm0 0" fill="#f2484b"/><path d="m460.105469 76.789062h-100v-66.789062h100l-20.003907 33.394531zm0 0" fill="#5fd696"/><path d="m263.398438 407.800781h71.445312v94.199219h-71.445312zm0 0" fill="#dae9ec"/><path d="m458.558594 365.289062c-.648438 0-1.296875-.058593-1.949219-.1875-.640625-.132812-1.269531-.332031-1.867187-.582031-.601563-.25-1.183594-.550781-1.722657-.910156-.550781-.367187-1.058593-.789063-1.519531-1.25-.46875-.460937-.878906-.96875-1.25-1.519531-.359375-.539063-.671875-1.121094-.921875-1.71875-.25-.609375-.4375-1.242188-.566406-1.871094-.132813-.648438-.191407-1.308594-.191407-1.960938 0-.648437.0625-1.308593.191407-1.949218.128906-.640625.316406-1.269532.566406-1.871094.25-.609375.5625-1.1875.921875-1.726562.371094-.550782.78125-1.0625 1.25-1.523438.460938-.457031.96875-.878906 1.519531-1.238281.539063-.359375 1.121094-.671875 1.722657-.921875.597656-.25 1.226562-.449219 1.867187-.566406 1.289063-.261719 2.621094-.261719 3.910156 0 .640625.117187 1.269531.316406 1.871094.566406s1.179687.5625 1.730469.921875c.539062.359375 1.058594.78125 1.519531 1.238281.460937.460938.878906.972656 1.238281 1.523438.359375.539062.671875 1.117187.921875 1.726562.25.601562.4375 1.230469.570313 1.871094.128906.640625.199218 1.300781.199218 1.949218 0 .652344-.070312 1.3125-.199218 1.960938-.132813.628906-.320313 1.261719-.570313 1.871094-.25.597656-.5625 1.179687-.921875 1.71875-.359375.550781-.777344 1.058594-1.238281 1.519531s-.980469.882813-1.519531 1.25c-.550782.359375-1.132813.660156-1.730469.910156-.601563.25-1.230469.449219-1.871094.582031-.640625.128907-1.300781.1875-1.960937.1875zm0 0"/><path d="m430.554688 111.027344h-60.449219v-24.238282h90c3.601562 0 6.925781-1.9375 8.699219-5.070312 1.773437-3.132812 1.730468-6.980469-.121094-10.066406l-16.925782-28.257813 16.925782-28.253906c1.851562-3.089844 1.898437-6.9375.121094-10.070313-1.777344-3.132812-5.097657-5.070312-8.699219-5.070312h-100c-5.523438 0-10 4.476562-10 10v101.027344h-198.449219c-35.769531 0-66.976562 23.078125-77.632812 56.742187h-54.289063c-10.878906 0-19.734375 8.851563-19.734375 19.734375v158.054688c0 10.878906 8.855469 19.730468 19.734375 19.730468h50.476563v42.511719c0 5.519531 4.476562 10 10 10h173.1875v84.199219c0 5.523438 4.480468 10 10 10h71.445312c5.523438 0 10-4.476562 10-10v-84.199219h157.15625c5.523438 0 10-4.480469 10-10v-215.328125c0-44.910156-36.535156-81.445312-81.445312-81.445312zm-60.449219-91.027344h72.351562l-10.933593 18.257812c-1.894532 3.164063-1.894532 7.109376 0 10.273438l10.933593 18.257812h-72.351562zm-218.449219 111.027344c25.097656 0 46.730469 15.125 56.257812 36.742187h-112.554687c9.632813-22.0625 31.511719-36.742187 56.296875-36.742187zm61.445312 176.28125-41.710937-40.765625 41.710937-40.769531zm-.179687-119.539063c.117187 1.550781.175781 3.121094.175781 4.703125v5.335938l-78.941406 77.160156-89.1875-87.199219zm-192.921875 3.558594 76.929688 75.210937-76.929688 75.191407zm91.234375 89.199219 15.929687 15.574218c1.945313 1.898438 4.46875 2.851563 6.992188 2.851563s5.046875-.949219 6.988281-2.851563l15.9375-15.574218 56.015625 54.746094v10.019531h-168.125zm-21.023437 84.761718h122.890624v32.511719h-122.890624zm234.632812 126.710938h-51.445312v-74.199219h51.445312zm167.15625-94.199219h-258.898438v-32.511719h182.464844c5.523438 0 10-4.476562 10-10 0-5.519531-4.476562-10-10-10h-182.464844v-152.816406c0-24.496094-10.871093-46.503906-28.042968-61.445312h145.046875v12.664062c-19.058594 4.523438-33.277344 21.6875-33.277344 42.109375 0 23.863281 19.414063 43.277344 43.277344 43.277344s43.277343-19.414063 43.277343-43.277344c0-20.421875-14.21875-37.585937-33.277343-42.109375v-12.664062h60.449219c33.882812 0 61.445312 27.5625 61.445312 61.445312zm-131.894531-208.988281c5.523437 0 10-4.476562 10-10v-14.03125c7.84375 3.75 13.277343 11.761719 13.277343 21.019531 0 12.835938-10.445312 23.277344-23.277343 23.277344-12.835938 0-23.277344-10.441406-23.277344-23.277344 0-9.257812 5.433594-17.269531 13.277344-21.019531v14.03125c0 5.523438 4.476562 10 10 10zm0 0"/></svg>