<?xml version="1.0" encoding="iso-8859-1"?>
<!-- Generator: Adobe Illustrator 19.0.0, SVG Export Plug-In . SVG Version: 6.00 Build 0)  -->
<svg version="1.1" id="Layer_1" xmlns="http://www.w3.org/2000/svg" xmlns:xlink="http://www.w3.org/1999/xlink" x="0px" y="0px"
	 viewBox="0 0 512 512" style="enable-background:new 0 0 512 512;" xml:space="preserve">
<rect x="171.316" y="150.143" style="fill:#FFE6B8;" width="330.485" height="211.715"/>
<g>
	<path style="fill:#4D3D36;" d="M501.801,139.942H171.312c-5.633,0-10.199,4.566-10.199,10.199v19.235h-97.21
		c-5.633,0-10.199,4.566-10.199,10.199c0,5.633,4.566,10.199,10.199,10.199h97.21v132.452h-58.101
		c-5.633,0-10.199,4.566-10.199,10.199s4.566,10.199,10.199,10.199h58.101v19.235c0,5.633,4.566,10.199,10.199,10.199h330.489
		c5.633,0,10.199-4.566,10.199-10.199V150.141C512,144.508,507.434,139.942,501.801,139.942z M476.641,160.34l-140.07,114.985
		L197.14,160.34H476.641z M181.511,351.661v-177.77l148.557,122.51c1.884,1.553,4.186,2.331,6.489,2.331
		c2.295,0,4.591-0.772,6.471-2.316L491.602,174.45v177.211H181.511z"/>
	<path style="fill:#4D3D36;" d="M129.873,254.967c0-5.633-4.566-10.199-10.199-10.199H10.199C4.566,244.768,0,249.334,0,254.967
		s4.566,10.199,10.199,10.199h109.474C125.306,265.167,129.873,260.6,129.873,254.967z"/>
	<path style="fill:#4D3D36;" d="M69.355,322.227h-5.451c-5.633,0-10.199,4.566-10.199,10.199s4.566,10.199,10.199,10.199h5.451
		c5.633,0,10.199-4.566,10.199-10.199S74.988,322.227,69.355,322.227z"/>
</g>
<g>
</g>
<g>
</g>
<g>
</g>
<g>
</g>
<g>
</g>
<g>
</g>
<g>
</g>
<g>
</g>
<g>
</g>
<g>
</g>
<g>
</g>
<g>
</g>
<g>
</g>
<g>
</g>
<g>
</g>
</svg>
