<?xml version="1.0" encoding="UTF-8" ?>
<!DOCTYPE svg PUBLIC "-//W3C//DTD SVG 1.1//EN" "http://www.w3.org/Graphics/SVG/1.1/DTD/svg11.dtd">
<svg width="512pt" height="512pt" viewBox="0 0 512 512" version="1.1" xmlns="http://www.w3.org/2000/svg">
<g id="#fcfcfcff">
<path fill="#fcfcfc" opacity="1.00" d=" M 196.97 7.07 C 231.66 -1.13 268.06 -1.99 303.10 4.56 C 371.55 16.91 433.82 59.01 471.25 117.57 C 497.70 158.28 511.88 206.70 512.00 255.22 L 512.00 258.70 C 511.48 301.65 500.17 344.47 478.87 381.81 C 458.63 417.67 429.55 448.50 394.94 470.81 C 359.22 494.09 317.51 508.02 274.99 511.07 C 223.95 514.97 171.78 503.15 127.57 477.29 C 71.09 444.74 27.95 389.82 10.08 327.09 C 3.56 304.90 0.39 281.80 0.00 258.70 L 0.00 253.24 C 0.52 201.56 17.07 150.17 47.15 108.11 C 82.67 57.79 136.93 20.99 196.97 7.07 M 317.11 122.71 C 317.17 130.87 317.12 139.04 317.14 147.21 C 321.18 147.21 325.22 147.21 329.26 147.21 C 329.28 139.04 329.27 130.87 329.27 122.70 C 325.22 122.69 321.16 122.69 317.11 122.71 M 276.09 139.19 C 282.16 145.33 288.34 151.38 294.38 157.56 C 297.28 154.69 300.15 151.80 303.06 148.96 C 296.98 142.83 290.81 136.79 284.79 130.61 C 281.86 133.44 279.00 136.34 276.09 139.19 M 343.20 148.97 C 346.14 151.82 349.02 154.72 351.90 157.62 C 357.79 151.33 364.27 145.59 369.99 139.16 C 367.35 136.21 364.36 133.59 361.68 130.67 C 355.34 136.59 349.39 142.90 343.20 148.97 M 73.02 134.92 C 72.99 139.02 73.00 143.11 73.01 147.21 C 103.47 147.21 133.94 147.21 164.40 147.21 C 164.41 143.12 164.41 139.02 164.40 134.93 C 133.94 134.91 103.48 134.92 73.02 134.92 M 91.20 159.39 C 91.21 163.46 91.21 167.54 91.20 171.61 C 97.30 171.57 103.41 171.61 109.51 171.58 C 109.47 167.53 109.47 163.49 109.53 159.44 C 103.42 159.36 97.31 159.42 91.20 159.39 M 127.72 159.46 C 127.77 163.48 127.77 167.49 127.71 171.51 C 146.05 171.71 164.39 171.51 182.73 171.61 C 182.72 167.54 182.71 163.46 182.74 159.38 C 164.40 159.46 146.06 159.31 127.72 159.46 M 307.06 169.05 C 304.56 173.53 304.74 178.83 304.80 183.79 C 231.88 183.77 158.97 183.81 86.05 183.78 C 82.81 183.89 79.41 183.34 76.30 184.50 C 73.78 185.57 72.80 188.42 73.01 190.98 C 72.99 245.33 73.01 299.68 73.00 354.03 C 73.01 356.70 72.87 359.38 73.17 362.05 C 73.49 364.80 76.23 366.90 78.95 366.80 C 93.37 367.12 107.82 366.49 122.24 367.12 C 124.60 380.83 135.52 392.45 148.94 395.97 C 160.62 399.49 173.81 395.87 182.80 387.83 C 189.04 382.40 192.73 374.73 194.65 366.80 C 238.78 366.94 282.91 366.85 327.04 366.85 C 327.69 366.93 328.98 367.09 329.63 367.17 C 330.80 370.45 331.43 373.92 333.10 377.01 C 337.73 385.84 345.86 392.89 355.50 395.66 C 364.74 398.81 375.14 397.28 383.61 392.63 C 393.14 387.40 400.03 377.77 401.95 367.07 C 412.62 366.46 423.32 367.27 433.99 366.72 C 437.26 366.51 439.36 363.11 439.03 360.03 C 439.11 345.01 439.00 329.99 439.08 314.97 C 439.04 312.25 439.20 309.02 436.75 307.22 C 427.60 299.65 418.23 292.36 408.99 284.91 C 408.00 284.14 407.34 283.05 406.93 281.89 C 396.19 253.35 385.45 224.81 374.68 196.28 C 372.49 189.91 366.74 184.89 360.00 184.01 C 353.84 183.40 347.63 183.88 341.45 183.75 C 341.44 180.23 341.71 176.64 340.89 173.17 C 339.06 165.93 332.43 160.12 324.93 159.53 C 317.77 158.73 310.38 162.66 307.06 169.05 Z" />
<path fill="#fcfcfc" opacity="1.00" d=" M 319.15 173.15 C 322.01 170.38 327.27 171.64 328.71 175.29 C 329.67 178.01 329.20 180.96 329.33 183.78 C 325.25 183.79 321.17 183.79 317.09 183.80 C 317.37 180.26 316.11 175.80 319.15 173.15 Z" />
<path fill="#fcfcfc" opacity="1.00" d=" M 85.18 196.16 C 88.46 195.72 91.77 195.92 95.07 195.90 C 181.70 195.97 268.33 195.91 354.96 195.92 C 357.58 195.99 360.87 196.04 362.36 198.64 C 364.07 201.67 365.00 205.07 366.32 208.28 C 354.95 208.30 343.58 208.17 332.22 208.34 C 324.12 208.50 316.99 215.89 317.16 224.00 C 317.12 242.00 317.12 260.01 317.16 278.02 C 317.02 286.77 325.28 294.21 333.93 293.67 C 356.00 293.65 378.08 293.71 400.15 293.64 C 409.10 300.72 418.03 307.82 426.94 314.95 C 426.85 320.08 426.87 325.21 426.93 330.35 C 420.81 330.38 414.70 330.30 408.59 330.40 C 408.65 334.43 408.65 338.46 408.59 342.49 C 414.74 342.56 420.88 342.47 427.03 342.56 C 426.84 346.60 426.86 350.65 426.93 354.70 C 418.62 354.73 410.31 354.72 402.00 354.70 C 399.98 343.54 392.54 333.58 382.41 328.49 C 373.41 323.81 362.48 323.16 353.01 326.85 C 341.03 331.18 332.10 342.22 329.82 354.69 C 284.70 354.74 239.57 354.71 194.45 354.71 C 191.48 336.94 174.08 323.12 156.08 324.52 C 139.65 325.35 125.00 338.42 122.28 354.65 C 109.88 354.79 97.47 354.70 85.06 354.69 C 85.13 350.65 85.16 346.60 84.97 342.56 C 95.18 342.46 105.38 342.55 115.59 342.51 C 115.53 338.46 115.53 334.41 115.58 330.36 C 105.41 330.33 95.24 330.37 85.07 330.34 C 85.08 318.13 85.25 305.91 84.99 293.70 C 158.27 293.63 231.55 293.70 304.83 293.66 C 304.77 289.62 304.76 285.58 304.85 281.54 C 231.60 281.49 158.36 281.49 85.11 281.54 C 85.16 253.08 85.02 224.62 85.18 196.16 M 133.88 208.25 C 133.80 214.34 133.85 220.44 133.86 226.53 C 128.98 222.84 124.09 219.17 119.16 215.54 C 116.84 218.83 114.43 222.06 111.92 225.21 C 117.81 229.86 123.95 234.17 129.84 238.81 C 123.83 243.18 117.95 247.75 111.92 252.11 C 114.35 255.37 116.81 258.62 119.21 261.92 C 124.10 258.29 128.97 254.63 133.84 250.97 C 133.86 257.08 133.83 263.18 133.85 269.29 C 137.95 269.30 142.06 269.30 146.17 269.29 C 146.21 263.18 146.10 257.07 146.24 250.97 C 151.04 254.69 155.94 258.27 160.80 261.91 C 163.22 258.63 165.66 255.37 168.10 252.11 C 162.08 247.77 156.24 243.18 150.21 238.84 C 156.05 234.14 162.21 229.86 168.09 225.22 C 165.58 222.02 163.19 218.72 160.66 215.53 C 155.93 219.33 150.96 222.83 146.15 226.53 C 146.17 220.44 146.22 214.35 146.13 208.26 C 142.05 208.27 137.96 208.27 133.88 208.25 M 256.35 208.46 C 249.68 209.27 244.15 215.30 243.87 222.01 C 243.59 230.67 243.87 239.34 243.75 248.01 C 243.81 252.51 243.26 257.36 245.56 261.46 C 248.06 266.37 253.55 269.33 258.99 269.28 C 268.01 269.36 277.02 269.24 286.03 269.32 C 289.64 269.34 293.45 269.37 296.72 267.63 C 301.73 265.14 305.05 259.66 304.77 254.05 C 304.75 243.38 304.87 232.70 304.72 222.03 C 304.55 214.44 297.49 208.00 289.94 208.29 C 278.75 208.36 267.53 208.02 256.35 208.46 M 201.09 330.34 C 201.10 334.41 201.10 338.48 201.10 342.55 C 241.81 342.43 282.52 342.62 323.23 342.46 C 323.19 338.41 323.20 334.37 323.13 330.33 C 282.45 330.37 241.77 330.35 201.09 330.34 Z" />
<path fill="#fcfcfc" opacity="1.00" d=" M 257.46 220.68 C 267.63 220.07 277.87 220.63 288.07 220.41 C 289.62 220.48 292.36 220.17 292.49 222.40 C 292.79 232.60 292.51 242.82 292.62 253.03 C 292.80 254.80 292.33 257.16 290.03 257.01 C 280.04 257.33 270.03 257.05 260.03 257.14 C 258.04 257.37 255.70 256.46 256.00 254.08 C 255.77 244.41 255.95 234.72 255.88 225.04 C 256.03 223.62 255.74 221.20 257.46 220.68 Z" />
<path fill="#fcfcfc" opacity="1.00" d=" M 329.28 225.01 C 328.97 222.71 330.69 220.33 333.13 220.49 C 345.68 220.31 358.23 220.52 370.78 220.40 C 378.58 240.73 386.04 261.18 393.81 281.52 C 373.55 281.45 353.29 281.61 333.04 281.44 C 329.54 281.53 328.90 277.63 329.24 274.96 C 329.32 258.31 329.23 241.65 329.28 225.01 Z" />
<path fill="#fcfcfc" opacity="1.00" d=" M 152.28 337.25 C 164.92 333.62 179.17 342.25 182.00 355.04 C 185.29 367.14 177.47 380.69 165.48 384.14 C 157.92 386.47 149.26 384.88 143.12 379.86 C 136.33 374.54 132.79 365.41 134.30 356.91 C 135.67 347.55 143.10 339.48 152.28 337.25 M 152.21 354.71 C 152.25 358.76 152.24 362.80 152.21 366.84 C 156.28 366.85 160.34 366.84 164.41 366.86 C 164.41 362.80 164.41 358.75 164.42 354.70 C 160.35 354.72 156.28 354.71 152.21 354.71 Z" />
<path fill="#fcfcfc" opacity="1.00" d=" M 360.15 337.18 C 372.76 333.73 386.84 342.44 389.59 355.17 C 393.16 368.27 383.47 382.91 370.05 384.82 C 357.63 387.35 344.49 378.37 342.07 365.99 C 339.02 353.56 347.66 339.86 360.15 337.18 M 359.77 354.70 C 359.77 358.75 359.77 362.80 359.77 366.86 C 363.82 366.84 367.87 366.85 371.92 366.84 C 371.88 362.80 371.88 358.76 371.92 354.72 C 367.87 354.71 363.82 354.72 359.77 354.70 Z" />
</g>
<g id="#ff4f2aff">
<path fill="#ff4f2a" opacity="1.00" d=" M 317.11 122.71 C 321.16 122.69 325.22 122.69 329.27 122.70 C 329.27 130.87 329.28 139.04 329.26 147.21 C 325.22 147.21 321.18 147.21 317.14 147.21 C 317.12 139.04 317.17 130.87 317.11 122.71 Z" />
<path fill="#ff4f2a" opacity="1.00" d=" M 276.09 139.19 C 279.00 136.34 281.86 133.44 284.79 130.61 C 290.81 136.79 296.98 142.83 303.06 148.96 C 300.15 151.80 297.28 154.69 294.38 157.56 C 288.34 151.38 282.16 145.33 276.09 139.19 Z" />
<path fill="#ff4f2a" opacity="1.00" d=" M 343.20 148.97 C 349.39 142.90 355.34 136.59 361.68 130.67 C 364.36 133.59 367.35 136.21 369.99 139.16 C 364.27 145.59 357.79 151.33 351.90 157.62 C 349.02 154.72 346.14 151.82 343.20 148.97 Z" />
<path fill="#ff4f2a" opacity="1.00" d=" M 73.02 134.92 C 103.48 134.92 133.94 134.91 164.40 134.93 C 164.41 139.02 164.41 143.12 164.40 147.21 C 133.94 147.21 103.47 147.21 73.01 147.21 C 73.00 143.11 72.99 139.02 73.02 134.92 Z" />
<path fill="#ff4f2a" opacity="1.00" d=" M 91.20 159.39 C 97.31 159.42 103.42 159.36 109.53 159.44 C 109.47 163.49 109.47 167.53 109.51 171.58 C 103.41 171.61 97.30 171.57 91.20 171.61 C 91.21 167.54 91.21 163.46 91.20 159.39 Z" />
<path fill="#ff4f2a" opacity="1.00" d=" M 127.72 159.46 C 146.06 159.31 164.40 159.46 182.74 159.38 C 182.71 163.46 182.72 167.54 182.73 171.61 C 164.39 171.51 146.05 171.71 127.71 171.51 C 127.77 167.49 127.77 163.48 127.72 159.46 Z" />
<path fill="#ff4f2a" opacity="1.00" d=" M 307.06 169.05 C 310.38 162.66 317.77 158.73 324.93 159.53 C 332.43 160.12 339.06 165.93 340.89 173.17 C 341.71 176.64 341.44 180.23 341.45 183.75 C 347.63 183.88 353.84 183.40 360.00 184.01 C 366.74 184.89 372.49 189.91 374.68 196.28 C 385.45 224.81 396.19 253.35 406.93 281.89 C 407.34 283.05 408.00 284.14 408.99 284.91 C 418.23 292.36 427.60 299.65 436.75 307.22 C 439.20 309.02 439.04 312.25 439.08 314.97 C 439.00 329.99 439.11 345.01 439.03 360.03 C 439.36 363.11 437.26 366.51 433.99 366.72 C 423.32 367.27 412.62 366.46 401.95 367.07 C 400.03 377.77 393.14 387.40 383.61 392.63 C 375.14 397.28 364.74 398.81 355.50 395.66 C 345.86 392.89 337.73 385.84 333.10 377.01 C 331.43 373.92 330.80 370.45 329.63 367.17 C 328.98 367.09 327.69 366.93 327.04 366.85 C 282.91 366.85 238.78 366.94 194.65 366.80 C 192.73 374.73 189.04 382.40 182.80 387.83 C 173.81 395.87 160.62 399.49 148.94 395.97 C 135.52 392.45 124.60 380.83 122.24 367.12 C 107.82 366.49 93.37 367.12 78.95 366.80 C 76.23 366.90 73.49 364.80 73.17 362.05 C 72.87 359.38 73.01 356.70 73.00 354.03 C 73.01 299.68 72.99 245.33 73.01 190.98 C 72.80 188.42 73.78 185.57 76.30 184.50 C 79.41 183.34 82.81 183.89 86.05 183.78 C 158.97 183.81 231.88 183.77 304.80 183.79 C 304.74 178.83 304.56 173.53 307.06 169.05 M 319.15 173.15 C 316.11 175.80 317.37 180.26 317.09 183.80 C 321.17 183.79 325.25 183.79 329.33 183.78 C 329.20 180.96 329.67 178.01 328.71 175.29 C 327.27 171.64 322.01 170.38 319.15 173.15 M 85.18 196.16 C 85.02 224.62 85.16 253.08 85.11 281.54 C 158.36 281.49 231.60 281.49 304.85 281.54 C 304.76 285.58 304.77 289.62 304.83 293.66 C 231.55 293.70 158.27 293.63 84.99 293.70 C 85.25 305.91 85.08 318.13 85.07 330.34 C 95.24 330.37 105.41 330.33 115.58 330.36 C 115.53 334.41 115.53 338.46 115.59 342.51 C 105.38 342.55 95.18 342.46 84.97 342.56 C 85.16 346.60 85.13 350.65 85.06 354.69 C 97.47 354.70 109.88 354.79 122.28 354.65 C 125.00 338.42 139.65 325.35 156.08 324.52 C 174.08 323.12 191.48 336.94 194.45 354.71 C 239.57 354.71 284.70 354.74 329.82 354.69 C 332.10 342.22 341.03 331.18 353.01 326.85 C 362.48 323.16 373.41 323.81 382.41 328.49 C 392.54 333.58 399.98 343.54 402.00 354.70 C 410.31 354.72 418.62 354.73 426.93 354.70 C 426.86 350.65 426.84 346.60 427.03 342.56 C 420.88 342.47 414.74 342.56 408.59 342.49 C 408.65 338.46 408.65 334.43 408.59 330.40 C 414.70 330.30 420.81 330.38 426.93 330.35 C 426.87 325.21 426.85 320.08 426.94 314.95 C 418.03 307.82 409.10 300.72 400.15 293.64 C 378.08 293.71 356.00 293.65 333.93 293.67 C 325.28 294.21 317.02 286.77 317.16 278.02 C 317.12 260.01 317.12 242.00 317.16 224.00 C 316.99 215.89 324.12 208.50 332.22 208.34 C 343.58 208.17 354.95 208.30 366.32 208.28 C 365.00 205.07 364.07 201.67 362.36 198.64 C 360.87 196.04 357.58 195.99 354.96 195.92 C 268.33 195.91 181.70 195.97 95.07 195.90 C 91.77 195.92 88.46 195.72 85.18 196.16 M 329.28 225.01 C 329.23 241.65 329.32 258.31 329.24 274.96 C 328.90 277.63 329.54 281.53 333.04 281.44 C 353.29 281.61 373.55 281.45 393.81 281.52 C 386.04 261.18 378.58 240.73 370.78 220.40 C 358.23 220.52 345.68 220.31 333.13 220.49 C 330.69 220.33 328.97 222.71 329.28 225.01 M 152.28 337.25 C 143.10 339.48 135.67 347.55 134.30 356.91 C 132.79 365.41 136.33 374.54 143.12 379.86 C 149.26 384.88 157.92 386.47 165.48 384.14 C 177.47 380.69 185.29 367.14 182.00 355.04 C 179.17 342.25 164.92 333.62 152.28 337.25 M 360.15 337.18 C 347.66 339.86 339.02 353.56 342.07 365.99 C 344.49 378.37 357.63 387.35 370.05 384.82 C 383.47 382.91 393.16 368.27 389.59 355.17 C 386.84 342.44 372.76 333.73 360.15 337.18 Z" />
<path fill="#ff4f2a" opacity="1.00" d=" M 133.88 208.25 C 137.96 208.27 142.05 208.27 146.13 208.26 C 146.22 214.35 146.17 220.44 146.15 226.53 C 150.96 222.83 155.93 219.33 160.66 215.53 C 163.19 218.72 165.58 222.02 168.09 225.22 C 162.21 229.86 156.05 234.14 150.21 238.84 C 156.24 243.18 162.08 247.77 168.10 252.11 C 165.66 255.37 163.22 258.63 160.80 261.91 C 155.94 258.27 151.04 254.69 146.24 250.97 C 146.10 257.07 146.21 263.18 146.17 269.29 C 142.06 269.30 137.95 269.30 133.85 269.29 C 133.83 263.18 133.86 257.08 133.84 250.97 C 128.97 254.63 124.10 258.29 119.21 261.92 C 116.81 258.62 114.35 255.37 111.92 252.11 C 117.95 247.75 123.83 243.18 129.84 238.81 C 123.95 234.17 117.81 229.86 111.92 225.21 C 114.43 222.06 116.84 218.83 119.16 215.54 C 124.09 219.17 128.98 222.84 133.86 226.53 C 133.85 220.44 133.80 214.34 133.88 208.25 Z" />
<path fill="#ff4f2a" opacity="1.00" d=" M 256.35 208.46 C 267.53 208.02 278.75 208.36 289.94 208.29 C 297.49 208.00 304.55 214.44 304.72 222.03 C 304.87 232.70 304.75 243.38 304.77 254.05 C 305.05 259.66 301.73 265.14 296.72 267.63 C 293.45 269.37 289.64 269.34 286.03 269.32 C 277.02 269.24 268.01 269.36 258.99 269.28 C 253.55 269.33 248.06 266.37 245.56 261.46 C 243.26 257.36 243.81 252.51 243.75 248.01 C 243.87 239.34 243.59 230.67 243.87 222.01 C 244.15 215.30 249.68 209.27 256.35 208.46 M 257.46 220.68 C 255.74 221.20 256.03 223.62 255.88 225.04 C 255.95 234.72 255.77 244.41 256.00 254.08 C 255.70 256.46 258.04 257.37 260.03 257.14 C 270.03 257.05 280.04 257.33 290.03 257.01 C 292.33 257.16 292.80 254.80 292.62 253.03 C 292.51 242.82 292.79 232.60 292.49 222.40 C 292.36 220.17 289.62 220.48 288.07 220.41 C 277.87 220.63 267.63 220.07 257.46 220.68 Z" />
<path fill="#ff4f2a" opacity="1.00" d=" M 201.09 330.34 C 241.77 330.35 282.45 330.37 323.13 330.33 C 323.20 334.37 323.19 338.41 323.23 342.46 C 282.52 342.62 241.81 342.43 201.10 342.55 C 201.10 338.48 201.10 334.41 201.09 330.34 Z" />
<path fill="#ff4f2a" opacity="1.00" d=" M 152.21 354.71 C 156.28 354.71 160.35 354.72 164.42 354.70 C 164.41 358.75 164.41 362.80 164.41 366.86 C 160.34 366.84 156.28 366.85 152.21 366.84 C 152.24 362.80 152.25 358.76 152.21 354.71 Z" />
<path fill="#ff4f2a" opacity="1.00" d=" M 359.77 354.70 C 363.82 354.72 367.87 354.71 371.92 354.72 C 371.88 358.76 371.88 362.80 371.92 366.84 C 367.87 366.85 363.82 366.84 359.77 366.86 C 359.77 362.80 359.77 358.75 359.77 354.70 Z" />
</g>
</svg>
