<?xml version="1.0" encoding="UTF-8" ?>
<!DOCTYPE svg PUBLIC "-//W3C//DTD SVG 1.1//EN" "http://www.w3.org/Graphics/SVG/1.1/DTD/svg11.dtd">
<svg width="958pt" height="786pt" viewBox="0 0 958 786" version="1.1" xmlns="http://www.w3.org/2000/svg">
<g id="#fcfcfcff">
<path fill="#fcfcfc" opacity="1.00" d=" M 469.58 22.82 C 512.61 19.84 556.40 27.88 595.45 46.25 C 628.95 61.93 659.00 84.96 682.81 113.27 C 709.41 144.74 728.24 182.75 737.03 223.02 C 746.75 267.39 744.50 314.36 730.32 357.53 C 718.27 394.51 697.53 428.58 670.39 456.43 C 644.50 482.98 612.83 503.90 578.16 517.07 C 531.70 534.84 480.02 538.52 431.48 527.73 C 393.49 519.43 357.55 502.12 327.22 477.82 C 298.44 454.89 274.71 425.65 258.22 392.76 C 227.65 332.68 222.67 260.30 244.33 196.51 C 260.18 149.06 290.45 106.56 330.03 75.98 C 369.85 44.84 419.13 26.05 469.58 22.82 M 548.12 144.70 C 548.16 152.87 548.13 161.04 548.14 169.21 C 552.18 169.21 556.22 169.21 560.27 169.21 C 560.28 161.04 560.27 152.87 560.27 144.70 C 556.22 144.70 552.17 144.69 548.12 144.70 M 507.08 161.19 C 513.15 167.33 519.34 173.36 525.36 179.55 C 528.28 176.70 531.16 173.80 534.07 170.93 C 527.94 164.84 521.81 158.75 515.75 152.60 C 512.86 155.46 509.99 158.35 507.08 161.19 M 574.20 170.97 C 577.13 173.82 580.02 176.72 582.90 179.62 C 588.92 173.41 595.10 167.36 601.19 161.22 C 598.28 158.39 595.41 155.52 592.58 152.61 C 586.43 158.70 580.34 164.86 574.20 170.97 M 304.02 156.92 C 303.99 161.02 304.00 165.11 304.01 169.21 C 334.47 169.21 364.94 169.21 395.40 169.21 C 395.41 165.12 395.41 161.02 395.41 156.92 C 364.94 156.91 334.48 156.92 304.02 156.92 M 322.19 181.39 C 322.21 185.47 322.21 189.54 322.20 193.61 C 328.30 193.58 334.40 193.58 340.50 193.60 C 340.48 189.53 340.48 185.46 340.50 181.39 C 334.40 181.40 328.29 181.40 322.19 181.39 M 358.73 181.45 C 358.76 185.49 358.76 189.52 358.74 193.56 C 377.07 193.64 395.40 193.55 413.74 193.61 C 413.71 189.53 413.71 185.46 413.74 181.38 C 395.40 181.45 377.06 181.32 358.73 181.45 M 539.23 189.16 C 535.66 193.92 535.66 200.12 535.79 205.80 C 461.19 205.77 386.59 205.82 312.00 205.77 C 309.57 205.77 306.72 206.04 305.20 208.20 C 303.84 209.82 304.08 212.07 303.99 214.04 C 304.02 267.70 303.99 321.36 304.00 375.02 C 304.03 378.03 303.84 381.05 304.17 384.05 C 304.49 386.86 307.32 388.93 310.08 388.81 C 324.45 389.10 338.84 388.50 353.21 389.11 C 355.63 402.81 366.48 414.45 379.92 417.97 C 397.09 423.16 416.93 412.96 423.25 396.28 C 424.74 394.09 423.93 389.53 426.84 388.91 C 470.92 388.82 515.01 388.86 559.09 388.89 C 561.06 388.44 561.02 390.86 561.56 392.07 C 565.79 409.41 584.37 421.78 602.00 418.89 C 617.32 416.89 630.35 404.28 632.96 389.07 C 638.95 388.69 644.96 388.88 650.96 388.87 C 656.10 388.85 661.37 389.76 666.41 388.40 C 668.97 387.41 670.20 384.67 670.02 382.05 C 670.11 367.03 670.00 352.00 670.08 336.97 C 670.03 334.27 670.20 331.05 667.77 329.26 C 659.96 322.72 651.89 316.49 643.97 310.09 C 641.81 308.22 638.91 306.80 637.95 303.93 C 627.20 275.40 616.47 246.86 605.71 218.34 C 603.43 211.64 597.19 206.45 590.07 205.89 C 584.21 205.51 578.33 205.83 572.46 205.76 C 572.47 202.81 572.59 199.85 572.23 196.93 C 571.17 189.26 564.64 182.73 556.98 181.66 C 550.27 180.54 543.09 183.56 539.23 189.16 Z" />
<path fill="#fcfcfc" opacity="1.00" d=" M 550.16 195.14 C 553.00 192.40 558.23 193.62 559.68 197.25 C 560.66 199.98 560.20 202.96 560.32 205.81 C 556.23 205.78 552.15 205.79 548.07 205.79 C 548.38 202.25 547.11 197.79 550.16 195.14 Z" />
<path fill="#fcfcfc" opacity="1.00" d=" M 316.14 217.92 C 380.45 217.90 444.75 217.92 509.06 217.91 C 535.40 218.08 561.76 217.70 588.10 218.02 C 594.62 217.99 595.16 225.76 597.32 230.29 C 585.94 230.30 574.57 230.16 563.20 230.34 C 555.09 230.52 547.99 237.91 548.16 246.02 C 548.08 263.01 548.19 280.00 548.11 296.99 C 546.73 306.35 554.38 315.84 564.00 315.65 C 586.39 315.69 608.78 315.69 631.18 315.64 C 640.10 322.73 649.02 329.82 657.93 336.92 C 657.86 342.07 657.88 347.22 657.90 352.36 C 651.81 352.34 645.71 352.35 639.62 352.35 C 639.64 356.41 639.64 360.46 639.61 364.52 C 645.72 364.52 651.82 364.52 657.93 364.51 C 657.88 368.57 657.88 372.64 657.92 376.70 C 649.62 376.72 641.31 376.73 633.01 376.70 C 630.97 365.55 623.55 355.58 613.42 350.50 C 604.39 345.79 593.41 345.16 583.92 348.88 C 571.98 353.23 563.11 364.26 560.81 376.70 C 515.69 376.74 470.57 376.71 425.46 376.71 C 423.75 367.90 418.93 359.73 411.78 354.27 C 402.04 346.56 388.28 344.23 376.66 348.77 C 364.60 353.07 355.55 364.14 353.24 376.68 C 340.85 376.75 328.46 376.72 316.07 376.69 C 316.13 372.65 316.15 368.60 315.99 364.56 C 326.19 364.46 336.39 364.54 346.59 364.51 C 346.53 360.46 346.53 356.41 346.58 352.36 C 336.41 352.34 326.24 352.36 316.08 352.35 C 316.09 340.13 316.22 327.91 316.01 315.69 C 389.28 315.63 462.56 315.72 535.84 315.65 C 535.76 311.61 535.76 307.57 535.84 303.53 C 462.59 303.49 389.34 303.50 316.10 303.52 C 316.15 274.99 316.06 246.45 316.14 217.92 M 487.31 230.47 C 480.30 231.31 474.72 237.92 474.81 244.94 C 474.74 255.62 474.70 266.31 474.82 276.99 C 474.89 284.53 481.51 291.08 489.02 291.22 C 499.67 291.38 510.33 291.30 520.98 291.26 C 528.63 291.38 535.77 284.80 535.74 277.05 C 535.80 266.04 535.84 255.03 535.72 244.03 C 535.54 236.44 528.51 230.02 520.97 230.29 C 509.76 230.37 498.52 230.00 487.31 230.47 M 364.84 230.27 C 364.84 236.36 364.84 242.45 364.86 248.54 C 360.01 244.83 355.08 241.22 350.22 237.52 C 347.84 240.80 345.41 244.05 342.91 247.24 C 348.84 251.83 354.93 256.20 360.85 260.80 C 354.83 265.19 348.94 269.74 342.91 274.12 C 345.35 277.36 347.80 280.61 350.17 283.91 C 355.11 280.32 359.96 276.60 364.87 272.98 C 364.83 279.08 364.84 285.19 364.84 291.29 C 368.95 291.30 373.06 291.30 377.18 291.29 C 377.17 285.18 377.19 279.08 377.14 272.98 C 382.04 276.61 386.91 280.28 391.81 283.91 C 394.22 280.63 396.66 277.37 399.10 274.11 C 393.07 269.76 387.20 265.19 381.19 260.80 C 387.09 256.19 393.18 251.83 399.10 247.24 C 396.60 244.03 394.18 240.75 391.69 237.53 C 386.92 241.31 381.97 244.83 377.14 248.53 C 377.19 242.45 377.17 236.37 377.18 230.29 C 373.06 230.25 368.95 230.26 364.84 230.27 M 432.06 352.36 C 432.12 356.42 432.11 360.48 432.08 364.53 C 472.80 364.46 513.51 364.59 554.23 364.47 C 554.18 360.43 554.20 356.38 554.15 352.34 C 513.45 352.38 472.76 352.33 432.06 352.36 Z" />
<path fill="#fcfcfc" opacity="1.00" d=" M 488.47 242.68 C 498.27 242.05 508.15 242.65 517.98 242.40 C 520.00 242.42 523.77 241.98 523.56 245.04 C 523.66 255.39 523.63 265.74 523.57 276.09 C 523.94 278.21 521.92 279.25 520.08 279.09 C 510.37 279.21 500.65 279.13 490.93 279.13 C 488.95 279.30 486.73 278.46 487.01 276.10 C 486.72 266.38 486.97 256.64 486.89 246.91 C 487.04 245.53 486.79 243.16 488.47 242.68 Z" />
<path fill="#fcfcfc" opacity="1.00" d=" M 560.28 246.94 C 559.98 244.64 561.75 242.32 564.16 242.50 C 576.71 242.32 589.26 242.50 601.82 242.42 C 609.56 262.75 617.04 283.19 624.82 303.51 C 604.90 303.49 584.97 303.53 565.06 303.50 C 562.40 303.90 559.88 301.75 560.28 299.01 C 560.26 281.65 560.26 264.29 560.28 246.94 Z" />
<path fill="#fcfcfc" opacity="1.00" d=" M 383.25 359.26 C 390.44 357.33 398.48 359.02 404.32 363.64 C 410.76 368.60 414.42 376.95 413.59 385.06 C 412.80 395.50 404.45 404.80 394.16 406.70 C 385.57 408.56 376.15 405.22 370.60 398.42 C 365.43 392.32 363.65 383.59 365.96 375.94 C 368.28 367.86 375.08 361.27 383.25 359.26 M 383.21 376.71 C 383.24 380.75 383.24 384.80 383.21 388.85 C 387.28 388.85 391.35 388.84 395.42 388.86 C 395.41 384.80 395.41 380.75 395.42 376.70 C 391.35 376.72 387.28 376.71 383.21 376.71 Z" />
<path fill="#fcfcfc" opacity="1.00" d=" M 591.20 359.17 C 603.81 355.75 617.86 364.47 620.60 377.19 C 624.16 390.31 614.43 404.95 600.99 406.83 C 588.58 409.32 575.49 400.35 573.07 387.99 C 570.01 375.54 578.69 361.83 591.20 359.17 M 590.77 376.70 C 590.77 380.75 590.77 384.80 590.77 388.86 C 594.82 388.84 598.87 388.85 602.93 388.84 C 602.88 384.79 602.88 380.75 602.92 376.71 C 598.87 376.71 594.82 376.72 590.77 376.70 Z" />
<path fill="#fcfcfc" opacity="1.00" d=" M 73.38 577.31 C 80.09 577.30 86.80 577.30 93.52 577.31 C 109.57 619.59 125.63 661.86 141.69 704.14 C 140.98 705.20 140.27 706.27 139.57 707.35 C 133.53 707.41 127.50 707.37 121.47 707.37 C 117.28 695.89 113.08 684.42 108.88 672.95 C 91.98 672.95 75.08 672.95 58.18 672.95 C 53.99 684.42 49.77 695.89 45.60 707.37 C 39.60 707.39 33.59 707.37 27.59 707.38 C 26.85 706.31 26.10 705.24 25.36 704.18 C 41.36 661.89 57.37 619.60 73.38 577.31 M 83.47 603.90 C 77.41 620.67 71.18 637.38 65.03 654.11 C 77.37 654.11 89.71 654.11 102.05 654.11 C 95.84 637.38 89.78 620.60 83.47 603.90 Z" />
<path fill="#fcfcfc" opacity="1.00" d=" M 345.61 579.69 C 346.39 578.88 347.18 578.09 347.97 577.30 C 352.94 577.30 357.92 577.30 362.89 577.30 C 363.70 578.10 364.50 578.90 365.32 579.72 C 365.13 593.90 365.71 608.09 364.96 622.26 C 371.86 615.39 381.22 610.95 391.00 610.62 C 404.30 609.74 417.76 615.50 426.36 625.67 C 435.82 636.62 439.52 651.65 438.20 665.88 C 437.16 680.05 430.22 694.06 418.44 702.29 C 408.22 709.66 394.68 711.99 382.53 708.81 C 375.71 707.00 369.61 703.11 364.61 698.21 C 364.63 700.47 364.63 702.75 364.64 705.03 C 363.84 705.81 363.04 706.59 362.25 707.39 C 357.49 707.37 352.72 707.38 347.96 707.38 C 347.18 706.59 346.40 705.81 345.62 705.04 C 345.61 663.25 345.63 621.47 345.61 579.69 M 385.39 629.64 C 378.83 631.37 373.08 635.75 369.57 641.54 C 364.82 649.08 363.84 658.43 365.13 667.10 C 366.39 675.42 370.95 683.45 378.17 687.96 C 384.38 691.98 392.42 693.07 399.43 690.64 C 407.65 687.93 413.94 680.91 416.74 672.84 C 421.05 660.20 418.72 644.58 408.49 635.40 C 402.34 629.86 393.43 627.45 385.39 629.64 Z" />
<path fill="#fcfcfc" opacity="1.00" d=" M 540.62 579.66 C 541.39 578.86 542.19 578.08 542.98 577.30 C 547.95 577.30 552.92 577.30 557.89 577.30 C 558.70 578.10 559.50 578.90 560.32 579.72 C 560.31 621.49 560.32 663.26 560.32 705.04 C 559.53 705.81 558.75 706.59 557.97 707.38 C 552.97 707.38 547.97 707.38 542.97 707.38 C 542.18 706.59 541.39 705.81 540.62 705.04 C 540.62 663.24 540.62 621.45 540.62 579.66 Z" />
<path fill="#fcfcfc" opacity="1.00" d=" M 165.88 622.68 C 172.94 615.37 182.78 610.77 192.99 610.59 C 206.50 609.90 220.04 616.08 228.46 626.63 C 238.49 638.89 241.51 655.73 238.82 671.09 C 236.69 683.72 229.65 695.70 218.91 702.86 C 208.59 709.92 195.11 712.00 183.10 708.60 C 176.73 706.80 171.04 703.10 166.26 698.58 C 167.07 713.29 166.42 728.04 166.64 742.77 C 165.83 743.57 165.03 744.37 164.23 745.19 C 159.35 745.13 154.47 745.30 149.60 745.13 C 148.62 744.53 147.80 743.73 146.93 743.01 C 146.94 700.58 146.94 658.15 146.93 615.72 C 147.72 614.92 148.50 614.14 149.29 613.36 C 154.09 613.37 158.89 613.35 163.70 613.38 C 166.86 615.53 165.74 619.43 165.88 622.68 M 186.48 629.69 C 179.94 631.48 174.23 635.92 170.75 641.73 C 166.10 649.24 165.15 658.52 166.42 667.12 C 167.71 675.57 172.41 683.73 179.84 688.18 C 186.25 692.20 194.52 693.08 201.58 690.33 C 209.60 687.38 215.60 680.31 218.22 672.31 C 222.28 659.73 219.86 644.32 209.67 635.29 C 203.47 629.77 194.52 627.43 186.48 629.69 Z" />
<path fill="#fcfcfc" opacity="1.00" d=" M 264.88 622.68 C 271.94 615.37 281.80 610.76 292.02 610.59 C 305.72 609.89 319.45 616.28 327.84 627.11 C 337.33 639.02 340.32 655.11 338.01 669.95 C 336.09 683.01 328.97 695.51 317.87 702.89 C 307.55 709.94 294.05 712.00 282.05 708.59 C 275.70 706.78 270.03 703.09 265.26 698.58 C 266.07 713.28 265.42 728.02 265.64 742.74 C 264.84 743.55 264.04 744.36 263.24 745.19 C 258.35 745.13 253.46 745.30 248.59 745.12 C 247.61 744.53 246.80 743.72 245.93 743.01 C 245.94 700.59 245.95 658.16 245.93 615.73 C 246.71 614.93 247.50 614.14 248.29 613.36 C 253.04 613.37 257.80 613.36 262.55 613.37 C 263.33 614.16 264.11 614.96 264.90 615.76 C 264.88 618.06 264.88 620.37 264.88 622.68 M 285.48 629.69 C 278.92 631.48 273.21 635.94 269.74 641.76 C 265.11 649.24 264.16 658.48 265.41 667.05 C 266.71 675.74 271.64 684.14 279.42 688.52 C 285.72 692.26 293.72 692.99 300.56 690.34 C 308.31 687.49 314.20 680.80 316.94 673.12 C 321.40 660.39 319.07 644.55 308.69 635.31 C 302.50 629.78 293.53 627.42 285.48 629.69 Z" />
<path fill="#fcfcfc" opacity="1.00" d=" M 597.43 611.67 C 606.16 609.90 615.34 610.25 623.93 612.64 C 632.90 615.20 641.00 621.21 645.37 629.54 C 648.57 635.47 649.73 642.27 649.69 648.95 C 649.69 667.29 649.72 685.64 649.68 703.98 C 649.80 705.48 648.19 706.28 647.45 707.40 C 642.66 707.36 637.87 707.38 633.08 707.38 C 632.29 706.59 631.51 705.80 630.74 705.03 C 630.74 702.87 630.74 700.71 630.78 698.57 C 625.33 703.94 618.53 708.16 610.91 709.52 C 599.16 711.58 586.11 708.98 577.16 700.75 C 566.22 690.86 564.38 672.72 572.66 660.63 C 577.83 653.30 586.28 648.92 594.85 646.91 C 606.80 644.35 619.45 645.47 630.86 649.80 C 630.85 644.33 629.48 638.52 625.23 634.76 C 614.31 624.69 594.61 627.37 586.56 639.83 C 585.43 640.02 584.30 640.22 583.19 640.43 C 578.85 637.17 574.50 633.93 570.18 630.65 C 576.01 620.76 586.26 613.96 597.43 611.67 M 598.86 663.89 C 591.93 665.71 586.51 672.61 587.68 679.92 C 588.40 687.78 596.74 692.29 603.97 692.24 C 617.64 693.04 630.12 681.21 630.80 667.66 C 621.17 662.41 609.44 661.01 598.86 663.89 Z" />
<path fill="#fcfcfc" opacity="1.00" d=" M 680.62 622.31 C 687.31 615.54 696.40 610.97 705.99 610.61 C 715.51 610.22 725.77 612.43 732.77 619.29 C 740.23 626.39 743.19 636.98 743.22 647.03 C 743.30 666.37 743.23 685.70 743.25 705.04 C 742.46 705.81 741.68 706.59 740.91 707.38 C 735.90 707.38 730.90 707.38 725.90 707.38 C 725.11 706.59 724.33 705.81 723.56 705.03 C 723.56 686.68 723.56 668.33 723.55 649.98 C 723.50 644.24 722.63 637.82 718.23 633.69 C 713.08 629.01 705.44 628.07 698.84 629.42 C 688.13 632.18 681.47 643.41 681.34 654.03 C 681.28 671.03 681.33 688.03 681.32 705.04 C 680.53 705.81 679.75 706.59 678.97 707.38 C 673.97 707.38 668.96 707.38 663.96 707.38 C 663.17 706.59 662.39 705.81 661.62 705.04 C 661.61 675.21 661.63 645.39 661.61 615.57 C 662.47 614.84 663.27 613.99 664.27 613.43 C 668.95 613.24 673.64 613.41 678.32 613.38 C 679.09 614.16 679.86 614.95 680.64 615.74 C 680.63 617.93 680.63 620.12 680.62 622.31 Z" />
<path fill="#fcfcfc" opacity="1.00" d=" M 759.58 630.55 C 766.82 619.65 779.06 612.38 792.03 610.95 C 803.55 609.65 815.96 611.52 825.44 618.59 C 832.39 623.54 837.31 630.91 840.03 638.94 C 835.24 640.91 830.48 642.98 825.67 644.91 C 824.22 645.84 822.76 644.67 821.36 644.28 C 819.08 638.86 815.25 633.86 809.80 631.37 C 800.57 627.02 788.79 628.24 781.11 635.15 C 770.04 644.65 767.77 661.58 773.17 674.67 C 777.21 684.50 787.06 692.14 797.94 691.93 C 807.17 692.16 816.76 687.43 820.83 678.88 C 821.49 676.94 823.08 675.85 824.97 675.25 C 830.19 677.46 835.41 679.64 840.63 681.84 C 836.16 694.30 825.78 704.59 812.97 708.21 C 799.71 711.93 784.70 710.57 772.98 703.05 C 762.05 696.27 754.55 684.65 752.06 672.11 C 749.27 658.01 751.40 642.57 759.58 630.55 Z" />
<path fill="#fcfcfc" opacity="1.00" d=" M 877.93 611.30 C 889.34 609.43 901.70 611.01 911.52 617.41 C 927.12 627.37 934.10 647.80 930.65 665.54 C 907.34 665.61 884.02 665.54 860.71 665.58 C 861.47 671.91 863.69 678.21 868.05 682.99 C 875.49 691.52 888.48 694.19 898.88 689.93 C 905.63 687.24 910.34 681.29 913.75 675.09 C 918.62 677.47 923.51 679.82 928.37 682.22 C 928.64 683.03 929.17 684.67 929.44 685.49 C 923.59 696.53 913.39 705.55 901.12 708.59 C 888.32 711.74 874.05 710.44 862.80 703.24 C 852.02 696.58 844.69 685.11 842.14 672.79 C 839.32 658.96 841.22 643.92 848.64 631.77 C 854.97 621.26 865.76 613.35 877.93 611.30 M 879.49 629.74 C 870.69 632.09 864.57 640.03 862.05 648.47 C 878.32 648.51 894.60 648.52 910.87 648.46 C 909.65 643.56 907.73 638.57 903.85 635.14 C 897.52 628.99 887.80 627.68 879.49 629.74 Z" />
<path fill="#fcfcfc" opacity="1.00" d=" M 448.27 612.88 C 453.26 612.86 458.26 612.88 463.26 612.86 C 464.05 613.64 464.84 614.43 465.64 615.23 C 465.62 632.47 465.65 649.71 465.62 666.95 C 465.53 673.79 465.98 681.67 471.26 686.71 C 478.82 693.56 491.59 692.77 498.94 685.96 C 505.76 680.09 508.52 670.73 507.88 661.95 C 507.87 646.36 507.86 630.77 507.89 615.18 C 508.65 614.41 509.42 613.65 510.19 612.88 C 515.20 612.86 520.21 612.88 525.22 612.87 C 526.00 613.65 526.78 614.44 527.58 615.24 C 527.56 645.06 527.58 674.87 527.57 704.69 C 526.68 705.38 525.95 706.32 524.93 706.81 C 520.22 707.02 515.50 706.81 510.79 706.89 C 507.75 704.83 508.58 701.19 508.59 698.05 C 501.86 704.88 492.62 709.34 482.97 709.65 C 473.45 710.00 463.20 707.71 456.27 700.77 C 448.65 693.35 445.96 682.33 445.95 672.00 C 445.92 653.06 445.94 634.12 445.95 615.19 C 446.72 614.41 447.49 613.64 448.27 612.88 Z" />
</g>
<g id="#ff4f2aff">
<path fill="#ff4f2a" opacity="1.00" d=" M 548.12 144.70 C 552.17 144.69 556.22 144.70 560.27 144.70 C 560.27 152.87 560.28 161.04 560.27 169.21 C 556.22 169.21 552.18 169.21 548.14 169.21 C 548.13 161.04 548.16 152.87 548.12 144.70 Z" />
<path fill="#ff4f2a" opacity="1.00" d=" M 507.08 161.19 C 509.99 158.35 512.86 155.46 515.75 152.60 C 521.81 158.75 527.94 164.84 534.07 170.93 C 531.16 173.80 528.28 176.70 525.36 179.55 C 519.34 173.36 513.15 167.33 507.08 161.19 Z" />
<path fill="#ff4f2a" opacity="1.00" d=" M 574.20 170.97 C 580.34 164.86 586.43 158.70 592.58 152.61 C 595.41 155.52 598.28 158.39 601.19 161.22 C 595.10 167.36 588.92 173.41 582.90 179.62 C 580.02 176.72 577.13 173.82 574.20 170.97 Z" />
<path fill="#ff4f2a" opacity="1.00" d=" M 304.02 156.92 C 334.48 156.92 364.94 156.91 395.41 156.92 C 395.41 161.02 395.41 165.12 395.40 169.21 C 364.94 169.21 334.47 169.21 304.01 169.21 C 304.00 165.11 303.99 161.02 304.02 156.92 Z" />
<path fill="#ff4f2a" opacity="1.00" d=" M 322.19 181.39 C 328.29 181.40 334.40 181.40 340.50 181.39 C 340.48 185.46 340.48 189.53 340.50 193.60 C 334.40 193.58 328.30 193.58 322.20 193.61 C 322.21 189.54 322.21 185.47 322.19 181.39 Z" />
<path fill="#ff4f2a" opacity="1.00" d=" M 358.73 181.45 C 377.06 181.32 395.40 181.45 413.74 181.38 C 413.71 185.46 413.71 189.53 413.74 193.61 C 395.40 193.55 377.07 193.64 358.74 193.56 C 358.76 189.52 358.76 185.49 358.73 181.45 Z" />
<path fill="#ff4f2a" opacity="1.00" d=" M 539.23 189.16 C 543.09 183.56 550.27 180.54 556.98 181.66 C 564.64 182.73 571.17 189.26 572.23 196.93 C 572.59 199.85 572.47 202.81 572.46 205.76 C 578.33 205.83 584.21 205.51 590.07 205.89 C 597.19 206.45 603.43 211.64 605.71 218.34 C 616.47 246.86 627.20 275.40 637.95 303.93 C 638.91 306.80 641.81 308.22 643.97 310.09 C 651.89 316.49 659.96 322.72 667.77 329.26 C 670.20 331.05 670.03 334.27 670.08 336.97 C 670.00 352.00 670.11 367.03 670.02 382.05 C 670.20 384.67 668.97 387.41 666.41 388.40 C 661.37 389.76 656.10 388.85 650.96 388.87 C 644.96 388.88 638.95 388.69 632.96 389.07 C 630.35 404.28 617.32 416.89 602.00 418.89 C 584.37 421.78 565.79 409.41 561.56 392.07 C 561.02 390.86 561.06 388.44 559.09 388.89 C 515.01 388.86 470.92 388.82 426.84 388.91 C 423.93 389.53 424.74 394.09 423.25 396.28 C 416.93 412.96 397.09 423.16 379.92 417.97 C 366.48 414.45 355.63 402.81 353.21 389.11 C 338.84 388.50 324.45 389.10 310.08 388.81 C 307.32 388.93 304.49 386.86 304.17 384.05 C 303.84 381.05 304.03 378.03 304.00 375.02 C 303.99 321.36 304.02 267.70 303.99 214.04 C 304.08 212.07 303.84 209.82 305.20 208.20 C 306.72 206.04 309.57 205.77 312.00 205.77 C 386.59 205.82 461.19 205.77 535.79 205.80 C 535.66 200.12 535.66 193.92 539.23 189.16 M 550.16 195.14 C 547.11 197.79 548.38 202.25 548.07 205.79 C 552.15 205.79 556.23 205.78 560.32 205.81 C 560.20 202.96 560.66 199.98 559.68 197.25 C 558.23 193.62 553.00 192.40 550.16 195.14 M 316.14 217.92 C 316.06 246.45 316.15 274.99 316.10 303.52 C 389.34 303.50 462.59 303.49 535.84 303.53 C 535.76 307.57 535.76 311.61 535.84 315.65 C 462.56 315.72 389.28 315.63 316.01 315.69 C 316.22 327.91 316.09 340.13 316.08 352.35 C 326.24 352.36 336.41 352.34 346.58 352.36 C 346.53 356.41 346.53 360.46 346.59 364.51 C 336.39 364.54 326.19 364.46 315.99 364.56 C 316.15 368.60 316.13 372.65 316.07 376.69 C 328.46 376.72 340.85 376.75 353.24 376.68 C 355.55 364.14 364.60 353.07 376.66 348.77 C 388.28 344.23 402.04 346.56 411.78 354.27 C 418.93 359.73 423.75 367.90 425.46 376.71 C 470.57 376.71 515.69 376.74 560.81 376.70 C 563.11 364.26 571.98 353.23 583.92 348.88 C 593.41 345.16 604.39 345.79 613.42 350.50 C 623.55 355.58 630.97 365.55 633.01 376.70 C 641.31 376.73 649.62 376.72 657.92 376.70 C 657.88 372.64 657.88 368.57 657.93 364.51 C 651.82 364.52 645.72 364.52 639.61 364.52 C 639.64 360.46 639.64 356.41 639.62 352.35 C 645.71 352.35 651.81 352.34 657.90 352.36 C 657.88 347.22 657.86 342.07 657.93 336.92 C 649.02 329.82 640.10 322.73 631.18 315.64 C 608.78 315.69 586.39 315.69 564.00 315.65 C 554.38 315.84 546.73 306.35 548.11 296.99 C 548.19 280.00 548.08 263.01 548.16 246.02 C 547.99 237.91 555.09 230.52 563.20 230.34 C 574.57 230.16 585.94 230.30 597.32 230.29 C 595.16 225.76 594.62 217.99 588.10 218.02 C 561.76 217.70 535.40 218.08 509.06 217.91 C 444.75 217.92 380.45 217.90 316.14 217.92 M 560.28 246.94 C 560.26 264.29 560.26 281.65 560.28 299.01 C 559.88 301.75 562.40 303.90 565.06 303.50 C 584.97 303.53 604.90 303.49 624.82 303.51 C 617.04 283.19 609.56 262.75 601.82 242.42 C 589.26 242.50 576.71 242.32 564.16 242.50 C 561.75 242.32 559.98 244.64 560.28 246.94 M 383.25 359.26 C 375.08 361.27 368.28 367.86 365.96 375.94 C 363.65 383.59 365.43 392.32 370.60 398.42 C 376.15 405.22 385.57 408.56 394.16 406.70 C 404.45 404.80 412.80 395.50 413.59 385.06 C 414.42 376.95 410.76 368.60 404.32 363.64 C 398.48 359.02 390.44 357.33 383.25 359.26 M 591.20 359.17 C 578.69 361.83 570.01 375.54 573.07 387.99 C 575.49 400.35 588.58 409.32 600.99 406.83 C 614.43 404.95 624.16 390.31 620.60 377.19 C 617.86 364.47 603.81 355.75 591.20 359.17 Z" />
<path fill="#ff4f2a" opacity="1.00" d=" M 487.31 230.47 C 498.52 230.00 509.76 230.37 520.97 230.29 C 528.51 230.02 535.54 236.44 535.72 244.03 C 535.84 255.03 535.80 266.04 535.74 277.05 C 535.77 284.80 528.63 291.38 520.98 291.26 C 510.33 291.30 499.67 291.38 489.02 291.22 C 481.51 291.08 474.89 284.53 474.82 276.99 C 474.70 266.31 474.74 255.62 474.81 244.94 C 474.72 237.92 480.30 231.31 487.31 230.47 M 488.47 242.68 C 486.79 243.16 487.04 245.53 486.89 246.91 C 486.97 256.64 486.72 266.38 487.01 276.10 C 486.73 278.46 488.95 279.30 490.93 279.13 C 500.65 279.13 510.37 279.21 520.08 279.09 C 521.92 279.25 523.94 278.21 523.57 276.09 C 523.63 265.74 523.66 255.39 523.56 245.04 C 523.77 241.98 520.00 242.42 517.98 242.40 C 508.15 242.65 498.27 242.05 488.47 242.68 Z" />
<path fill="#ff4f2a" opacity="1.00" d=" M 364.84 230.27 C 368.95 230.26 373.06 230.25 377.18 230.29 C 377.17 236.37 377.19 242.45 377.14 248.53 C 381.97 244.83 386.92 241.31 391.69 237.53 C 394.18 240.75 396.60 244.03 399.10 247.24 C 393.18 251.83 387.09 256.19 381.19 260.80 C 387.20 265.19 393.07 269.76 399.10 274.11 C 396.66 277.37 394.22 280.63 391.81 283.91 C 386.91 280.28 382.04 276.61 377.14 272.98 C 377.19 279.08 377.17 285.18 377.18 291.29 C 373.06 291.30 368.95 291.30 364.84 291.29 C 364.84 285.19 364.83 279.08 364.87 272.98 C 359.96 276.60 355.11 280.32 350.17 283.91 C 347.80 280.61 345.35 277.36 342.91 274.12 C 348.94 269.74 354.83 265.19 360.85 260.80 C 354.93 256.20 348.84 251.83 342.91 247.24 C 345.41 244.05 347.84 240.80 350.22 237.52 C 355.08 241.22 360.01 244.83 364.86 248.54 C 364.84 242.45 364.84 236.36 364.84 230.27 Z" />
<path fill="#ff4f2a" opacity="1.00" d=" M 432.06 352.36 C 472.76 352.33 513.45 352.38 554.15 352.34 C 554.20 356.38 554.18 360.43 554.23 364.47 C 513.51 364.59 472.80 364.46 432.08 364.53 C 432.11 360.48 432.12 356.42 432.06 352.36 Z" />
<path fill="#ff4f2a" opacity="1.00" d=" M 383.21 376.71 C 387.28 376.71 391.35 376.72 395.42 376.70 C 395.41 380.75 395.41 384.80 395.42 388.86 C 391.35 388.84 387.28 388.85 383.21 388.85 C 383.24 384.80 383.24 380.75 383.21 376.71 Z" />
<path fill="#ff4f2a" opacity="1.00" d=" M 590.77 376.70 C 594.82 376.72 598.87 376.71 602.92 376.71 C 602.88 380.75 602.88 384.79 602.93 388.84 C 598.87 388.85 594.82 388.84 590.77 388.86 C 590.77 384.80 590.77 380.75 590.77 376.70 Z" />
</g>
</svg>
