<?xml version="1.0" encoding="UTF-8" ?>
<!DOCTYPE svg PUBLIC "-//W3C//DTD SVG 1.1//EN" "http://www.w3.org/Graphics/SVG/1.1/DTD/svg11.dtd">
<svg width="958pt" height="179pt" viewBox="0 0 958 179" version="1.1" xmlns="http://www.w3.org/2000/svg">
<g id="#ffffffff">
<path fill="#ffffff" opacity="1.00" d=" M 73.38 10.31 C 80.09 10.31 86.80 10.30 93.52 10.32 C 109.56 52.60 125.64 94.88 141.69 137.16 C 140.97 138.22 140.25 139.29 139.53 140.35 C 133.52 140.40 127.50 140.36 121.49 140.38 C 117.27 128.91 113.10 117.42 108.88 105.94 C 91.98 105.94 75.08 105.94 58.18 105.94 C 53.98 117.42 49.78 128.89 45.59 140.37 C 39.53 140.34 33.47 140.47 27.41 140.29 C 26.74 139.24 26.07 138.19 25.38 137.15 C 41.36 94.87 57.39 52.60 73.38 10.31 M 65.03 87.12 C 77.37 87.12 89.71 87.12 102.05 87.12 C 95.86 70.38 89.77 53.60 83.49 36.90 C 77.39 53.66 71.18 70.38 65.03 87.12 Z" />
<path fill="#ffffff" opacity="1.00" d=" M 345.60 12.66 C 346.67 11.80 347.48 10.11 349.09 10.31 C 353.67 10.27 358.26 10.35 362.84 10.29 C 363.67 11.10 364.49 11.91 365.32 12.73 C 365.12 26.92 365.72 41.14 364.96 55.31 C 371.83 48.35 381.29 43.95 391.11 43.62 C 403.18 42.88 415.42 47.51 423.95 56.09 C 434.15 66.18 438.92 80.85 438.41 95.02 C 438.24 108.66 432.96 122.50 422.78 131.79 C 414.05 139.92 401.88 144.06 390.01 143.06 C 380.41 142.48 371.29 137.98 364.60 131.15 C 364.62 133.42 364.63 135.71 364.64 137.99 C 363.85 138.79 363.06 139.58 362.27 140.38 C 357.50 140.37 352.74 140.38 347.97 140.38 C 347.18 139.59 346.40 138.81 345.62 138.03 C 345.61 96.24 345.66 54.45 345.60 12.66 M 385.48 62.61 C 379.10 64.28 373.44 68.44 369.91 74.01 C 364.87 81.63 363.79 91.26 365.13 100.14 C 366.44 108.81 371.38 117.17 379.14 121.55 C 385.66 125.41 394.00 126.02 400.99 123.05 C 408.78 119.92 414.52 112.86 417.04 104.97 C 420.91 92.53 418.51 77.43 408.55 68.45 C 402.43 62.89 393.52 60.45 385.48 62.61 Z" />
<path fill="#ffffff" opacity="1.00" d=" M 540.60 12.67 C 541.67 11.80 542.48 10.10 544.11 10.31 C 548.69 10.27 553.27 10.35 557.86 10.30 C 558.68 11.11 559.50 11.92 560.32 12.74 C 560.30 54.50 560.32 96.27 560.32 138.03 C 559.52 138.81 558.74 139.59 557.96 140.38 C 552.96 140.37 547.97 140.37 542.97 140.38 C 542.18 139.59 541.40 138.81 540.62 138.03 C 540.61 96.24 540.66 54.45 540.60 12.67 Z" />
<path fill="#ffffff" opacity="1.00" d=" M 165.86 55.74 C 173.11 48.12 183.43 43.52 193.98 43.57 C 207.84 43.15 221.53 50.02 229.67 61.20 C 239.25 74.01 241.66 91.14 238.34 106.55 C 235.31 120.68 225.81 133.59 212.44 139.46 C 197.30 146.39 177.99 143.67 166.26 131.53 C 167.06 146.25 166.41 161.01 166.64 175.75 C 165.82 176.57 165.01 177.38 164.20 178.20 C 159.74 178.16 155.29 178.21 150.83 178.20 C 149.03 178.63 148.09 176.82 146.92 175.88 C 146.96 133.90 146.93 91.91 146.94 49.93 C 146.66 48.27 148.42 47.45 149.28 46.35 C 154.04 46.40 158.81 46.37 163.57 46.36 C 166.96 48.40 165.70 52.47 165.86 55.74 M 186.46 62.69 C 179.92 64.49 174.21 68.93 170.74 74.75 C 166.11 82.23 165.15 91.47 166.41 100.04 C 167.70 108.74 172.64 117.15 180.42 121.53 C 186.73 125.27 194.72 125.99 201.57 123.34 C 209.59 120.39 215.60 113.32 218.23 105.30 C 222.29 92.71 219.86 77.29 209.64 68.26 C 203.44 62.76 194.50 60.42 186.46 62.69 Z" />
<path fill="#ffffff" opacity="1.00" d=" M 264.87 55.74 C 272.11 48.11 282.45 43.52 293.01 43.57 C 306.62 43.17 320.11 49.80 328.27 60.67 C 337.44 72.54 340.27 88.37 338.00 103.00 C 335.95 117.01 327.82 130.36 315.38 137.44 C 299.79 146.71 278.04 144.79 265.26 131.53 C 266.06 146.25 265.41 161.02 265.64 175.75 C 264.82 176.57 264.01 177.38 263.20 178.20 C 258.28 178.20 253.36 178.14 248.44 178.24 C 247.60 177.45 246.76 176.66 245.93 175.87 C 245.93 133.51 245.97 91.16 245.91 48.80 C 246.70 47.98 247.49 47.17 248.30 46.36 C 253.04 46.39 257.79 46.37 262.54 46.37 C 263.32 47.17 264.11 47.97 264.90 48.76 C 264.88 51.09 264.87 53.41 264.87 55.74 M 285.47 62.69 C 278.90 64.49 273.18 68.95 269.71 74.79 C 265.10 82.27 264.15 91.50 265.41 100.07 C 266.69 108.53 271.38 116.72 278.83 121.18 C 285.21 125.19 293.47 126.07 300.52 123.36 C 308.56 120.42 314.59 113.35 317.22 105.31 C 321.28 92.75 318.87 77.35 308.70 68.31 C 302.50 62.78 293.52 60.41 285.47 62.69 Z" />
<path fill="#ffffff" opacity="1.00" d=" M 570.19 63.65 C 576.97 52.05 589.84 44.92 603.06 43.81 C 613.79 42.96 625.25 44.38 634.38 50.48 C 643.99 56.67 649.48 67.97 649.62 79.26 C 649.78 98.49 649.65 117.72 649.69 136.94 C 649.88 138.54 648.15 139.33 647.31 140.41 C 642.57 140.34 637.83 140.39 633.10 140.38 C 632.31 139.59 631.52 138.81 630.74 138.02 C 630.74 135.85 630.74 133.68 630.77 131.51 C 625.21 137.15 618.05 141.40 610.16 142.64 C 598.66 144.45 585.99 141.82 577.24 133.81 C 565.87 123.61 564.23 104.49 573.55 92.44 C 578.94 85.67 587.12 81.62 595.45 79.78 C 607.21 77.43 619.63 78.49 630.82 82.83 C 630.96 77.09 629.26 71.03 624.70 67.26 C 613.66 57.82 594.50 60.53 586.62 72.80 C 585.46 73.01 584.32 73.22 583.18 73.43 C 578.86 70.15 574.49 66.94 570.19 63.65 M 588.96 104.85 C 586.69 109.69 587.06 116.11 590.97 120.02 C 595.57 124.82 602.78 125.95 609.11 124.93 C 620.75 123.03 630.17 112.43 630.78 100.65 C 621.78 95.69 610.97 94.29 600.94 96.33 C 596.01 97.34 591.21 100.21 588.96 104.85 Z" />
<path fill="#ffffff" opacity="1.00" d=" M 680.62 55.37 C 687.49 48.28 697.08 43.67 707.04 43.58 C 716.20 43.40 725.96 45.66 732.70 52.23 C 740.21 59.33 743.18 69.96 743.22 80.04 C 743.29 99.37 743.23 118.70 743.25 138.02 C 742.46 138.81 741.67 139.59 740.90 140.38 C 735.90 140.37 730.90 140.37 725.91 140.38 C 725.12 139.59 724.33 138.81 723.56 138.03 C 723.56 119.65 723.56 101.27 723.56 82.90 C 723.50 77.41 722.70 71.38 718.78 67.22 C 713.87 62.23 706.21 61.13 699.56 62.25 C 688.13 64.72 681.10 76.80 681.32 87.96 C 681.31 104.65 681.31 121.34 681.32 138.03 C 680.52 138.81 679.74 139.59 678.96 140.38 C 673.96 140.37 668.97 140.37 663.97 140.38 C 663.18 139.59 662.40 138.81 661.62 138.03 C 661.61 108.26 661.65 78.49 661.60 48.72 C 662.66 47.88 663.44 46.20 665.03 46.37 C 669.46 46.34 673.89 46.38 678.33 46.39 C 679.09 47.17 679.85 47.96 680.63 48.74 C 680.62 50.95 680.62 53.16 680.62 55.37 Z" />
<path fill="#ffffff" opacity="1.00" d=" M 758.38 65.44 C 765.25 53.89 777.58 45.89 790.88 44.10 C 802.75 42.52 815.65 44.31 825.45 51.60 C 832.38 56.56 837.33 63.90 840.01 71.94 C 834.78 74.13 829.56 76.33 824.31 78.47 C 823.29 78.02 822.27 77.58 821.27 77.13 C 819.05 71.75 815.20 66.87 809.84 64.38 C 800.62 60.02 788.83 61.23 781.15 68.11 C 770.04 77.61 767.76 94.58 773.16 107.68 C 777.33 117.84 787.75 125.61 798.99 124.91 C 808.16 124.88 817.39 119.76 821.19 111.22 C 821.69 109.39 823.51 108.90 825.07 108.28 C 830.23 110.50 835.43 112.64 840.61 114.84 C 836.08 127.60 825.27 138.03 812.09 141.46 C 799.27 144.78 784.92 143.47 773.55 136.40 C 762.03 129.49 754.20 117.25 751.87 104.11 C 749.54 91.01 751.34 76.88 758.38 65.44 Z" />
<path fill="#ffffff" opacity="1.00" d=" M 877.90 44.31 C 890.06 42.29 903.34 44.27 913.41 51.71 C 922.91 58.50 928.80 69.48 930.71 80.87 C 931.60 86.70 932.24 92.80 930.58 98.56 C 907.29 98.57 884.01 98.55 860.73 98.57 C 861.44 104.92 863.70 111.20 868.04 115.98 C 875.62 124.69 888.99 127.29 899.47 122.68 C 905.93 119.89 910.44 114.12 913.74 108.10 C 918.61 110.48 923.51 112.82 928.38 115.24 C 928.64 116.04 929.17 117.64 929.44 118.44 C 923.63 129.52 913.39 138.54 901.11 141.58 C 888.35 144.73 874.10 143.44 862.87 136.28 C 852.07 129.63 844.72 118.16 842.16 105.84 C 839.27 91.77 841.28 76.45 849.00 64.20 C 855.35 53.99 865.96 46.33 877.90 44.31 M 879.56 62.71 C 870.74 65.05 864.53 73.00 862.07 81.48 C 878.33 81.51 894.58 81.51 910.84 81.48 C 909.68 76.31 907.49 71.12 903.32 67.66 C 897.00 61.91 887.62 60.76 879.56 62.71 Z" />
<path fill="#ffffff" opacity="1.00" d=" M 448.27 45.88 C 453.26 45.86 458.25 45.90 463.24 45.85 C 464.04 46.66 464.84 47.46 465.65 48.26 C 465.61 66.52 465.63 84.78 465.63 103.04 C 465.74 108.70 466.66 114.90 470.71 119.18 C 475.86 124.57 484.27 125.45 491.15 123.46 C 501.33 120.18 507.81 109.48 507.86 99.06 C 507.90 82.64 507.87 66.23 507.87 49.81 C 507.43 47.99 509.20 47.03 510.18 45.86 C 515.19 45.89 520.19 45.88 525.20 45.86 C 525.99 46.66 526.78 47.45 527.58 48.25 C 527.56 78.02 527.55 107.78 527.58 137.54 C 526.48 138.44 525.66 140.13 524.00 139.87 C 519.65 139.92 515.29 139.85 510.94 139.88 C 510.16 139.13 509.38 138.39 508.61 137.65 C 508.55 135.43 508.55 133.21 508.58 131.00 C 501.23 138.65 490.63 143.15 479.99 142.66 C 471.19 142.52 462.00 139.82 455.81 133.29 C 448.50 125.86 445.97 115.07 445.95 104.93 C 445.92 86.02 445.94 67.12 445.94 48.22 C 446.71 47.44 447.49 46.66 448.27 45.88 Z" />
</g>
</svg>
