<?xml version="1.0" encoding="UTF-8" ?>
<!DOCTYPE svg PUBLIC "-//W3C//DTD SVG 1.1//EN" "http://www.w3.org/Graphics/SVG/1.1/DTD/svg11.dtd">
<svg width="572pt" height="555pt" viewBox="0 0 572 555" version="1.1" xmlns="http://www.w3.org/2000/svg">
<g id="#ff4f2aff">
<path fill="#ff4f2a" opacity="1.00" d=" M 267.03 7.00 C 272.06 7.21 276.96 5.60 282.01 5.98 C 290.50 6.31 299.09 5.30 307.51 6.71 C 334.89 8.15 361.83 15.04 387.41 24.77 C 389.11 25.35 390.80 25.96 392.42 26.74 C 394.12 27.31 395.80 27.92 397.41 28.72 C 400.78 30.27 404.20 31.72 407.58 33.26 C 408.08 33.52 409.08 34.02 409.57 34.27 C 411.17 35.11 412.79 35.89 414.39 36.74 C 446.13 53.26 474.76 75.83 497.75 103.24 C 506.57 113.66 514.28 124.98 521.74 136.41 C 522.85 138.51 524.15 140.51 525.25 142.62 C 526.81 145.17 528.28 147.79 529.74 150.40 C 529.98 150.91 530.47 151.91 530.71 152.41 C 531.35 153.74 532.04 155.06 532.75 156.37 C 533.78 158.36 534.77 160.38 535.76 162.40 C 537.17 165.83 538.86 169.15 540.24 172.60 C 553.82 205.99 562.73 241.78 562.00 277.97 C 561.81 284.61 562.54 291.34 561.27 297.91 C 559.74 325.58 552.12 352.61 542.23 378.41 C 541.65 380.10 540.99 381.77 540.24 383.40 C 539.02 386.44 537.68 389.44 536.26 392.40 C 535.20 394.86 534.00 397.26 532.74 399.62 C 532.50 400.12 532.00 401.12 531.76 401.62 C 531.03 402.92 530.35 404.25 529.74 405.60 C 528.33 408.25 526.81 410.84 525.27 413.40 C 524.18 415.52 522.85 417.49 521.74 419.59 C 511.29 435.86 499.90 451.61 486.34 465.41 C 466.19 486.78 442.22 504.33 416.40 518.27 C 415.90 518.51 414.89 519.01 414.39 519.26 C 412.80 520.11 411.16 520.86 409.60 521.75 C 405.56 523.64 401.50 525.51 397.40 527.27 C 395.80 528.07 394.12 528.69 392.42 529.26 C 390.80 530.03 389.11 530.65 387.41 531.22 C 363.56 540.42 338.49 546.79 313.01 549.01 C 307.95 548.77 303.03 550.41 297.96 550.02 C 289.50 549.69 280.96 550.69 272.57 549.30 C 245.16 547.85 218.20 540.98 192.59 531.23 C 190.89 530.65 189.20 530.03 187.58 529.26 C 185.88 528.68 184.19 528.07 182.59 527.27 C 178.96 525.54 175.16 524.15 171.60 522.27 C 169.57 521.33 167.58 520.31 165.62 519.25 C 142.26 507.06 120.48 491.70 101.57 473.36 C 84.74 457.51 70.68 439.05 58.25 419.59 C 55.52 414.47 52.25 409.64 49.75 404.41 C 47.84 400.84 46.00 397.24 44.24 393.60 C 42.82 390.17 41.14 386.85 39.75 383.41 C 29.84 358.85 22.31 333.17 19.34 306.80 C 18.99 299.19 17.56 291.65 18.00 283.99 C 18.30 275.36 17.29 266.63 18.73 258.08 C 20.43 228.62 28.82 199.89 39.75 172.61 C 41.14 169.15 42.82 165.83 44.24 162.40 C 45.83 159.02 47.64 155.76 49.26 152.41 C 50.93 149.06 52.81 145.82 54.75 142.62 C 55.84 140.51 57.14 138.51 58.25 136.40 C 66.52 123.76 75.09 111.23 85.13 99.93 C 105.00 76.82 129.09 57.57 155.40 42.25 C 158.82 40.43 162.09 38.36 165.61 36.74 C 167.19 35.88 168.83 35.13 170.40 34.24 C 174.42 32.31 178.52 30.56 182.59 28.73 C 184.19 27.92 185.88 27.31 187.58 26.74 C 189.20 25.96 190.89 25.35 192.60 24.77 C 216.47 15.61 241.54 9.21 267.03 7.00 M 283.19 22.31 C 240.64 23.36 198.38 35.21 161.62 56.68 C 111.96 85.35 72.46 131.19 51.65 184.63 C 25.13 251.42 28.72 329.46 61.54 393.42 C 87.38 444.76 131.14 486.80 183.44 510.62 C 227.01 530.72 276.35 537.90 323.88 531.54 C 364.25 526.24 403.30 511.08 436.60 487.64 C 466.84 466.57 492.42 438.84 511.01 407.01 C 532.71 370.14 544.79 327.70 545.84 284.93 C 547.25 238.05 535.38 190.83 511.79 150.28 C 481.33 97.14 431.08 55.71 373.08 36.00 C 344.27 26.09 313.64 21.49 283.19 22.31 Z" />
<path fill="#ff4f2a" opacity="1.00" d=" M 351.12 144.70 C 355.17 144.69 359.22 144.69 363.27 144.70 C 363.27 152.87 363.28 161.04 363.26 169.21 C 359.22 169.21 355.18 169.21 351.14 169.21 C 351.12 161.04 351.16 152.87 351.12 144.70 Z" />
<path fill="#ff4f2a" opacity="1.00" d=" M 310.08 161.18 C 313.02 158.36 315.85 155.42 318.79 152.60 C 324.81 158.78 330.96 164.84 337.07 170.94 C 334.15 173.79 331.29 176.71 328.36 179.55 C 322.34 173.35 316.14 167.33 310.08 161.18 Z" />
<path fill="#ff4f2a" opacity="1.00" d=" M 395.23 153.09 C 398.75 154.71 401.02 158.73 404.18 161.16 C 398.17 167.40 391.90 173.37 385.90 179.63 C 383.02 176.72 380.14 173.82 377.20 170.98 C 383.25 165.05 389.06 158.87 395.23 153.09 Z" />
<path fill="#ff4f2a" opacity="1.00" d=" M 107.02 156.92 C 137.48 156.92 167.94 156.91 198.40 156.93 C 198.42 161.02 198.42 165.12 198.40 169.21 C 167.94 169.21 137.48 169.21 107.01 169.21 C 107.00 165.11 106.99 161.02 107.02 156.92 Z" />
<path fill="#ff4f2a" opacity="1.00" d=" M 125.20 181.39 C 131.31 181.43 137.42 181.35 143.54 181.44 C 143.46 185.48 143.46 189.52 143.54 193.56 C 137.43 193.64 131.31 193.55 125.20 193.61 C 125.21 189.54 125.21 185.46 125.20 181.39 Z" />
<path fill="#ff4f2a" opacity="1.00" d=" M 161.68 181.50 C 180.02 181.25 198.38 181.49 216.73 181.38 C 216.72 185.46 216.72 189.53 216.73 193.61 C 198.38 193.49 180.02 193.74 161.68 193.49 C 161.80 189.49 161.80 185.49 161.68 181.50 Z" />
<path fill="#ff4f2a" opacity="1.00" d=" M 342.19 189.22 C 346.03 183.60 353.21 180.55 359.92 181.65 C 367.01 182.61 373.10 188.24 374.89 195.12 C 375.70 198.61 375.46 202.21 375.44 205.75 C 382.08 205.96 388.81 205.19 395.39 206.26 C 401.46 207.57 406.51 212.23 408.59 218.04 C 419.39 246.65 430.17 275.26 440.92 303.89 C 441.72 306.61 444.42 307.94 446.44 309.65 C 454.38 316.03 462.36 322.37 470.28 328.77 C 472.24 330.19 473.19 332.51 473.03 334.91 C 473.09 350.27 473.02 365.63 473.07 381.00 C 472.99 383.14 473.08 385.71 471.21 387.19 C 469.11 389.46 465.76 388.71 463.02 388.88 C 453.97 389.06 444.88 388.47 435.85 389.16 C 433.37 404.76 419.57 417.40 403.94 419.06 C 390.77 420.68 377.15 414.14 369.69 403.25 C 366.50 399.14 365.09 394.09 363.66 389.18 C 360.52 388.42 357.21 389.02 354.01 388.86 C 312.24 388.70 270.48 389.19 228.73 388.74 C 226.71 396.41 223.35 403.94 217.34 409.33 C 210.54 415.71 201.27 419.30 191.96 419.34 C 175.02 419.16 158.98 406.06 156.32 389.18 C 141.65 388.36 126.90 389.22 112.21 388.75 C 110.01 388.62 108.02 386.91 107.32 384.87 C 106.76 381.95 107.05 378.96 107.00 376.01 C 107.00 321.69 107.00 267.37 107.00 213.05 C 107.00 211.14 107.15 209.01 108.68 207.65 C 111.13 205.21 114.89 205.88 118.02 205.77 C 191.62 205.82 265.21 205.77 338.81 205.79 C 338.63 200.14 338.67 193.97 342.19 189.22 M 353.13 195.17 C 350.10 197.83 351.36 202.27 351.11 205.80 C 355.16 205.78 359.22 205.78 363.28 205.82 C 363.19 202.96 363.70 199.95 362.68 197.22 C 361.18 193.61 355.96 192.39 353.13 195.17 M 119.14 217.95 C 119.10 246.50 119.09 275.04 119.14 303.58 C 192.38 303.45 265.63 303.49 338.88 303.56 C 338.74 307.58 338.75 311.61 338.86 315.64 C 265.56 315.74 192.26 315.61 118.96 315.70 C 119.28 327.91 119.07 340.13 119.07 352.34 C 129.24 352.38 139.41 352.33 149.58 352.37 C 149.53 356.41 149.53 360.46 149.59 364.51 C 139.38 364.56 129.16 364.45 118.94 364.57 C 119.18 368.61 119.12 372.67 119.08 376.72 C 131.49 376.66 143.90 376.80 156.31 376.65 C 158.60 363.29 168.87 351.74 181.93 348.02 C 192.77 344.56 205.07 346.96 214.11 353.77 C 221.58 359.22 226.75 367.61 228.42 376.70 C 273.55 376.74 318.68 376.70 363.80 376.72 C 366.19 363.51 376.11 351.96 389.05 348.15 C 400.82 344.24 414.38 347.28 423.68 355.37 C 430.12 360.81 434.46 368.49 436.03 376.76 C 444.32 376.67 452.61 376.72 460.91 376.73 C 460.88 372.68 460.81 368.62 461.05 364.57 C 454.89 364.44 448.73 364.58 442.57 364.48 C 442.66 360.46 442.68 356.44 442.55 352.42 C 448.67 352.26 454.80 352.40 460.93 352.34 C 460.88 347.22 460.83 342.11 460.96 336.99 C 452.08 329.81 443.10 322.75 434.16 315.64 C 411.79 315.69 389.42 315.68 367.04 315.65 C 358.70 315.80 351.03 308.40 351.16 300.01 C 351.12 282.01 351.13 264.01 351.16 246.01 C 350.98 237.90 358.14 230.48 366.26 230.33 C 377.61 230.18 388.97 230.29 400.33 230.29 C 398.99 227.09 398.08 223.70 396.39 220.66 C 394.90 218.10 391.65 217.93 389.02 217.90 C 299.05 218.01 209.11 217.90 119.14 217.95 M 363.27 246.94 C 363.27 264.31 363.27 281.69 363.27 299.06 C 362.88 301.76 365.46 303.94 368.07 303.51 C 387.99 303.52 407.90 303.50 427.81 303.51 C 420.03 283.18 412.59 262.72 404.78 242.40 C 392.22 242.51 379.67 242.33 367.12 242.49 C 364.73 242.32 362.96 244.68 363.27 246.94 M 186.23 359.26 C 177.06 361.52 169.65 369.59 168.30 378.94 C 166.88 386.95 169.95 395.54 176.01 400.93 C 182.18 406.61 191.37 408.61 199.38 406.17 C 211.44 402.76 219.32 389.14 215.99 377.00 C 213.13 364.21 198.87 355.60 186.23 359.26 M 394.21 359.16 C 381.41 361.87 372.69 376.13 376.26 388.75 C 379.06 401.04 392.46 409.59 404.79 406.68 C 418.27 404.35 427.54 389.14 423.29 376.10 C 420.08 363.92 406.41 355.88 394.21 359.16 Z" />
<path fill="#ff4f2a" opacity="1.00" d=" M 167.88 230.23 C 171.93 230.28 175.98 230.31 180.03 230.20 C 180.35 236.30 180.11 242.42 180.14 248.53 C 185.05 244.85 189.92 241.12 194.90 237.55 C 197.17 240.85 199.55 244.07 202.12 247.15 C 196.30 251.93 189.97 256.04 184.23 260.92 C 190.31 265.15 196.06 269.81 202.10 274.10 C 199.68 277.38 197.21 280.61 194.82 283.91 C 189.90 280.30 185.06 276.59 180.13 273.00 C 180.20 279.09 180.17 285.19 180.17 291.28 C 176.06 291.30 171.95 291.30 167.85 291.29 C 167.82 285.18 167.88 279.08 167.83 272.97 C 162.96 276.64 158.09 280.29 153.20 283.92 C 150.82 280.62 148.34 277.38 145.91 274.11 C 151.95 269.77 157.80 265.17 163.85 260.84 C 157.98 256.15 151.79 251.88 145.92 247.20 C 148.45 244.05 150.84 240.79 153.22 237.52 C 158.08 241.21 163.00 244.83 167.86 248.52 C 167.86 242.43 167.80 236.33 167.88 230.23 Z" />
<path fill="#ff4f2a" opacity="1.00" d=" M 290.33 230.46 C 301.53 230.03 312.76 230.35 323.98 230.29 C 331.85 229.97 339.03 237.01 338.76 244.90 C 338.75 255.91 338.90 266.93 338.69 277.94 C 338.24 285.72 330.66 291.78 323.01 291.30 C 313.01 291.28 303.01 291.32 293.01 291.28 C 287.56 291.33 282.05 288.37 279.55 283.44 C 277.92 280.56 277.69 277.19 277.74 273.96 C 277.82 264.32 277.70 254.69 277.79 245.05 C 277.67 237.98 283.27 231.32 290.33 230.46 M 291.44 242.63 C 289.78 243.39 289.94 245.50 289.86 247.03 C 290.05 256.70 289.71 266.39 289.97 276.06 C 289.83 277.83 291.20 279.29 293.01 279.10 C 302.68 279.21 312.35 279.09 322.02 279.16 C 323.65 279.13 326.44 279.15 326.52 276.92 C 326.70 266.30 326.59 255.66 326.58 245.04 C 326.85 242.45 323.86 242.26 322.02 242.41 C 311.83 242.60 301.61 242.13 291.44 242.63 Z" />
<path fill="#ff4f2a" opacity="1.00" d=" M 235.07 352.35 C 275.81 352.45 316.56 352.16 357.29 352.49 C 357.14 356.45 357.12 360.42 357.31 364.38 C 316.59 364.76 275.86 364.31 235.15 364.61 C 235.04 360.52 235.15 356.43 235.07 352.35 Z" />
<path fill="#ff4f2a" opacity="1.00" d=" M 186.18 376.74 C 190.26 376.70 194.34 376.72 198.41 376.70 C 198.42 380.76 198.42 384.81 198.39 388.88 C 194.33 388.84 190.26 388.85 186.20 388.83 C 186.25 384.80 186.26 380.77 186.18 376.74 Z" />
<path fill="#ff4f2a" opacity="1.00" d=" M 393.78 376.70 C 397.82 376.71 401.87 376.71 405.93 376.72 C 405.87 380.75 405.87 384.79 405.94 388.83 C 401.88 388.85 397.83 388.85 393.78 388.86 C 393.76 384.81 393.77 380.75 393.78 376.70 Z" />
</g>
<g id="#fcfcfcff">
<path fill="#fcfcfc" opacity="1.00" d=" M 283.19 22.31 C 313.64 21.49 344.27 26.09 373.08 36.00 C 431.08 55.71 481.33 97.14 511.79 150.28 C 535.38 190.83 547.25 238.05 545.84 284.93 C 544.79 327.70 532.71 370.14 511.01 407.01 C 492.42 438.84 466.84 466.57 436.60 487.64 C 403.30 511.08 364.25 526.24 323.88 531.54 C 276.35 537.90 227.01 530.72 183.44 510.62 C 131.14 486.80 87.38 444.76 61.54 393.42 C 28.72 329.46 25.13 251.42 51.65 184.63 C 72.46 131.19 111.96 85.35 161.62 56.68 C 198.38 35.21 240.64 23.36 283.19 22.31 M 351.12 144.70 C 351.16 152.87 351.12 161.04 351.14 169.21 C 355.18 169.21 359.22 169.21 363.26 169.21 C 363.28 161.04 363.27 152.87 363.27 144.70 C 359.22 144.69 355.17 144.69 351.12 144.70 M 310.08 161.18 C 316.14 167.33 322.34 173.35 328.36 179.55 C 331.29 176.71 334.15 173.79 337.07 170.94 C 330.96 164.84 324.81 158.78 318.79 152.60 C 315.85 155.42 313.02 158.36 310.08 161.18 M 395.23 153.09 C 389.06 158.87 383.25 165.05 377.20 170.98 C 380.14 173.82 383.02 176.72 385.90 179.63 C 391.90 173.37 398.17 167.40 404.18 161.16 C 401.02 158.73 398.75 154.71 395.23 153.09 M 107.02 156.92 C 106.99 161.02 107.00 165.11 107.01 169.21 C 137.48 169.21 167.94 169.21 198.40 169.21 C 198.42 165.12 198.42 161.02 198.40 156.93 C 167.94 156.91 137.48 156.92 107.02 156.92 M 125.20 181.39 C 125.21 185.46 125.21 189.54 125.20 193.61 C 131.31 193.55 137.43 193.64 143.54 193.56 C 143.46 189.52 143.46 185.48 143.54 181.44 C 137.42 181.35 131.31 181.43 125.20 181.39 M 161.68 181.50 C 161.80 185.49 161.80 189.49 161.68 193.49 C 180.02 193.74 198.38 193.49 216.73 193.61 C 216.72 189.53 216.72 185.46 216.73 181.38 C 198.38 181.49 180.02 181.25 161.68 181.50 M 342.19 189.22 C 338.67 193.97 338.63 200.14 338.81 205.79 C 265.21 205.77 191.62 205.82 118.02 205.77 C 114.89 205.88 111.13 205.21 108.68 207.65 C 107.15 209.01 107.00 211.14 107.00 213.05 C 107.00 267.37 107.00 321.69 107.00 376.01 C 107.05 378.96 106.76 381.95 107.32 384.87 C 108.02 386.91 110.01 388.62 112.21 388.75 C 126.90 389.22 141.65 388.36 156.32 389.18 C 158.98 406.06 175.02 419.16 191.96 419.34 C 201.27 419.30 210.54 415.71 217.34 409.33 C 223.35 403.94 226.71 396.41 228.73 388.74 C 270.48 389.19 312.24 388.70 354.01 388.86 C 357.21 389.02 360.52 388.42 363.66 389.18 C 365.09 394.09 366.50 399.14 369.69 403.25 C 377.15 414.14 390.77 420.68 403.94 419.06 C 419.57 417.40 433.37 404.76 435.85 389.16 C 444.88 388.47 453.97 389.06 463.02 388.88 C 465.76 388.71 469.11 389.46 471.21 387.19 C 473.08 385.71 472.99 383.14 473.07 381.00 C 473.02 365.63 473.09 350.27 473.03 334.91 C 473.19 332.51 472.24 330.19 470.28 328.77 C 462.36 322.37 454.38 316.03 446.44 309.65 C 444.42 307.94 441.72 306.61 440.92 303.89 C 430.17 275.26 419.39 246.65 408.59 218.04 C 406.51 212.23 401.46 207.57 395.39 206.26 C 388.81 205.19 382.08 205.96 375.44 205.75 C 375.46 202.21 375.70 198.61 374.89 195.12 C 373.10 188.24 367.01 182.61 359.92 181.65 C 353.21 180.55 346.03 183.60 342.19 189.22 Z" />
<path fill="#fcfcfc" opacity="1.00" d=" M 353.13 195.17 C 355.96 192.39 361.18 193.61 362.68 197.22 C 363.70 199.95 363.19 202.96 363.28 205.82 C 359.22 205.78 355.16 205.78 351.11 205.80 C 351.36 202.27 350.10 197.83 353.13 195.17 Z" />
<path fill="#fcfcfc" opacity="1.00" d=" M 119.14 217.95 C 209.11 217.90 299.05 218.01 389.02 217.90 C 391.65 217.93 394.90 218.10 396.39 220.66 C 398.08 223.70 398.99 227.09 400.33 230.29 C 388.97 230.29 377.61 230.18 366.26 230.33 C 358.14 230.48 350.98 237.90 351.16 246.01 C 351.13 264.01 351.12 282.01 351.16 300.01 C 351.03 308.40 358.70 315.80 367.04 315.65 C 389.42 315.68 411.79 315.69 434.16 315.64 C 443.10 322.75 452.08 329.81 460.96 336.99 C 460.83 342.11 460.88 347.22 460.93 352.34 C 454.80 352.40 448.67 352.26 442.55 352.42 C 442.68 356.44 442.66 360.46 442.57 364.48 C 448.73 364.58 454.89 364.44 461.05 364.57 C 460.81 368.62 460.88 372.68 460.91 376.73 C 452.61 376.72 444.32 376.67 436.03 376.76 C 434.46 368.49 430.12 360.81 423.68 355.37 C 414.38 347.28 400.82 344.24 389.05 348.15 C 376.11 351.96 366.19 363.51 363.80 376.72 C 318.68 376.70 273.55 376.74 228.42 376.70 C 226.75 367.61 221.58 359.22 214.11 353.77 C 205.07 346.96 192.77 344.56 181.93 348.02 C 168.87 351.74 158.60 363.29 156.31 376.65 C 143.90 376.80 131.49 376.66 119.08 376.72 C 119.12 372.67 119.18 368.61 118.94 364.57 C 129.16 364.45 139.38 364.56 149.59 364.51 C 149.53 360.46 149.53 356.41 149.58 352.37 C 139.41 352.33 129.24 352.38 119.07 352.34 C 119.07 340.13 119.28 327.91 118.96 315.70 C 192.26 315.61 265.56 315.74 338.86 315.64 C 338.75 311.61 338.74 307.58 338.88 303.56 C 265.63 303.49 192.38 303.45 119.14 303.58 C 119.09 275.04 119.10 246.50 119.14 217.95 M 167.88 230.23 C 167.80 236.33 167.86 242.43 167.86 248.52 C 163.00 244.83 158.08 241.21 153.22 237.52 C 150.84 240.79 148.45 244.05 145.92 247.20 C 151.79 251.88 157.98 256.15 163.85 260.84 C 157.80 265.17 151.95 269.77 145.91 274.11 C 148.34 277.38 150.82 280.62 153.20 283.92 C 158.09 280.29 162.96 276.64 167.83 272.97 C 167.88 279.08 167.82 285.18 167.85 291.29 C 171.95 291.30 176.06 291.30 180.17 291.28 C 180.17 285.19 180.20 279.09 180.13 273.00 C 185.06 276.59 189.90 280.30 194.82 283.91 C 197.21 280.61 199.68 277.38 202.10 274.10 C 196.06 269.81 190.31 265.15 184.23 260.92 C 189.97 256.04 196.30 251.93 202.12 247.15 C 199.55 244.07 197.17 240.85 194.90 237.55 C 189.92 241.12 185.05 244.85 180.14 248.53 C 180.11 242.42 180.35 236.30 180.03 230.20 C 175.98 230.31 171.93 230.28 167.88 230.23 M 290.33 230.46 C 283.27 231.32 277.67 237.98 277.79 245.05 C 277.70 254.69 277.82 264.32 277.74 273.96 C 277.69 277.19 277.92 280.56 279.55 283.44 C 282.05 288.37 287.56 291.33 293.01 291.28 C 303.01 291.32 313.01 291.28 323.01 291.30 C 330.66 291.78 338.24 285.72 338.69 277.94 C 338.90 266.93 338.75 255.91 338.76 244.90 C 339.03 237.01 331.85 229.97 323.98 230.29 C 312.76 230.35 301.53 230.03 290.33 230.46 M 235.07 352.35 C 235.15 356.43 235.04 360.52 235.15 364.61 C 275.86 364.31 316.59 364.76 357.31 364.38 C 357.12 360.42 357.14 356.45 357.29 352.49 C 316.56 352.16 275.81 352.45 235.07 352.35 Z" />
<path fill="#fcfcfc" opacity="1.00" d=" M 291.44 242.63 C 301.61 242.13 311.83 242.60 322.02 242.41 C 323.86 242.26 326.85 242.45 326.58 245.04 C 326.59 255.66 326.70 266.30 326.52 276.92 C 326.44 279.15 323.65 279.13 322.02 279.16 C 312.35 279.09 302.68 279.21 293.01 279.10 C 291.20 279.29 289.83 277.83 289.97 276.06 C 289.71 266.39 290.05 256.70 289.86 247.03 C 289.94 245.50 289.78 243.39 291.44 242.63 Z" />
<path fill="#fcfcfc" opacity="1.00" d=" M 363.27 246.94 C 362.96 244.68 364.73 242.32 367.12 242.49 C 379.67 242.33 392.22 242.51 404.78 242.40 C 412.59 262.72 420.03 283.18 427.81 303.51 C 407.90 303.50 387.99 303.52 368.07 303.51 C 365.46 303.94 362.88 301.76 363.27 299.06 C 363.27 281.69 363.27 264.31 363.27 246.94 Z" />
<path fill="#fcfcfc" opacity="1.00" d=" M 186.23 359.26 C 198.87 355.60 213.13 364.21 215.99 377.00 C 219.32 389.14 211.44 402.76 199.38 406.17 C 191.37 408.61 182.18 406.61 176.01 400.93 C 169.95 395.54 166.88 386.95 168.30 378.94 C 169.65 369.59 177.06 361.52 186.23 359.26 M 186.18 376.74 C 186.26 380.77 186.25 384.80 186.20 388.83 C 190.26 388.85 194.33 388.84 198.39 388.88 C 198.42 384.81 198.42 380.76 198.41 376.70 C 194.34 376.72 190.26 376.70 186.18 376.74 Z" />
<path fill="#fcfcfc" opacity="1.00" d=" M 394.21 359.16 C 406.41 355.88 420.08 363.92 423.29 376.10 C 427.54 389.14 418.27 404.35 404.79 406.68 C 392.46 409.59 379.06 401.04 376.26 388.75 C 372.69 376.13 381.41 361.87 394.21 359.16 M 393.78 376.70 C 393.77 380.75 393.76 384.81 393.78 388.86 C 397.83 388.85 401.88 388.85 405.94 388.83 C 405.87 384.79 405.87 380.75 405.93 376.72 C 401.87 376.71 397.82 376.71 393.78 376.70 Z" />
</g>
</svg>
