<svg xmlns="http://www.w3.org/2000/svg" viewBox="0 0 135 40"><defs><style>.a{fill:#979fa6;}</style></defs><title>img_tecnologias_googlePlay</title><path class="a" d="M130,.8A4.2,4.2,0,0,1,134.2,5V35a4.2,4.2,0,0,1-4.2,4.2H5A4.2,4.2,0,0,1,.8,35V5A4.2,4.2,0,0,1,5,.8H130m0-.8H5A5,5,0,0,0,0,5V35a5,5,0,0,0,5,5H130a5,5,0,0,0,5-5V5a5,5,0,0,0-5-5Z"/><path class="a" d="M68.14,21.75A4.25,4.25,0,1,0,72.41,26,4.19,4.19,0,0,0,68.14,21.75Zm0,6.83A2.58,2.58,0,1,1,70.54,26,2.46,2.46,0,0,1,68.14,28.58Zm-9.31-6.83A4.25,4.25,0,1,0,63.09,26,4.19,4.19,0,0,0,58.82,21.75Zm0,6.83A2.58,2.58,0,1,1,61.22,26,2.46,2.46,0,0,1,58.82,28.58ZM47.74,23.06v1.8h4.32a3.77,3.77,0,0,1-1,2.27,4.42,4.42,0,0,1-3.33,1.32,4.8,4.8,0,0,1,0-9.6A4.6,4.6,0,0,1,51,20.14l1.27-1.27A6.29,6.29,0,0,0,47.74,17a6.61,6.61,0,1,0,0,13.21,6,6,0,0,0,4.61-1.85,6,6,0,0,0,1.56-4.22,5.87,5.87,0,0,0-.1-1.13Zm45.31,1.4a4,4,0,0,0-3.64-2.71,4,4,0,0,0-4,4.25,4.16,4.16,0,0,0,4.22,4.25,4.23,4.23,0,0,0,3.54-1.88l-1.45-1a2.43,2.43,0,0,1-2.09,1.18,2.16,2.16,0,0,1-2.06-1.29l5.69-2.35Zm-5.8,1.42a2.33,2.33,0,0,1,2.22-2.48,1.65,1.65,0,0,1,1.58.9ZM82.63,30H84.5V17.5H82.63Zm-3.06-7.3H79.5a3,3,0,0,0-2.24-1,4.26,4.26,0,0,0,0,8.51,2.9,2.9,0,0,0,2.24-1h.06v.61c0,1.63-.87,2.5-2.27,2.5a2.35,2.35,0,0,1-2.14-1.51l-1.63.68a4.05,4.05,0,0,0,3.77,2.51c2.19,0,4-1.29,4-4.43V22H79.57Zm-2.14,5.88a2.59,2.59,0,0,1,0-5.16A2.4,2.4,0,0,1,79.7,26,2.38,2.38,0,0,1,77.42,28.58ZM101.81,17.5H97.33V30H99.2V25.26h2.61a3.89,3.89,0,1,0,0-7.76Zm0,6H99.2V19.24h2.65a2.14,2.14,0,1,1,0,4.29Zm11.53-1.8a3.5,3.5,0,0,0-3.33,1.91l1.66.69a1.77,1.77,0,0,1,1.7-.92,1.8,1.8,0,0,1,2,1.61v.13a4.13,4.13,0,0,0-1.95-.48c-1.79,0-3.6,1-3.6,2.81a2.89,2.89,0,0,0,3.1,2.75A2.63,2.63,0,0,0,115.32,29h.06v1h1.8V25.19C117.18,23,115.52,21.73,113.39,21.73Zm-.23,6.85c-.61,0-1.46-.31-1.46-1.06,0-1,1.06-1.33,2-1.33a3.32,3.32,0,0,1,1.7.42A2.26,2.26,0,0,1,113.16,28.58ZM123.74,22l-2.14,5.42h-.06L119.32,22h-2l3.33,7.58-1.9,4.21h1.95L125.82,22Zm-16.81,8h1.87V17.5h-1.87Z"/><path class="a" d="M26.56,24.22,22.9,20.55,11,32.48a1.59,1.59,0,0,0,1.41-.2Z"/><path class="a" d="M10,8.94V31.06a2,2,0,0,0,.31,1L22.43,20,10.34,8A2,2,0,0,0,10,8.94Z"/><path class="a" d="M26.56,15.79,12.37,7.72A1.58,1.58,0,0,0,11,7.52L22.9,19.45Z"/><path class="a" d="M31.87,21.2a1.49,1.49,0,0,0,.9-1.2,1.49,1.49,0,0,0-.9-1.2l-4.7-2.67L23.3,20l3.87,3.87Z"/><path class="a" d="M41.28,13V7h1.83a3,3,0,0,1,2.21.83A2.94,2.94,0,0,1,46.16,10a2.94,2.94,0,0,1-.83,2.17,3,3,0,0,1-2.21.83Zm.77-.74h1.06a2.25,2.25,0,0,0,1.65-.6A2.23,2.23,0,0,0,45.37,10a2.23,2.23,0,0,0-.61-1.66,2.25,2.25,0,0,0-1.65-.6H42.05Z"/><path class="a" d="M47.24,13V7H48v6Z"/><path class="a" d="M51.08,13.13a2.24,2.24,0,0,1-1.28-.43,2,2,0,0,1-.82-1.2l.7-.28a1.61,1.61,0,0,0,.51.83,1.3,1.3,0,0,0,.88.34,1.4,1.4,0,0,0,.86-.26.84.84,0,0,0,.36-.72.92.92,0,0,0-.36-.77,3.68,3.68,0,0,0-1.13-.51,3,3,0,0,1-1.21-.65,1.36,1.36,0,0,1-.41-1,1.49,1.49,0,0,1,.51-1.12A1.87,1.87,0,0,1,51,6.87a1.93,1.93,0,0,1,1.24.38,1.76,1.76,0,0,1,.62.83l-.7.29a1,1,0,0,0-.37-.53,1.31,1.31,0,0,0-1.53,0,.75.75,0,0,0-.31.62.7.7,0,0,0,.29.57,2.78,2.78,0,0,0,.85.41,7.24,7.24,0,0,1,.74.28,3.38,3.38,0,0,1,.6.36,1.42,1.42,0,0,1,.46.55,1.79,1.79,0,0,1,.16.77,1.65,1.65,0,0,1-.18.78,1.46,1.46,0,0,1-.48.54,2.37,2.37,0,0,1-.64.31A2.4,2.4,0,0,1,51.08,13.13Z"/><path class="a" d="M55,13h-.77V7h2a1.9,1.9,0,0,1,1.32.51,1.74,1.74,0,0,1,0,2.56,1.89,1.89,0,0,1-1.32.51H55Zm0-3.17h1.29A1,1,0,0,0,57,9.51a1,1,0,0,0,0-1.44,1,1,0,0,0-.78-.33H55Z"/><path class="a" d="M64,12.22a3.12,3.12,0,0,1-4.4,0A3.07,3.07,0,0,1,58.7,10a3.07,3.07,0,0,1,.88-2.22,3.1,3.1,0,0,1,4.4,0A3.07,3.07,0,0,1,64.87,10,3.07,3.07,0,0,1,64,12.22Zm-3.83-.5a2.31,2.31,0,0,0,3.26,0A2.35,2.35,0,0,0,64.08,10a2.35,2.35,0,0,0-.67-1.72,2.31,2.31,0,0,0-3.26,0A2.35,2.35,0,0,0,59.49,10,2.35,2.35,0,0,0,60.16,11.72Z"/><path class="a" d="M66,13V7h.94l2.92,4.67h0l0-1.16V7h.77v6h-.8L66.72,8.11h0l0,1.16V13Z"/><path class="a" d="M72,13V7h.77v6Z"/><path class="a" d="M74.1,13V7h2.17a1.76,1.76,0,0,1,1.22.46A1.51,1.51,0,0,1,78,8.63a1.31,1.31,0,0,1-.22.75,1.39,1.39,0,0,1-.59.49v0a1.52,1.52,0,0,1,.73.52,1.36,1.36,0,0,1,.29.86,1.57,1.57,0,0,1-.54,1.22,1.85,1.85,0,0,1-1.28.49Zm.77-3.43h1.4a.9.9,0,0,0,.7-.29A.89.89,0,0,0,77,8a.86.86,0,0,0-.67-.29H74.87Zm0,2.69h1.55a.92.92,0,0,0,.72-.31,1,1,0,0,0,.28-.68,1,1,0,0,0-1-1H74.87Z"/><path class="a" d="M79.24,13V7H80v5.26h2.6V13Z"/><path class="a" d="M87.08,7.74H84.35v1.9h2.46v.72H84.35v1.9h2.73V13h-3.5V7h3.5Z"/><path class="a" d="M93.81,7.74H91.07v1.9h2.46v.72H91.07v1.9h2.73V13H90.3V7h3.5Z"/><path class="a" d="M95,13V7H96l2.92,4.67h0l0-1.16V7h.77v6h-.8L95.78,8.11h0l0,1.16V13Z"/></svg>