<?xml version="1.0" encoding="UTF-8" standalone="no"?>
<svg
   xmlns:dc="http://purl.org/dc/elements/1.1/"
   xmlns:cc="http://creativecommons.org/ns#"
   xmlns:rdf="http://www.w3.org/1999/02/22-rdf-syntax-ns#"
   xmlns:svg="http://www.w3.org/2000/svg"
   xmlns="http://www.w3.org/2000/svg"
   xmlns:sodipodi="http://sodipodi.sourceforge.net/DTD/sodipodi-0.dtd"
   xmlns:inkscape="http://www.inkscape.org/namespaces/inkscape"
   id="Layer_1"
   x="0px"
   y="0px"
   viewBox="0 0 152 60"
   style="enable-background:new 0 0 152 60;"
   xml:space="preserve"
   version="1.1"
   inkscape:version="0.91 r13725"
   sodipodi:docname="store-badge-google-play.svg"><metadata
     id="metadata67"><rdf:RDF><cc:Work
         rdf:about=""><dc:format>image/svg+xml</dc:format><dc:type
           rdf:resource="http://purl.org/dc/dcmitype/StillImage" /></cc:Work></rdf:RDF></metadata><defs
     id="defs65" /><sodipodi:namedview
     pagecolor="#ffffff"
     bordercolor="#666666"
     borderopacity="1"
     objecttolerance="10"
     gridtolerance="10"
     guidetolerance="10"
     inkscape:pageopacity="0"
     inkscape:pageshadow="2"
     inkscape:window-width="1366"
     inkscape:window-height="705"
     id="namedview63"
     showgrid="false"
     inkscape:zoom="3.0889401"
     inkscape:cx="57.477206"
     inkscape:cy="61.458924"
     inkscape:window-x="-8"
     inkscape:window-y="-8"
     inkscape:window-maximized="1"
     inkscape:current-layer="g5" /><style
     type="text/css"
     id="style3"> .st0{fill:#FFFFFF;fill-opacity:0;} .st1{fill:#888888;} .st2{fill:#3FE4FF;} .st3{fill:#FFB600;} .st4{fill:#DD1919;} .st5{fill:#00E950;} .st6{opacity:0.2;enable-background:new ;} .st7{opacity:0.12;enable-background:new ;} .st8{opacity:0.25;fill:#FFFFFF;enable-background:new ;} </style><g
     id="g5"><rect
       x="-0.2"
       y="0.4"
       class="st0"
       width="152.7"
       height="59.1"
       id="rect7" /><g
       id="g9"
       style="fill:#ffffff"><g
         id="g11"
         style="fill:#ffffff"><path
           class="st1"
           d="M137.7,11c2.3,0,4.1,1.9,4.1,4.1v29.6c0,2.3-1.9,4.1-4.1,4.1H14.6c-2.3,0-4.1-1.9-4.1-4.1V15.2 c0-2.3,1.9-4.1,4.1-4.1H137.7 M137.7,10.2H14.6c-2.7,0-4.9,2.2-4.9,4.9v29.6c0,2.7,2.2,4.9,4.9,4.9h123.1c2.7,0,4.9-2.2,4.9-4.9 V15.2C142.6,12.5,140.4,10.2,137.7,10.2L137.7,10.2z"
           id="path13"
           style="fill:#ffffff" /></g></g><path
       class="st1"
       d="M76.8,31.7c-2.3,0-4.2,1.8-4.2,4.2c0,2.4,1.9,4.2,4.2,4.2c2.3,0,4.2-1.8,4.2-4.2C81,33.4,79.1,31.7,76.8,31.7z M76.8,38.4c-1.3,0-2.4-1-2.4-2.5c0-1.5,1.1-2.5,2.4-2.5s2.4,1,2.4,2.5C79.1,37.3,78,38.4,76.8,38.4z M67.6,31.7 c-2.3,0-4.2,1.8-4.2,4.2c0,2.4,1.9,4.2,4.2,4.2c2.3,0,4.2-1.8,4.2-4.2C71.8,33.4,69.9,31.7,67.6,31.7z M67.6,38.4 c-1.3,0-2.4-1-2.4-2.5c0-1.5,1.1-2.5,2.4-2.5c1.3,0,2.4,1,2.4,2.5C70,37.3,68.9,38.4,67.6,38.4z M56.7,33v1.8h4.3 c-0.1,1-0.5,1.7-1,2.2c-0.6,0.6-1.6,1.3-3.3,1.3c-2.6,0-4.7-2.1-4.7-4.7s2-4.7,4.7-4.7c1.4,0,2.4,0.6,3.2,1.3l1.3-1.3 c-1.1-1-2.5-1.8-4.5-1.8c-3.6,0-6.6,2.9-6.6,6.5c0,3.6,3,6.5,6.6,6.5c1.9,0,3.4-0.6,4.5-1.8c1.2-1.2,1.5-2.8,1.5-4.2 c0-0.4,0-0.8-0.1-1.1H56.7z M101.3,34.3c-0.3-0.9-1.4-2.7-3.6-2.7c-2.2,0-4,1.7-4,4.2c0,2.3,1.8,4.2,4.2,4.2c1.9,0,3-1.2,3.5-1.9 l-1.4-1c-0.5,0.7-1.1,1.2-2.1,1.2c-0.9,0-1.6-0.4-2-1.3l5.6-2.3L101.3,34.3z M95.6,35.7c0-1.6,1.3-2.4,2.2-2.4 c0.7,0,1.3,0.4,1.6,0.9L95.6,35.7z M91,39.8h1.8V27.5H91V39.8z M88,32.6L88,32.6c-0.5-0.5-1.3-0.9-2.3-0.9c-2.1,0-4,1.8-4,4.2 c0,2.3,1.9,4.2,4,4.2c1,0,1.8-0.4,2.2-1H88v0.6c0,1.6-0.9,2.5-2.2,2.5c-1.1,0-1.8-0.8-2.1-1.5l-1.6,0.7c0.5,1.1,1.7,2.5,3.7,2.5 c2.2,0,4-1.3,4-4.4v-7.5H88V32.6z M85.9,38.4c-1.3,0-2.3-1.1-2.3-2.5c0-1.5,1.1-2.6,2.3-2.6c1.3,0,2.2,1.1,2.2,2.6 C88.1,37.3,87.2,38.4,85.9,38.4z M109.9,27.5h-4.4v12.3h1.8v-4.7h2.6c2,0,4-1.5,4-3.8S112,27.5,109.9,27.5z M110,33.4h-2.6v-4.2 h2.6c1.4,0,2.2,1.1,2.2,2.1C112.1,32.3,111.3,33.4,110,33.4z M121.3,31.6c-1.3,0-2.7,0.6-3.3,1.9l1.6,0.7c0.3-0.7,1-0.9,1.7-0.9 c1,0,1.9,0.6,1.9,1.6V35c-0.3-0.2-1-0.5-1.9-0.5c-1.8,0-3.5,1-3.5,2.8c0,1.6,1.4,2.7,3.1,2.7c1.2,0,1.9-0.6,2.3-1.2h0.1v1h1.8V35 C125.1,32.9,123.4,31.6,121.3,31.6z M121.1,38.4c-0.6,0-1.4-0.3-1.4-1c0-1,1-1.3,1.9-1.3c0.8,0,1.2,0.2,1.7,0.4 C123.2,37.6,122.2,38.4,121.1,38.4z M131.5,31.9l-2.1,5.3h-0.1l-2.2-5.3h-2l3.3,7.5l-1.9,4.2h1.9l5.1-11.6H131.5z M115,39.8h1.8 V27.5H115V39.8z"
       id="path15"
       style="fill:#ffffff" /><g
       id="g17"><path
         class="st2"
         d="M19.9,17.7c-0.3,0.3-0.5,0.8-0.5,1.4v21.8c0,0.6,0.2,1.1,0.5,1.4l0.1,0.1l12.2-12.2v-0.1v-0.1L19.9,17.7 L19.9,17.7z"
         id="path19" /><path
         class="st3"
         d="M36.3,34.2l-4.1-4.1v-0.1v-0.1l4.1-4.1l0.1,0.1l4.8,2.7c1.4,0.8,1.4,2.1,0,2.8L36.3,34.2L36.3,34.2z"
         id="path21" /><path
         class="st4"
         d="M36.4,34.1l-4.2-4.2L19.9,42.2c0.5,0.5,1.2,0.5,2,0.1L36.4,34.1"
         id="path23" /><path
         class="st5"
         d="M36.4,25.8L22,17.6c-0.8-0.5-1.6-0.4-2,0.1l12.3,12.3L36.4,25.8z"
         id="path25" /><g
         id="g27"><path
           class="st6"
           d="M36.3,34L22,42.1c-0.8,0.5-1.5,0.4-2,0l0,0l-0.1,0.1l0,0l0.1,0.1l0,0c0.5,0.4,1.2,0.4,2,0L36.3,34L36.3,34z"
           id="path29" /><path
           class="st7"
           d="M19.9,42.1c-0.3-0.3-0.5-0.8-0.5-1.4v0.1c0,0.6,0.2,1.1,0.5,1.4V42.1L19.9,42.1z"
           id="path31" /></g><path
         class="st7"
         d="M41.2,31.2L36.3,34l0.1,0.1l4.8-2.7c0.7-0.4,1-0.9,1-1.4l0,0C42.2,30.4,41.8,30.9,41.2,31.2z"
         id="path33" /><path
         class="st8"
         d="M22,17.7l19.2,10.9c0.6,0.4,1,0.8,1,1.3l0,0c0-0.5-0.3-1-1-1.4L22,17.6c-1.4-0.8-2.5-0.1-2.5,1.4v0.1 C19.5,17.6,20.6,17,22,17.7z"
         id="path35" /></g></g><g
     id="g37"><path
       class="st1"
       d="M49.3,23v-5.9h1.8c0.9,0,1.6,0.3,2.2,0.8c0.5,0.5,0.8,1.3,0.8,2.1c0,0.9-0.3,1.6-0.8,2.1 C52.8,22.8,52,23,51.1,23H49.3z M50.1,22.3h1c0.7,0,1.2-0.2,1.6-0.6c0.4-0.4,0.6-0.9,0.6-1.6c0-0.7-0.2-1.2-0.6-1.6 c-0.4-0.4-0.9-0.6-1.6-0.6h-1V22.3z"
       id="path39"
       style="fill:#ffffff" /><path
       class="st1"
       d="M55.2,23v-5.9h0.8V23H55.2z"
       id="path41"
       style="fill:#ffffff" /><path
       class="st1"
       d="M59,23.2c-0.4,0-0.8-0.1-1.3-0.4c-0.4-0.3-0.7-0.7-0.8-1.2l0.7-0.3c0.1,0.3,0.3,0.6,0.5,0.8 c0.3,0.2,0.5,0.3,0.9,0.3c0.3,0,0.6-0.1,0.8-0.3c0.2-0.2,0.4-0.4,0.4-0.7c0-0.3-0.1-0.6-0.4-0.8c-0.2-0.2-0.6-0.3-1.1-0.5 c-0.5-0.2-0.9-0.4-1.2-0.6c-0.3-0.3-0.4-0.6-0.4-1c0-0.4,0.2-0.8,0.5-1.1c0.3-0.3,0.8-0.5,1.3-0.5c0.5,0,0.9,0.1,1.2,0.4 c0.3,0.3,0.5,0.5,0.6,0.8l-0.7,0.3c-0.1-0.2-0.2-0.4-0.4-0.5c-0.2-0.2-0.4-0.2-0.8-0.2c-0.3,0-0.5,0.1-0.7,0.2 c-0.2,0.2-0.3,0.4-0.3,0.6c0,0.2,0.1,0.4,0.3,0.6c0.2,0.2,0.5,0.3,0.8,0.4c0.3,0.1,0.5,0.2,0.7,0.3c0.2,0.1,0.4,0.2,0.6,0.4 c0.2,0.1,0.4,0.3,0.5,0.5s0.2,0.5,0.2,0.8c0,0.3-0.1,0.5-0.2,0.8c-0.1,0.2-0.3,0.4-0.5,0.5c-0.2,0.1-0.4,0.2-0.6,0.3 C59.4,23.1,59.2,23.2,59,23.2z"
       id="path43"
       style="fill:#ffffff" /><path
       class="st1"
       d="M62.8,23H62v-5.9h2c0.5,0,0.9,0.2,1.3,0.5c0.4,0.3,0.5,0.8,0.5,1.3c0,0.5-0.2,0.9-0.5,1.3 c-0.4,0.3-0.8,0.5-1.3,0.5h-1.3V23z M62.8,19.9h1.3c0.3,0,0.6-0.1,0.8-0.3c0.2-0.2,0.3-0.5,0.3-0.7s-0.1-0.5-0.3-0.7 c-0.2-0.2-0.4-0.3-0.8-0.3h-1.3V19.9z"
       id="path45"
       style="fill:#ffffff" /><path
       class="st1"
       d="M71.7,22.3c-0.6,0.6-1.3,0.9-2.2,0.9c-0.9,0-1.6-0.3-2.2-0.9c-0.6-0.6-0.9-1.3-0.9-2.2s0.3-1.6,0.9-2.2 c0.6-0.6,1.3-0.9,2.2-0.9c0.9,0,1.6,0.3,2.2,0.9c0.6,0.6,0.9,1.3,0.9,2.2C72.5,21,72.3,21.7,71.7,22.3z M67.9,21.8 c0.4,0.4,1,0.7,1.6,0.7c0.6,0,1.2-0.2,1.6-0.7c0.4-0.4,0.7-1,0.7-1.7s-0.2-1.3-0.7-1.7c-0.4-0.4-1-0.7-1.6-0.7 c-0.6,0-1.2,0.2-1.6,0.7c-0.4,0.4-0.7,1-0.7,1.7S67.5,21.3,67.9,21.8z"
       id="path47"
       style="fill:#ffffff" /><path
       class="st1"
       d="M73.6,23v-5.9h0.9l2.9,4.6h0l0-1.1v-3.5h0.8V23h-0.8l-3-4.8h0l0,1.1V23H73.6z"
       id="path49"
       style="fill:#ffffff" /><path
       class="st1"
       d="M79.5,23v-5.9h0.8V23H79.5z"
       id="path51"
       style="fill:#ffffff" /><path
       class="st1"
       d="M81.6,23v-5.9h2.1c0.5,0,0.9,0.2,1.2,0.5c0.3,0.3,0.5,0.7,0.5,1.2c0,0.3-0.1,0.5-0.2,0.7 c-0.1,0.2-0.3,0.4-0.6,0.5v0c0.3,0.1,0.5,0.3,0.7,0.5c0.2,0.2,0.3,0.5,0.3,0.8c0,0.5-0.2,0.9-0.5,1.2c-0.4,0.3-0.8,0.5-1.3,0.5 H81.6z M82.4,19.7h1.4c0.3,0,0.5-0.1,0.7-0.3c0.2-0.2,0.3-0.4,0.3-0.6c0-0.2-0.1-0.4-0.3-0.6c-0.2-0.2-0.4-0.3-0.7-0.3h-1.4V19.7z M82.4,22.3h1.5c0.3,0,0.5-0.1,0.7-0.3c0.2-0.2,0.3-0.4,0.3-0.7c0-0.2-0.1-0.5-0.3-0.7c-0.2-0.2-0.4-0.3-0.7-0.3h-1.5V22.3z"
       id="path53"
       style="fill:#ffffff" /><path
       class="st1"
       d="M86.7,23v-5.9h0.8v5.2H90V23H86.7z"
       id="path55"
       style="fill:#ffffff" /><path
       class="st1"
       d="M94.4,17.9h-2.7v1.9h2.4v0.7h-2.4v1.9h2.7V23H91v-5.9h3.5V17.9z"
       id="path57"
       style="fill:#ffffff" /><path
       class="st1"
       d="M101,17.9h-2.7v1.9h2.4v0.7h-2.4v1.9h2.7V23h-3.5v-5.9h3.5V17.9z"
       id="path59"
       style="fill:#ffffff" /><path
       class="st1"
       d="M102.2,23v-5.9h0.9l2.9,4.6h0l0-1.1v-3.5h0.8V23H106l-3-4.8h0l0,1.1V23H102.2z"
       id="path61"
       style="fill:#ffffff" /></g></svg>