<?xml version="1.0" encoding="UTF-8" ?>
<!DOCTYPE svg PUBLIC "-//W3C//DTD SVG 1.1//EN" "http://www.w3.org/Graphics/SVG/1.1/DTD/svg11.dtd">
<svg width="571pt" height="193pt" viewBox="0 0 571 193" version="1.1" xmlns="http://www.w3.org/2000/svg">
<g id="#ffffffff">
<path fill="#ffffff" opacity="1.00" d=" M 77.50 10.68 C 84.43 8.20 91.77 6.48 99.17 7.02 C 106.42 7.94 113.72 9.85 119.93 13.84 C 126.69 17.96 131.67 24.22 136.89 30.02 C 143.52 36.77 149.66 43.96 156.25 50.75 C 160.14 55.22 164.33 59.45 167.74 64.32 C 168.40 65.33 169.07 66.34 169.76 67.34 C 170.59 68.78 171.52 70.16 172.35 71.61 C 172.95 72.96 173.64 74.27 174.34 75.57 C 180.91 88.89 181.34 105.15 174.35 118.39 C 172.39 121.97 170.17 125.44 167.34 128.40 C 157.92 137.97 148.18 147.22 138.88 156.90 C 130.76 165.13 121.43 172.43 110.65 176.80 C 103.04 179.02 95.21 182.39 87.14 180.59 C 81.46 178.91 75.59 177.66 70.36 174.75 C 61.91 169.80 55.44 162.27 47.86 156.18 C 41.21 149.79 33.56 144.52 27.27 137.75 C 22.46 132.43 17.87 126.86 14.27 120.64 C 13.27 118.63 12.25 116.64 11.23 114.65 C 8.50 108.08 6.86 101.07 5.98 94.04 C 7.07 83.18 10.39 72.07 17.77 63.76 C 24.59 56.58 31.64 49.63 38.27 42.27 C 45.00 35.63 51.13 28.36 58.41 22.29 C 64.25 17.64 70.52 13.42 77.50 10.68 M 89.49 11.62 C 75.15 13.89 62.93 22.79 52.90 32.84 C 42.62 43.90 32.06 54.68 21.65 65.62 C 12.30 75.72 8.42 90.61 11.92 103.96 C 15.70 119.29 26.26 131.94 37.87 142.18 C 47.66 150.25 56.98 158.90 66.54 167.25 C 76.33 175.18 89.79 178.10 102.02 175.19 C 114.62 172.27 125.45 164.41 134.53 155.47 C 144.08 145.66 153.87 136.09 163.55 126.41 C 169.25 120.64 173.02 113.06 174.64 105.14 C 177.06 93.75 173.63 81.92 167.85 72.09 C 162.86 63.39 155.68 56.31 148.96 48.98 C 141.28 40.67 133.60 32.36 125.93 24.05 C 116.83 14.19 102.69 9.48 89.49 11.62 Z" />
<path fill="#ffffff" opacity="1.00" d=" M 86.89 17.97 C 99.70 14.45 114.24 19.04 122.85 29.11 C 125.63 32.24 128.66 35.15 131.32 38.40 C 123.14 34.65 114.01 32.47 105.00 33.76 C 100.20 34.56 95.39 36.43 92.01 40.06 C 75.62 56.64 59.03 73.02 42.69 89.64 C 38.17 82.25 37.62 73.05 39.77 64.80 C 42.31 54.96 48.15 46.31 54.98 38.93 C 63.80 29.67 74.27 21.20 86.89 17.97 M 71.65 29.71 C 60.06 38.06 49.75 49.05 44.66 62.59 C 42.59 67.84 42.57 73.58 43.01 79.12 C 43.02 80.23 43.31 81.25 43.90 82.20 C 45.98 80.93 47.47 78.89 49.23 77.23 C 60.73 65.72 72.22 54.19 83.69 42.64 C 87.76 38.63 91.45 33.89 96.96 31.79 C 103.72 29.18 111.28 28.17 118.37 30.07 C 113.53 25.64 107.53 22.40 101.02 21.34 C 90.55 19.55 80.06 23.68 71.65 29.71 Z" />
<path fill="#ffffff" opacity="1.00" d=" M 190.00 33.91 C 189.53 30.79 192.32 28.74 195.00 28.01 C 196.94 28.69 198.72 29.69 200.02 31.32 C 199.96 72.91 200.04 114.49 199.99 156.07 C 199.95 161.50 190.33 161.64 190.04 156.15 C 189.94 115.41 190.03 74.66 190.00 33.91 M 194.07 32.63 C 194.37 73.80 194.01 114.96 194.09 156.13 C 194.56 156.13 195.50 156.13 195.97 156.13 C 196.02 114.95 195.73 73.77 195.96 32.60 C 195.48 32.61 194.54 32.63 194.07 32.63 Z" />
<path fill="#ffffff" opacity="1.00" d=" M 98.13 41.90 C 105.51 38.20 114.20 38.60 121.94 40.90 C 133.27 44.24 143.12 51.38 151.21 59.85 C 161.32 70.33 170.29 83.82 169.58 98.98 C 169.35 109.96 163.15 119.86 155.01 126.85 C 156.85 121.83 158.01 116.45 157.39 111.08 C 156.69 103.59 152.78 96.71 147.55 91.43 C 131.06 74.93 114.62 58.39 98.13 41.90 M 105.38 43.55 C 120.74 58.88 136.06 74.24 151.42 89.57 C 153.80 91.90 155.62 94.71 157.32 97.55 C 157.58 98.06 158.09 99.08 158.35 99.59 C 160.30 103.88 161.51 108.52 161.46 113.26 C 161.78 112.55 162.41 111.14 162.72 110.44 C 165.78 104.02 165.90 96.75 164.86 89.84 C 163.85 86.70 162.81 83.57 161.35 80.61 C 160.20 78.49 159.00 76.40 157.77 74.33 C 149.11 62.06 137.74 50.90 123.38 45.70 C 117.64 43.78 111.42 42.31 105.38 43.55 Z" />
<path fill="#ffffff" opacity="1.00" d=" M 72.56 67.74 C 78.88 61.28 85.34 54.96 91.64 48.49 C 91.59 61.23 91.48 73.98 91.69 86.73 C 85.26 80.46 79.08 73.93 72.56 67.74 M 78.13 67.53 C 81.43 70.62 84.75 73.71 87.71 77.14 C 87.36 70.72 87.32 64.27 87.73 57.86 C 84.74 61.28 81.46 64.44 78.13 67.53 Z" />
<path fill="#ffffff" opacity="1.00" d=" M 96.92 48.84 C 103.43 55.10 109.62 61.69 116.16 67.92 C 109.60 74.12 103.40 80.68 96.92 86.96 C 97.22 74.26 97.24 61.54 96.92 48.84 M 101.03 58.69 C 101.10 64.85 101.08 71.01 101.04 77.17 C 104.07 74.05 107.17 71.00 110.25 67.92 C 107.19 64.83 104.15 61.71 101.03 58.69 Z" />
<path fill="#ffffff" opacity="1.00" d=" M 253.30 49.46 C 257.14 49.50 260.98 49.49 264.82 49.47 C 276.00 78.70 286.96 108.01 298.20 137.21 C 294.42 137.20 290.64 137.19 286.86 137.21 C 283.69 129.29 280.98 121.20 278.00 113.20 C 265.42 113.19 252.84 113.20 240.27 113.19 C 237.25 121.02 234.50 128.96 231.53 136.80 C 227.57 137.81 223.09 136.86 218.94 137.25 C 221.31 135.79 221.56 132.83 222.62 130.50 C 232.83 103.48 242.93 76.42 253.30 49.46 M 258.76 61.94 C 254.11 75.88 248.73 89.57 243.67 103.37 C 253.97 103.34 264.26 103.29 274.55 103.39 C 270.02 91.60 265.75 79.70 261.34 67.86 C 260.51 65.88 260.20 63.61 258.76 61.94 Z" />
<path fill="#ffffff" opacity="1.00" d=" M 301.46 49.49 C 304.97 49.48 308.47 49.47 311.98 49.52 C 311.79 78.74 311.87 107.97 311.94 137.20 C 308.46 137.21 304.97 137.20 301.49 137.21 C 301.53 107.97 301.58 78.73 301.46 49.49 Z" />
<path fill="#ffffff" opacity="1.00" d=" M 24.75 70.81 C 28.16 66.98 31.66 63.22 35.42 59.73 C 30.86 72.50 32.08 88.83 42.75 98.25 C 58.58 114.09 74.37 129.97 90.18 145.83 C 85.14 149.36 79.27 151.97 73.01 151.92 C 60.96 152.11 50.05 145.40 41.50 137.43 C 31.21 128.72 22.15 117.85 18.05 104.82 C 14.41 93.29 16.93 80.08 24.75 70.81 M 28.91 71.99 C 26.18 75.47 23.88 79.27 22.23 83.38 C 19.39 91.94 20.29 101.57 24.26 109.64 C 28.63 118.77 35.27 126.63 42.88 133.22 C 49.66 139.61 57.60 145.41 66.90 147.28 C 72.47 148.83 78.64 147.85 83.58 144.91 C 67.79 129.19 52.12 113.35 36.37 97.59 C 34.22 95.24 33.10 92.18 31.64 89.40 C 29.62 83.83 28.42 77.93 28.91 71.99 Z" />
<path fill="#ffffff" opacity="1.00" d=" M 46.41 93.89 C 53.90 86.46 61.29 78.94 68.78 71.50 C 75.96 78.86 83.23 86.13 90.57 93.34 C 83.15 100.85 75.63 108.25 68.22 115.77 C 61.09 108.34 53.82 101.04 46.41 93.89 M 68.55 77.13 C 63.25 82.76 57.83 88.30 52.17 93.57 C 57.50 99.10 62.98 104.49 68.43 109.90 C 73.76 104.28 79.25 98.80 84.87 93.46 C 79.39 88.06 73.96 82.60 68.55 77.13 Z" />
<path fill="#ffffff" opacity="1.00" d=" M 98.26 93.33 C 105.62 86.26 112.74 78.95 119.94 71.71 C 127.20 79.20 134.57 86.58 142.03 93.87 C 134.62 100.89 127.60 108.31 120.29 115.45 C 113.03 108.00 105.59 100.72 98.26 93.33 M 119.46 78.07 C 114.25 83.14 109.21 88.39 104.00 93.46 C 109.65 98.76 114.97 104.40 120.48 109.85 C 125.56 104.40 130.97 99.27 136.16 93.93 C 130.83 88.60 125.61 83.15 120.17 77.93 L 119.46 78.07 Z" />
<path fill="#ffffff" opacity="1.00" d=" M 326.20 82.18 C 335.62 72.20 351.85 70.09 363.85 76.37 C 369.41 79.28 373.41 84.40 375.88 90.08 C 372.69 91.35 369.54 92.73 366.36 94.02 C 364.38 89.54 361.01 85.47 356.32 83.71 C 350.05 81.39 342.48 81.89 337.05 86.00 C 324.10 95.23 324.31 117.60 337.58 126.44 C 347.19 133.19 362.64 129.35 366.85 118.00 C 369.95 119.38 373.09 120.67 376.21 122.00 C 373.58 127.65 369.42 132.66 363.88 135.63 C 360.90 137.51 357.31 137.87 354.17 139.36 C 344.29 140.73 333.85 137.28 326.71 130.32 C 314.19 117.66 314.07 95.13 326.20 82.18 Z" />
<path fill="#ffffff" opacity="1.00" d=" M 379.33 84.89 C 384.34 77.48 393.12 73.24 401.94 72.91 C 410.01 72.54 418.84 74.34 424.62 80.38 C 429.26 84.97 431.06 91.63 431.10 98.00 C 431.12 111.07 431.09 124.14 431.11 137.21 C 427.79 137.21 424.48 137.21 421.17 137.20 C 421.22 134.08 421.25 130.96 421.27 127.84 C 419.00 130.71 416.62 133.59 413.43 135.49 C 410.88 137.28 407.78 137.90 405.06 139.34 C 398.32 140.49 391.48 138.59 385.75 135.05 C 378.62 130.54 375.45 121.16 377.63 113.13 C 379.13 106.07 385.40 101.13 392.01 99.03 C 401.59 96.00 412.36 96.98 421.37 101.41 C 421.30 96.81 421.17 91.68 417.89 88.06 C 409.95 79.00 393.57 80.73 387.17 90.79 C 384.64 88.71 382.00 86.77 379.33 84.89 M 397.48 106.64 C 392.27 107.84 387.59 112.44 387.70 118.03 C 387.21 122.89 390.72 127.30 395.13 128.91 C 401.27 131.06 408.55 129.92 413.56 125.68 C 418.36 121.99 421.08 116.10 421.32 110.10 C 414.15 106.05 405.50 104.74 397.48 106.64 Z" />
<path fill="#ffffff" opacity="1.00" d=" M 500.30 80.32 C 511.89 69.32 532.88 70.51 542.83 83.14 C 548.36 90.09 550.40 99.40 549.49 108.13 C 532.97 108.16 516.45 108.02 499.93 108.19 C 500.54 114.04 502.47 120.05 506.90 124.14 C 512.81 129.92 522.31 131.26 529.80 127.98 C 534.13 126.07 537.23 122.34 539.78 118.47 C 542.63 120.03 545.56 121.45 548.51 122.82 C 543.97 130.99 536.06 137.55 526.60 138.78 L 526.59 139.45 C 521.96 139.51 517.14 140.18 512.77 138.26 C 503.10 135.89 495.07 128.32 491.85 118.93 C 487.36 105.92 489.87 89.84 500.30 80.32 M 514.23 83.06 C 506.84 85.20 502.18 92.31 500.59 99.51 C 513.41 99.42 526.24 99.64 539.06 99.39 C 538.03 94.68 536.49 89.67 532.52 86.58 C 527.60 82.22 520.39 81.57 514.23 83.06 Z" />
<path fill="#ffffff" opacity="1.00" d=" M 431.17 74.82 C 434.90 74.85 438.63 74.85 442.36 74.83 C 449.05 91.54 455.10 108.55 462.03 125.14 C 468.31 108.32 475.09 91.68 481.45 74.89 C 485.11 74.81 488.78 74.85 492.45 74.84 C 483.84 95.58 475.55 116.45 466.97 137.20 C 463.44 137.20 459.90 137.24 456.38 137.11 C 448.01 116.34 439.79 95.50 431.17 74.82 Z" />
<path fill="#ffffff" opacity="1.00" d=" M 145.85 97.90 C 149.72 102.72 152.37 108.77 151.90 115.05 C 151.24 124.57 146.13 133.10 140.39 140.47 C 132.60 150.03 123.63 158.94 112.75 164.94 C 102.88 170.45 90.60 172.56 79.89 168.21 C 73.27 165.97 68.16 161.09 63.04 156.57 C 74.10 159.51 86.64 156.94 95.01 148.96 C 111.95 131.94 128.97 114.98 145.85 97.90 M 141.81 107.76 C 127.31 122.28 112.90 136.87 98.40 151.39 C 95.82 153.96 92.74 155.96 89.60 157.78 C 85.38 159.91 80.76 160.96 76.12 161.72 C 76.74 162.12 77.98 162.94 78.60 163.34 C 91.33 169.65 106.49 165.53 117.32 157.30 C 129.08 148.37 139.70 137.24 145.80 123.65 C 147.83 118.55 148.51 112.79 146.80 107.50 C 146.48 106.75 145.82 105.26 145.49 104.52 C 144.20 105.53 142.96 106.60 141.81 107.76 Z" />
<path fill="#ffffff" opacity="1.00" d=" M 72.13 119.60 C 78.73 113.16 85.14 106.53 91.71 100.06 C 91.47 113.08 91.54 126.11 91.67 139.13 C 85.12 132.67 78.72 126.04 72.13 119.60 M 87.68 109.85 C 84.41 113.06 81.26 116.39 77.87 119.48 C 81.17 122.84 84.75 125.96 87.63 129.70 C 87.41 123.09 87.35 116.46 87.68 109.85 Z" />
<path fill="#ffffff" opacity="1.00" d=" M 97.05 99.96 C 103.62 106.34 109.89 113.02 116.56 119.28 C 109.96 125.74 103.57 132.39 96.96 138.84 C 97.26 125.88 97.10 112.92 97.05 99.96 M 101.03 109.70 C 101.09 116.19 101.09 122.68 101.04 129.17 C 104.27 125.91 107.44 122.57 110.86 119.48 C 107.50 116.30 104.36 112.91 101.03 109.70 Z" />
</g>
<g id="#01a0d7ff">
<path fill="#01a0d7" opacity="1.00" d=" M 89.49 11.62 C 102.69 9.48 116.83 14.19 125.93 24.05 C 133.60 32.36 141.28 40.67 148.96 48.98 C 155.68 56.31 162.86 63.39 167.85 72.09 C 173.63 81.92 177.06 93.75 174.64 105.14 C 173.02 113.06 169.25 120.64 163.55 126.41 C 153.87 136.09 144.08 145.66 134.53 155.47 C 125.45 164.41 114.62 172.27 102.02 175.19 C 89.79 178.10 76.33 175.18 66.54 167.25 C 56.98 158.90 47.66 150.25 37.87 142.18 C 26.26 131.94 15.70 119.29 11.92 103.96 C 8.42 90.61 12.30 75.72 21.65 65.62 C 32.06 54.68 42.62 43.90 52.90 32.84 C 62.93 22.79 75.15 13.89 89.49 11.62 M 86.89 17.97 C 74.27 21.20 63.80 29.67 54.98 38.93 C 48.15 46.31 42.31 54.96 39.77 64.80 C 37.62 73.05 38.17 82.25 42.69 89.64 C 59.03 73.02 75.62 56.64 92.01 40.06 C 95.39 36.43 100.20 34.56 105.00 33.76 C 114.01 32.47 123.14 34.65 131.32 38.40 C 128.66 35.15 125.63 32.24 122.85 29.11 C 114.24 19.04 99.70 14.45 86.89 17.97 M 98.13 41.90 C 114.62 58.39 131.06 74.93 147.55 91.43 C 152.78 96.71 156.69 103.59 157.39 111.08 C 158.01 116.45 156.85 121.83 155.01 126.85 C 163.15 119.86 169.35 109.96 169.58 98.98 C 170.29 83.82 161.32 70.33 151.21 59.85 C 143.12 51.38 133.27 44.24 121.94 40.90 C 114.20 38.60 105.51 38.20 98.13 41.90 M 72.56 67.74 C 79.08 73.93 85.26 80.46 91.69 86.73 C 91.48 73.98 91.59 61.23 91.64 48.49 C 85.34 54.96 78.88 61.28 72.56 67.74 M 96.92 48.84 C 97.24 61.54 97.22 74.26 96.92 86.96 C 103.40 80.68 109.60 74.12 116.16 67.92 C 109.62 61.69 103.43 55.10 96.92 48.84 M 24.75 70.81 C 16.93 80.08 14.41 93.29 18.05 104.82 C 22.15 117.85 31.21 128.72 41.50 137.43 C 50.05 145.40 60.96 152.11 73.01 151.92 C 79.27 151.97 85.14 149.36 90.18 145.83 C 74.37 129.97 58.58 114.09 42.75 98.25 C 32.08 88.83 30.86 72.50 35.42 59.73 C 31.66 63.22 28.16 66.98 24.75 70.81 M 46.41 93.89 C 53.82 101.04 61.09 108.34 68.22 115.77 C 75.63 108.25 83.15 100.85 90.57 93.34 C 83.23 86.13 75.96 78.86 68.78 71.50 C 61.29 78.94 53.90 86.46 46.41 93.89 M 98.26 93.33 C 105.59 100.72 113.03 108.00 120.29 115.45 C 127.60 108.31 134.62 100.89 142.03 93.87 C 134.57 86.58 127.20 79.20 119.94 71.71 C 112.74 78.95 105.62 86.26 98.26 93.33 M 145.85 97.90 C 128.97 114.98 111.95 131.94 95.01 148.96 C 86.64 156.94 74.10 159.51 63.04 156.57 C 68.16 161.09 73.27 165.97 79.89 168.21 C 90.60 172.56 102.88 170.45 112.75 164.94 C 123.63 158.94 132.60 150.03 140.39 140.47 C 146.13 133.10 151.24 124.57 151.90 115.05 C 152.37 108.77 149.72 102.72 145.85 97.90 M 72.13 119.60 C 78.72 126.04 85.12 132.67 91.67 139.13 C 91.54 126.11 91.47 113.08 91.71 100.06 C 85.14 106.53 78.73 113.16 72.13 119.60 M 97.05 99.96 C 97.10 112.92 97.26 125.88 96.96 138.84 C 103.57 132.39 109.96 125.74 116.56 119.28 C 109.89 113.02 103.62 106.34 97.05 99.96 Z" />
<path fill="#01a0d7" opacity="1.00" d=" M 194.07 32.63 C 194.54 32.63 195.48 32.61 195.96 32.60 C 195.73 73.77 196.02 114.95 195.97 156.13 C 195.50 156.13 194.56 156.13 194.09 156.13 C 194.01 114.96 194.37 73.80 194.07 32.63 Z" />
</g>
</svg>
