<?xml version="1.0" encoding="UTF-8" ?>
<!DOCTYPE svg PUBLIC "-//W3C//DTD SVG 1.1//EN" "http://www.w3.org/Graphics/SVG/1.1/DTD/svg11.dtd">
<svg width="1030pt" height="1061pt" viewBox="0 0 1030 1061" version="1.1" xmlns="http://www.w3.org/2000/svg">
<g id="#ffffffff">
<path fill="#ffffff" opacity="1.00" d=" M 501.63 84.71 C 515.34 83.11 529.22 83.12 542.98 83.98 C 562.88 85.57 582.46 90.22 601.41 96.41 C 624.25 104.39 645.71 116.17 664.91 130.87 C 672.61 136.81 680.25 142.94 686.75 150.20 C 734.34 201.66 781.95 253.09 829.54 304.53 C 840.69 316.71 852.16 328.60 862.68 341.35 C 882.39 365.38 900.56 390.93 914.19 418.96 C 926.62 443.44 934.76 469.94 939.58 496.92 C 944.40 524.78 943.82 553.58 937.43 581.15 C 928.98 623.18 907.77 662.27 878.15 693.14 C 870.78 699.40 864.32 706.64 857.37 713.36 C 839.60 730.92 822.26 748.94 804.14 766.13 C 787.20 783.18 770.03 800.03 753.22 817.21 C 737.72 833.37 721.94 849.32 704.80 863.78 C 669.43 893.86 629.76 919.93 585.40 934.57 C 560.02 942.30 533.68 948.21 507.00 947.50 C 488.49 947.94 470.05 944.89 452.17 940.27 C 417.98 932.23 386.28 915.10 359.53 892.48 C 353.81 887.91 348.99 882.37 343.34 877.72 C 313.08 850.96 282.77 824.25 252.47 797.52 C 244.49 790.02 235.37 783.90 227.17 776.66 C 215.41 766.84 204.40 756.19 193.34 745.62 C 183.30 735.02 173.08 724.57 163.70 713.35 C 138.33 683.34 115.76 650.49 100.57 614.10 C 92.08 594.02 86.53 572.81 82.70 551.39 C 79.79 535.01 79.58 518.31 80.22 501.74 C 81.14 486.62 84.14 471.72 87.89 457.07 C 97.04 420.92 116.04 387.57 141.15 360.14 C 153.08 348.37 164.27 335.93 176.12 324.09 C 179.97 319.26 184.77 315.31 188.87 310.71 C 192.50 306.38 196.85 302.73 200.61 298.53 C 204.29 293.93 208.90 290.20 212.78 285.79 C 216.24 281.64 220.41 278.16 224.02 274.14 C 227.72 269.50 232.35 265.72 236.30 261.30 C 240.51 256.23 245.75 252.12 249.86 246.96 C 254.05 242.46 258.69 238.38 262.64 233.65 C 271.18 225.52 278.64 216.37 286.68 207.77 C 308.57 184.83 332.04 163.32 357.76 144.73 C 377.15 130.35 397.95 117.85 419.88 107.75 C 445.72 95.91 473.46 88.30 501.63 84.71 M 508.55 103.76 C 459.44 107.87 413.33 129.23 373.59 157.57 C 344.56 178.37 318.06 202.62 294.10 229.06 C 287.81 236.45 280.94 243.30 274.25 250.32 C 233.76 292.47 193.35 334.69 152.82 376.80 C 125.68 407.23 107.51 445.68 101.62 486.06 C 95.40 527.77 102.97 570.75 119.86 609.15 C 134.08 641.83 154.27 671.61 177.23 698.75 C 198.52 723.72 221.94 746.91 247.33 767.71 C 252.58 772.12 258.24 776.02 263.31 780.66 C 285.43 800.20 307.58 819.73 329.70 839.27 C 343.07 851.26 356.87 862.77 369.81 875.22 C 407.03 908.23 456.23 927.82 506.09 928.01 C 537.87 928.36 569.44 921.07 598.59 908.61 C 647.14 887.83 689.01 854.25 725.96 817.00 C 735.13 807.83 743.67 798.05 753.06 789.09 C 787.87 754.55 822.67 720.00 857.48 685.45 C 897.63 647.97 921.82 593.90 923.00 538.98 C 923.81 507.48 917.14 476.04 905.23 446.95 C 891.77 413.97 872.07 383.86 849.47 356.45 C 838.74 343.27 826.93 331.05 815.46 318.52 C 767.23 266.44 719.06 214.30 670.81 162.24 C 657.16 148.40 641.06 137.13 624.02 127.87 C 588.95 108.85 548.32 100.24 508.55 103.76 Z" />
<path fill="#ffffff" opacity="1.00" d=" M 458.81 143.91 C 485.97 134.04 515.30 129.44 544.13 132.48 C 578.94 136.08 612.31 150.54 639.53 172.39 C 650.36 180.85 658.92 191.69 668.39 201.56 C 679.91 214.05 691.52 226.47 702.99 239.02 C 666.79 222.56 627.02 212.43 587.06 214.65 C 561.50 216.10 535.52 223.16 515.01 238.96 C 429.92 324.17 344.86 409.43 259.72 494.59 C 245.59 472.83 239.23 446.70 238.84 420.93 C 238.37 389.43 246.64 358.29 259.91 329.89 C 274.99 297.60 296.34 268.59 320.49 242.52 C 337.70 224.06 356.29 206.85 376.15 191.26 C 401.25 171.67 428.79 154.80 458.81 143.91 M 500.11 153.23 C 480.54 155.86 461.97 163.14 444.17 171.43 C 400.95 192.54 364.13 224.63 331.65 259.67 C 300.51 293.68 274.72 333.79 263.03 378.76 C 258.93 397.13 257.33 416.17 259.39 434.91 C 260.23 443.84 261.91 452.72 265.14 461.10 C 322.83 403.47 380.47 345.79 438.14 288.14 C 447.52 278.53 457.41 269.40 466.34 259.37 C 478.03 247.73 489.67 236.04 501.35 224.38 C 504.44 221.35 508.40 219.50 511.95 217.09 C 524.27 209.02 538.18 203.58 552.52 200.39 C 580.64 192.89 610.36 193.14 638.83 198.50 C 618.40 177.66 591.78 163.52 563.86 155.58 C 543.04 150.65 521.25 150.20 500.11 153.23 Z" />
<path fill="#ffffff" opacity="1.00" d=" M 537.98 257.81 C 555.46 246.72 576.61 243.10 597.02 242.90 C 632.34 243.10 667.07 253.09 698.67 268.47 C 730.62 284.06 759.56 305.34 785.42 329.63 C 807.53 350.60 828.04 373.36 845.69 398.24 C 864.50 424.84 879.99 454.18 888.23 485.83 C 895.46 513.36 896.76 542.60 890.72 570.48 C 883.93 601.88 868.74 631.44 847.22 655.28 C 838.78 663.93 830.14 672.39 821.52 680.85 C 832.75 651.50 837.61 619.03 831.07 588.01 C 826.94 567.76 818.23 548.61 806.56 531.62 C 802.77 525.79 798.00 520.67 794.43 514.71 C 708.99 429.04 623.45 343.46 537.98 257.81 M 572.96 264.69 C 608.35 300.07 643.73 335.46 679.11 370.85 C 683.18 375.77 687.90 380.10 692.38 384.65 C 731.52 423.82 770.72 462.94 809.84 502.14 C 817.05 512.91 825.31 523.04 831.58 534.45 C 839.26 547.73 844.91 562.18 848.39 577.13 C 851.29 588.88 853.67 600.90 853.48 613.06 C 863.56 594.83 871.55 574.99 873.66 554.12 C 876.71 527.96 874.01 500.99 864.86 476.22 C 848.78 431.07 819.33 391.95 785.93 358.11 C 783.28 354.82 780.29 351.80 776.99 349.16 C 748.69 321.20 715.95 297.30 679.39 281.31 C 658.61 272.18 636.63 265.29 613.91 263.47 C 600.27 261.94 586.48 262.41 572.96 264.69 Z" />
<path fill="#ffffff" opacity="1.00" d=" M 409.18 385.35 C 440.80 353.71 472.38 322.03 504.01 290.38 C 504.02 353.65 504.01 416.91 503.99 480.17 C 472.38 448.57 440.76 416.98 409.18 385.35 M 474.13 348.12 C 462.25 360.97 449.50 373.00 437.25 385.49 C 452.97 401.27 468.73 417.01 484.50 432.74 C 484.52 401.09 484.47 369.44 484.52 337.79 C 481.02 341.20 477.61 344.69 474.13 348.12 Z" />
<path fill="#ffffff" opacity="1.00" d=" M 531.50 291.73 C 558.97 319.17 586.37 346.68 613.82 374.15 C 617.92 378.38 622.27 382.38 626.22 386.77 C 594.59 418.22 563.17 449.89 531.52 481.34 C 531.47 418.14 531.50 354.93 531.50 291.73 M 551.00 339.30 C 551.00 370.76 551.00 402.23 551.00 433.70 C 566.74 417.94 582.59 402.29 598.20 386.40 C 582.39 370.78 566.77 354.96 551.00 339.30 Z" />
<path fill="#ffffff" opacity="1.00" d=" M 174.96 394.96 C 191.03 378.28 207.04 361.54 223.10 344.85 C 211.69 378.63 207.10 415.15 213.22 450.46 C 217.08 472.72 225.01 494.49 237.87 513.16 C 238.81 514.14 238.76 515.45 238.66 516.73 C 324.61 602.86 410.62 688.94 496.54 775.11 C 469.69 797.21 434.41 808.73 399.69 806.46 C 364.89 804.50 331.85 790.71 302.59 772.39 C 293.67 766.75 284.90 760.83 276.61 754.29 C 262.43 741.82 248.31 729.30 234.16 716.81 C 221.91 706.46 211.32 694.34 200.78 682.32 C 180.38 658.50 162.22 632.54 148.91 604.08 C 138.87 582.59 131.73 559.61 129.13 535.99 C 126.01 508.70 129.35 480.69 138.93 454.94 C 147.09 432.96 159.24 412.38 174.96 394.96 M 151.62 479.54 C 146.96 500.65 146.58 522.61 149.93 543.94 C 152.74 563.18 160.08 581.39 168.24 598.90 C 183.16 629.28 203.52 656.74 226.54 681.44 C 232.20 687.46 237.61 693.76 243.97 699.08 C 259.22 712.50 274.39 726.00 289.66 739.39 C 302.87 749.86 317.32 758.72 332.19 766.63 C 345.78 773.49 359.94 779.39 374.71 783.21 C 394.79 787.78 415.88 788.43 436.06 784.10 C 446.32 781.39 456.20 777.32 465.53 772.29 C 456.86 762.69 447.40 753.85 438.35 744.62 C 368.69 674.96 299.03 605.30 229.37 535.64 C 226.30 532.63 223.11 529.62 221.00 525.82 C 220.25 523.94 220.06 521.82 218.81 520.17 C 203.95 497.41 196.44 470.73 192.51 444.07 C 190.54 431.70 191.08 419.16 190.96 406.68 C 172.05 427.19 158.82 452.66 151.62 479.54 Z" />
<path fill="#ffffff" opacity="1.00" d=" M 278.56 516.23 C 315.63 479.09 352.65 441.91 389.79 404.85 C 426.15 441.25 462.55 477.60 498.91 514.00 C 461.82 551.14 424.65 588.20 387.59 625.38 C 351.15 589.09 314.89 552.62 278.56 516.23 M 389.68 432.98 C 362.02 460.81 334.19 488.48 306.48 516.27 C 333.60 543.16 360.43 570.36 387.60 597.21 C 415.22 569.39 443.04 541.76 470.72 514.00 C 443.71 486.99 416.72 459.96 389.68 432.98 Z" />
<path fill="#ffffff" opacity="1.00" d=" M 537.82 514.00 C 573.80 478.03 609.72 442.00 645.77 406.10 C 682.35 442.86 719.04 479.51 755.66 516.23 C 719.77 552.20 683.85 588.15 647.96 624.12 C 611.22 587.44 574.53 550.71 537.82 514.00 M 565.75 514.00 C 593.15 541.43 620.56 568.85 648.00 596.25 C 652.03 592.18 656.27 588.30 659.89 583.86 C 682.42 561.32 704.92 538.74 727.52 516.27 C 710.91 499.62 694.27 482.99 677.63 466.37 C 667.38 455.20 656.32 444.79 645.70 433.97 C 619.11 460.70 592.37 487.29 565.75 514.00 Z" />
<path fill="#ffffff" opacity="1.00" d=" M 685.21 627.22 C 715.32 597.16 745.21 566.87 775.47 536.97 C 784.68 548.18 792.73 560.48 797.92 574.09 C 806.01 594.64 807.47 617.43 803.60 639.08 C 798.88 665.88 787.20 690.95 772.97 713.97 C 758.52 737.24 741.27 758.67 722.81 778.87 C 703.85 799.57 683.61 819.17 661.69 836.73 C 638.92 854.93 614.20 870.94 587.33 882.38 C 560.17 893.98 530.58 900.54 500.97 899.28 C 465.38 897.99 430.63 885.09 401.89 864.26 C 391.70 857.22 383.20 848.20 373.82 840.19 C 369.79 836.58 365.64 833.10 361.72 829.38 C 383.97 834.90 407.22 836.89 430.01 833.90 C 463.21 829.76 494.90 815.12 519.85 792.89 C 574.95 737.65 630.09 682.45 685.21 627.22 M 772.84 567.40 C 759.31 581.01 745.70 594.54 732.14 608.13 C 710.58 629.89 688.58 651.23 667.39 673.34 C 626.55 714.17 585.72 755.01 544.88 795.85 C 538.62 801.81 533.04 808.56 525.93 813.57 C 511.55 824.99 495.72 834.70 478.57 841.35 C 460.66 848.20 441.76 852.57 422.68 854.45 C 434.28 861.80 446.79 867.69 459.76 872.21 C 472.34 876.77 485.69 878.73 499.00 879.50 C 518.19 880.19 537.71 878.74 556.10 872.92 C 604.77 857.92 646.71 826.84 682.72 791.60 C 686.96 787.95 690.94 783.99 694.59 779.74 C 711.13 763.08 726.57 745.30 740.68 726.52 C 758.77 701.77 774.50 674.68 782.59 644.92 C 786.41 628.28 787.24 610.82 783.82 594.04 C 781.55 584.66 777.52 575.79 772.84 567.40 Z" />
<path fill="#ffffff" opacity="1.00" d=" M 531.53 546.67 C 563.93 578.87 596.10 611.30 628.50 643.51 C 596.26 676.01 563.84 708.34 531.50 740.74 C 531.53 676.05 531.47 611.36 531.53 546.67 M 551.00 594.29 C 551.00 627.27 551.00 660.26 551.00 693.24 C 567.52 676.75 584.07 660.27 600.51 643.70 C 583.92 627.32 567.54 610.73 551.00 594.29 Z" />
<path fill="#ffffff" opacity="1.00" d=" M 406.98 644.93 C 439.23 612.47 471.67 580.21 503.99 547.82 C 504.01 612.57 504.00 677.31 503.99 742.05 C 471.63 709.70 439.35 677.27 406.98 644.93 M 434.97 644.70 C 442.37 652.09 449.75 659.48 457.15 666.87 C 466.21 676.21 475.89 684.98 484.45 694.80 C 484.55 661.62 484.47 628.44 484.49 595.26 C 467.96 611.71 451.53 628.27 434.97 644.70 Z" />
</g>
<g id="#01a0d6ff">
<path fill="#01a0d6" opacity="1.00" d=" M 508.55 103.76 C 548.32 100.24 588.95 108.85 624.02 127.87 C 641.06 137.13 657.16 148.40 670.81 162.24 C 719.06 214.30 767.23 266.44 815.46 318.52 C 826.93 331.05 838.74 343.27 849.47 356.45 C 872.07 383.86 891.77 413.97 905.23 446.95 C 917.14 476.04 923.81 507.48 923.00 538.98 C 921.82 593.90 897.63 647.97 857.48 685.45 C 822.67 720.00 787.87 754.55 753.06 789.09 C 743.67 798.05 735.13 807.83 725.96 817.00 C 689.01 854.25 647.14 887.83 598.59 908.61 C 569.44 921.07 537.87 928.36 506.09 928.01 C 456.23 927.82 407.03 908.23 369.81 875.22 C 356.87 862.77 343.07 851.26 329.70 839.27 C 307.58 819.73 285.43 800.20 263.31 780.66 C 258.24 776.02 252.58 772.12 247.33 767.71 C 221.94 746.91 198.52 723.72 177.23 698.75 C 154.27 671.61 134.08 641.83 119.86 609.15 C 102.97 570.75 95.40 527.77 101.62 486.06 C 107.51 445.68 125.68 407.23 152.82 376.80 C 193.35 334.69 233.76 292.47 274.25 250.32 C 280.94 243.30 287.81 236.45 294.10 229.06 C 318.06 202.62 344.56 178.37 373.59 157.57 C 413.33 129.23 459.44 107.87 508.55 103.76 M 458.81 143.91 C 428.79 154.80 401.25 171.67 376.15 191.26 C 356.29 206.85 337.70 224.06 320.49 242.52 C 296.34 268.59 274.99 297.60 259.91 329.89 C 246.64 358.29 238.37 389.43 238.84 420.93 C 239.23 446.70 245.59 472.83 259.72 494.59 C 344.86 409.43 429.92 324.17 515.01 238.96 C 535.52 223.16 561.50 216.10 587.06 214.65 C 627.02 212.43 666.79 222.56 702.99 239.02 C 691.52 226.47 679.91 214.05 668.39 201.56 C 658.92 191.69 650.36 180.85 639.53 172.39 C 612.31 150.54 578.94 136.08 544.13 132.48 C 515.30 129.44 485.97 134.04 458.81 143.91 M 537.98 257.81 C 623.45 343.46 708.99 429.04 794.43 514.71 C 798.00 520.67 802.77 525.79 806.56 531.62 C 818.23 548.61 826.94 567.76 831.07 588.01 C 837.61 619.03 832.75 651.50 821.52 680.85 C 830.14 672.39 838.78 663.93 847.22 655.28 C 868.74 631.44 883.93 601.88 890.72 570.48 C 896.76 542.60 895.46 513.36 888.23 485.83 C 879.99 454.18 864.50 424.84 845.69 398.24 C 828.04 373.36 807.53 350.60 785.42 329.63 C 759.56 305.34 730.62 284.06 698.67 268.47 C 667.07 253.09 632.34 243.10 597.02 242.90 C 576.61 243.10 555.46 246.72 537.98 257.81 M 409.18 385.35 C 440.76 416.98 472.38 448.57 503.99 480.17 C 504.01 416.91 504.02 353.65 504.01 290.38 C 472.38 322.03 440.80 353.71 409.18 385.35 M 531.50 291.73 C 531.50 354.93 531.47 418.14 531.52 481.34 C 563.17 449.89 594.59 418.22 626.22 386.77 C 622.27 382.38 617.92 378.38 613.82 374.15 C 586.37 346.68 558.97 319.17 531.50 291.73 M 174.96 394.96 C 159.24 412.38 147.09 432.96 138.93 454.94 C 129.35 480.69 126.01 508.70 129.13 535.99 C 131.73 559.61 138.87 582.59 148.91 604.08 C 162.22 632.54 180.38 658.50 200.78 682.32 C 211.32 694.34 221.91 706.46 234.16 716.81 C 248.31 729.30 262.43 741.82 276.61 754.29 C 284.90 760.83 293.67 766.75 302.59 772.39 C 331.85 790.71 364.89 804.50 399.69 806.46 C 434.41 808.73 469.69 797.21 496.54 775.11 C 410.62 688.94 324.61 602.86 238.66 516.73 C 238.76 515.45 238.81 514.14 237.87 513.16 C 225.01 494.49 217.08 472.72 213.22 450.46 C 207.10 415.15 211.69 378.63 223.10 344.85 C 207.04 361.54 191.03 378.28 174.96 394.96 M 278.56 516.23 C 314.89 552.62 351.15 589.09 387.59 625.38 C 424.65 588.20 461.82 551.14 498.91 514.00 C 462.55 477.60 426.15 441.25 389.79 404.85 C 352.65 441.91 315.63 479.09 278.56 516.23 M 537.82 514.00 C 574.53 550.71 611.22 587.44 647.96 624.12 C 683.85 588.15 719.77 552.20 755.66 516.23 C 719.04 479.51 682.35 442.86 645.77 406.10 C 609.72 442.00 573.80 478.03 537.82 514.00 M 685.21 627.22 C 630.09 682.45 574.95 737.65 519.85 792.89 C 494.90 815.12 463.21 829.76 430.01 833.90 C 407.22 836.89 383.97 834.90 361.72 829.38 C 365.64 833.10 369.79 836.58 373.82 840.19 C 383.20 848.20 391.70 857.22 401.89 864.26 C 430.63 885.09 465.38 897.99 500.97 899.28 C 530.58 900.54 560.17 893.98 587.33 882.38 C 614.20 870.94 638.92 854.93 661.69 836.73 C 683.61 819.17 703.85 799.57 722.81 778.87 C 741.27 758.67 758.52 737.24 772.97 713.97 C 787.20 690.95 798.88 665.88 803.60 639.08 C 807.47 617.43 806.01 594.64 797.92 574.09 C 792.73 560.48 784.68 548.18 775.47 536.97 C 745.21 566.87 715.32 597.16 685.21 627.22 M 531.53 546.67 C 531.47 611.36 531.53 676.05 531.50 740.74 C 563.84 708.34 596.26 676.01 628.50 643.51 C 596.10 611.30 563.93 578.87 531.53 546.67 M 406.98 644.93 C 439.35 677.27 471.63 709.70 503.99 742.05 C 504.00 677.31 504.01 612.57 503.99 547.82 C 471.67 580.21 439.23 612.47 406.98 644.93 Z" />
</g>
</svg>
