<?xml version="1.0" encoding="UTF-8" ?>
<!DOCTYPE svg PUBLIC "-//W3C//DTD SVG 1.1//EN" "http://www.w3.org/Graphics/SVG/1.1/DTD/svg11.dtd">
<svg width="1904pt" height="643pt" viewBox="0 0 1904 643" version="1.1" xmlns="http://www.w3.org/2000/svg">
<g id="#ffffffff">
<path fill="#ffffff" opacity="1.00" d=" M 307.01 31.06 C 351.79 26.92 398.28 45.24 427.67 79.38 C 456.98 111.04 486.28 142.71 515.58 174.39 C 527.67 187.36 539.86 200.33 550.25 214.75 C 571.02 242.53 586.40 275.14 589.88 309.95 C 593.99 350.45 579.78 392.31 552.18 422.19 C 524.53 449.88 496.59 477.28 468.93 504.97 C 456.36 518.40 443.26 531.38 428.98 543.00 C 401.96 565.16 370.70 583.42 336.02 590.00 C 289.99 599.71 239.91 584.45 206.51 551.47 C 190.31 537.00 173.95 522.70 157.68 508.29 C 148.92 500.73 140.56 492.69 131.34 485.69 C 114.26 471.91 98.56 456.44 84.17 439.88 C 64.02 416.26 46.48 389.73 36.99 359.95 C 32.31 344.75 29.13 328.95 29.16 312.99 C 28.80 274.23 44.83 235.64 72.53 208.52 C 100.46 179.48 128.34 150.38 156.25 121.31 C 169.24 106.29 183.60 92.46 198.95 79.87 C 215.67 66.29 233.75 54.22 253.44 45.41 C 270.39 37.85 288.53 32.86 307.01 31.06 M 302.56 37.75 C 282.76 40.18 263.62 46.78 245.95 55.93 C 216.50 71.27 190.90 93.11 168.26 117.21 C 162.02 124.28 155.53 131.12 148.95 137.88 C 125.10 162.74 101.24 187.59 77.39 212.45 C 60.04 229.25 47.40 250.75 40.67 273.90 C 33.33 299.02 33.73 326.13 40.78 351.27 C 48.74 379.97 64.42 405.95 83.08 428.93 C 100.59 450.32 120.53 469.71 142.41 486.61 C 167.86 509.14 193.56 531.41 218.73 554.25 C 238.18 570.38 261.98 581.34 286.99 585.14 C 305.56 587.99 324.67 586.83 342.88 582.26 C 361.48 577.61 379.10 569.55 395.40 559.52 C 421.53 543.43 444.30 522.49 465.06 500.02 C 490.45 474.77 515.89 449.56 541.30 424.32 C 572.26 395.18 588.45 351.14 583.55 308.88 C 579.95 275.10 564.29 243.78 544.15 216.87 C 532.36 200.84 518.33 186.68 504.93 172.03 C 475.13 139.86 445.40 107.62 415.56 75.50 C 386.10 46.85 343.37 32.34 302.56 37.75 Z" />
<path fill="#ffffff" opacity="1.00" d=" M 299.83 57.36 C 322.73 53.43 346.73 56.49 367.88 66.11 C 382.50 72.79 396.27 81.88 406.90 94.05 C 417.10 105.13 427.41 116.11 437.55 127.25 C 410.16 114.94 379.54 107.74 349.50 112.26 C 333.81 114.80 317.67 120.64 306.88 132.80 C 251.95 187.77 197.07 242.79 142.14 297.75 C 129.72 278.44 126.29 254.47 129.17 231.98 C 133.01 201.70 147.38 173.73 165.72 149.72 C 180.99 129.84 198.97 112.11 218.53 96.47 C 242.27 77.72 269.67 62.34 299.83 57.36 M 273.83 70.94 C 241.65 83.59 214.31 105.87 190.45 130.49 C 166.46 155.39 146.20 185.14 137.69 219.03 C 132.50 241.66 132.75 266.55 143.45 287.62 C 198.47 232.54 253.54 177.51 308.53 122.40 C 317.56 115.51 328.11 110.64 339.20 108.15 C 364.25 101.71 390.74 104.90 415.21 112.25 C 411.18 107.80 407.08 103.41 403.01 98.99 C 388.72 82.53 368.89 71.53 348.11 65.53 C 323.64 59.14 297.20 61.49 273.83 70.94 Z" />
<path fill="#ffffff" opacity="1.00" d=" M 647.10 102.14 C 651.97 100.99 659.41 102.56 658.86 108.94 C 658.91 245.32 658.87 381.71 658.88 518.09 C 658.95 520.62 658.23 523.54 655.75 524.74 C 652.63 526.04 649.03 525.93 645.79 525.25 C 642.58 524.57 641.12 521.08 641.21 518.10 C 641.19 382.05 641.21 246.00 641.20 109.95 C 640.90 106.32 643.12 102.26 647.10 102.14 M 647.42 108.26 C 647.50 245.33 647.32 382.41 647.40 519.48 C 649.18 519.45 650.97 519.43 652.77 519.40 C 652.75 382.35 652.65 245.31 652.70 108.26 C 650.93 108.26 649.17 108.26 647.42 108.26 Z" />
<path fill="#ffffff" opacity="1.00" d=" M 733.43 412.66 C 770.23 315.43 807.04 218.19 843.84 120.96 C 856.89 120.96 869.93 120.95 882.98 120.96 C 919.92 218.20 956.86 315.44 993.80 412.68 C 981.16 412.69 968.52 412.65 955.88 412.67 C 946.10 385.92 936.32 359.17 926.55 332.42 C 884.59 332.42 842.63 332.41 800.67 332.42 C 790.91 359.17 781.12 385.91 771.36 412.66 C 758.71 412.67 746.07 412.67 733.43 412.66 M 862.62 163.31 C 846.10 208.87 829.21 254.30 812.50 299.79 C 846.57 299.79 880.64 299.80 914.71 299.79 C 897.89 254.31 881.39 208.71 864.22 163.35 C 863.82 163.34 863.02 163.32 862.62 163.31 Z" />
<path fill="#ffffff" opacity="1.00" d=" M 1005.00 120.96 C 1016.55 120.96 1028.10 120.96 1039.65 120.96 C 1039.65 218.20 1039.65 315.44 1039.65 412.69 C 1028.10 412.69 1016.55 412.68 1005.00 412.69 C 1005.00 315.45 1005.00 218.20 1005.00 120.96 Z" />
<path fill="#ffffff" opacity="1.00" d=" M 327.67 139.86 C 343.10 130.26 362.14 128.83 379.83 130.62 C 415.29 134.44 448.23 151.16 475.83 173.19 C 496.63 189.97 515.21 209.52 531.04 231.03 C 542.60 246.97 552.39 264.35 558.57 283.10 C 564.19 300.10 566.65 318.26 564.75 336.11 C 562.56 357.53 554.17 378.13 541.49 395.47 C 534.45 405.36 525.14 413.27 516.70 421.91 C 524.78 400.74 527.86 377.08 521.87 354.97 C 517.61 338.08 508.12 323.11 497.24 309.74 C 440.73 253.10 384.15 196.53 327.67 139.86 M 338.03 141.36 C 392.99 196.61 448.06 251.75 503.15 306.87 C 509.87 316.26 517.01 325.53 521.68 336.19 C 530.89 356.30 533.53 379.27 529.07 400.94 C 542.06 386.56 551.30 368.90 556.16 350.16 C 561.37 328.02 559.72 304.40 552.03 283.02 C 541.25 252.47 521.47 226.00 499.11 202.93 C 481.23 184.32 460.97 167.76 438.11 155.65 C 418.30 145.19 396.58 137.60 374.07 136.38 C 361.91 135.64 349.37 136.60 338.03 141.36 Z" />
<path fill="#ffffff" opacity="1.00" d=" M 241.79 224.92 C 262.85 203.79 283.94 182.69 305.01 161.57 C 305.01 203.75 305.01 245.94 304.99 288.12 C 283.92 267.05 262.86 245.99 241.79 224.92 M 250.59 224.95 C 266.67 241.02 282.74 257.10 298.83 273.17 C 298.83 240.95 298.84 208.73 298.82 176.52 C 282.73 192.64 266.58 208.71 250.59 224.95 Z" />
<path fill="#ffffff" opacity="1.00" d=" M 323.33 162.46 C 344.40 183.56 365.47 204.66 386.53 225.77 C 365.46 246.82 344.41 267.89 323.33 288.94 C 323.34 246.78 323.32 204.62 323.33 162.46 M 329.51 177.49 C 329.49 209.64 329.50 241.80 329.51 273.96 C 345.58 257.88 361.65 241.81 377.73 225.74 C 361.69 209.63 345.58 193.57 329.51 177.49 Z" />
<path fill="#ffffff" opacity="1.00" d=" M 85.49 231.48 C 96.24 220.26 107.02 209.07 117.77 197.85 C 109.91 220.93 106.93 245.99 111.46 270.08 C 114.04 283.68 118.88 296.97 126.56 308.55 C 127.39 309.84 127.97 311.28 128.47 312.74 C 185.54 370.20 242.90 427.38 300.05 484.76 C 285.59 496.48 267.66 503.96 249.07 505.46 C 230.13 507.08 211.08 502.76 193.78 495.18 C 179.76 489.04 166.65 480.92 154.47 471.69 C 145.81 464.32 137.41 456.66 128.85 449.17 C 114.02 436.68 101.34 421.83 89.71 406.37 C 71.53 381.66 57.32 352.91 54.77 321.97 C 51.77 289.24 63.66 255.85 85.49 231.48 M 88.89 236.97 C 76.97 250.66 68.52 267.26 63.79 284.74 C 60.12 299.51 59.65 315.00 61.90 330.03 C 66.08 357.01 79.29 381.74 95.27 403.55 C 106.87 418.81 119.52 433.43 134.29 445.72 C 146.00 455.67 156.76 466.88 169.87 475.06 C 191.30 489.00 215.93 500.11 241.99 499.57 C 259.37 499.78 276.43 493.82 290.69 484.08 C 236.61 429.89 182.45 375.78 128.39 321.58 C 126.50 319.56 124.24 317.82 122.72 315.49 C 121.03 310.47 117.51 306.39 115.38 301.57 C 103.09 276.17 100.40 246.70 105.82 219.15 C 100.29 225.20 94.45 230.95 88.89 236.97 Z" />
<path fill="#ffffff" opacity="1.00" d=" M 1132.49 202.38 C 1148.49 197.90 1165.45 197.38 1181.85 199.73 C 1197.47 202.01 1212.67 208.04 1225.00 218.00 C 1237.46 227.72 1246.94 241.03 1252.45 255.81 C 1241.98 260.17 1231.51 264.51 1221.05 268.86 C 1217.13 259.30 1211.34 250.34 1203.34 243.69 C 1192.72 234.67 1178.77 230.32 1164.99 229.84 C 1152.79 229.13 1140.41 231.94 1129.80 238.03 C 1116.56 245.38 1106.23 257.34 1099.81 270.96 C 1092.37 286.70 1090.65 304.66 1092.71 321.80 C 1094.47 336.32 1100.16 350.36 1109.24 361.85 C 1120.26 375.94 1136.93 385.84 1154.87 387.50 C 1171.89 388.94 1189.91 385.17 1203.52 374.43 C 1212.14 367.82 1218.52 358.66 1222.69 348.69 C 1233.01 353.05 1243.35 357.38 1253.67 361.75 C 1246.40 379.59 1233.31 394.87 1216.97 405.03 C 1200.11 415.67 1179.79 419.64 1160.06 419.16 C 1140.79 418.85 1121.51 413.39 1105.39 402.73 C 1087.72 391.39 1074.06 374.25 1066.23 354.83 C 1058.52 335.96 1056.38 315.13 1058.35 294.93 C 1060.76 269.82 1071.36 245.22 1089.39 227.38 C 1101.35 215.60 1116.32 206.90 1132.49 202.38 Z" />
<path fill="#ffffff" opacity="1.00" d=" M 1304.88 206.12 C 1324.74 197.90 1346.94 196.79 1368.00 200.04 C 1384.79 202.68 1401.23 209.56 1413.61 221.42 C 1424.81 231.85 1432.20 246.02 1435.06 261.00 C 1437.51 272.52 1436.85 284.34 1436.94 296.03 C 1436.94 334.91 1436.94 373.80 1436.94 412.69 C 1425.93 412.68 1414.92 412.69 1403.92 412.69 C 1403.87 402.65 1404.00 392.61 1403.85 382.57 C 1401.13 383.44 1400.32 386.54 1398.56 388.51 C 1388.90 401.11 1375.15 410.50 1360.10 415.46 C 1343.26 420.71 1324.89 420.23 1307.98 415.55 C 1291.90 410.90 1276.87 401.25 1267.60 387.11 C 1256.38 370.39 1254.26 348.63 1259.62 329.48 C 1263.71 314.89 1274.08 302.68 1286.86 294.82 C 1307.81 281.40 1333.67 278.36 1358.02 280.41 C 1373.87 281.92 1389.88 285.49 1403.93 293.21 C 1403.79 283.40 1404.67 273.30 1401.40 263.86 C 1396.28 247.70 1381.55 236.01 1365.52 231.74 C 1347.52 227.10 1327.55 229.04 1311.38 238.48 C 1303.16 243.18 1296.17 249.91 1291.05 257.86 C 1282.36 251.34 1273.67 244.81 1264.97 238.30 C 1274.41 223.65 1288.82 212.63 1304.88 206.12 M 1314.79 314.67 C 1304.79 319.58 1296.52 328.54 1293.68 339.45 C 1291.63 347.56 1291.74 356.40 1294.88 364.22 C 1297.83 371.64 1303.71 377.57 1310.49 381.63 C 1320.47 387.64 1332.51 389.30 1343.98 388.38 C 1361.08 387.01 1377.16 378.09 1388.21 365.09 C 1398.25 353.35 1404.17 338.02 1403.87 322.51 C 1386.38 311.63 1365.36 307.25 1344.92 308.07 C 1334.61 308.49 1324.12 310.08 1314.79 314.67 Z" />
<path fill="#ffffff" opacity="1.00" d=" M 1675.07 217.14 C 1688.58 206.74 1705.10 200.48 1722.05 198.92 C 1739.41 197.33 1757.31 199.10 1773.57 205.63 C 1790.09 212.32 1804.53 224.06 1814.42 238.90 C 1825.32 255.14 1830.99 274.50 1832.33 293.92 C 1832.74 301.04 1833.19 308.30 1831.56 315.31 C 1776.80 315.33 1722.04 315.30 1667.28 315.32 C 1668.07 333.05 1673.58 351.04 1685.53 364.49 C 1706.86 389.78 1747.50 395.39 1774.95 376.99 C 1785.02 370.29 1792.86 360.72 1798.90 350.32 C 1808.68 355.08 1818.46 359.83 1828.25 364.59 C 1820.04 380.11 1808.15 393.76 1793.45 403.43 C 1780.33 412.28 1764.80 417.10 1749.12 418.57 C 1729.55 420.51 1709.24 418.13 1691.38 409.57 C 1676.70 402.60 1663.75 392.00 1654.17 378.86 C 1642.85 363.46 1635.95 345.00 1633.68 326.07 C 1630.83 302.37 1633.81 277.69 1644.03 255.99 C 1651.03 240.78 1661.65 227.19 1675.07 217.14 M 1698.22 240.06 C 1682.65 250.82 1672.98 268.45 1669.32 286.76 C 1711.57 286.78 1753.82 286.77 1796.07 286.76 C 1795.22 275.90 1791.75 265.24 1785.99 256.00 C 1777.69 243.42 1764.25 234.23 1749.42 231.34 C 1732.13 227.89 1712.92 229.61 1698.22 240.06 Z" />
<path fill="#ffffff" opacity="1.00" d=" M 1437.84 204.88 C 1450.20 204.87 1462.57 204.88 1474.94 204.87 C 1496.55 260.72 1517.85 316.69 1539.65 372.46 C 1547.36 354.10 1554.20 335.38 1561.58 316.88 C 1576.15 279.54 1590.72 242.21 1605.29 204.87 C 1617.38 204.87 1629.48 204.87 1641.58 204.88 C 1613.32 274.14 1585.08 343.41 1556.82 412.67 C 1545.12 412.64 1533.42 412.71 1521.72 412.64 C 1493.81 343.36 1465.78 274.14 1437.84 204.88 Z" />
<path fill="#ffffff" opacity="1.00" d=" M 154.71 312.15 C 179.44 287.40 204.09 262.57 228.90 237.91 C 253.09 262.20 277.39 286.40 301.61 310.67 C 276.87 335.42 252.09 360.15 227.37 384.92 C 203.12 360.70 178.92 336.42 154.71 312.15 M 163.48 312.16 C 184.78 333.46 206.04 354.81 227.35 376.10 C 249.18 354.32 270.96 332.49 292.78 310.69 C 271.51 289.32 250.14 268.05 228.84 246.71 C 207.06 268.53 185.28 290.35 163.48 312.16 Z" />
<path fill="#ffffff" opacity="1.00" d=" M 399.45 238.72 C 423.91 263.19 448.34 287.68 472.78 312.15 C 448.84 336.13 424.90 360.10 400.96 384.08 C 376.48 359.62 352.03 335.14 327.54 310.68 C 351.49 286.67 375.50 262.72 399.45 238.72 M 336.32 310.67 C 357.87 332.22 379.42 353.78 400.98 375.33 C 422.00 354.30 442.94 333.18 463.95 312.14 C 442.48 290.57 421.02 269.00 399.50 247.49 C 378.43 268.54 357.36 289.60 336.32 310.67 Z" />
<path fill="#ffffff" opacity="1.00" d=" M 321.08 491.08 C 376.01 436.02 430.96 380.98 485.90 325.94 C 496.30 338.13 503.76 353.11 505.54 369.14 C 508.14 390.79 501.41 412.39 491.49 431.41 C 477.78 457.44 458.48 480.04 437.87 500.84 C 416.37 522.25 392.33 541.74 364.59 554.46 C 345.10 563.42 323.60 568.56 302.08 567.48 C 281.06 566.54 260.49 559.54 242.83 548.19 C 230.66 540.67 220.96 530.03 210.05 520.91 C 230.71 526.12 252.79 526.44 273.26 520.22 C 291.31 514.78 308.15 504.86 321.08 491.08 M 319.42 501.53 C 308.85 510.55 296.95 518.16 283.91 523.09 C 266.83 529.50 248.34 532.27 230.14 530.61 C 252.08 550.79 281.96 562.82 311.93 561.34 C 333.27 560.85 353.88 553.64 372.52 543.61 C 400.23 528.61 423.91 507.23 445.21 484.24 C 460.60 467.54 474.89 449.59 485.51 429.44 C 494.52 412.43 501.08 393.43 499.76 373.94 C 499.22 359.92 493.52 346.55 485.41 335.26 C 429.97 390.58 374.80 446.16 319.42 501.53 Z" />
<path fill="#ffffff" opacity="1.00" d=" M 323.34 332.41 C 344.91 353.95 366.45 375.51 388.00 397.06 C 366.45 418.64 344.92 440.25 323.34 461.80 C 323.34 418.67 323.33 375.54 323.34 332.41 M 329.51 347.38 C 329.50 380.53 329.50 413.68 329.51 446.83 C 346.09 430.26 362.66 413.69 379.22 397.09 C 362.65 380.52 346.09 363.95 329.51 347.38 Z" />
<path fill="#ffffff" opacity="1.00" d=" M 240.31 397.90 C 261.87 376.34 283.43 354.77 304.99 333.21 C 305.01 376.37 305.00 419.53 304.99 462.68 C 283.42 441.10 261.86 419.51 240.31 397.90 M 249.08 397.91 C 265.66 414.54 282.20 431.21 298.82 447.82 C 298.84 414.60 298.84 381.38 298.82 348.15 C 282.24 364.73 265.65 381.31 249.08 397.91 Z" />
<path fill="#ffffff" opacity="1.00" d=" M 1502.79 440.12 C 1503.13 439.76 1503.82 439.05 1504.16 438.69 C 1511.74 438.46 1519.34 438.68 1526.93 438.60 C 1535.42 438.43 1544.13 440.06 1551.45 444.52 C 1558.78 448.82 1564.41 455.81 1567.27 463.79 C 1570.77 473.73 1570.86 484.86 1567.66 494.88 C 1564.34 505.29 1556.22 513.98 1546.04 517.96 C 1535.28 522.50 1523.39 520.86 1512.04 521.17 C 1508.93 520.93 1505.46 521.93 1502.71 520.10 C 1502.76 493.44 1502.59 466.77 1502.79 440.12 M 1515.06 450.63 C 1515.06 470.13 1515.06 489.64 1515.06 509.15 C 1521.43 508.99 1527.84 509.52 1534.20 508.73 C 1541.78 507.77 1549.09 503.62 1553.13 497.00 C 1557.65 489.54 1558.10 480.26 1556.62 471.85 C 1555.22 463.94 1549.95 456.79 1542.59 453.49 C 1533.99 449.39 1524.24 450.92 1515.06 450.63 Z" />
<path fill="#ffffff" opacity="1.00" d=" M 1581.35 467.39 C 1592.17 456.55 1612.17 457.18 1622.16 468.83 C 1628.13 475.80 1630.41 485.61 1628.89 494.59 C 1614.02 494.69 1599.16 494.57 1584.30 494.65 C 1584.93 498.22 1585.90 501.88 1588.25 504.75 C 1593.45 511.77 1604.32 513.51 1611.49 508.56 C 1614.38 506.61 1616.32 503.63 1618.12 500.72 C 1621.20 502.31 1624.46 503.58 1627.43 505.41 C 1628.83 507.93 1626.11 510.03 1624.93 512.02 C 1615.06 525.35 1593.50 526.62 1581.59 515.39 C 1568.45 503.13 1568.63 479.87 1581.35 467.39 M 1595.19 472.21 C 1590.08 474.02 1586.82 478.84 1585.14 483.78 C 1595.52 483.88 1605.92 483.83 1616.31 483.81 C 1615.44 480.90 1614.48 477.87 1612.23 475.71 C 1607.93 471.23 1600.89 470.28 1595.19 472.21 Z" />
<path fill="#ffffff" opacity="1.00" d=" M 1695.97 462.02 C 1703.87 458.68 1713.32 458.92 1720.99 462.81 C 1725.70 465.11 1729.28 469.31 1731.10 474.20 C 1727.50 475.85 1723.89 477.49 1720.31 479.17 C 1717.14 470.87 1705.61 468.71 1698.94 473.96 C 1696.68 475.62 1696.75 479.34 1698.96 481.03 C 1702.05 483.49 1706.10 484.06 1709.83 485.09 C 1716.22 486.64 1723.09 488.34 1727.81 493.28 C 1733.32 498.84 1733.40 508.49 1728.54 514.49 C 1724.60 519.47 1718.32 522.03 1712.14 522.72 C 1704.65 523.57 1696.53 522.24 1690.59 517.34 C 1686.66 514.34 1683.97 510.05 1682.23 505.49 C 1685.48 503.97 1688.78 502.53 1692.06 501.05 C 1692.54 501.25 1693.50 501.67 1693.98 501.87 C 1697.24 510.70 1708.64 514.28 1716.60 509.55 C 1719.49 508.15 1720.43 504.04 1718.43 501.53 C 1716.40 499.21 1713.29 498.31 1710.47 497.41 C 1703.58 495.40 1695.95 494.58 1690.33 489.71 C 1685.64 486.07 1683.76 479.62 1685.12 473.93 C 1686.34 468.40 1690.89 464.17 1695.97 462.02 Z" />
<path fill="#ffffff" opacity="1.00" d=" M 1791.79 467.83 C 1796.37 462.19 1803.88 459.77 1810.96 459.72 C 1820.77 459.38 1831.37 464.47 1834.81 474.16 C 1831.19 475.84 1827.56 477.50 1823.95 479.17 C 1820.86 470.92 1809.49 468.78 1802.80 473.80 C 1800.30 475.46 1800.37 479.47 1802.80 481.17 C 1806.06 483.63 1810.24 484.16 1814.08 485.24 C 1820.34 486.76 1827.03 488.53 1831.59 493.41 C 1836.96 498.95 1837.04 508.41 1832.30 514.37 C 1828.44 519.35 1822.23 521.94 1816.12 522.69 C 1808.63 523.59 1800.49 522.35 1794.48 517.52 C 1790.45 514.50 1787.65 510.15 1785.91 505.47 C 1789.22 504.04 1792.42 502.33 1795.84 501.13 C 1798.04 501.39 1798.45 503.87 1799.68 505.33 C 1804.17 512.17 1814.46 513.49 1821.04 509.02 C 1824.31 506.81 1823.58 501.40 1820.07 499.82 C 1811.71 495.27 1801.00 496.11 1793.68 489.44 C 1787.37 484.32 1786.60 474.00 1791.79 467.83 Z" />
<path fill="#ffffff" opacity="1.00" d=" M 1627.37 463.59 C 1627.72 463.07 1628.41 462.02 1628.76 461.50 C 1632.48 461.50 1636.20 461.49 1639.94 461.50 C 1645.47 475.89 1651.03 490.27 1656.56 504.66 C 1662.16 490.28 1667.81 475.91 1673.37 461.52 C 1677.02 461.48 1680.68 461.50 1684.35 461.49 C 1684.69 462.02 1685.39 463.07 1685.74 463.60 C 1677.89 482.78 1670.08 501.98 1662.25 521.17 C 1658.37 521.16 1654.50 521.16 1650.64 521.17 C 1642.88 501.98 1635.15 482.78 1627.37 463.59 Z" />
<path fill="#ffffff" opacity="1.00" d=" M 1732.00 461.49 C 1735.81 461.51 1739.62 461.49 1743.45 461.50 C 1749.08 474.79 1754.67 488.11 1760.31 501.40 C 1765.73 488.10 1771.12 474.79 1776.55 461.49 C 1780.36 461.50 1784.18 461.50 1788.02 461.49 C 1788.78 462.76 1789.28 464.18 1788.34 465.54 C 1776.80 492.07 1765.30 518.63 1753.77 545.17 C 1750.17 545.17 1746.57 545.16 1742.98 545.17 C 1742.64 544.64 1741.96 543.57 1741.62 543.04 C 1745.74 534.06 1749.88 525.08 1754.01 516.09 C 1746.55 499.22 1739.12 482.34 1731.65 465.47 C 1730.69 464.13 1731.17 462.74 1732.00 461.49 Z" />
<path fill="#ffffff" opacity="1.00" d=" M 1160.64 535.74 C 1166.74 535.66 1172.86 535.65 1178.97 535.71 C 1186.11 535.70 1193.00 541.64 1193.04 548.97 C 1193.40 553.21 1191.01 557.07 1187.72 559.54 C 1193.49 562.51 1196.27 569.76 1193.77 575.80 C 1191.69 581.40 1185.87 585.14 1179.97 585.22 C 1173.52 585.29 1167.08 585.27 1160.64 585.20 C 1160.26 568.73 1160.27 552.21 1160.64 535.74 M 1167.84 542.92 C 1167.83 547.39 1167.83 551.87 1167.84 556.35 C 1172.39 556.06 1177.16 557.04 1181.59 555.70 C 1186.80 553.63 1186.80 545.58 1181.60 543.49 C 1177.14 542.29 1172.40 543.18 1167.84 542.92 M 1167.84 563.50 C 1167.83 568.34 1167.83 573.18 1167.84 578.02 C 1171.91 577.98 1175.98 578.10 1180.07 577.98 C 1184.13 578.01 1187.52 573.97 1187.04 569.99 C 1186.64 566.49 1183.47 563.52 1179.92 563.55 C 1175.89 563.40 1171.86 563.54 1167.84 563.50 Z" />
<path fill="#ffffff" opacity="1.00" d=" M 1396.91 540.73 C 1398.63 538.99 1402.00 539.77 1404.17 540.34 C 1404.46 543.35 1404.26 546.39 1404.31 549.42 C 1406.81 549.43 1409.34 549.29 1411.86 549.52 C 1413.06 551.27 1412.99 554.45 1411.91 556.26 C 1409.37 556.49 1406.83 556.36 1404.31 556.37 C 1404.51 563.07 1403.89 569.84 1404.63 576.50 C 1405.76 579.90 1409.97 578.41 1412.43 577.68 C 1412.83 580.03 1412.80 582.43 1412.73 584.81 C 1408.72 586.18 1403.91 586.31 1400.42 583.61 C 1398.07 581.87 1396.85 578.95 1396.86 576.07 C 1396.77 569.52 1396.85 562.97 1396.84 556.41 C 1394.95 556.37 1393.07 556.43 1391.22 556.18 C 1390.69 554.04 1390.91 551.82 1390.91 549.64 C 1392.87 549.45 1394.85 549.40 1396.84 549.36 C 1396.84 546.48 1396.71 543.60 1396.91 540.73 Z" />
<path fill="#ffffff" opacity="1.00" d=" M 1203.10 552.16 C 1209.99 546.25 1221.86 547.25 1227.34 554.62 C 1230.53 558.75 1231.38 564.19 1230.88 569.28 C 1221.87 569.38 1212.87 569.23 1203.87 569.36 C 1204.59 574.47 1208.55 579.27 1214.01 579.35 C 1218.53 579.84 1222.25 576.67 1224.37 572.98 C 1226.38 573.98 1228.41 574.97 1230.43 576.01 C 1226.68 586.29 1212.48 589.38 1204.00 583.11 C 1194.19 576.12 1194.02 559.81 1203.10 552.16 M 1204.42 562.79 C 1210.71 562.86 1217.00 562.85 1223.29 562.80 C 1222.30 558.54 1218.55 555.02 1214.01 555.31 C 1209.38 554.96 1205.81 558.71 1204.42 562.79 Z" />
<path fill="#ffffff" opacity="1.00" d=" M 1249.45 552.42 C 1256.60 545.58 1270.79 547.37 1274.64 557.00 C 1272.47 557.99 1270.30 558.99 1268.15 559.99 C 1266.69 557.36 1264.20 555.16 1261.04 555.26 C 1258.25 554.99 1253.52 556.31 1254.33 559.94 C 1255.35 562.00 1257.83 562.48 1259.84 563.09 C 1264.25 564.28 1269.21 565.02 1272.53 568.48 C 1276.37 572.32 1275.78 579.27 1271.63 582.67 C 1263.39 589.59 1248.57 586.54 1245.15 575.84 C 1247.25 574.91 1249.30 573.75 1251.56 573.19 C 1253.68 576.05 1256.04 579.45 1260.05 579.47 C 1263.46 580.15 1269.72 577.50 1266.81 573.32 C 1261.71 569.29 1253.95 570.64 1249.32 565.69 C 1245.73 562.22 1245.82 555.83 1249.45 552.42 Z" />
<path fill="#ffffff" opacity="1.00" d=" M 1277.74 550.10 C 1279.99 548.86 1285.93 548.30 1284.94 552.63 C 1290.38 546.74 1300.95 546.90 1305.44 553.85 C 1309.95 548.02 1319.17 546.39 1325.12 550.90 C 1328.93 554.03 1329.79 559.29 1329.66 563.98 C 1329.50 571.05 1329.94 578.15 1329.40 585.22 C 1327.09 585.03 1324.53 585.79 1322.42 584.76 C 1321.74 576.49 1322.82 568.12 1321.85 559.88 C 1321.19 555.56 1315.65 554.23 1312.24 556.10 C 1309.06 557.77 1307.40 561.45 1307.40 564.93 C 1307.25 571.67 1307.56 578.42 1307.23 585.17 C 1304.94 585.01 1302.33 585.80 1300.27 584.80 C 1299.19 576.70 1300.55 568.29 1299.57 560.12 C 1299.10 556.01 1294.18 554.34 1290.72 555.77 C 1287.14 557.22 1285.16 561.19 1285.14 564.92 C 1284.96 571.34 1285.28 577.76 1285.01 584.17 C 1283.62 586.44 1280.00 584.75 1277.77 585.17 C 1277.52 573.48 1277.55 561.78 1277.74 550.10 Z" />
<path fill="#ffffff" opacity="1.00" d=" M 1333.26 555.97 C 1338.13 548.12 1349.35 546.27 1357.15 550.57 C 1361.52 552.99 1363.81 558.04 1363.65 562.93 C 1363.52 570.35 1363.94 577.80 1363.40 585.22 C 1361.15 585.25 1358.91 585.24 1356.70 585.20 C 1356.61 584.43 1356.45 582.87 1356.37 582.10 C 1351.06 587.34 1341.83 587.80 1336.19 582.87 C 1330.88 578.36 1331.02 568.83 1336.88 564.83 C 1342.58 560.69 1350.24 561.20 1356.66 563.21 C 1356.58 559.03 1353.28 555.42 1349.07 555.30 C 1345.03 554.68 1341.35 556.96 1338.90 559.98 C 1336.96 558.70 1335.10 557.35 1333.26 555.97 M 1344.50 568.59 C 1340.22 569.28 1338.19 575.49 1341.95 578.10 C 1347.69 582.08 1355.90 577.12 1356.51 570.52 C 1353.34 567.78 1348.43 567.75 1344.50 568.59 Z" />
<path fill="#ffffff" opacity="1.00" d=" M 1367.97 549.70 C 1370.34 549.33 1372.76 549.35 1375.15 549.67 C 1375.14 550.41 1375.11 551.89 1375.09 552.63 C 1378.48 549.11 1383.49 547.91 1388.24 548.69 C 1388.23 550.92 1388.31 553.15 1388.19 555.39 C 1387.10 556.63 1385.31 555.86 1383.93 556.12 C 1379.59 555.86 1375.83 559.67 1375.56 563.89 C 1375.18 570.98 1375.70 578.09 1375.28 585.19 C 1372.89 585.25 1370.52 585.26 1368.16 585.16 C 1367.70 573.35 1368.06 561.52 1367.97 549.70 Z" />
<path fill="#ffffff" opacity="1.00" d=" M 1419.45 575.54 C 1423.17 574.27 1427.16 578.23 1425.85 581.96 C 1424.93 585.75 1419.49 586.95 1417.04 583.94 C 1414.50 581.31 1415.90 576.41 1419.45 575.54 Z" />
</g>
<g id="#01a0d6ff">
<path fill="#01a0d6" opacity="1.00" d=" M 302.56 37.75 C 343.37 32.34 386.10 46.85 415.56 75.50 C 445.40 107.62 475.13 139.86 504.93 172.03 C 518.33 186.68 532.36 200.84 544.15 216.87 C 564.29 243.78 579.95 275.10 583.55 308.88 C 588.45 351.14 572.26 395.18 541.30 424.32 C 515.89 449.56 490.45 474.77 465.06 500.02 C 444.30 522.49 421.53 543.43 395.40 559.52 C 379.10 569.55 361.48 577.61 342.88 582.26 C 324.67 586.83 305.56 587.99 286.99 585.14 C 261.98 581.34 238.18 570.38 218.73 554.25 C 193.56 531.41 167.86 509.14 142.41 486.61 C 120.53 469.71 100.59 450.32 83.08 428.93 C 64.42 405.95 48.74 379.97 40.78 351.27 C 33.73 326.13 33.33 299.02 40.67 273.90 C 47.40 250.75 60.04 229.25 77.39 212.45 C 101.24 187.59 125.10 162.74 148.95 137.88 C 155.53 131.12 162.02 124.28 168.26 117.21 C 190.90 93.11 216.50 71.27 245.95 55.93 C 263.62 46.78 282.76 40.18 302.56 37.75 M 299.83 57.36 C 269.67 62.34 242.27 77.72 218.53 96.47 C 198.97 112.11 180.99 129.84 165.72 149.72 C 147.38 173.73 133.01 201.70 129.17 231.98 C 126.29 254.47 129.72 278.44 142.14 297.75 C 197.07 242.79 251.95 187.77 306.88 132.80 C 317.67 120.64 333.81 114.80 349.50 112.26 C 379.54 107.74 410.16 114.94 437.55 127.25 C 427.41 116.11 417.10 105.13 406.90 94.05 C 396.27 81.88 382.50 72.79 367.88 66.11 C 346.73 56.49 322.73 53.43 299.83 57.36 M 327.67 139.86 C 384.15 196.53 440.73 253.10 497.24 309.74 C 508.12 323.11 517.61 338.08 521.87 354.97 C 527.86 377.08 524.78 400.74 516.70 421.91 C 525.14 413.27 534.45 405.36 541.49 395.47 C 554.17 378.13 562.56 357.53 564.75 336.11 C 566.65 318.26 564.19 300.10 558.57 283.10 C 552.39 264.35 542.60 246.97 531.04 231.03 C 515.21 209.52 496.63 189.97 475.83 173.19 C 448.23 151.16 415.29 134.44 379.83 130.62 C 362.14 128.83 343.10 130.26 327.67 139.86 M 241.79 224.92 C 262.86 245.99 283.92 267.05 304.99 288.12 C 305.01 245.94 305.01 203.75 305.01 161.57 C 283.94 182.69 262.85 203.79 241.79 224.92 M 323.33 162.46 C 323.32 204.62 323.34 246.78 323.33 288.94 C 344.41 267.89 365.46 246.82 386.53 225.77 C 365.47 204.66 344.40 183.56 323.33 162.46 M 85.49 231.48 C 63.66 255.85 51.77 289.24 54.77 321.97 C 57.32 352.91 71.53 381.66 89.71 406.37 C 101.34 421.83 114.02 436.68 128.85 449.17 C 137.41 456.66 145.81 464.32 154.47 471.69 C 166.65 480.92 179.76 489.04 193.78 495.18 C 211.08 502.76 230.13 507.08 249.07 505.46 C 267.66 503.96 285.59 496.48 300.05 484.76 C 242.90 427.38 185.54 370.20 128.47 312.74 C 127.97 311.28 127.39 309.84 126.56 308.55 C 118.88 296.97 114.04 283.68 111.46 270.08 C 106.93 245.99 109.91 220.93 117.77 197.85 C 107.02 209.07 96.24 220.26 85.49 231.48 M 154.71 312.15 C 178.92 336.42 203.12 360.70 227.37 384.92 C 252.09 360.15 276.87 335.42 301.61 310.67 C 277.39 286.40 253.09 262.20 228.90 237.91 C 204.09 262.57 179.44 287.40 154.71 312.15 M 399.45 238.72 C 375.50 262.72 351.49 286.67 327.54 310.68 C 352.03 335.14 376.48 359.62 400.96 384.08 C 424.90 360.10 448.84 336.13 472.78 312.15 C 448.34 287.68 423.91 263.19 399.45 238.72 M 321.08 491.08 C 308.15 504.86 291.31 514.78 273.26 520.22 C 252.79 526.44 230.71 526.12 210.05 520.91 C 220.96 530.03 230.66 540.67 242.83 548.19 C 260.49 559.54 281.06 566.54 302.08 567.48 C 323.60 568.56 345.10 563.42 364.59 554.46 C 392.33 541.74 416.37 522.25 437.87 500.84 C 458.48 480.04 477.78 457.44 491.49 431.41 C 501.41 412.39 508.14 390.79 505.54 369.14 C 503.76 353.11 496.30 338.13 485.90 325.94 C 430.96 380.98 376.01 436.02 321.08 491.08 M 323.34 332.41 C 323.33 375.54 323.34 418.67 323.34 461.80 C 344.92 440.25 366.45 418.64 388.00 397.06 C 366.45 375.51 344.91 353.95 323.34 332.41 M 240.31 397.90 C 261.86 419.51 283.42 441.10 304.99 462.68 C 305.00 419.53 305.01 376.37 304.99 333.21 C 283.43 354.77 261.87 376.34 240.31 397.90 Z" />
<path fill="#01a0d6" opacity="1.00" d=" M 647.42 108.26 C 649.17 108.26 650.93 108.26 652.70 108.26 C 652.65 245.31 652.75 382.35 652.77 519.40 C 650.97 519.43 649.18 519.45 647.40 519.48 C 647.32 382.41 647.50 245.33 647.42 108.26 Z" />
</g>
</svg>
