<?xml version="1.0" encoding="UTF-8" ?>
<!DOCTYPE svg PUBLIC "-//W3C//DTD SVG 1.1//EN" "http://www.w3.org/Graphics/SVG/1.1/DTD/svg11.dtd">
<svg width="1904pt" height="643pt" viewBox="0 0 1904 643" version="1.1" xmlns="http://www.w3.org/2000/svg">
<g id="#f8fefff1">
<path fill="#f8feff" opacity="0.95" d=" M 307.01 31.04 C 351.80 26.92 398.28 45.22 427.68 79.37 C 455.73 109.67 483.76 139.99 511.82 170.29 C 522.11 181.59 532.87 192.50 542.38 204.49 C 554.99 220.23 566.27 237.15 574.72 255.50 C 582.24 271.74 587.28 289.13 589.56 306.88 C 594.69 348.32 580.50 391.54 552.20 422.18 C 524.23 450.21 495.92 477.90 467.98 505.97 C 444.26 531.51 417.69 554.93 386.88 571.57 C 368.33 581.63 348.05 588.55 327.14 591.53 C 283.36 597.81 237.28 582.12 205.98 550.98 C 183.16 530.81 160.36 510.62 137.48 490.53 C 119.25 476.58 102.62 460.62 87.34 443.52 C 65.92 419.14 47.21 391.60 37.16 360.50 C 32.83 346.72 29.85 332.44 29.22 317.99 C 27.94 285.91 37.63 253.50 56.39 227.44 C 64.71 215.30 75.82 205.54 85.73 194.78 C 109.24 170.28 132.76 145.78 156.26 121.27 C 168.45 107.16 181.87 94.16 196.14 82.16 C 212.43 68.66 229.98 56.50 249.13 47.39 C 267.30 38.70 286.96 33.01 307.01 31.04 M 302.51 37.77 C 273.21 41.38 245.72 54.00 221.57 70.61 C 198.79 86.37 178.39 105.40 160.17 126.21 C 132.42 155.13 104.67 184.04 76.92 212.96 C 60.37 229.07 48.22 249.54 41.38 271.56 C 33.48 296.88 33.50 324.40 40.43 349.94 C 48.27 379.18 64.16 405.64 83.13 428.98 C 100.63 450.34 120.55 469.72 142.41 486.59 C 164.94 506.41 187.42 526.28 209.90 546.15 C 225.64 561.87 245.27 573.58 266.44 580.33 C 286.55 586.75 308.14 588.26 328.98 585.04 C 349.30 581.96 368.79 574.55 386.70 564.59 C 413.35 549.77 436.68 529.67 457.73 507.76 C 468.97 495.67 481.00 484.34 492.62 472.63 C 508.85 456.51 525.09 440.39 541.32 424.28 C 571.51 395.85 587.68 353.22 583.83 311.91 C 580.94 277.72 565.50 245.82 545.34 218.51 C 533.28 201.82 518.77 187.16 504.90 172.01 C 475.09 139.84 445.36 107.61 415.53 75.47 C 386.05 46.85 343.32 32.34 302.51 37.77 Z" />
<path fill="#f8feff" opacity="0.95" d=" M 300.90 57.18 C 324.23 53.37 348.64 56.88 369.97 67.06 C 383.56 73.57 396.41 82.15 406.42 93.52 C 416.78 104.77 427.26 115.90 437.52 127.24 C 412.94 116.24 385.97 109.34 358.89 111.22 C 342.36 112.37 325.58 117.06 312.35 127.37 C 255.58 184.12 198.90 240.98 142.15 297.76 C 129.68 278.45 126.28 254.43 129.16 231.92 C 132.94 202.16 146.92 174.61 164.82 150.89 C 180.26 130.52 198.58 112.42 218.52 96.46 C 242.53 77.49 270.33 61.96 300.90 57.18 M 274.50 70.70 C 241.81 83.38 214.11 106.02 189.97 130.99 C 166.00 156.02 145.78 185.90 137.49 219.93 C 132.56 242.30 132.87 266.82 143.46 287.59 C 198.45 232.53 253.51 177.54 308.46 122.45 C 317.50 115.52 328.09 110.63 339.21 108.13 C 364.24 101.69 390.69 104.91 415.16 112.21 C 410.82 107.44 406.43 102.72 402.06 97.99 C 390.48 84.77 375.03 75.45 358.80 69.07 C 331.89 58.53 301.13 60.11 274.50 70.70 Z" />
<path fill="#f8feff" opacity="0.95" d=" M 647.04 102.13 C 651.94 100.99 659.42 102.52 658.88 108.95 C 658.93 243.30 658.88 377.65 658.90 511.99 C 658.76 515.28 659.33 518.69 658.33 521.89 C 656.36 526.41 650.44 525.96 646.40 525.41 C 642.85 524.98 641.03 521.28 641.19 518.02 C 641.18 382.00 641.19 245.98 641.19 109.96 C 640.88 106.36 643.07 102.29 647.04 102.13 M 647.43 108.27 C 647.51 245.32 647.32 382.36 647.41 519.41 C 649.14 519.44 650.88 519.48 652.62 519.53 C 652.89 493.37 652.66 467.20 652.74 441.04 C 652.75 330.11 652.62 219.19 652.69 108.26 C 650.93 108.27 649.18 108.27 647.43 108.27 Z" />
<path fill="#f8feff" opacity="0.95" d=" M 837.63 119.86 C 838.41 117.01 840.94 114.74 843.99 114.83 C 856.66 114.69 869.33 114.78 882.00 114.78 C 885.23 114.53 888.26 116.63 889.14 119.74 C 925.69 215.96 962.23 312.18 998.80 408.39 C 998.87 312.92 998.80 217.45 998.84 121.98 C 998.49 118.40 1001.23 114.83 1004.96 114.84 C 1015.28 114.64 1025.62 114.85 1035.96 114.75 C 1038.51 114.80 1041.49 114.48 1043.56 116.32 C 1045.54 117.90 1045.89 120.60 1045.85 122.97 C 1045.83 219.00 1045.84 315.03 1045.85 411.06 C 1045.82 413.14 1045.56 415.49 1043.94 416.99 C 1042.17 418.90 1039.38 418.88 1036.99 418.89 C 1026.62 418.84 1016.25 418.91 1005.88 418.86 C 1003.29 418.97 1000.80 417.72 999.52 415.44 C 998.09 417.16 996.37 418.85 993.98 418.80 C 981.64 418.96 969.28 418.81 956.94 418.84 C 953.89 418.97 950.71 417.27 949.86 414.20 C 940.63 389.02 931.48 363.80 922.20 338.64 C 883.13 338.65 844.05 338.62 804.98 338.65 C 795.78 363.81 786.60 388.98 777.38 414.14 C 776.51 417.37 773.18 419.07 770.01 418.85 C 757.76 418.78 745.50 419.00 733.25 418.74 C 728.57 418.62 725.96 413.11 728.15 409.18 C 764.61 312.73 801.15 216.30 837.63 119.86 M 733.47 412.62 C 746.09 412.70 758.72 412.66 771.34 412.64 C 781.10 385.89 790.89 359.16 800.65 332.42 C 842.62 332.37 884.59 332.39 926.56 332.41 C 936.41 359.17 946.03 386.01 956.01 412.71 C 968.59 412.58 981.18 412.72 993.77 412.67 C 956.84 315.44 919.91 218.22 882.96 121.00 C 869.93 120.97 856.90 120.98 843.86 120.99 C 807.04 218.19 770.27 315.41 733.47 412.62 M 1005.01 120.99 C 1005.01 218.22 1004.97 315.46 1005.03 412.69 C 1016.56 412.65 1028.10 412.70 1039.63 412.67 C 1039.65 315.45 1039.62 218.24 1039.65 121.02 C 1028.10 120.94 1016.55 121.00 1005.01 120.99 Z" />
<path fill="#f8feff" opacity="0.95" d=" M 327.68 139.90 C 341.33 131.19 358.19 129.28 374.04 130.14 C 405.06 132.10 434.65 144.47 460.22 161.70 C 485.33 178.72 507.08 200.35 525.84 224.09 C 538.15 239.94 548.82 257.22 556.05 276.00 C 562.42 292.50 565.94 310.23 565.32 327.96 C 564.44 356.03 552.91 383.41 534.31 404.33 C 528.58 410.27 522.70 416.05 516.78 421.78 C 524.74 400.62 527.86 377.04 521.85 354.97 C 517.61 338.08 508.10 323.14 497.25 309.76 C 440.71 253.16 384.18 196.55 327.68 139.90 M 338.05 141.36 C 393.03 196.61 448.10 251.77 503.20 306.90 C 509.72 316.09 516.72 325.10 521.36 335.47 C 530.82 355.73 533.62 379.01 529.07 400.93 C 542.06 386.54 551.30 368.87 556.16 350.13 C 561.50 327.41 559.59 303.17 551.43 281.36 C 540.50 251.50 521.05 225.59 499.09 202.93 C 481.43 184.56 461.45 168.16 438.92 156.10 C 418.88 145.39 396.86 137.62 374.02 136.39 C 361.89 135.64 349.37 136.63 338.05 141.36 Z" />
<path fill="#f8feff" opacity="0.95" d=" M 241.79 224.93 C 262.82 203.77 283.92 182.68 305.01 161.57 C 305.02 203.75 305.01 245.94 305.00 288.13 C 283.92 267.07 262.85 246.00 241.79 224.93 M 250.62 224.95 C 266.69 241.02 282.74 257.10 298.83 273.14 C 298.82 240.94 298.84 208.75 298.82 176.55 C 282.72 192.65 266.59 208.72 250.62 224.95 Z" />
<path fill="#f8feff" opacity="0.95" d=" M 323.32 162.45 C 344.40 183.55 365.49 204.65 386.54 225.78 C 365.43 246.80 344.48 267.97 323.30 288.90 C 323.35 246.75 323.29 204.60 323.32 162.45 M 329.53 177.53 C 329.49 209.66 329.52 241.79 329.52 273.93 C 345.58 257.86 361.64 241.80 377.71 225.74 C 361.68 209.64 345.60 193.58 329.53 177.53 Z" />
<path fill="#f8feff" opacity="0.95" d=" M 812.50 299.82 C 829.22 254.19 846.13 208.63 862.76 162.97 C 864.64 163.20 864.81 165.25 865.49 166.60 C 880.58 206.63 895.19 246.83 910.01 286.96 C 911.53 291.28 913.34 295.51 914.61 299.92 C 880.57 299.69 846.53 299.89 812.50 299.82 M 821.40 293.55 C 849.54 293.56 877.69 293.55 905.83 293.55 C 891.72 255.36 877.79 217.11 863.53 178.98 C 849.55 217.19 835.43 255.35 821.40 293.55 Z" />
<path fill="#f8feff" opacity="0.95" d=" M 1129.81 196.79 C 1155.21 189.54 1183.06 190.70 1207.63 200.48 C 1230.58 210.21 1249.38 229.55 1257.94 253.02 C 1259.39 256.20 1257.90 260.37 1254.57 261.63 C 1244.77 265.77 1234.92 269.79 1225.12 273.90 C 1222.87 274.91 1220.19 275.38 1217.95 274.13 C 1215.62 272.92 1214.92 270.24 1213.88 268.06 C 1208.92 256.85 1200.25 247.09 1189.08 241.82 C 1177.44 235.96 1163.91 235.08 1151.17 236.74 C 1135.69 239.55 1121.70 248.91 1112.52 261.61 C 1105.06 272.04 1100.03 284.33 1098.77 297.14 C 1097.15 312.59 1098.29 328.80 1105.01 343.03 C 1111.86 358.37 1124.35 371.39 1140.10 377.60 C 1150.37 382.06 1161.93 382.20 1172.88 380.80 C 1185.57 379.01 1197.77 372.91 1206.36 363.33 C 1210.84 358.56 1214.07 352.78 1216.72 346.84 C 1218.00 343.23 1222.53 341.60 1225.90 343.34 C 1234.18 346.76 1242.42 350.27 1250.67 353.76 C 1250.22 340.38 1252.61 326.63 1259.04 314.79 C 1267.33 299.67 1281.86 288.91 1297.50 282.28 C 1329.40 269.68 1365.86 271.40 1397.71 283.26 C 1397.94 274.95 1396.85 266.40 1392.61 259.11 C 1387.52 249.86 1378.63 243.15 1368.91 239.35 C 1360.73 236.00 1351.73 235.35 1342.99 235.65 C 1324.84 236.17 1306.69 245.26 1296.65 260.61 C 1294.86 264.07 1289.94 264.87 1286.97 262.49 C 1278.51 256.18 1270.07 249.85 1261.65 243.50 C 1258.97 241.64 1258.11 237.69 1259.85 234.91 C 1269.96 218.97 1285.72 207.11 1303.14 200.14 C 1325.54 191.38 1350.52 190.03 1373.98 194.96 C 1390.76 198.19 1406.81 205.90 1419.00 217.99 C 1429.77 228.56 1437.36 242.31 1440.42 257.10 C 1443.99 270.78 1443.01 284.99 1443.14 298.98 C 1443.12 336.65 1443.18 374.33 1443.11 412.01 C 1443.31 415.49 1440.51 418.81 1436.95 418.81 C 1426.28 418.96 1415.60 418.84 1404.93 418.87 C 1401.84 419.10 1398.40 417.29 1398.00 413.99 C 1397.33 409.06 1397.85 404.06 1397.71 399.10 C 1386.53 410.24 1372.60 419.04 1357.11 422.63 C 1337.00 427.78 1315.31 425.61 1296.14 417.91 C 1276.99 409.96 1260.89 394.08 1254.44 374.17 C 1245.08 391.83 1229.70 406.01 1211.92 414.95 C 1194.92 423.03 1175.77 426.12 1157.06 425.27 C 1136.45 424.23 1115.85 418.01 1099.01 405.88 C 1076.47 390.37 1060.72 365.76 1054.91 339.12 C 1047.78 308.13 1051.52 274.19 1067.21 246.33 C 1080.57 222.51 1103.46 204.14 1129.81 196.79 M 1080.09 238.05 C 1059.55 265.04 1053.77 301.14 1060.05 334.00 C 1065.04 359.96 1079.52 384.32 1101.14 399.79 C 1117.28 411.65 1137.03 418.23 1157.00 419.03 C 1177.26 419.97 1198.25 416.39 1215.77 405.75 C 1232.64 395.59 1246.21 380.03 1253.64 361.76 C 1243.37 357.38 1233.05 353.15 1222.81 348.72 C 1218.49 358.41 1212.46 367.53 1203.99 374.08 C 1190.62 384.86 1172.83 388.82 1155.94 387.61 C 1140.20 386.45 1125.28 378.88 1114.31 367.66 C 1102.45 355.48 1094.93 339.30 1092.78 322.47 C 1090.30 303.13 1092.74 282.61 1102.62 265.54 C 1110.34 251.73 1122.57 240.34 1137.29 234.38 C 1150.27 228.96 1164.92 228.62 1178.54 231.58 C 1189.90 234.09 1200.57 239.94 1208.46 248.54 C 1213.93 254.41 1217.98 261.45 1221.07 268.82 C 1231.52 264.49 1241.97 260.15 1252.42 255.80 C 1246.44 239.66 1235.61 225.36 1221.54 215.41 C 1202.53 201.52 1178.13 197.22 1155.03 198.63 C 1125.91 200.09 1097.57 214.61 1080.09 238.05 M 1307.14 205.25 C 1290.22 211.71 1274.69 222.93 1265.04 238.44 C 1273.82 244.74 1282.34 251.39 1291.04 257.81 C 1296.19 249.88 1303.17 243.13 1311.41 238.45 C 1327.31 229.16 1346.90 227.17 1364.66 231.49 C 1380.80 235.53 1395.74 247.01 1401.17 263.11 C 1404.69 272.76 1403.86 283.16 1403.95 293.23 C 1385.36 283.25 1363.85 279.75 1342.93 279.89 C 1321.73 279.96 1299.93 285.05 1282.61 297.73 C 1271.32 305.72 1262.66 317.52 1259.22 330.99 C 1254.43 349.80 1256.69 370.93 1267.70 387.22 C 1277.68 402.37 1294.22 412.30 1311.65 416.51 C 1330.33 420.81 1350.68 420.34 1368.32 412.28 C 1381.47 406.09 1393.48 396.77 1401.37 384.42 C 1401.94 383.47 1402.78 382.87 1403.90 382.62 C 1404.03 392.64 1403.86 402.66 1403.98 412.68 C 1414.96 412.68 1425.93 412.67 1436.91 412.68 C 1436.95 374.13 1436.92 335.58 1436.93 297.03 C 1436.84 284.64 1437.56 272.09 1434.81 259.91 C 1431.75 244.86 1424.01 230.74 1412.55 220.46 C 1400.05 208.95 1383.67 202.38 1367.01 199.90 C 1347.03 196.98 1326.11 197.94 1307.14 205.25 Z" />
<path fill="#f8feff" opacity="0.95" d=" M 1706.89 195.35 C 1728.48 189.97 1751.57 191.48 1772.58 198.63 C 1791.35 205.37 1807.89 218.23 1819.07 234.74 C 1830.58 251.30 1836.36 271.23 1838.32 291.15 C 1838.89 300.03 1839.83 309.27 1837.01 317.89 C 1835.90 320.60 1832.75 321.54 1830.07 321.50 C 1778.05 321.52 1726.03 321.47 1674.01 321.52 C 1675.48 336.97 1681.80 352.20 1692.86 363.25 C 1713.25 384.45 1749.50 387.95 1773.35 370.56 C 1781.68 364.51 1788.22 356.32 1793.40 347.48 C 1794.98 344.35 1799.05 343.38 1802.07 345.01 C 1811.03 349.20 1819.88 353.66 1828.82 357.93 C 1831.00 358.97 1833.55 360.32 1834.00 362.97 C 1834.74 365.27 1833.70 367.63 1832.59 369.62 C 1824.19 384.57 1812.70 397.90 1798.44 407.53 C 1780.69 420.18 1758.54 425.15 1737.03 425.44 C 1715.20 425.44 1692.97 419.80 1674.91 407.24 C 1662.81 399.17 1652.57 388.45 1644.84 376.16 C 1635.15 361.16 1629.74 343.74 1627.46 326.12 C 1624.44 301.05 1628.16 275.03 1638.97 252.14 C 1651.94 224.65 1676.92 202.20 1706.89 195.35 M 1711.96 200.45 C 1682.68 206.13 1657.74 227.34 1645.01 253.98 C 1633.90 276.46 1630.65 302.32 1633.82 327.06 C 1636.14 345.13 1642.69 362.72 1653.27 377.59 C 1662.36 390.48 1674.67 401.04 1688.72 408.23 C 1704.13 416.20 1721.66 419.59 1738.94 419.13 C 1758.05 418.87 1777.48 414.21 1793.45 403.41 C 1808.06 393.68 1820.26 380.17 1828.11 364.45 C 1818.31 359.90 1808.66 355.03 1798.92 350.36 C 1792.86 360.70 1785.09 370.26 1775.05 376.95 C 1747.60 395.41 1706.90 389.83 1685.54 364.53 C 1673.57 351.08 1668.06 333.07 1667.26 315.33 C 1721.98 315.30 1776.70 315.23 1831.42 315.37 C 1833.24 308.71 1832.70 301.73 1832.37 294.92 C 1831.18 275.32 1825.58 255.75 1814.67 239.30 C 1804.20 223.39 1788.49 211.01 1770.59 204.51 C 1751.91 197.88 1731.38 196.76 1711.96 200.45 Z" />
<path fill="#f8feff" opacity="0.95" d=" M 84.95 232.07 C 95.85 220.63 106.80 209.25 117.77 197.87 C 109.93 220.96 106.93 246.01 111.48 270.09 C 114.09 283.90 119.06 297.38 126.91 309.09 C 127.69 310.16 128.10 311.42 128.40 312.70 C 185.55 370.11 242.86 427.37 300.06 484.74 C 283.82 498.03 263.04 505.69 242.04 505.81 C 218.88 506.02 196.40 497.97 176.57 486.46 C 166.50 480.47 156.56 474.07 147.95 466.06 C 138.26 457.42 128.41 448.96 118.82 440.21 C 98.17 419.21 79.58 395.64 67.33 368.70 C 57.31 346.69 52.19 322.07 55.17 297.92 C 58.11 273.63 68.81 250.41 84.95 232.07 M 89.42 236.38 C 78.64 248.53 70.73 263.11 65.64 278.50 C 57.47 303.94 59.42 332.10 69.12 356.84 C 79.89 384.96 98.12 409.58 118.78 431.22 C 124.12 437.26 130.52 442.21 136.47 447.63 C 147.27 456.85 157.25 467.14 169.36 474.72 C 190.93 488.82 215.73 500.10 242.01 499.57 C 259.37 499.76 276.41 493.81 290.66 484.08 C 235.11 428.37 179.41 372.81 123.90 317.06 C 121.83 314.96 121.71 311.74 119.80 309.49 C 103.58 282.71 99.88 249.58 105.81 219.16 C 100.48 225.03 94.85 230.61 89.42 236.38 Z" />
<path fill="#f8feff" opacity="0.95" d=" M 1432.43 207.94 C 1430.34 203.89 1433.35 198.56 1438.02 198.73 C 1450.01 198.52 1462.02 198.66 1474.03 198.67 C 1476.97 198.54 1479.87 200.24 1480.87 203.09 C 1500.53 253.97 1520.08 304.90 1539.75 355.79 C 1559.61 304.89 1579.46 253.99 1599.34 203.10 C 1600.22 200.24 1603.10 198.61 1606.02 198.68 C 1617.65 198.61 1629.30 198.59 1640.94 198.69 C 1645.79 198.28 1649.10 203.82 1646.94 208.02 C 1619.36 275.98 1591.53 343.85 1563.90 411.80 C 1562.91 415.13 1560.78 418.78 1556.83 418.77 C 1545.55 418.97 1534.25 418.81 1522.97 418.85 C 1519.79 419.03 1516.52 417.31 1515.65 414.10 C 1487.93 345.37 1460.09 276.69 1432.43 207.94 M 1437.89 204.92 C 1465.78 274.16 1493.86 343.32 1521.70 412.59 C 1533.39 412.77 1545.09 412.60 1556.78 412.67 C 1585.06 343.43 1613.30 274.18 1641.52 204.92 C 1629.44 204.90 1617.36 204.87 1605.28 204.93 C 1585.69 255.16 1566.08 305.37 1546.49 355.60 C 1544.06 361.13 1542.54 367.10 1539.53 372.35 C 1517.86 316.59 1496.50 260.71 1474.91 204.91 C 1462.57 204.91 1450.23 204.89 1437.89 204.92 Z" />
<path fill="#f8feff" opacity="0.95" d=" M 1698.11 240.11 C 1712.44 229.88 1731.12 227.95 1748.08 231.06 C 1763.42 233.68 1777.44 243.00 1786.00 255.96 C 1791.75 265.23 1795.28 275.90 1796.07 286.79 C 1753.81 286.79 1711.55 286.84 1669.30 286.77 C 1672.96 268.48 1682.59 250.89 1698.11 240.11 M 1709.86 240.60 C 1693.46 247.89 1682.29 263.69 1677.22 280.52 C 1714.51 280.55 1751.81 280.55 1789.10 280.53 C 1787.64 273.01 1784.69 265.79 1780.73 259.25 C 1772.31 246.70 1758.21 238.02 1743.13 236.55 C 1731.96 235.46 1720.16 235.60 1709.86 240.60 Z" />
<path fill="#f8feff" opacity="0.95" d=" M 154.71 312.14 C 179.46 287.40 204.06 262.51 228.93 237.90 C 253.09 262.23 277.42 286.39 301.62 310.67 C 276.85 335.43 252.12 360.22 227.31 384.93 C 203.13 360.64 178.86 336.45 154.71 312.14 M 163.50 312.16 C 184.81 333.46 206.03 354.82 227.37 376.08 C 249.16 354.27 270.96 332.48 292.76 310.68 C 271.49 289.33 250.15 268.05 228.84 246.73 C 207.07 268.54 185.28 290.35 163.50 312.16 Z" />
<path fill="#f8feff" opacity="0.95" d=" M 399.43 238.72 C 423.93 263.15 448.34 287.67 472.79 312.15 C 448.85 336.14 424.91 360.11 400.97 384.09 C 376.46 359.65 352.03 335.14 327.53 310.70 C 351.45 286.65 375.50 262.74 399.43 238.72 M 336.33 310.66 C 357.88 332.21 379.42 353.77 400.98 375.30 C 422.01 354.29 442.93 333.18 463.93 312.14 C 442.46 290.58 421.03 268.99 399.48 247.50 C 378.43 268.56 357.37 289.60 336.33 310.66 Z" />
<path fill="#f8feff" opacity="0.95" d=" M 1312.06 316.12 C 1319.91 311.55 1328.95 309.46 1337.93 308.53 C 1360.58 306.28 1384.25 310.43 1403.82 322.38 C 1404.96 355.80 1376.17 386.56 1342.94 388.48 C 1332.01 389.19 1320.60 387.55 1311.03 381.97 C 1304.20 378.00 1298.22 372.19 1295.12 364.84 C 1291.79 357.03 1291.57 348.13 1293.54 339.95 C 1295.99 329.84 1303.16 321.30 1312.06 316.12 M 1317.52 320.25 C 1308.48 324.58 1301.24 332.95 1299.17 342.86 C 1297.99 349.95 1298.11 357.65 1301.66 364.10 C 1306.42 373.11 1315.89 378.70 1325.53 381.14 C 1333.29 382.73 1341.36 382.76 1349.18 381.50 C 1375.15 376.45 1396.65 352.66 1397.62 325.99 C 1381.13 316.67 1361.81 313.20 1343.02 314.38 C 1334.27 314.81 1325.40 316.24 1317.52 320.25 Z" />
<path fill="#f8feff" opacity="0.95" d=" M 315.49 496.64 C 372.30 439.75 429.09 382.83 485.90 325.94 C 496.32 338.11 503.77 353.10 505.55 369.14 C 508.15 390.79 501.42 412.39 491.50 431.41 C 477.68 457.65 458.19 480.41 437.38 501.35 C 416.01 522.56 392.12 541.85 364.59 554.48 C 344.79 563.58 322.90 568.74 301.03 567.43 C 279.84 566.30 259.18 559.00 241.51 547.35 C 229.93 539.92 220.57 529.73 210.08 520.93 C 230.30 525.96 251.84 526.44 271.95 520.60 C 288.02 516.03 303.01 507.74 315.49 496.64 M 321.00 499.98 C 296.92 522.51 262.94 533.60 230.18 530.61 C 252.11 550.82 282.01 562.81 311.98 561.32 C 332.30 560.86 351.97 554.27 369.89 544.99 C 398.72 529.96 423.26 507.93 445.22 484.21 C 460.60 467.52 474.89 449.57 485.51 429.43 C 494.51 412.42 501.08 393.41 499.75 373.91 C 499.19 359.91 493.51 346.55 485.41 335.28 C 430.50 390.08 375.83 445.11 321.00 499.98 Z" />
<path fill="#f8feff" opacity="0.95" d=" M 323.33 332.40 C 344.92 353.93 366.46 375.50 388.01 397.06 C 366.51 418.67 344.88 440.16 323.44 461.83 C 323.17 418.69 323.39 375.54 323.33 332.40 M 329.52 347.43 C 329.48 380.54 329.56 413.65 329.48 446.77 C 346.14 430.29 362.63 413.66 379.20 397.09 C 362.65 380.53 346.10 363.96 329.52 347.43 Z" />
<path fill="#f8feff" opacity="0.95" d=" M 240.30 397.90 C 261.86 376.33 283.42 354.76 305.00 333.20 C 305.00 376.36 305.00 419.52 305.00 462.69 C 283.40 441.12 261.85 419.52 240.30 397.90 M 249.09 397.90 C 265.67 414.54 282.20 431.20 298.81 447.80 C 298.84 414.59 298.83 381.38 298.82 348.17 C 282.24 364.74 265.65 381.31 249.09 397.90 Z" />
<path fill="#f8feff" opacity="0.95" d=" M 1502.06 432.92 C 1505.28 431.98 1508.69 432.52 1512.02 432.39 C 1522.37 432.63 1532.97 431.44 1543.07 434.39 C 1558.22 438.04 1570.76 450.62 1574.29 465.81 C 1585.48 451.72 1607.86 449.61 1622.05 460.25 C 1623.42 458.28 1624.84 455.91 1627.48 455.57 C 1631.34 454.92 1635.31 455.26 1639.23 455.28 C 1642.19 455.25 1645.01 457.08 1645.95 459.94 C 1649.53 469.10 1653.02 478.30 1656.58 487.47 C 1660.35 478.14 1663.84 468.69 1667.64 459.37 C 1668.88 456.00 1672.72 455.01 1675.96 455.22 C 1680.63 455.41 1686.29 454.15 1689.81 458.13 C 1701.00 451.86 1715.48 452.01 1726.43 458.75 C 1729.70 453.93 1736.04 455.45 1740.99 455.22 C 1744.01 455.14 1747.71 455.84 1749.04 458.97 C 1752.91 467.63 1756.42 476.45 1760.20 485.16 C 1763.86 476.45 1767.20 467.60 1770.97 458.94 C 1772.27 455.83 1775.96 455.15 1778.97 455.22 C 1783.86 455.40 1789.77 454.11 1793.42 458.28 C 1807.17 450.18 1827.62 452.29 1837.27 465.76 C 1839.70 469.25 1842.53 474.44 1839.28 478.31 C 1836.36 480.92 1832.39 481.89 1828.98 483.68 C 1834.46 486.80 1839.49 491.56 1840.98 497.90 C 1843.30 505.65 1841.06 514.57 1835.36 520.31 C 1828.80 526.94 1819.08 529.37 1810.01 529.13 C 1803.64 528.64 1797.06 527.17 1791.87 523.27 C 1786.37 519.35 1781.92 513.68 1780.12 507.12 C 1779.24 504.40 1780.66 501.27 1783.18 499.96 C 1785.99 498.43 1789.01 497.30 1791.94 495.96 C 1789.15 494.04 1786.85 491.57 1785.02 488.75 C 1776.48 508.37 1768.06 528.04 1759.42 547.61 C 1758.07 550.91 1754.17 551.55 1751.02 551.44 C 1747.32 551.27 1743.38 552.01 1739.91 550.46 C 1736.74 548.29 1734.33 543.86 1736.18 540.10 C 1739.74 532.04 1743.54 524.08 1747.18 516.05 C 1742.00 504.30 1736.84 492.54 1731.61 480.82 C 1730.02 482.07 1725.78 481.89 1726.47 484.56 C 1731.96 487.51 1736.38 492.77 1737.58 498.98 C 1739.89 508.00 1735.90 518.16 1728.13 523.28 C 1717.10 530.72 1701.73 531.05 1690.18 524.59 C 1683.68 520.61 1678.37 514.33 1676.40 506.90 C 1675.68 504.36 1676.91 501.46 1679.19 500.15 C 1682.07 498.51 1685.21 497.40 1688.21 495.98 C 1685.73 494.30 1683.96 491.84 1681.73 489.93 C 1677.08 500.97 1672.73 512.14 1668.08 523.18 C 1666.99 526.06 1663.95 527.53 1661.00 527.41 C 1656.98 527.33 1652.90 527.82 1648.96 526.98 C 1645.59 526.27 1644.51 522.65 1643.41 519.87 C 1640.57 512.32 1637.05 505.02 1634.63 497.32 C 1633.49 498.29 1632.39 499.32 1631.29 500.30 C 1633.72 503.13 1635.04 507.43 1633.09 510.87 C 1628.50 519.21 1620.51 525.97 1611.08 527.95 C 1602.60 530.22 1593.39 529.19 1585.46 525.52 C 1577.75 521.79 1571.92 515.01 1568.50 507.25 C 1562.54 516.48 1552.85 523.23 1542.12 525.62 C 1531.96 528.38 1521.36 527.16 1510.99 527.43 C 1506.98 527.29 1502.08 528.24 1499.11 524.86 C 1496.79 522.96 1496.36 519.84 1496.49 517.04 C 1496.54 491.70 1496.47 466.37 1496.52 441.03 C 1496.36 437.48 1498.82 434.18 1502.06 432.92 M 1503.43 439.37 L 1502.85 440.09 C 1502.54 465.69 1502.84 491.31 1502.70 516.92 C 1502.78 518.31 1502.38 520.20 1504.01 520.89 C 1507.63 521.47 1511.35 521.00 1515.02 521.13 C 1524.36 520.94 1533.98 522.01 1543.02 519.02 C 1551.82 516.29 1559.67 510.35 1564.27 502.32 C 1569.77 492.92 1570.97 481.49 1569.16 470.88 C 1567.47 461.10 1562.11 451.83 1553.89 446.13 C 1546.42 440.77 1537.10 438.53 1527.99 438.62 C 1520.04 438.72 1512.07 438.43 1504.14 438.75 L 1503.43 439.37 M 1581.39 467.38 C 1568.65 479.84 1568.47 503.12 1581.61 515.38 C 1588.78 522.17 1599.45 524.31 1608.94 522.17 C 1616.74 520.61 1623.43 515.21 1627.37 508.39 C 1627.96 507.45 1627.99 506.48 1627.44 505.49 C 1624.53 503.57 1621.23 502.34 1618.14 500.77 C 1616.32 503.62 1614.43 506.58 1611.59 508.51 C 1605.00 513.10 1595.22 512.10 1589.63 506.37 C 1586.44 503.27 1584.95 498.93 1584.28 494.64 C 1599.12 494.58 1613.96 494.62 1628.81 494.62 C 1630.99 482.93 1626.21 469.47 1615.59 463.42 C 1604.93 457.44 1590.19 458.57 1581.39 467.38 M 1688.93 466.92 C 1683.23 472.71 1683.30 483.14 1689.26 488.72 C 1696.50 496.04 1707.66 495.15 1716.30 499.73 C 1720.01 501.32 1720.72 507.08 1717.14 509.21 C 1711.22 512.97 1702.64 512.40 1697.63 507.35 C 1695.53 505.44 1694.87 502.28 1692.26 500.94 C 1688.93 502.52 1685.53 503.93 1682.23 505.55 C 1685.17 513.71 1692.16 520.42 1700.76 522.17 C 1709.55 523.98 1719.67 522.78 1726.57 516.59 C 1732.45 511.46 1733.89 501.92 1729.50 495.42 C 1726.19 490.53 1720.53 487.96 1715.02 486.46 C 1709.83 484.81 1704.11 484.41 1699.44 481.43 C 1696.88 479.89 1696.45 475.82 1698.90 473.97 C 1705.57 468.68 1717.11 470.83 1720.32 479.12 C 1723.93 477.44 1727.60 475.88 1731.15 474.06 C 1728.11 466.13 1720.28 460.94 1712.01 460.04 C 1703.87 458.94 1694.74 460.77 1688.93 466.92 M 1792.76 466.76 C 1786.44 472.93 1787.05 484.54 1794.19 489.84 C 1801.52 496.10 1811.92 495.33 1820.09 499.81 C 1823.60 501.39 1824.33 506.81 1821.07 509.01 C 1814.30 513.67 1803.56 512.08 1799.30 504.76 C 1798.26 503.46 1797.77 501.28 1795.82 501.18 C 1792.41 502.31 1789.26 504.08 1785.95 505.44 C 1787.63 510.13 1790.45 514.46 1794.47 517.48 C 1800.41 522.27 1808.44 523.54 1815.86 522.71 C 1822.07 521.97 1828.41 519.39 1832.31 514.31 C 1837.00 508.38 1836.93 499.00 1831.62 493.46 C 1827.07 488.58 1820.39 486.78 1814.12 485.27 C 1810.29 484.21 1806.14 483.64 1802.86 481.24 C 1800.34 479.55 1800.26 475.44 1802.82 473.75 C 1809.53 468.76 1820.83 470.92 1823.96 479.13 C 1827.57 477.49 1831.18 475.82 1834.79 474.15 C 1832.37 467.66 1826.70 462.79 1820.07 460.98 C 1810.85 458.36 1799.70 459.68 1792.76 466.76 M 1628.27 465.80 C 1635.87 484.24 1643.05 502.86 1650.84 521.22 C 1654.61 521.09 1658.39 521.12 1662.18 521.16 C 1667.78 507.72 1673.19 494.20 1678.72 480.73 C 1680.93 474.84 1683.80 469.18 1685.60 463.16 C 1685.25 462.77 1684.55 462.00 1684.20 461.61 C 1680.61 461.62 1676.75 461.02 1673.35 461.92 C 1667.54 476.07 1662.31 490.46 1656.51 504.62 C 1651.00 490.24 1645.46 475.89 1639.92 461.53 C 1636.17 461.51 1632.43 461.56 1628.69 461.46 C 1627.63 462.76 1627.29 464.33 1628.27 465.80 M 1731.90 461.53 C 1731.33 462.74 1730.75 464.10 1731.61 465.34 C 1739.10 482.24 1746.54 499.17 1754.02 516.08 C 1749.93 525.08 1745.74 534.05 1741.66 543.06 C 1741.98 543.57 1742.64 544.60 1742.97 545.12 C 1746.58 545.15 1750.21 545.17 1753.85 545.05 C 1765.29 518.46 1776.87 491.92 1788.39 465.36 C 1789.27 464.08 1788.60 462.70 1787.99 461.49 C 1784.19 461.56 1780.40 461.52 1776.62 461.49 C 1771.09 474.73 1765.79 488.07 1760.36 501.34 C 1754.51 488.15 1749.15 474.74 1743.39 461.50 C 1739.55 461.51 1735.72 461.54 1731.90 461.53 M 1705.37 477.45 C 1708.01 478.41 1710.73 479.12 1713.52 479.61 C 1711.39 477.35 1708.25 477.22 1705.37 477.45 M 1808.92 477.44 C 1811.62 478.36 1814.38 479.12 1817.22 479.63 C 1815.07 477.27 1811.85 477.27 1808.92 477.44 M 1592.91 500.90 C 1597.25 506.44 1606.51 506.73 1610.74 500.90 C 1604.79 500.79 1598.85 500.79 1592.91 500.90 M 1700.48 501.20 C 1703.10 505.18 1708.14 506.13 1712.52 504.90 C 1708.77 502.93 1704.57 502.12 1700.48 501.20 M 1804.12 501.18 C 1806.76 505.18 1811.81 506.21 1816.19 504.80 C 1812.36 503.01 1808.21 502.09 1804.12 501.18 Z" />
<path fill="#f8feff" opacity="0.95" d=" M 1515.04 450.62 C 1524.24 450.90 1534.02 449.38 1542.63 453.49 C 1550.33 456.94 1555.66 464.61 1556.83 472.90 C 1558.66 483.87 1556.51 496.96 1546.85 503.78 C 1537.73 510.71 1525.74 508.96 1515.05 509.15 C 1515.03 489.64 1515.04 470.13 1515.04 450.62 M 1521.27 456.86 C 1521.27 472.20 1521.26 487.55 1521.27 502.89 C 1527.69 502.80 1534.58 503.66 1540.45 500.42 C 1547.02 497.32 1550.84 490.10 1551.07 483.00 C 1551.79 475.21 1550.19 466.32 1543.59 461.33 C 1537.31 456.23 1528.86 456.72 1521.27 456.86 Z" />
<path fill="#f8feff" opacity="0.95" d=" M 1585.21 483.86 C 1586.67 478.86 1590.04 474.09 1595.08 472.23 C 1600.82 470.26 1607.95 471.18 1612.26 475.72 C 1614.51 477.88 1615.46 480.93 1616.32 483.84 C 1605.95 483.90 1595.57 483.85 1585.21 483.86 Z" />
<path fill="#f8feff" opacity="0.95" d=" M 1154.20 537.97 C 1153.91 533.90 1156.94 529.72 1161.20 529.59 C 1166.15 529.35 1171.11 529.58 1176.07 529.48 C 1181.61 529.30 1187.47 530.50 1191.83 534.13 C 1196.02 537.25 1198.40 542.20 1199.14 547.29 C 1209.26 538.93 1226.59 541.00 1233.44 552.56 C 1236.92 558.62 1238.69 566.56 1235.61 573.14 C 1237.85 578.56 1233.84 583.53 1230.03 586.93 C 1220.40 595.33 1204.10 594.00 1195.97 584.12 C 1191.23 589.46 1183.99 591.82 1176.99 591.48 C 1171.70 591.37 1166.41 591.64 1161.14 591.36 C 1156.96 591.16 1153.93 587.07 1154.20 583.05 C 1154.18 568.03 1154.18 553.00 1154.20 537.97 M 1160.63 536.36 C 1160.65 552.45 1160.62 568.54 1160.64 584.63 C 1166.06 584.66 1171.49 584.62 1176.92 584.66 C 1180.32 584.64 1184.04 585.03 1187.02 582.99 C 1192.06 580.53 1194.87 574.65 1194.26 569.18 C 1193.80 565.12 1190.87 561.67 1187.24 559.97 C 1188.69 557.86 1191.06 556.45 1191.94 553.93 C 1195.28 546.00 1188.47 536.19 1179.97 536.34 C 1173.52 536.34 1167.07 536.36 1160.63 536.36 M 1206.90 550.03 C 1200.76 553.14 1196.39 559.95 1197.31 566.97 C 1196.49 573.51 1199.57 580.44 1205.43 583.66 C 1209.66 586.44 1215.05 585.83 1219.83 585.29 C 1224.22 583.84 1228.80 580.67 1229.79 575.88 C 1227.88 575.31 1226.18 573.87 1224.30 573.53 C 1223.11 575.26 1222.06 577.18 1220.16 578.23 C 1217.45 580.23 1213.90 579.39 1210.80 579.41 C 1206.62 577.32 1203.74 573.26 1203.33 568.57 C 1212.46 568.75 1221.59 568.55 1230.73 568.69 C 1230.86 563.22 1229.94 557.12 1225.61 553.32 C 1220.98 548.17 1213.07 547.92 1206.90 550.03 Z" />
<path fill="#f8feff" opacity="0.95" d=" M 1390.45 543.10 C 1390.43 539.64 1391.59 535.78 1395.05 534.33 C 1398.55 533.19 1402.49 533.23 1406.01 534.32 C 1409.43 535.70 1410.72 539.55 1410.61 542.98 C 1414.09 543.30 1417.77 545.34 1418.50 549.02 C 1419.05 552.84 1419.41 557.53 1416.42 560.49 C 1414.92 562.19 1412.55 562.32 1410.50 562.77 C 1410.49 565.69 1410.51 568.62 1410.45 571.55 C 1413.61 572.70 1415.88 569.77 1418.86 569.43 C 1424.50 568.18 1430.82 572.14 1431.85 577.90 C 1433.44 583.69 1429.47 590.35 1423.53 591.45 C 1420.70 592.37 1417.84 591.33 1415.16 590.48 C 1407.43 593.53 1397.18 591.84 1392.81 584.18 C 1389.25 577.40 1390.98 569.46 1390.57 562.13 C 1387.81 562.97 1383.37 560.80 1381.84 563.91 C 1381.17 571.31 1382.36 578.85 1381.21 586.20 C 1379.23 592.67 1371.12 591.87 1365.87 590.88 C 1362.15 591.49 1358.32 591.89 1354.65 590.84 C 1347.88 593.38 1340.11 592.91 1333.93 589.05 C 1330.71 591.98 1326.04 591.75 1322.03 591.21 C 1318.65 590.65 1316.12 587.45 1316.07 584.08 C 1315.74 576.48 1316.09 568.87 1315.90 561.27 C 1314.46 561.96 1313.40 563.30 1313.61 564.97 C 1313.43 571.50 1313.75 578.04 1313.49 584.57 C 1313.36 588.40 1309.80 591.38 1306.08 591.42 C 1302.62 591.56 1298.45 591.92 1295.88 589.12 C 1294.41 587.81 1293.81 585.83 1293.73 583.94 C 1293.34 576.30 1294.18 568.60 1293.29 561.00 C 1292.41 562.15 1291.24 563.32 1291.38 564.89 C 1291.19 571.24 1291.48 577.60 1291.27 583.95 C 1291.31 587.53 1288.46 590.84 1284.91 591.29 C 1280.99 591.72 1276.56 591.88 1273.38 589.18 C 1267.80 592.21 1261.06 593.40 1254.87 591.77 C 1247.16 590.26 1240.34 583.80 1239.15 575.94 C 1239.02 572.80 1241.47 570.54 1244.11 569.34 C 1241.30 565.60 1239.77 560.66 1240.86 556.02 C 1241.98 549.15 1248.26 544.09 1254.89 542.88 C 1261.04 541.22 1267.72 542.59 1273.20 545.70 C 1276.86 542.35 1282.23 542.89 1286.73 543.81 C 1292.87 541.39 1299.97 541.72 1305.62 545.29 C 1313.63 540.55 1325.15 541.02 1331.44 548.40 C 1339.76 540.73 1353.62 540.05 1362.66 546.83 C 1365.94 542.23 1372.07 542.93 1376.95 543.68 C 1381.37 542.58 1385.97 541.58 1390.45 543.10 M 1397.30 540.32 C 1397.33 543.42 1397.35 546.52 1397.42 549.63 C 1395.42 549.62 1393.45 549.63 1391.48 549.62 C 1391.38 551.65 1391.30 553.68 1391.26 555.73 C 1393.20 556.02 1396.01 554.61 1397.32 556.58 C 1397.58 564.02 1397.00 571.49 1397.56 578.92 C 1399.19 585.12 1407.25 586.92 1412.56 584.47 C 1412.50 582.34 1412.48 580.22 1412.46 578.10 C 1410.92 578.44 1409.41 578.87 1407.95 579.41 C 1406.89 578.98 1405.84 578.55 1404.80 578.14 C 1402.88 574.02 1403.84 569.39 1403.65 565.01 C 1403.84 561.85 1402.96 558.45 1404.40 555.49 C 1407.04 555.64 1409.70 555.66 1412.36 555.65 C 1412.36 553.92 1412.39 552.20 1412.46 550.48 C 1411.35 550.04 1410.22 549.73 1409.08 549.54 C 1407.40 551.03 1405.30 549.98 1403.55 549.38 C 1403.63 546.35 1403.65 543.32 1403.72 540.30 C 1401.57 540.32 1399.43 540.33 1397.30 540.32 M 1247.51 556.08 C 1247.09 559.27 1246.87 563.14 1249.51 565.50 C 1254.41 570.24 1261.91 569.32 1267.48 572.86 C 1267.54 574.65 1267.54 576.44 1267.51 578.24 C 1263.62 579.61 1258.78 580.78 1255.21 578.03 C 1253.47 576.99 1252.91 574.91 1251.55 573.58 C 1249.60 573.75 1247.91 575.05 1246.12 575.73 C 1246.16 579.17 1249.02 581.42 1251.45 583.43 C 1255.29 586.33 1260.34 585.73 1264.85 585.55 C 1268.99 584.83 1273.12 582.11 1274.43 577.94 C 1274.76 575.23 1275.19 571.96 1273.11 569.82 C 1269.52 565.13 1263.30 564.13 1257.85 563.23 C 1256.34 562.18 1254.85 561.12 1253.36 560.08 C 1253.70 556.81 1256.94 554.92 1259.92 554.57 C 1263.50 554.26 1266.54 556.75 1268.27 559.68 C 1270.03 558.63 1271.91 557.79 1273.88 557.16 C 1272.42 551.14 1265.56 548.63 1259.97 548.61 C 1255.04 549.01 1249.21 550.91 1247.51 556.08 M 1284.62 553.04 C 1284.55 552.19 1284.39 550.49 1284.32 549.64 C 1282.32 549.63 1280.33 549.62 1278.35 549.61 C 1278.30 561.31 1278.46 573.02 1278.27 584.72 C 1280.40 584.67 1282.54 584.66 1284.69 584.67 C 1284.58 577.38 1284.69 570.08 1284.62 562.79 C 1286.12 559.14 1288.48 555.00 1292.91 554.77 C 1296.40 554.25 1298.87 557.11 1300.38 559.86 C 1300.30 568.13 1300.42 576.40 1300.31 584.67 C 1302.44 584.66 1304.58 584.67 1306.73 584.72 C 1306.57 578.46 1306.65 572.20 1306.64 565.95 C 1306.63 561.11 1309.45 556.57 1313.94 554.67 C 1314.73 554.66 1316.31 554.64 1317.10 554.64 C 1319.75 555.68 1322.47 557.72 1322.40 560.90 C 1322.66 568.81 1322.43 576.73 1322.50 584.65 C 1324.79 584.64 1327.09 584.64 1329.41 584.64 C 1329.39 577.43 1329.43 570.23 1329.41 563.03 C 1329.27 558.58 1328.28 553.55 1324.51 550.72 C 1318.26 546.98 1310.00 548.83 1305.26 554.14 C 1303.14 551.75 1300.73 549.30 1297.39 548.92 C 1292.65 547.65 1288.26 550.34 1284.62 553.04 M 1340.19 550.32 C 1337.68 551.72 1334.32 553.26 1334.19 556.56 C 1335.27 557.23 1336.36 557.93 1337.46 558.63 C 1337.99 558.63 1339.06 558.63 1339.59 558.64 C 1341.36 556.81 1343.67 555.71 1345.93 554.58 C 1350.13 554.18 1354.06 556.16 1356.48 559.57 C 1356.53 560.59 1356.64 562.63 1356.69 563.66 C 1350.16 561.73 1342.12 561.02 1336.45 565.50 C 1331.16 569.86 1331.46 579.00 1336.96 583.07 C 1340.19 586.02 1344.78 585.86 1348.87 585.60 C 1351.84 585.44 1354.01 583.05 1356.61 581.88 C 1356.62 582.57 1356.65 583.95 1356.66 584.64 C 1358.90 584.64 1361.15 584.64 1363.41 584.64 C 1363.40 577.75 1363.41 570.86 1363.43 563.97 C 1363.37 559.74 1362.40 554.98 1358.91 552.21 C 1353.68 548.11 1346.17 547.67 1340.19 550.32 M 1368.48 549.62 C 1368.17 561.30 1368.48 572.98 1368.32 584.66 C 1370.44 584.65 1372.58 584.68 1374.74 584.73 C 1374.91 577.36 1373.86 569.81 1375.37 562.57 C 1376.55 557.03 1382.50 554.53 1387.69 555.71 C 1387.66 553.55 1387.67 551.40 1387.73 549.25 C 1385.28 549.33 1382.84 549.21 1380.43 549.54 C 1378.12 550.24 1376.42 552.15 1374.55 553.55 C 1374.57 552.58 1374.60 550.62 1374.62 549.64 C 1372.55 549.64 1370.51 549.63 1368.48 549.62 M 1416.32 578.27 C 1416.33 579.69 1416.34 581.12 1416.38 582.56 C 1416.99 583.25 1417.62 583.95 1418.26 584.66 C 1420.08 584.65 1421.90 584.64 1423.75 584.68 C 1424.82 583.34 1426.06 581.87 1425.67 580.00 C 1425.82 577.30 1422.93 576.24 1420.97 575.27 C 1419.25 576.01 1417.65 576.96 1416.32 578.27 Z" />
<path fill="#f8feff" opacity="0.95" d=" M 1167.48 542.53 C 1172.10 542.62 1176.74 542.61 1181.37 542.57 C 1183.21 544.38 1186.00 545.97 1185.74 548.97 C 1186.33 552.23 1183.90 555.01 1181.17 556.37 C 1176.62 556.84 1172.04 556.46 1167.48 556.62 C 1167.55 551.92 1167.56 547.22 1167.48 542.53 M 1174.03 549.13 L 1174.08 550.16 C 1176.00 550.15 1178.03 550.40 1179.83 549.49 C 1177.92 549.04 1175.95 549.12 1174.03 549.13 Z" />
<path fill="#f8feff" opacity="0.95" d=" M 1204.20 563.41 C 1204.82 557.54 1211.87 552.81 1217.46 555.43 C 1220.83 556.70 1223.03 559.97 1223.78 563.40 C 1217.25 563.33 1210.72 563.32 1204.20 563.41 Z" />
<path fill="#f8feff" opacity="0.95" d=" M 1167.49 563.29 C 1172.65 563.51 1177.89 562.82 1183.00 563.77 C 1186.63 565.42 1187.91 569.46 1187.49 573.20 C 1185.94 575.14 1184.20 576.92 1182.22 578.43 C 1177.30 578.32 1172.39 578.34 1167.48 578.44 C 1167.56 573.39 1167.54 568.34 1167.49 563.29 M 1174.15 569.74 C 1174.12 570.26 1174.04 571.28 1174.00 571.79 C 1176.27 571.36 1180.46 573.27 1181.06 570.00 C 1178.76 569.73 1176.44 569.74 1174.15 569.74 Z" />
<path fill="#f8feff" opacity="0.95" d=" M 1342.18 569.16 C 1346.64 566.48 1352.25 567.48 1356.68 569.73 C 1356.61 570.62 1356.46 572.40 1356.39 573.29 C 1354.78 575.67 1352.98 578.19 1350.19 579.27 C 1347.77 579.91 1345.24 579.53 1342.79 579.47 C 1341.69 578.36 1340.58 577.27 1339.48 576.19 C 1339.47 573.62 1339.76 570.63 1342.18 569.16 Z" />
</g>
<g id="#01a0d6ff">
<path fill="#01a0d6" opacity="1.00" d=" M 302.51 37.77 C 343.32 32.34 386.05 46.85 415.53 75.47 C 445.36 107.61 475.09 139.84 504.90 172.01 C 518.77 187.16 533.28 201.82 545.34 218.51 C 565.50 245.82 580.94 277.72 583.83 311.91 C 587.68 353.22 571.51 395.85 541.32 424.28 C 525.09 440.39 508.85 456.51 492.62 472.63 C 481.00 484.34 468.97 495.67 457.73 507.76 C 436.68 529.67 413.35 549.77 386.70 564.59 C 368.79 574.55 349.30 581.96 328.98 585.04 C 308.14 588.26 286.55 586.75 266.44 580.33 C 245.27 573.58 225.64 561.87 209.90 546.15 C 187.42 526.28 164.94 506.41 142.41 486.59 C 120.55 469.72 100.63 450.34 83.13 428.98 C 64.16 405.64 48.27 379.18 40.43 349.94 C 33.50 324.40 33.48 296.88 41.38 271.56 C 48.22 249.54 60.37 229.07 76.92 212.96 C 104.67 184.04 132.42 155.13 160.17 126.21 C 178.39 105.40 198.79 86.37 221.57 70.61 C 245.72 54.00 273.21 41.38 302.51 37.77 M 300.90 57.18 C 270.33 61.96 242.53 77.49 218.52 96.46 C 198.58 112.42 180.26 130.52 164.82 150.89 C 146.92 174.61 132.94 202.16 129.16 231.92 C 126.28 254.43 129.68 278.45 142.15 297.76 C 198.90 240.98 255.58 184.12 312.35 127.37 C 325.58 117.06 342.36 112.37 358.89 111.22 C 385.97 109.34 412.94 116.24 437.52 127.24 C 427.26 115.90 416.78 104.77 406.42 93.52 C 396.41 82.15 383.56 73.57 369.97 67.06 C 348.64 56.88 324.23 53.37 300.90 57.18 M 327.68 139.90 C 384.18 196.55 440.71 253.16 497.25 309.76 C 508.10 323.14 517.61 338.08 521.85 354.97 C 527.86 377.04 524.74 400.62 516.78 421.78 C 522.70 416.05 528.58 410.27 534.31 404.33 C 552.91 383.41 564.44 356.03 565.32 327.96 C 565.94 310.23 562.42 292.50 556.05 276.00 C 548.82 257.22 538.15 239.94 525.84 224.09 C 507.08 200.35 485.33 178.72 460.22 161.70 C 434.65 144.47 405.06 132.10 374.04 130.14 C 358.19 129.28 341.33 131.19 327.68 139.90 M 241.79 224.93 C 262.85 246.00 283.92 267.07 305.00 288.13 C 305.01 245.94 305.02 203.75 305.01 161.57 C 283.92 182.68 262.82 203.77 241.79 224.93 M 323.32 162.45 C 323.29 204.60 323.35 246.75 323.30 288.90 C 344.48 267.97 365.43 246.80 386.54 225.78 C 365.49 204.65 344.40 183.55 323.32 162.45 M 84.95 232.07 C 68.81 250.41 58.11 273.63 55.17 297.92 C 52.19 322.07 57.31 346.69 67.33 368.70 C 79.58 395.64 98.17 419.21 118.82 440.21 C 128.41 448.96 138.26 457.42 147.95 466.06 C 156.56 474.07 166.50 480.47 176.57 486.46 C 196.40 497.97 218.88 506.02 242.04 505.81 C 263.04 505.69 283.82 498.03 300.06 484.74 C 242.86 427.37 185.55 370.11 128.40 312.70 C 128.10 311.42 127.69 310.16 126.91 309.09 C 119.06 297.38 114.09 283.90 111.48 270.09 C 106.93 246.01 109.93 220.96 117.77 197.87 C 106.80 209.25 95.85 220.63 84.95 232.07 M 154.71 312.14 C 178.86 336.45 203.13 360.64 227.31 384.93 C 252.12 360.22 276.85 335.43 301.62 310.67 C 277.42 286.39 253.09 262.23 228.93 237.90 C 204.06 262.51 179.46 287.40 154.71 312.14 M 399.43 238.72 C 375.50 262.74 351.45 286.65 327.53 310.70 C 352.03 335.14 376.46 359.65 400.97 384.09 C 424.91 360.11 448.85 336.14 472.79 312.15 C 448.34 287.67 423.93 263.15 399.43 238.72 M 315.49 496.64 C 303.01 507.74 288.02 516.03 271.95 520.60 C 251.84 526.44 230.30 525.96 210.08 520.93 C 220.57 529.73 229.93 539.92 241.51 547.35 C 259.18 559.00 279.84 566.30 301.03 567.43 C 322.90 568.74 344.79 563.58 364.59 554.48 C 392.12 541.85 416.01 522.56 437.38 501.35 C 458.19 480.41 477.68 457.65 491.50 431.41 C 501.42 412.39 508.15 390.79 505.55 369.14 C 503.77 353.10 496.32 338.11 485.90 325.94 C 429.09 382.83 372.30 439.75 315.49 496.64 M 323.33 332.40 C 323.39 375.54 323.17 418.69 323.44 461.83 C 344.88 440.16 366.51 418.67 388.01 397.06 C 366.46 375.50 344.92 353.93 323.33 332.40 M 240.30 397.90 C 261.85 419.52 283.40 441.12 305.00 462.69 C 305.00 419.52 305.00 376.36 305.00 333.20 C 283.42 354.76 261.86 376.33 240.30 397.90 Z" />
<path fill="#01a0d6" opacity="1.00" d=" M 647.43 108.27 C 649.18 108.27 650.93 108.27 652.69 108.26 C 652.62 219.19 652.75 330.11 652.74 441.04 C 652.66 467.20 652.89 493.37 652.62 519.53 C 650.88 519.48 649.14 519.44 647.41 519.41 C 647.32 382.36 647.51 245.32 647.43 108.27 Z" />
</g>
<g id="#818181ff">
<path fill="#818181" opacity="1.00" d=" M 733.47 412.62 C 770.27 315.41 807.04 218.19 843.86 120.99 C 856.90 120.98 869.93 120.97 882.96 121.00 C 919.91 218.22 956.84 315.44 993.77 412.67 C 981.18 412.72 968.59 412.58 956.01 412.71 C 946.03 386.01 936.41 359.17 926.56 332.41 C 884.59 332.39 842.62 332.37 800.65 332.42 C 790.89 359.16 781.10 385.89 771.34 412.64 C 758.72 412.66 746.09 412.70 733.47 412.62 M 812.50 299.82 C 846.53 299.89 880.57 299.69 914.61 299.92 C 913.34 295.51 911.53 291.28 910.01 286.96 C 895.19 246.83 880.58 206.63 865.49 166.60 C 864.81 165.25 864.64 163.20 862.76 162.97 C 846.13 208.63 829.22 254.19 812.50 299.82 Z" />
<path fill="#818181" opacity="1.00" d=" M 1005.01 120.99 C 1016.55 121.00 1028.10 120.94 1039.65 121.02 C 1039.62 218.24 1039.65 315.45 1039.63 412.67 C 1028.10 412.70 1016.56 412.65 1005.03 412.69 C 1004.97 315.46 1005.01 218.22 1005.01 120.99 Z" />
<path fill="#818181" opacity="1.00" d=" M 1080.09 238.05 C 1097.57 214.61 1125.91 200.09 1155.03 198.63 C 1178.13 197.22 1202.53 201.52 1221.54 215.41 C 1235.61 225.36 1246.44 239.66 1252.42 255.80 C 1241.97 260.15 1231.52 264.49 1221.07 268.82 C 1217.98 261.45 1213.93 254.41 1208.46 248.54 C 1200.57 239.94 1189.90 234.09 1178.54 231.58 C 1164.92 228.62 1150.27 228.96 1137.29 234.38 C 1122.57 240.34 1110.34 251.73 1102.62 265.54 C 1092.74 282.61 1090.30 303.13 1092.78 322.47 C 1094.93 339.30 1102.45 355.48 1114.31 367.66 C 1125.28 378.88 1140.20 386.45 1155.94 387.61 C 1172.83 388.82 1190.62 384.86 1203.99 374.08 C 1212.46 367.53 1218.49 358.41 1222.81 348.72 C 1233.05 353.15 1243.37 357.38 1253.64 361.76 C 1246.21 380.03 1232.64 395.59 1215.77 405.75 C 1198.25 416.39 1177.26 419.97 1157.00 419.03 C 1137.03 418.23 1117.28 411.65 1101.14 399.79 C 1079.52 384.32 1065.04 359.96 1060.05 334.00 C 1053.77 301.14 1059.55 265.04 1080.09 238.05 Z" />
<path fill="#818181" opacity="1.00" d=" M 1307.14 205.25 C 1326.11 197.94 1347.03 196.98 1367.01 199.90 C 1383.67 202.38 1400.05 208.95 1412.55 220.46 C 1424.01 230.74 1431.75 244.86 1434.81 259.91 C 1437.56 272.09 1436.84 284.64 1436.93 297.03 C 1436.92 335.58 1436.95 374.13 1436.91 412.68 C 1425.93 412.67 1414.96 412.68 1403.98 412.68 C 1403.86 402.66 1404.03 392.64 1403.90 382.62 C 1402.78 382.87 1401.94 383.47 1401.37 384.42 C 1393.48 396.77 1381.47 406.09 1368.32 412.28 C 1350.68 420.34 1330.33 420.81 1311.65 416.51 C 1294.22 412.30 1277.68 402.37 1267.70 387.22 C 1256.69 370.93 1254.43 349.80 1259.22 330.99 C 1262.66 317.52 1271.32 305.72 1282.61 297.73 C 1299.93 285.05 1321.73 279.96 1342.93 279.89 C 1363.85 279.75 1385.36 283.25 1403.95 293.23 C 1403.86 283.16 1404.69 272.76 1401.17 263.11 C 1395.74 247.01 1380.80 235.53 1364.66 231.49 C 1346.90 227.17 1327.31 229.16 1311.41 238.45 C 1303.17 243.13 1296.19 249.88 1291.04 257.81 C 1282.34 251.39 1273.82 244.74 1265.04 238.44 C 1274.69 222.93 1290.22 211.71 1307.14 205.25 M 1312.06 316.12 C 1303.16 321.30 1295.99 329.84 1293.54 339.95 C 1291.57 348.13 1291.79 357.03 1295.12 364.84 C 1298.22 372.19 1304.20 378.00 1311.03 381.97 C 1320.60 387.55 1332.01 389.19 1342.94 388.48 C 1376.17 386.56 1404.96 355.80 1403.82 322.38 C 1384.25 310.43 1360.58 306.28 1337.93 308.53 C 1328.95 309.46 1319.91 311.55 1312.06 316.12 Z" />
<path fill="#818181" opacity="1.00" d=" M 1711.96 200.45 C 1731.38 196.76 1751.91 197.88 1770.59 204.51 C 1788.49 211.01 1804.20 223.39 1814.67 239.30 C 1825.58 255.75 1831.18 275.32 1832.37 294.92 C 1832.70 301.73 1833.24 308.71 1831.42 315.37 C 1776.70 315.23 1721.98 315.30 1667.26 315.33 C 1668.06 333.07 1673.57 351.08 1685.54 364.53 C 1706.90 389.83 1747.60 395.41 1775.05 376.95 C 1785.09 370.26 1792.86 360.70 1798.92 350.36 C 1808.66 355.03 1818.31 359.90 1828.11 364.45 C 1820.26 380.17 1808.06 393.68 1793.45 403.41 C 1777.48 414.21 1758.05 418.87 1738.94 419.13 C 1721.66 419.59 1704.13 416.20 1688.72 408.23 C 1674.67 401.04 1662.36 390.48 1653.27 377.59 C 1642.69 362.72 1636.14 345.13 1633.82 327.06 C 1630.65 302.32 1633.90 276.46 1645.01 253.98 C 1657.74 227.34 1682.68 206.13 1711.96 200.45 M 1698.11 240.11 C 1682.59 250.89 1672.96 268.48 1669.30 286.77 C 1711.55 286.84 1753.81 286.79 1796.07 286.79 C 1795.28 275.90 1791.75 265.23 1786.00 255.96 C 1777.44 243.00 1763.42 233.68 1748.08 231.06 C 1731.12 227.95 1712.44 229.88 1698.11 240.11 Z" />
<path fill="#818181" opacity="1.00" d=" M 1437.89 204.92 C 1450.23 204.89 1462.57 204.91 1474.91 204.91 C 1496.50 260.71 1517.86 316.59 1539.53 372.35 C 1542.54 367.10 1544.06 361.13 1546.49 355.60 C 1566.08 305.37 1585.69 255.16 1605.28 204.93 C 1617.36 204.87 1629.44 204.90 1641.52 204.92 C 1613.30 274.18 1585.06 343.43 1556.78 412.67 C 1545.09 412.60 1533.39 412.77 1521.70 412.59 C 1493.86 343.32 1465.78 274.16 1437.89 204.92 Z" />
<path fill="#818181" opacity="1.00" d=" M 1503.43 439.37 L 1504.14 438.75 C 1512.07 438.43 1520.04 438.72 1527.99 438.62 C 1537.10 438.53 1546.42 440.77 1553.89 446.13 C 1562.11 451.83 1567.47 461.10 1569.16 470.88 C 1570.97 481.49 1569.77 492.92 1564.27 502.32 C 1559.67 510.35 1551.82 516.29 1543.02 519.02 C 1533.98 522.01 1524.36 520.94 1515.02 521.13 C 1511.35 521.00 1507.63 521.47 1504.01 520.89 C 1502.38 520.20 1502.78 518.31 1502.70 516.92 C 1502.84 491.31 1502.54 465.69 1502.85 440.09 L 1503.43 439.37 M 1515.04 450.62 C 1515.04 470.13 1515.03 489.64 1515.05 509.15 C 1525.74 508.96 1537.73 510.71 1546.85 503.78 C 1556.51 496.96 1558.66 483.87 1556.83 472.90 C 1555.66 464.61 1550.33 456.94 1542.63 453.49 C 1534.02 449.38 1524.24 450.90 1515.04 450.62 Z" />
<path fill="#818181" opacity="1.00" d=" M 1581.39 467.38 C 1590.19 458.57 1604.93 457.44 1615.59 463.42 C 1626.21 469.47 1630.99 482.93 1628.81 494.62 C 1613.96 494.62 1599.12 494.58 1584.28 494.64 C 1584.95 498.93 1586.44 503.27 1589.63 506.37 C 1595.22 512.10 1605.00 513.10 1611.59 508.51 C 1614.43 506.58 1616.32 503.62 1618.14 500.77 C 1621.23 502.34 1624.53 503.57 1627.44 505.49 C 1627.99 506.48 1627.96 507.45 1627.37 508.39 C 1623.43 515.21 1616.74 520.61 1608.94 522.17 C 1599.45 524.31 1588.78 522.17 1581.61 515.38 C 1568.47 503.12 1568.65 479.84 1581.39 467.38 M 1585.21 483.86 C 1595.57 483.85 1605.95 483.90 1616.32 483.84 C 1615.46 480.93 1614.51 477.88 1612.26 475.72 C 1607.95 471.18 1600.82 470.26 1595.08 472.23 C 1590.04 474.09 1586.67 478.86 1585.21 483.86 Z" />
<path fill="#818181" opacity="1.00" d=" M 1688.93 466.92 C 1694.74 460.77 1703.87 458.94 1712.01 460.04 C 1720.28 460.94 1728.11 466.13 1731.15 474.06 C 1727.60 475.88 1723.93 477.44 1720.32 479.12 C 1717.11 470.83 1705.57 468.68 1698.90 473.97 C 1696.45 475.82 1696.88 479.89 1699.44 481.43 C 1704.11 484.41 1709.83 484.81 1715.02 486.46 C 1720.53 487.96 1726.19 490.53 1729.50 495.42 C 1733.89 501.92 1732.45 511.46 1726.57 516.59 C 1719.67 522.78 1709.55 523.98 1700.76 522.17 C 1692.16 520.42 1685.17 513.71 1682.23 505.55 C 1685.53 503.93 1688.93 502.52 1692.26 500.94 C 1694.87 502.28 1695.53 505.44 1697.63 507.35 C 1702.64 512.40 1711.22 512.97 1717.14 509.21 C 1720.72 507.08 1720.01 501.32 1716.30 499.73 C 1707.66 495.15 1696.50 496.04 1689.26 488.72 C 1683.30 483.14 1683.23 472.71 1688.93 466.92 Z" />
<path fill="#818181" opacity="1.00" d=" M 1792.76 466.76 C 1799.70 459.68 1810.85 458.36 1820.07 460.98 C 1826.70 462.79 1832.37 467.66 1834.79 474.15 C 1831.18 475.82 1827.57 477.49 1823.96 479.13 C 1820.83 470.92 1809.53 468.76 1802.82 473.75 C 1800.26 475.44 1800.34 479.55 1802.86 481.24 C 1806.14 483.64 1810.29 484.21 1814.12 485.27 C 1820.39 486.78 1827.07 488.58 1831.62 493.46 C 1836.93 499.00 1837.00 508.38 1832.31 514.31 C 1828.41 519.39 1822.07 521.97 1815.86 522.71 C 1808.44 523.54 1800.41 522.27 1794.47 517.48 C 1790.45 514.46 1787.63 510.13 1785.95 505.44 C 1789.26 504.08 1792.41 502.31 1795.82 501.18 C 1797.77 501.28 1798.26 503.46 1799.30 504.76 C 1803.56 512.08 1814.30 513.67 1821.07 509.01 C 1824.33 506.81 1823.60 501.39 1820.09 499.81 C 1811.92 495.33 1801.52 496.10 1794.19 489.84 C 1787.05 484.54 1786.44 472.93 1792.76 466.76 Z" />
<path fill="#818181" opacity="1.00" d=" M 1628.27 465.80 C 1627.29 464.33 1627.63 462.76 1628.69 461.46 C 1632.43 461.56 1636.17 461.51 1639.92 461.53 C 1645.46 475.89 1651.00 490.24 1656.51 504.62 C 1662.31 490.46 1667.54 476.07 1673.35 461.92 C 1676.75 461.02 1680.61 461.62 1684.20 461.61 C 1684.55 462.00 1685.25 462.77 1685.60 463.16 C 1683.80 469.18 1680.93 474.84 1678.72 480.73 C 1673.19 494.20 1667.78 507.72 1662.18 521.16 C 1658.39 521.12 1654.61 521.09 1650.84 521.22 C 1643.05 502.86 1635.87 484.24 1628.27 465.80 Z" />
<path fill="#818181" opacity="1.00" d=" M 1731.90 461.53 C 1735.72 461.54 1739.55 461.51 1743.39 461.50 C 1749.15 474.74 1754.51 488.15 1760.36 501.34 C 1765.79 488.07 1771.09 474.73 1776.62 461.49 C 1780.40 461.52 1784.19 461.56 1787.99 461.49 C 1788.60 462.70 1789.27 464.08 1788.39 465.36 C 1776.87 491.92 1765.29 518.46 1753.85 545.05 C 1750.21 545.17 1746.58 545.15 1742.97 545.12 C 1742.64 544.60 1741.98 543.57 1741.66 543.06 C 1745.74 534.05 1749.93 525.08 1754.02 516.08 C 1746.54 499.17 1739.10 482.24 1731.61 465.34 C 1730.75 464.10 1731.33 462.74 1731.90 461.53 Z" />
<path fill="#818181" opacity="1.00" d=" M 1160.63 536.36 C 1167.07 536.36 1173.52 536.34 1179.97 536.34 C 1188.47 536.19 1195.28 546.00 1191.94 553.93 C 1191.06 556.45 1188.69 557.86 1187.24 559.97 C 1190.87 561.67 1193.80 565.12 1194.26 569.18 C 1194.87 574.65 1192.06 580.53 1187.02 582.99 C 1184.04 585.03 1180.32 584.64 1176.92 584.66 C 1171.49 584.62 1166.06 584.66 1160.64 584.63 C 1160.62 568.54 1160.65 552.45 1160.63 536.36 M 1167.48 542.53 C 1167.56 547.22 1167.55 551.92 1167.48 556.62 C 1172.04 556.46 1176.62 556.84 1181.17 556.37 C 1183.90 555.01 1186.33 552.23 1185.74 548.97 C 1186.00 545.97 1183.21 544.38 1181.37 542.57 C 1176.74 542.61 1172.10 542.62 1167.48 542.53 M 1167.49 563.29 C 1167.54 568.34 1167.56 573.39 1167.48 578.44 C 1172.39 578.34 1177.30 578.32 1182.22 578.43 C 1184.20 576.92 1185.94 575.14 1187.49 573.20 C 1187.91 569.46 1186.63 565.42 1183.00 563.77 C 1177.89 562.82 1172.65 563.51 1167.49 563.29 Z" />
<path fill="#818181" opacity="1.00" d=" M 1397.30 540.32 C 1399.43 540.33 1401.57 540.32 1403.72 540.30 C 1403.65 543.32 1403.63 546.35 1403.55 549.38 C 1405.30 549.98 1407.40 551.03 1409.08 549.54 C 1410.22 549.73 1411.35 550.04 1412.46 550.48 C 1412.39 552.20 1412.36 553.92 1412.36 555.65 C 1409.70 555.66 1407.04 555.64 1404.40 555.49 C 1402.96 558.45 1403.84 561.85 1403.65 565.01 C 1403.84 569.39 1402.88 574.02 1404.80 578.14 C 1405.84 578.55 1406.89 578.98 1407.95 579.41 C 1409.41 578.87 1410.92 578.44 1412.46 578.10 C 1412.48 580.22 1412.50 582.34 1412.56 584.47 C 1407.25 586.92 1399.19 585.12 1397.56 578.92 C 1397.00 571.49 1397.58 564.02 1397.32 556.58 C 1396.01 554.61 1393.20 556.02 1391.26 555.73 C 1391.30 553.68 1391.38 551.65 1391.48 549.62 C 1393.45 549.63 1395.42 549.62 1397.42 549.63 C 1397.35 546.52 1397.33 543.42 1397.30 540.32 Z" />
<path fill="#818181" opacity="1.00" d=" M 1247.51 556.08 C 1249.21 550.91 1255.04 549.01 1259.97 548.61 C 1265.56 548.63 1272.42 551.14 1273.88 557.16 C 1271.91 557.79 1270.03 558.63 1268.27 559.68 C 1266.54 556.75 1263.50 554.26 1259.92 554.57 C 1256.94 554.92 1253.70 556.81 1253.36 560.08 C 1254.85 561.12 1256.34 562.18 1257.85 563.23 C 1263.30 564.13 1269.52 565.13 1273.11 569.82 C 1275.19 571.96 1274.76 575.23 1274.43 577.94 C 1273.12 582.11 1268.99 584.83 1264.85 585.55 C 1260.34 585.73 1255.29 586.33 1251.45 583.43 C 1249.02 581.42 1246.16 579.17 1246.12 575.73 C 1247.91 575.05 1249.60 573.75 1251.55 573.58 C 1252.91 574.91 1253.47 576.99 1255.21 578.03 C 1258.78 580.78 1263.62 579.61 1267.51 578.24 C 1267.54 576.44 1267.54 574.65 1267.48 572.86 C 1261.91 569.32 1254.41 570.24 1249.51 565.50 C 1246.87 563.14 1247.09 559.27 1247.51 556.08 Z" />
<path fill="#818181" opacity="1.00" d=" M 1284.62 553.04 C 1288.26 550.34 1292.65 547.65 1297.39 548.92 C 1300.73 549.30 1303.14 551.75 1305.26 554.14 C 1310.00 548.83 1318.26 546.98 1324.51 550.72 C 1328.28 553.55 1329.27 558.58 1329.41 563.03 C 1329.43 570.23 1329.39 577.43 1329.41 584.64 C 1327.09 584.64 1324.79 584.64 1322.50 584.65 C 1322.43 576.73 1322.66 568.81 1322.40 560.90 C 1322.47 557.72 1319.75 555.68 1317.10 554.64 C 1316.31 554.64 1314.73 554.66 1313.94 554.67 C 1309.45 556.57 1306.63 561.11 1306.64 565.95 C 1306.65 572.20 1306.57 578.46 1306.73 584.72 C 1304.58 584.67 1302.44 584.66 1300.31 584.67 C 1300.42 576.40 1300.30 568.13 1300.38 559.86 C 1298.87 557.11 1296.40 554.25 1292.91 554.77 C 1288.48 555.00 1286.12 559.14 1284.62 562.79 C 1284.69 570.08 1284.58 577.38 1284.69 584.67 C 1282.54 584.66 1280.40 584.67 1278.27 584.72 C 1278.46 573.02 1278.30 561.31 1278.35 549.61 C 1280.33 549.62 1282.32 549.63 1284.32 549.64 C 1284.39 550.49 1284.55 552.19 1284.62 553.04 Z" />
<path fill="#818181" opacity="1.00" d=" M 1340.19 550.32 C 1346.17 547.67 1353.68 548.11 1358.91 552.21 C 1362.40 554.98 1363.37 559.74 1363.43 563.97 C 1363.41 570.86 1363.40 577.75 1363.41 584.64 C 1361.15 584.64 1358.90 584.64 1356.66 584.64 C 1356.65 583.95 1356.62 582.57 1356.61 581.88 C 1354.01 583.05 1351.84 585.44 1348.87 585.60 C 1344.78 585.86 1340.19 586.02 1336.96 583.07 C 1331.46 579.00 1331.16 569.86 1336.45 565.50 C 1342.12 561.02 1350.16 561.73 1356.69 563.66 C 1356.64 562.63 1356.53 560.59 1356.48 559.57 C 1354.06 556.16 1350.13 554.18 1345.93 554.58 C 1343.67 555.71 1341.36 556.81 1339.59 558.64 C 1339.06 558.63 1337.99 558.63 1337.46 558.63 C 1336.36 557.93 1335.27 557.23 1334.19 556.56 C 1334.32 553.26 1337.68 551.72 1340.19 550.32 M 1342.18 569.16 C 1339.76 570.63 1339.47 573.62 1339.48 576.19 C 1340.58 577.27 1341.69 578.36 1342.79 579.47 C 1345.24 579.53 1347.77 579.91 1350.19 579.27 C 1352.98 578.19 1354.78 575.67 1356.39 573.29 C 1356.46 572.40 1356.61 570.62 1356.68 569.73 C 1352.25 567.48 1346.64 566.48 1342.18 569.16 Z" />
<path fill="#818181" opacity="1.00" d=" M 1206.90 550.03 C 1213.07 547.92 1220.98 548.17 1225.61 553.32 C 1229.94 557.12 1230.86 563.22 1230.73 568.69 C 1221.59 568.55 1212.46 568.75 1203.33 568.57 C 1203.74 573.26 1206.62 577.32 1210.80 579.41 C 1213.90 579.39 1217.45 580.23 1220.16 578.23 C 1222.06 577.18 1223.11 575.26 1224.30 573.53 C 1226.18 573.87 1227.88 575.31 1229.79 575.88 C 1228.80 580.67 1224.22 583.84 1219.83 585.29 C 1215.05 585.83 1209.66 586.44 1205.43 583.66 C 1199.57 580.44 1196.49 573.51 1197.31 566.97 C 1196.39 559.95 1200.76 553.14 1206.90 550.03 M 1204.20 563.41 C 1210.72 563.32 1217.25 563.33 1223.78 563.40 C 1223.03 559.97 1220.83 556.70 1217.46 555.43 C 1211.87 552.81 1204.82 557.54 1204.20 563.41 Z" />
<path fill="#818181" opacity="1.00" d=" M 1368.48 549.62 C 1370.51 549.63 1372.55 549.64 1374.62 549.64 C 1374.60 550.62 1374.57 552.58 1374.55 553.55 C 1376.42 552.15 1378.12 550.24 1380.43 549.54 C 1382.84 549.21 1385.28 549.33 1387.73 549.25 C 1387.67 551.40 1387.66 553.55 1387.69 555.71 C 1382.50 554.53 1376.55 557.03 1375.37 562.57 C 1373.86 569.81 1374.91 577.36 1374.74 584.73 C 1372.58 584.68 1370.44 584.65 1368.32 584.66 C 1368.48 572.98 1368.17 561.30 1368.48 549.62 Z" />
<path fill="#818181" opacity="1.00" d=" M 1416.32 578.27 C 1417.65 576.96 1419.25 576.01 1420.97 575.27 C 1422.93 576.24 1425.82 577.30 1425.67 580.00 C 1426.06 581.87 1424.82 583.34 1423.75 584.68 C 1421.90 584.64 1420.08 584.65 1418.26 584.66 C 1417.62 583.95 1416.99 583.25 1416.38 582.56 C 1416.34 581.12 1416.33 579.69 1416.32 578.27 Z" />
</g>
</svg>
