<?xml version="1.0" encoding="UTF-8" ?>
<!DOCTYPE svg PUBLIC "-//W3C//DTD SVG 1.1//EN" "http://www.w3.org/Graphics/SVG/1.1/DTD/svg11.dtd">
<svg width="950pt" height="950pt" viewBox="0 0 950 950" version="1.1" xmlns="http://www.w3.org/2000/svg">
<g id="#ffffffff">
<path fill="#ffffff" opacity="1.00" d=" M 465.65 83.80 C 498.01 79.32 532.05 90.80 555.33 113.67 C 582.74 143.29 610.17 172.91 637.56 202.56 C 649.53 215.87 660.32 230.39 668.48 246.36 C 675.62 260.26 680.38 275.40 682.25 290.92 C 686.12 324.22 673.42 359.02 648.88 381.88 C 633.40 397.43 617.70 412.75 602.20 428.28 C 591.31 438.72 581.41 450.17 570.05 460.13 C 553.45 474.92 534.91 487.97 514.11 496.10 C 497.62 502.43 479.79 505.80 462.12 504.31 C 443.58 502.66 425.40 496.44 410.02 485.91 C 400.06 479.42 392.03 470.58 382.94 463.01 C 369.63 451.31 356.42 439.50 343.05 427.86 C 327.73 416.03 313.75 402.47 301.25 387.69 C 283.86 366.95 269.38 342.90 264.14 316.05 C 256.54 281.00 268.08 242.68 293.43 217.39 C 314.68 195.32 335.87 173.18 357.09 151.08 C 370.15 136.10 384.82 122.47 401.00 110.92 C 420.11 97.15 442.16 86.95 465.65 83.80 M 463.50 88.79 C 455.18 90.08 447.03 92.34 439.17 95.34 C 411.22 106.12 387.49 125.48 367.04 147.00 C 358.59 156.54 349.58 165.55 340.80 174.78 C 324.96 191.28 309.15 207.79 293.29 224.26 C 277.17 242.22 267.39 265.86 266.56 290.01 C 265.67 311.59 271.92 332.96 282.14 351.82 C 294.65 374.92 312.32 394.84 331.70 412.41 C 338.26 418.52 345.66 423.64 352.24 429.73 C 367.63 443.36 383.11 456.88 398.43 470.58 C 421.85 493.57 456.55 504.43 488.88 498.45 C 523.04 492.44 552.32 471.44 576.61 447.62 C 600.85 422.53 625.99 398.33 650.61 373.60 C 671.62 350.95 681.86 318.68 677.21 288.07 C 672.77 256.94 655.35 229.35 634.67 206.33 C 607.15 176.52 579.58 146.75 552.01 116.98 C 529.11 94.41 495.27 83.50 463.50 88.79 Z" />
<path fill="#ffffff" opacity="1.00" d=" M 464.96 103.00 C 492.30 98.14 521.39 107.50 541.43 126.55 C 550.31 136.00 559.08 145.57 567.88 155.11 C 552.65 148.83 536.64 143.80 520.05 143.27 C 503.96 142.63 486.72 145.53 473.89 155.89 C 431.41 198.32 389.07 240.90 346.56 283.31 C 334.78 264.77 333.87 241.18 339.55 220.42 C 347.49 191.30 366.48 166.56 388.09 146.09 C 409.58 125.79 435.26 107.98 464.96 103.00 M 441.87 114.64 C 422.28 123.02 405.10 136.15 389.84 150.87 C 369.20 170.63 351.29 194.53 343.73 222.47 C 339.34 239.94 339.28 259.36 347.61 275.71 C 388.74 234.47 429.97 193.33 471.09 152.08 C 478.25 146.38 486.87 142.69 495.79 140.77 C 514.18 136.36 533.46 138.86 551.38 144.15 C 546.62 139.04 542.02 133.78 537.09 128.85 C 526.90 119.50 514.30 112.92 501.04 109.14 C 481.45 103.95 460.29 106.48 441.87 114.64 Z" />
<path fill="#ffffff" opacity="1.00" d=" M 485.71 164.88 C 499.81 156.31 517.30 156.30 533.07 159.15 C 563.98 164.90 591.31 182.77 613.39 204.59 C 627.59 218.69 640.54 234.28 650.08 251.94 C 658.22 266.99 663.65 283.77 664.01 300.97 C 664.57 320.73 657.93 340.38 646.34 356.30 C 641.04 363.79 634.06 369.84 627.61 376.29 C 633.34 360.98 635.76 344.02 631.83 327.96 C 628.81 314.59 621.44 302.69 612.83 292.21 C 570.46 249.76 528.07 207.33 485.71 164.88 M 493.52 166.04 C 534.67 207.36 575.86 248.64 617.10 289.87 C 621.37 295.71 625.79 301.50 629.18 307.93 C 637.70 323.94 640.51 342.91 636.80 360.68 C 646.48 350.02 653.35 336.89 657.03 322.99 C 661.09 306.14 659.80 288.13 653.89 271.87 C 647.33 253.51 636.38 237.00 623.64 222.35 C 601.17 196.31 572.74 173.77 538.91 165.08 C 524.10 161.67 507.91 160.17 493.52 166.04 Z" />
<path fill="#ffffff" opacity="1.00" d=" M 421.34 228.70 C 437.13 212.87 452.90 197.02 468.74 181.24 C 468.76 212.85 468.76 244.46 468.74 276.08 C 452.93 260.29 437.15 244.48 421.34 228.70 M 427.95 228.68 C 439.97 240.77 452.04 252.81 464.11 264.86 C 464.13 240.71 464.14 216.56 464.11 192.41 C 452.02 204.47 439.97 216.56 427.95 228.68 Z" />
<path fill="#ffffff" opacity="1.00" d=" M 482.50 181.85 C 498.30 197.69 514.15 213.47 529.88 229.37 C 514.05 245.08 498.39 260.95 482.51 276.62 C 482.48 245.03 482.49 213.44 482.50 181.85 M 487.13 193.11 C 487.13 217.23 487.11 241.35 487.14 265.46 C 499.19 253.42 511.23 241.36 523.29 229.32 C 511.27 217.22 499.18 205.18 487.13 193.11 Z" />
<path fill="#ffffff" opacity="1.00" d=" M 304.40 233.32 C 312.35 225.07 320.23 216.76 328.22 208.55 C 321.09 229.84 319.39 253.54 326.88 274.97 C 329.30 282.38 333.34 289.12 337.39 295.70 C 379.95 338.32 422.52 380.94 465.04 423.60 C 452.68 433.57 436.98 439.41 421.06 439.33 C 403.05 439.42 385.68 432.82 370.42 423.64 C 363.69 419.49 357.01 415.16 351.21 409.75 C 343.83 403.16 336.31 396.72 329.01 390.04 C 311.63 372.32 296.07 352.11 287.29 328.68 C 280.38 310.40 278.55 289.94 283.81 271.00 C 287.64 257.08 294.69 244.01 304.40 233.32 M 306.25 238.20 C 297.49 248.44 291.26 260.78 287.79 273.78 C 283.50 291.40 285.10 310.28 291.65 327.16 C 300.25 349.92 315.38 369.56 332.30 386.79 C 337.14 391.26 342.18 395.52 347.08 399.92 C 353.00 405.03 358.57 410.59 365.19 414.82 C 381.66 425.90 400.68 434.91 420.94 434.69 C 434.16 434.93 447.16 430.47 458.03 423.07 C 416.26 381.14 374.27 339.42 332.61 297.40 C 330.17 292.24 326.83 287.52 324.70 282.19 C 317.13 264.01 315.47 243.53 319.44 224.28 C 315.16 229.02 310.53 233.44 306.25 238.20 Z" />
<path fill="#ffffff" opacity="1.00" d=" M 356.03 294.12 C 374.56 275.54 393.09 256.97 411.64 238.42 C 429.81 256.63 448.03 274.79 466.20 293.00 C 447.66 311.58 429.07 330.10 410.53 348.69 C 392.34 330.53 374.20 312.31 356.03 294.12 M 411.49 245.03 C 395.34 261.53 378.89 277.74 362.61 294.12 C 378.50 310.13 394.59 325.94 410.34 342.08 C 426.94 325.90 443.16 309.34 459.59 293.00 C 443.55 277.02 427.66 260.88 411.49 245.03 Z" />
<path fill="#ffffff" opacity="1.00" d=" M 485.67 293.00 C 503.64 275.00 521.62 257.01 539.62 239.04 C 557.93 257.41 576.27 275.75 594.58 294.12 C 576.63 312.10 558.68 330.08 540.72 348.06 C 522.37 329.71 504.00 311.37 485.67 293.00 M 539.60 245.62 C 523.82 261.42 508.02 277.20 492.24 293.00 C 508.40 309.17 524.56 325.35 540.75 341.50 C 556.50 325.71 572.21 309.89 587.96 294.11 C 571.85 277.94 555.77 261.73 539.60 245.62 Z" />
<path fill="#ffffff" opacity="1.00" d=" M 477.05 432.07 C 519.49 389.52 561.98 347.02 604.40 304.45 C 612.74 314.11 618.45 326.24 619.38 339.05 C 620.68 355.13 615.38 370.96 607.87 384.97 C 598.56 402.21 585.96 417.42 572.45 431.50 C 553.10 451.47 530.93 469.75 504.57 479.49 C 485.62 486.54 464.34 487.95 444.95 481.80 C 432.32 477.85 420.47 471.24 410.62 462.38 C 406.42 458.40 401.97 454.68 397.70 450.77 C 414.46 454.89 432.44 454.79 448.78 448.93 C 459.18 445.23 468.90 439.53 477.05 432.07 M 481.90 433.84 C 463.85 451.57 437.78 460.10 412.70 458.04 C 429.38 473.36 452.17 482.35 474.93 480.97 C 491.68 480.37 507.74 474.34 522.20 466.15 C 538.17 457.13 552.22 445.13 565.23 432.28 C 578.52 418.72 591.20 404.33 600.87 387.92 C 609.17 373.75 615.81 357.74 614.85 341.00 C 614.55 330.29 610.24 320.06 604.06 311.44 C 563.26 352.16 522.62 393.05 481.90 433.84 Z" />
<path fill="#ffffff" opacity="1.00" d=" M 420.24 358.41 C 436.42 342.27 452.56 326.08 468.74 309.93 C 468.76 342.29 468.74 374.65 468.74 407.00 C 452.56 390.82 436.38 374.64 420.24 358.41 M 426.84 358.57 C 439.38 370.88 451.64 383.48 464.12 395.86 C 464.13 370.96 464.14 346.05 464.11 321.14 C 451.69 333.63 439.08 345.92 426.84 358.57 Z" />
<path fill="#ffffff" opacity="1.00" d=" M 482.52 309.40 C 498.76 325.44 514.83 341.67 531.00 357.80 C 514.83 373.97 498.71 390.18 482.52 406.32 C 482.50 374.01 482.49 341.70 482.52 309.40 M 487.14 320.53 C 487.12 345.40 487.12 370.26 487.13 395.13 C 499.57 382.70 511.99 370.26 524.42 357.83 C 512.00 345.39 499.57 332.96 487.14 320.53 Z" />
<path fill="#ffffff" opacity="1.00" d=" M 323.24 529.39 C 325.38 528.54 327.73 528.88 329.98 528.81 C 430.98 528.85 531.98 528.79 632.98 528.84 C 640.63 528.01 640.65 542.68 633.07 542.07 C 531.03 542.14 428.99 542.08 326.95 542.10 C 324.31 542.33 321.11 540.96 320.91 537.98 C 320.59 535.07 320.22 531.04 323.24 529.39 M 325.40 533.45 C 325.40 534.78 325.41 536.12 325.42 537.47 C 428.22 537.48 531.02 537.41 633.81 537.42 C 633.79 536.10 633.78 534.78 633.77 533.47 C 530.98 533.55 428.19 533.39 325.40 533.45 Z" />
<path fill="#ffffff" opacity="1.00" d=" M 59.82 768.50 C 87.43 695.57 115.01 622.63 142.65 549.71 C 152.43 549.73 162.21 549.71 171.98 549.72 C 199.68 622.65 227.41 695.57 255.08 768.52 C 245.60 768.50 236.12 768.53 226.64 768.50 C 219.34 748.43 211.98 728.38 204.67 708.32 C 173.20 708.31 141.73 708.31 110.26 708.31 C 102.93 728.37 95.58 748.42 88.28 768.49 C 78.79 768.52 69.31 768.49 59.82 768.50 M 156.92 581.09 C 144.34 615.34 131.78 649.59 119.11 683.81 C 144.67 683.88 170.23 683.84 195.79 683.83 C 183.57 650.84 171.58 617.76 159.19 584.83 C 158.60 583.50 158.31 581.84 156.92 581.09 Z" />
<path fill="#ffffff" opacity="1.00" d=" M 263.50 768.51 C 263.51 695.58 263.48 622.65 263.51 549.71 C 272.17 549.72 280.83 549.71 289.48 549.72 C 289.49 622.65 289.48 695.58 289.49 768.51 C 280.82 768.52 272.16 768.51 263.50 768.51 Z" />
<path fill="#ffffff" opacity="1.00" d=" M 356.45 611.59 C 372.07 606.69 389.11 606.57 404.93 610.64 C 425.03 615.85 442.01 631.34 449.09 650.85 C 441.25 654.13 433.40 657.36 425.56 660.65 C 420.99 649.05 411.96 638.96 400.09 634.65 C 386.33 629.60 370.21 630.03 357.34 637.39 C 342.37 645.63 332.39 661.44 329.68 678.13 C 327.14 694.04 329.19 711.19 337.90 724.99 C 345.65 737.78 358.99 747.35 373.93 749.39 C 385.50 750.78 397.76 748.97 407.86 742.92 C 416.49 737.88 422.98 729.70 426.78 720.53 C 434.52 723.78 442.26 727.04 450.01 730.31 C 443.17 747.10 429.41 760.91 412.65 767.80 C 399.15 773.28 384.15 774.42 369.79 772.58 C 350.75 770.09 332.90 759.92 320.96 744.90 C 311.19 732.69 305.31 717.56 303.63 702.05 C 301.45 682.51 304.68 662.00 314.84 644.97 C 323.95 629.20 339.10 617.11 356.45 611.59 Z" />
<path fill="#ffffff" opacity="1.00" d=" M 504.88 608.93 C 518.75 606.81 533.18 607.50 546.63 611.59 C 561.16 616.02 574.13 626.08 580.96 639.78 C 585.68 649.08 587.48 659.63 587.46 670.00 C 587.46 702.83 587.45 735.67 587.46 768.51 C 579.20 768.51 570.94 768.53 562.68 768.49 C 562.62 760.93 562.83 753.36 562.56 745.80 C 562.20 746.07 561.48 746.62 561.12 746.89 C 551.64 761.44 535.29 771.34 518.00 773.04 C 503.79 774.38 488.92 771.95 476.58 764.53 C 464.73 757.65 455.93 745.63 453.39 732.12 C 451.12 719.75 452.50 706.27 459.22 695.44 C 467.02 683.04 480.60 675.37 494.48 671.70 C 509.61 667.90 525.61 668.09 540.85 671.15 C 548.40 672.85 555.94 675.05 562.71 678.90 C 562.70 670.15 563.27 660.94 559.21 652.88 C 552.88 639.62 538.30 631.90 523.98 631.17 C 506.41 629.58 487.62 637.17 478.02 652.38 C 471.51 647.46 464.93 642.63 458.46 637.66 C 468.79 621.86 486.47 611.91 504.88 608.93 M 487.22 701.20 C 477.46 710.68 475.97 727.78 484.64 738.44 C 490.60 745.67 499.84 749.59 509.06 750.28 C 520.00 751.31 531.22 748.45 540.30 742.25 C 553.95 733.28 562.93 717.36 562.71 700.92 C 547.70 691.57 529.32 688.59 511.91 690.55 C 502.92 691.60 493.66 694.55 487.22 701.20 Z" />
<path fill="#ffffff" opacity="1.00" d=" M 779.70 613.77 C 794.29 607.30 810.89 606.48 826.46 609.29 C 842.17 612.14 856.79 620.69 866.84 633.13 C 876.89 645.51 882.33 661.17 883.79 676.95 C 884.28 683.10 884.74 689.38 883.45 695.48 C 842.38 695.49 801.30 695.49 760.23 695.48 C 760.79 708.24 764.57 721.20 772.86 731.13 C 784.67 746.07 805.28 752.64 823.75 748.81 C 839.05 746.11 851.52 735.02 858.93 721.75 C 866.27 725.32 873.62 728.87 880.95 732.47 C 873.40 746.67 861.71 758.83 847.22 765.96 C 833.58 772.59 817.99 774.31 803.02 772.95 C 786.68 771.44 770.93 764.32 759.05 753.00 C 745.81 740.45 737.65 723.04 735.21 705.06 C 732.61 685.99 735.13 665.98 743.87 648.71 C 751.40 633.47 764.13 620.72 779.70 613.77 M 785.01 637.99 C 772.43 645.90 764.59 659.72 761.74 674.07 C 793.43 674.08 825.12 674.08 856.81 674.07 C 856.12 665.65 853.41 657.35 848.77 650.28 C 842.36 641.02 832.23 634.34 821.12 632.37 C 808.95 630.11 795.62 631.17 785.01 637.99 Z" />
<path fill="#ffffff" opacity="1.00" d=" M 651.09 768.51 C 630.08 716.57 609.10 664.61 588.14 612.65 C 597.41 612.66 606.68 612.65 615.96 612.66 C 631.01 651.74 646.07 690.82 661.14 729.90 C 662.25 732.73 663.18 735.65 664.62 738.35 C 681.06 696.48 697.33 654.54 713.72 612.65 C 722.79 612.66 731.85 612.66 740.92 612.65 C 719.77 664.61 698.55 716.54 677.38 768.49 C 668.62 768.52 659.85 768.49 651.09 768.51 Z" />
<path fill="#ffffff" opacity="1.00" d=" M 636.79 789.97 C 636.55 787.62 639.43 787.86 640.99 787.93 C 650.52 788.35 660.54 786.63 669.59 790.49 C 677.52 793.68 683.66 800.72 685.89 808.95 C 688.35 818.13 687.56 828.52 682.41 836.66 C 678.70 842.57 672.60 846.81 665.89 848.61 C 659.10 850.53 651.98 849.71 645.02 849.89 C 642.27 849.73 639.34 850.41 636.76 849.19 C 636.81 829.45 636.75 809.71 636.79 789.97 M 646.05 796.97 C 646.05 811.61 646.04 826.24 646.05 840.88 C 652.99 840.66 660.38 841.79 666.86 838.64 C 672.92 835.88 676.87 829.64 677.52 823.11 C 678.65 814.97 676.68 805.41 669.38 800.65 C 662.57 795.84 653.87 797.13 646.05 796.97 Z" />
<path fill="#ffffff" opacity="1.00" d=" M 696.72 808.67 C 703.38 802.81 713.79 802.29 721.42 806.53 C 729.33 811.01 732.89 820.94 731.46 829.64 C 720.42 830.41 709.11 829.73 697.97 829.98 C 698.51 836.65 704.10 842.68 711.02 842.54 C 716.40 842.87 720.99 839.16 723.31 834.56 C 725.93 835.92 728.98 836.73 731.02 839.01 C 728.48 843.86 724.36 848.03 719.14 849.88 C 711.50 852.54 702.30 851.34 696.21 845.79 C 685.76 836.40 686.14 817.82 696.72 808.67 M 698.61 821.83 C 706.36 821.93 714.11 821.74 721.87 821.94 C 721.27 816.21 715.73 811.99 710.08 812.46 C 704.49 812.24 700.13 816.80 698.61 821.83 Z" />
<path fill="#ffffff" opacity="1.00" d=" M 776.82 808.79 C 785.73 800.39 803.51 802.52 808.13 814.61 C 805.42 815.87 802.70 817.11 800.00 818.36 C 797.55 812.08 788.70 810.46 783.76 814.65 C 781.93 816.17 782.62 819.23 784.62 820.27 C 788.44 822.41 792.93 822.76 797.04 824.13 C 801.84 825.51 806.81 828.49 808.31 833.56 C 810.16 839.41 807.00 845.97 801.60 848.66 C 793.48 852.86 782.27 852.14 775.79 845.28 C 773.76 843.28 772.49 840.70 771.42 838.10 C 773.91 837.02 776.33 835.74 778.91 834.84 C 780.55 835.13 780.90 836.99 781.86 838.11 C 785.23 843.16 792.86 844.08 797.75 840.79 C 800.29 839.13 799.68 834.98 796.99 833.82 C 790.84 830.52 783.07 831.05 777.59 826.36 C 772.14 822.28 771.84 813.35 776.82 808.79 Z" />
<path fill="#ffffff" opacity="1.00" d=" M 855.17 808.22 C 864.29 800.52 881.27 802.79 885.91 814.56 C 883.20 815.86 880.47 817.11 877.75 818.37 C 875.32 812.12 866.59 810.49 861.61 814.55 C 859.29 816.40 860.76 819.99 863.29 820.78 C 869.64 823.51 877.32 823.40 882.67 828.29 C 887.57 832.45 887.79 840.57 883.57 845.28 C 879.03 850.47 871.53 851.83 864.97 850.98 C 857.75 850.22 851.46 844.92 849.17 838.09 C 851.76 836.92 854.36 835.78 856.95 834.61 C 858.34 835.98 859.23 837.76 860.51 839.26 C 864.28 843.34 871.14 843.81 875.64 840.68 C 878.16 838.85 877.24 834.72 874.46 833.66 C 867.79 830.34 859.17 830.93 853.89 824.99 C 849.58 820.32 850.24 812.20 855.17 808.22 Z" />
<path fill="#ffffff" opacity="1.00" d=" M 731.24 805.21 C 734.05 805.00 736.88 805.15 739.71 805.14 C 743.85 815.93 748.04 826.71 752.17 837.51 C 756.38 826.71 760.58 815.91 764.82 805.12 C 767.50 805.15 770.20 805.01 772.89 805.19 C 773.93 805.83 774.16 806.70 773.57 807.82 C 767.91 821.85 762.12 835.83 756.46 849.87 C 753.52 849.90 750.58 849.91 747.65 849.83 C 742.00 835.40 735.98 821.11 730.35 806.68 C 730.57 806.31 731.02 805.58 731.24 805.21 Z" />
<path fill="#ffffff" opacity="1.00" d=" M 808.05 806.94 C 808.25 806.47 808.63 805.53 808.82 805.06 C 811.66 805.14 814.52 805.11 817.38 805.16 C 821.54 815.13 825.77 825.08 829.98 835.03 C 834.07 825.07 838.08 815.09 842.16 805.13 C 845.03 805.15 847.91 804.98 850.79 805.25 C 850.98 805.63 851.35 806.38 851.54 806.75 C 842.83 827.17 833.88 847.50 825.07 867.88 C 822.41 867.86 819.76 868.00 817.11 867.82 C 816.05 867.13 815.85 866.25 816.50 865.17 C 819.36 858.78 822.36 852.44 825.25 846.06 C 819.54 833.01 813.65 820.03 808.05 806.94 Z" />
<path fill="#ffffff" opacity="1.00" d=" M 380.15 860.86 C 386.18 861.08 392.52 859.82 398.33 861.77 C 405.14 864.28 406.88 874.60 400.56 878.65 C 403.48 880.38 405.83 883.41 405.74 886.95 C 406.02 892.77 400.74 897.78 395.05 897.89 C 390.08 897.98 385.11 898.01 380.14 897.82 C 380.01 885.50 380.00 873.17 380.15 860.86 M 385.62 866.20 C 385.62 869.55 385.62 872.90 385.63 876.26 C 389.23 875.94 393.18 877.05 396.54 875.44 C 400.14 873.45 399.44 867.63 395.54 866.45 C 392.27 865.88 388.92 866.29 385.62 866.20 M 385.63 881.63 C 385.62 885.25 385.62 888.88 385.63 892.51 C 389.08 892.43 392.55 892.71 395.99 892.35 C 400.44 891.36 401.51 884.75 397.51 882.51 C 393.84 880.78 389.55 881.96 385.63 881.63 Z" />
<path fill="#ffffff" opacity="1.00" d=" M 557.47 864.36 C 558.99 863.29 561.11 864.09 562.88 863.95 C 562.98 866.31 562.99 868.67 562.99 871.05 C 565.03 871.04 567.07 871.08 569.11 871.15 C 569.15 872.82 569.16 874.50 569.16 876.19 C 567.10 876.25 565.04 876.29 562.99 876.29 C 563.07 881.19 562.78 886.11 563.13 891.00 C 563.64 893.95 567.23 892.80 569.21 892.33 C 569.28 894.07 569.33 895.83 569.37 897.59 C 565.04 899.39 558.68 898.01 557.60 892.85 C 557.08 887.36 557.51 881.82 557.38 876.32 C 555.91 876.26 554.47 876.24 553.02 876.19 C 552.94 874.51 552.95 872.84 553.01 871.18 C 554.46 871.10 555.92 871.05 557.38 871.02 C 557.38 868.79 557.27 866.57 557.47 864.36 Z" />
<path fill="#ffffff" opacity="1.00" d=" M 412.02 873.17 C 417.34 868.52 426.69 869.48 430.63 875.48 C 432.76 878.50 433.18 882.31 432.96 885.92 C 426.20 886.06 419.43 885.93 412.66 886.00 C 413.18 890.12 416.63 893.88 421.02 893.52 C 424.18 893.60 426.46 891.20 428.04 888.76 C 429.56 889.50 431.08 890.25 432.61 891.01 C 429.78 898.50 419.64 900.95 413.21 896.65 C 405.45 891.64 405.11 879.05 412.02 873.17 M 413.02 881.10 C 417.76 881.14 422.51 881.14 427.25 881.10 C 426.42 877.84 423.55 875.13 420.02 875.48 C 416.58 875.31 414.14 878.15 413.02 881.10 Z" />
<path fill="#ffffff" opacity="1.00" d=" M 447.04 873.11 C 452.52 868.23 462.72 869.65 465.78 876.65 C 464.16 877.45 462.52 878.21 460.89 878.99 C 459.25 875.45 454.45 874.29 451.33 876.55 C 449.90 877.34 450.20 879.69 451.74 880.26 C 455.69 882.15 460.62 881.94 463.94 885.14 C 467.16 888.06 466.62 893.73 463.17 896.26 C 456.88 901.12 446.19 898.75 443.57 890.89 C 445.22 890.35 446.86 888.84 448.63 889.14 C 450.24 891.67 452.73 894.11 456.02 893.60 C 458.29 893.71 461.74 891.71 459.99 889.11 C 456.37 886.05 450.81 886.99 447.25 883.74 C 443.99 881.21 443.94 875.78 447.04 873.11 Z" />
<path fill="#ffffff" opacity="1.00" d=" M 473.46 873.54 C 477.47 869.01 485.38 869.19 488.81 874.31 C 491.91 870.60 497.31 869.16 501.79 871.08 C 505.23 872.52 506.88 876.41 506.94 879.95 C 507.02 885.91 507.05 891.87 506.89 897.83 C 505.15 897.89 503.41 897.93 501.69 897.99 C 500.95 891.69 501.89 885.30 501.17 879.01 C 500.75 875.77 496.68 874.67 494.08 875.99 C 491.52 877.24 490.23 880.19 490.30 882.95 C 490.18 887.92 490.43 892.90 490.17 897.88 C 488.38 897.90 486.60 897.91 484.82 897.91 C 484.36 891.68 485.04 885.40 484.45 879.18 C 484.12 875.78 479.77 874.52 477.13 876.14 C 474.75 877.49 473.56 880.32 473.60 882.99 C 473.37 887.99 473.94 893.02 473.28 898.00 C 471.55 897.94 469.83 897.90 468.11 897.85 C 467.87 888.95 467.89 880.04 468.10 871.14 C 469.77 871.09 471.46 871.06 473.15 871.08 C 473.23 871.69 473.38 872.92 473.46 873.54 Z" />
<path fill="#ffffff" opacity="1.00" d=" M 509.67 875.96 C 513.44 870.03 522.00 868.63 527.88 872.09 C 530.95 873.93 532.58 877.54 532.48 881.06 C 532.41 886.69 532.70 892.34 532.28 897.96 C 530.18 897.66 526.55 899.05 526.85 895.67 C 522.74 899.76 515.36 899.79 511.33 895.60 C 507.86 892.01 508.27 885.32 512.54 882.52 C 516.83 879.50 522.47 879.94 527.26 881.39 C 527.14 878.44 525.00 875.75 521.96 875.52 C 518.79 874.87 515.86 876.63 513.90 878.99 C 512.47 877.99 511.06 876.98 509.67 875.96 M 516.93 885.93 C 514.36 887.10 513.87 891.17 516.37 892.69 C 520.84 895.58 527.27 891.48 527.00 886.28 C 523.80 885.23 520.11 884.34 516.93 885.93 Z" />
<path fill="#ffffff" opacity="1.00" d=" M 535.84 871.10 C 537.56 871.06 539.30 871.09 541.03 871.19 C 541.08 871.76 541.17 872.90 541.22 873.47 C 543.65 870.71 547.45 869.99 550.96 870.51 C 550.93 872.35 550.90 874.21 550.83 876.06 C 547.25 875.57 542.74 876.48 541.69 880.50 C 540.81 886.24 541.70 892.12 541.18 897.91 C 539.40 897.91 537.62 897.90 535.84 897.89 C 535.63 888.96 535.64 880.02 535.84 871.10 Z" />
<path fill="#ffffff" opacity="1.00" d=" M 573.28 891.14 C 575.54 889.48 579.13 891.16 579.28 893.97 C 579.71 896.74 576.56 899.14 574.00 897.99 C 571.15 897.01 570.67 892.67 573.28 891.14 Z" />
</g>
<g id="#01a0d6ff">
<path fill="#01a0d6" opacity="1.00" d=" M 463.50 88.79 C 495.27 83.50 529.11 94.41 552.01 116.98 C 579.58 146.75 607.15 176.52 634.67 206.33 C 655.35 229.35 672.77 256.94 677.21 288.07 C 681.86 318.68 671.62 350.95 650.61 373.60 C 625.99 398.33 600.85 422.53 576.61 447.62 C 552.32 471.44 523.04 492.44 488.88 498.45 C 456.55 504.43 421.85 493.57 398.43 470.58 C 383.11 456.88 367.63 443.36 352.24 429.73 C 345.66 423.64 338.26 418.52 331.70 412.41 C 312.32 394.84 294.65 374.92 282.14 351.82 C 271.92 332.96 265.67 311.59 266.56 290.01 C 267.39 265.86 277.17 242.22 293.29 224.26 C 309.15 207.79 324.96 191.28 340.80 174.78 C 349.58 165.55 358.59 156.54 367.04 147.00 C 387.49 125.48 411.22 106.12 439.17 95.34 C 447.03 92.34 455.18 90.08 463.50 88.79 M 464.96 103.00 C 435.26 107.98 409.58 125.79 388.09 146.09 C 366.48 166.56 347.49 191.30 339.55 220.42 C 333.87 241.18 334.78 264.77 346.56 283.31 C 389.07 240.90 431.41 198.32 473.89 155.89 C 486.72 145.53 503.96 142.63 520.05 143.27 C 536.64 143.80 552.65 148.83 567.88 155.11 C 559.08 145.57 550.31 136.00 541.43 126.55 C 521.39 107.50 492.30 98.14 464.96 103.00 M 485.71 164.88 C 528.07 207.33 570.46 249.76 612.83 292.21 C 621.44 302.69 628.81 314.59 631.83 327.96 C 635.76 344.02 633.34 360.98 627.61 376.29 C 634.06 369.84 641.04 363.79 646.34 356.30 C 657.93 340.38 664.57 320.73 664.01 300.97 C 663.65 283.77 658.22 266.99 650.08 251.94 C 640.54 234.28 627.59 218.69 613.39 204.59 C 591.31 182.77 563.98 164.90 533.07 159.15 C 517.30 156.30 499.81 156.31 485.71 164.88 M 421.34 228.70 C 437.15 244.48 452.93 260.29 468.74 276.08 C 468.76 244.46 468.76 212.85 468.74 181.24 C 452.90 197.02 437.13 212.87 421.34 228.70 M 482.50 181.85 C 482.49 213.44 482.48 245.03 482.51 276.62 C 498.39 260.95 514.05 245.08 529.88 229.37 C 514.15 213.47 498.30 197.69 482.50 181.85 M 304.40 233.32 C 294.69 244.01 287.64 257.08 283.81 271.00 C 278.55 289.94 280.38 310.40 287.29 328.68 C 296.07 352.11 311.63 372.32 329.01 390.04 C 336.31 396.72 343.83 403.16 351.21 409.75 C 357.01 415.16 363.69 419.49 370.42 423.64 C 385.68 432.82 403.05 439.42 421.06 439.33 C 436.98 439.41 452.68 433.57 465.04 423.60 C 422.52 380.94 379.95 338.32 337.39 295.70 C 333.34 289.12 329.30 282.38 326.88 274.97 C 319.39 253.54 321.09 229.84 328.22 208.55 C 320.23 216.76 312.35 225.07 304.40 233.32 M 356.03 294.12 C 374.20 312.31 392.34 330.53 410.53 348.69 C 429.07 330.10 447.66 311.58 466.20 293.00 C 448.03 274.79 429.81 256.63 411.64 238.42 C 393.09 256.97 374.56 275.54 356.03 294.12 M 485.67 293.00 C 504.00 311.37 522.37 329.71 540.72 348.06 C 558.68 330.08 576.63 312.10 594.58 294.12 C 576.27 275.75 557.93 257.41 539.62 239.04 C 521.62 257.01 503.64 275.00 485.67 293.00 M 477.05 432.07 C 468.90 439.53 459.18 445.23 448.78 448.93 C 432.44 454.79 414.46 454.89 397.70 450.77 C 401.97 454.68 406.42 458.40 410.62 462.38 C 420.47 471.24 432.32 477.85 444.95 481.80 C 464.34 487.95 485.62 486.54 504.57 479.49 C 530.93 469.75 553.10 451.47 572.45 431.50 C 585.96 417.42 598.56 402.21 607.87 384.97 C 615.38 370.96 620.68 355.13 619.38 339.05 C 618.45 326.24 612.74 314.11 604.40 304.45 C 561.98 347.02 519.49 389.52 477.05 432.07 M 420.24 358.41 C 436.38 374.64 452.56 390.82 468.74 407.00 C 468.74 374.65 468.76 342.29 468.74 309.93 C 452.56 326.08 436.42 342.27 420.24 358.41 M 482.52 309.40 C 482.49 341.70 482.50 374.01 482.52 406.32 C 498.71 390.18 514.83 373.97 531.00 357.80 C 514.83 341.67 498.76 325.44 482.52 309.40 Z" />
<path fill="#01a0d6" opacity="1.00" d=" M 325.40 533.45 C 428.19 533.39 530.98 533.55 633.77 533.47 C 633.78 534.78 633.79 536.10 633.81 537.42 C 531.02 537.41 428.22 537.48 325.42 537.47 C 325.41 536.12 325.40 534.78 325.40 533.45 Z" />
</g>
</svg>
