<?xml version="1.0" encoding="UTF-8" ?>
<!DOCTYPE svg PUBLIC "-//W3C//DTD SVG 1.1//EN" "http://www.w3.org/Graphics/SVG/1.1/DTD/svg11.dtd">
<svg width="950pt" height="950pt" viewBox="0 0 950 950" version="1.1" xmlns="http://www.w3.org/2000/svg">
<g id="#ffffffff">
<path fill="#ffffff" opacity="1.00" d=" M 465.61 83.81 C 497.99 79.32 532.04 90.79 555.32 113.67 C 581.12 141.54 606.93 169.41 632.70 197.31 C 646.16 211.52 658.33 227.13 667.50 244.47 C 675.30 259.16 680.50 275.28 682.35 291.83 C 685.60 322.06 675.21 353.32 654.87 375.86 C 631.01 400.04 606.43 423.50 582.83 447.93 C 568.38 462.61 552.35 475.89 534.51 486.26 C 517.28 496.28 497.92 502.92 477.99 504.41 C 447.45 506.56 416.36 494.85 394.60 473.36 C 378.94 459.39 363.13 445.57 347.42 431.65 C 342.32 426.98 336.63 423.02 331.49 418.40 C 313.01 402.16 296.20 383.78 283.17 362.86 C 271.16 343.68 263.16 321.69 261.96 298.99 C 260.60 270.43 271.11 241.57 290.43 220.51 C 312.68 197.40 334.87 174.22 357.09 151.07 C 369.97 136.30 384.42 122.84 400.35 111.39 C 419.61 97.39 441.87 87.00 465.61 83.81 M 463.61 88.77 C 453.28 90.37 443.21 93.44 433.63 97.60 C 404.54 110.35 380.22 131.85 359.36 155.44 C 338.64 177.02 317.94 198.63 297.20 220.19 C 274.71 242.37 263.22 275.17 267.23 306.54 C 270.73 335.79 285.93 362.25 304.60 384.48 C 317.22 399.47 331.45 413.10 346.95 425.08 C 366.05 441.98 385.32 458.71 404.22 475.84 C 420.24 489.08 440.21 497.63 460.94 499.56 C 481.31 501.57 501.94 497.05 520.37 488.39 C 546.67 476.07 568.84 456.56 588.43 435.41 C 608.94 414.93 629.57 394.58 650.10 374.13 C 671.72 351.22 682.11 318.18 677.06 287.04 C 672.39 256.33 655.15 229.14 634.72 206.39 C 607.19 176.55 579.60 146.77 552.01 116.98 C 529.14 94.43 495.34 83.52 463.61 88.77 Z" />
<path fill="#ffffff" opacity="1.00" d=" M 463.90 103.18 C 491.76 97.89 521.65 107.38 541.92 127.05 C 550.65 136.45 559.42 145.81 568.02 155.33 C 549.50 147.15 529.25 141.93 508.88 143.43 C 496.44 144.37 483.70 147.87 473.90 155.89 C 443.22 186.53 412.60 217.25 381.95 247.93 C 370.07 259.66 358.50 271.72 346.44 283.26 C 334.87 264.64 333.83 241.19 339.54 220.44 C 347.42 191.54 366.18 166.95 387.58 146.57 C 408.93 126.31 434.39 108.46 463.90 103.18 M 441.83 114.66 C 422.27 123.04 405.11 136.15 389.87 150.84 C 369.20 170.63 351.26 194.55 343.71 222.53 C 339.35 240.00 339.27 259.42 347.64 275.74 C 388.52 234.59 429.67 193.70 470.58 152.57 C 477.77 146.50 486.71 142.75 495.85 140.76 C 514.21 136.36 533.46 138.87 551.37 144.14 C 544.29 136.74 537.97 128.44 529.43 122.62 C 518.30 114.92 505.57 109.24 492.11 107.31 C 475.08 104.82 457.52 107.72 441.83 114.66 Z" />
<path fill="#ffffff" opacity="1.00" d=" M 485.73 164.91 C 499.46 156.44 516.58 156.34 532.02 158.97 C 563.58 164.53 591.47 182.79 613.89 205.08 C 628.07 219.22 640.98 234.88 650.43 252.60 C 658.70 268.06 664.06 285.35 664.04 302.98 C 664.12 321.83 657.70 340.45 646.76 355.72 C 641.42 363.41 634.33 369.62 627.71 376.16 C 633.01 361.53 635.59 345.52 632.31 330.13 C 629.50 315.72 621.74 302.79 612.35 291.72 C 570.13 249.46 527.95 207.17 485.73 164.91 M 493.51 166.02 C 534.67 207.37 575.89 248.66 617.13 289.92 C 621.40 295.74 625.80 301.53 629.19 307.94 C 637.71 323.94 640.48 342.89 636.82 360.65 C 646.50 350.00 653.36 336.87 657.03 322.97 C 661.08 306.14 659.80 288.16 653.90 271.92 C 647.03 252.63 635.32 235.43 621.77 220.22 C 599.43 194.86 571.24 173.09 537.94 164.85 C 523.41 161.63 507.60 160.31 493.51 166.02 Z" />
<path fill="#ffffff" opacity="1.00" d=" M 421.34 228.69 C 437.13 212.85 452.95 197.03 468.75 181.19 C 468.75 212.82 468.75 244.45 468.75 276.09 C 452.94 260.29 437.14 244.49 421.34 228.69 M 427.95 228.66 C 439.94 240.79 452.07 252.80 464.12 264.88 C 464.13 240.72 464.13 216.55 464.12 192.39 C 452.04 204.46 440.00 216.56 427.95 228.66 Z" />
<path fill="#ffffff" opacity="1.00" d=" M 482.49 181.90 C 498.36 197.63 514.09 213.52 529.89 229.32 C 516.30 242.93 502.70 256.52 489.10 270.11 C 486.98 272.27 484.88 274.45 482.54 276.37 C 482.44 244.88 482.52 213.39 482.49 181.90 M 487.13 193.11 C 487.13 217.23 487.11 241.35 487.14 265.47 C 499.20 253.46 511.16 241.34 523.28 229.40 C 511.36 217.18 499.16 205.23 487.13 193.11 Z" />
<path fill="#ffffff" opacity="1.00" d=" M 307.76 229.81 C 314.60 222.75 321.33 215.59 328.21 208.57 C 321.19 229.57 319.44 252.89 326.58 274.10 C 329.02 281.79 333.11 288.81 337.35 295.62 C 379.90 338.28 422.46 380.93 465.04 423.55 C 451.19 434.92 432.89 440.69 415.02 439.11 C 393.01 437.36 372.80 426.63 355.50 413.47 C 346.79 405.89 338.13 398.23 329.52 390.53 C 312.26 373.08 296.82 353.16 287.84 330.12 C 280.62 311.75 278.46 291.10 283.57 271.90 C 287.75 256.08 296.10 241.31 307.76 229.81 M 319.42 224.30 C 314.51 229.80 309.01 234.75 304.36 240.48 C 291.84 256.39 284.47 276.63 285.45 296.98 C 286.10 320.12 296.55 341.74 309.74 360.30 C 318.96 372.89 329.28 384.78 341.29 394.80 C 349.76 402.00 357.56 410.10 367.02 416.05 C 383.08 426.55 401.53 434.95 421.08 434.69 C 434.26 434.91 447.20 430.43 458.03 423.07 C 416.40 381.33 374.65 339.71 333.07 297.93 C 329.83 292.14 326.29 286.41 323.87 280.18 C 317.02 262.49 315.64 242.86 319.42 224.30 Z" />
<path fill="#ffffff" opacity="1.00" d=" M 356.03 294.12 C 374.56 275.54 393.09 256.97 411.64 238.42 C 429.82 256.61 448.01 274.79 466.20 292.99 C 447.68 311.59 429.06 330.08 410.55 348.68 C 392.33 330.55 374.20 312.31 356.03 294.12 M 362.61 294.12 C 378.55 310.11 394.56 326.04 410.45 342.08 C 426.90 325.79 443.21 309.36 459.59 293.00 C 443.62 277.00 427.62 261.02 411.63 245.03 C 395.29 261.39 378.96 277.77 362.61 294.12 Z" />
<path fill="#ffffff" opacity="1.00" d=" M 485.67 292.98 C 503.66 275.01 521.61 257.00 539.63 239.04 C 557.93 257.42 576.27 275.75 594.58 294.11 C 576.68 312.12 558.64 329.99 540.81 348.07 C 522.35 329.79 504.03 311.37 485.67 292.98 M 539.62 245.62 C 523.82 261.41 508.02 277.20 492.23 293.00 C 508.37 309.17 524.57 325.29 540.68 341.49 C 556.53 325.78 572.18 309.88 587.96 294.11 C 571.85 277.93 555.77 261.74 539.62 245.62 Z" />
<path fill="#ffffff" opacity="1.00" d=" M 477.05 432.07 C 519.55 389.55 561.93 346.91 604.50 304.46 C 611.98 313.45 617.60 324.27 619.04 335.98 C 621.29 352.51 616.18 369.08 608.59 383.61 C 599.46 400.98 586.93 416.29 573.46 430.45 C 553.87 450.85 531.38 469.58 504.55 479.50 C 485.96 486.40 465.13 487.91 446.04 482.13 C 432.54 478.09 419.89 471.02 409.56 461.41 C 405.71 457.78 401.65 454.40 397.76 450.82 C 414.53 454.86 432.50 454.80 448.83 448.91 C 459.21 445.21 468.92 439.52 477.05 432.07 M 493.39 422.31 C 486.25 429.16 479.86 436.91 471.52 442.38 C 454.61 454.43 433.28 459.64 412.68 458.03 C 429.37 473.34 452.15 482.35 474.91 480.97 C 491.65 480.37 507.71 474.35 522.16 466.17 C 538.16 457.14 552.24 445.12 565.26 432.25 C 577.87 419.38 589.91 405.78 599.38 390.40 C 608.42 375.56 615.86 358.70 614.85 340.96 C 614.55 330.26 610.22 320.05 604.06 311.43 C 567.10 348.32 530.29 385.36 493.39 422.31 Z" />
<path fill="#ffffff" opacity="1.00" d=" M 468.74 309.91 C 468.76 342.28 468.73 374.65 468.75 407.01 C 452.57 390.82 436.38 374.64 420.24 358.41 C 436.42 342.27 452.57 326.08 468.74 309.91 M 426.82 358.41 C 439.23 370.91 451.66 383.40 464.12 395.86 C 464.13 370.95 464.13 346.03 464.12 321.12 C 451.68 333.54 439.25 345.98 426.82 358.41 Z" />
<path fill="#ffffff" opacity="1.00" d=" M 482.52 406.26 C 482.55 373.98 482.38 341.70 482.60 309.42 C 498.76 325.53 514.89 341.66 531.00 357.82 C 514.81 373.93 498.77 390.21 482.52 406.26 M 487.14 320.53 C 487.11 345.40 487.13 370.26 487.13 395.13 C 499.56 382.70 511.99 370.26 524.42 357.83 C 512.00 345.39 499.56 332.97 487.14 320.53 Z" />
<path fill="#ffffff" opacity="1.00" d=" M 323.29 529.37 C 325.75 528.48 328.43 528.90 331.00 528.81 C 431.35 528.83 531.70 528.83 632.05 528.81 C 634.44 528.63 637.55 529.33 638.15 532.07 C 639.36 536.00 638.49 542.45 633.11 542.06 C 531.08 542.14 429.05 542.08 327.02 542.09 C 324.35 542.34 321.12 540.99 320.90 537.98 C 320.59 535.06 320.22 530.99 323.29 529.37 M 325.39 533.45 C 325.40 534.78 325.41 536.12 325.43 537.47 C 428.23 537.47 531.03 537.43 633.82 537.41 C 633.80 536.09 633.78 534.78 633.78 533.47 C 530.98 533.54 428.19 533.40 325.39 533.45 Z" />
<path fill="#ffffff" opacity="1.00" d=" M 137.92 549.08 C 138.53 546.79 140.52 544.96 142.99 545.13 C 152.67 545.08 162.36 545.02 172.04 545.16 C 174.41 545.12 176.11 547.08 176.75 549.20 C 204.07 621.27 231.56 693.27 258.80 765.36 C 258.98 695.91 258.83 626.45 258.87 557.00 C 258.98 554.00 258.51 550.92 259.30 548.00 C 260.09 545.67 262.74 544.95 264.95 545.09 C 273.01 545.12 281.08 545.03 289.14 545.13 C 294.45 544.96 294.45 551.16 294.13 554.96 C 294.08 626.00 294.18 697.04 294.08 768.08 C 294.28 770.85 291.90 773.29 289.11 773.11 C 280.72 773.18 272.32 773.18 263.93 773.11 C 262.02 773.24 260.52 772.05 259.30 770.75 C 258.17 771.92 256.89 773.19 255.11 773.09 C 245.73 773.20 236.35 773.17 226.98 773.11 C 224.85 773.23 222.87 771.89 222.25 769.86 C 215.23 750.91 208.41 731.88 201.38 712.93 C 172.05 713.04 142.72 712.75 113.39 713.08 C 106.56 732.04 99.61 750.97 92.65 769.89 C 91.93 772.26 89.36 773.29 87.06 773.12 C 78.00 773.08 68.93 773.23 59.87 773.04 C 56.39 773.09 54.18 769.04 55.82 766.06 C 83.13 693.71 110.56 621.41 137.92 549.08 M 59.84 768.49 C 69.31 768.51 78.78 768.49 88.25 768.50 C 95.60 748.44 102.91 728.37 110.26 708.30 C 141.72 708.30 173.19 708.29 204.66 708.31 C 212.01 728.37 219.32 748.45 226.68 768.51 C 236.14 768.52 245.59 768.50 255.05 768.52 C 227.44 695.56 199.66 622.66 171.97 549.73 C 162.21 549.70 152.45 549.75 142.70 549.70 C 115.00 622.60 87.46 695.56 59.84 768.49 M 263.51 549.73 C 263.49 622.65 263.51 695.57 263.49 768.49 C 272.16 768.53 280.82 768.53 289.49 768.49 C 289.47 695.57 289.50 622.65 289.48 549.73 C 280.82 549.72 272.16 549.72 263.51 549.73 Z" />
<path fill="#ffffff" opacity="1.00" d=" M 119.11 683.84 C 131.84 649.54 144.30 615.13 157.09 580.86 C 158.05 582.33 158.91 583.88 159.49 585.56 C 171.68 618.31 183.87 651.07 195.71 683.95 C 170.18 683.72 144.64 683.94 119.11 683.84 M 125.79 679.17 C 146.90 679.17 168.01 679.18 189.13 679.17 C 178.52 650.52 168.16 621.79 157.34 593.22 C 146.97 621.92 136.28 650.51 125.79 679.17 Z" />
<path fill="#ffffff" opacity="1.00" d=" M 348.42 609.62 C 368.03 601.60 390.47 601.07 410.60 607.55 C 430.07 614.00 446.33 629.67 453.26 649.00 C 454.33 651.42 452.97 654.40 450.50 655.28 C 443.00 658.44 435.48 661.58 427.94 664.65 C 425.34 666.02 421.89 664.72 421.01 661.89 C 417.54 653.47 411.67 645.83 403.60 641.41 C 394.43 636.17 383.40 635.11 373.09 636.55 C 358.63 639.16 346.19 649.40 339.70 662.44 C 333.89 673.24 332.58 685.87 333.67 697.94 C 334.62 709.62 339.46 720.97 347.21 729.76 C 355.64 739.27 368.11 745.57 380.98 745.19 C 392.69 745.43 404.75 741.44 413.07 733.01 C 417.12 729.15 420.01 724.28 422.27 719.22 C 423.17 716.56 426.41 715.20 428.94 716.45 C 435.24 718.96 441.47 721.70 447.73 724.32 C 447.35 711.66 450.34 698.41 458.49 688.44 C 468.48 676.11 483.58 668.83 498.99 666.01 C 518.69 662.25 539.35 664.48 558.10 671.45 C 558.27 664.33 557.00 656.99 552.84 651.07 C 545.98 641.19 533.85 635.86 522.01 635.71 C 506.80 634.71 490.79 641.42 482.29 654.37 C 481.00 656.93 477.44 657.68 475.17 655.97 C 468.81 651.30 462.52 646.52 456.21 641.79 C 453.97 640.34 453.25 637.10 454.82 634.90 C 462.98 622.25 475.83 613.05 489.92 608.06 C 508.90 601.47 529.98 601.58 549.11 607.55 C 566.24 612.93 581.04 626.02 587.43 642.94 C 590.60 651.59 592.17 660.82 592.11 670.03 C 592.06 702.74 592.17 735.45 592.05 768.15 C 592.18 770.87 589.85 773.31 587.08 773.11 C 579.02 773.18 570.96 773.19 562.90 773.10 C 560.55 773.24 558.27 771.45 558.19 769.04 C 557.88 765.48 558.12 761.89 558.07 758.33 C 548.06 768.37 535.00 775.46 520.87 777.34 C 502.25 779.80 482.10 775.69 467.31 763.70 C 459.65 757.51 453.79 749.12 450.63 739.79 C 442.44 754.43 429.21 766.25 413.58 772.43 C 393.64 779.90 371.02 779.95 351.06 772.53 C 336.30 766.81 323.23 756.67 314.24 743.63 C 304.34 729.77 299.40 712.83 298.47 695.94 C 297.49 675.38 302.34 654.09 314.36 637.16 C 322.76 624.96 334.81 615.38 348.42 609.62 M 342.62 617.65 C 330.09 624.63 319.77 635.37 313.11 648.06 C 303.97 665.07 301.41 685.06 303.89 704.06 C 305.97 720.07 312.61 735.56 323.32 747.70 C 335.43 761.48 352.69 770.60 370.92 772.72 C 384.98 774.33 399.61 773.13 412.78 767.74 C 429.48 760.83 443.17 747.05 450.00 730.32 C 442.28 727.05 434.55 723.81 426.83 720.55 C 421.37 734.07 409.49 744.84 395.20 748.14 C 382.36 751.34 368.13 750.28 356.64 743.39 C 341.74 734.87 331.97 718.85 329.51 702.05 C 327.27 686.61 329.29 670.05 337.63 656.61 C 345.53 643.29 359.49 633.35 375.03 631.63 C 387.59 630.35 401.03 632.90 411.11 640.84 C 417.73 645.89 422.36 653.05 425.60 660.63 C 433.42 657.34 441.26 654.12 449.09 650.84 C 441.86 630.99 424.41 615.34 403.88 610.37 C 383.53 605.47 361.02 607.18 342.62 617.65 M 504.02 609.09 C 485.95 612.27 468.43 622.08 458.50 637.83 C 465.09 642.54 471.47 647.54 478.00 652.33 C 487.68 637.16 506.44 629.54 524.05 631.16 C 538.54 631.91 553.31 639.86 559.47 653.43 C 563.28 661.36 562.70 670.33 562.72 678.88 C 546.33 670.26 527.23 667.91 508.95 669.27 C 492.19 670.62 475.10 676.90 463.60 689.58 C 453.80 700.38 450.89 715.92 453.04 730.04 C 454.90 742.87 462.30 754.72 472.93 762.14 C 486.17 771.57 503.13 774.69 519.10 772.91 C 533.16 771.33 546.31 764.14 555.86 753.80 C 558.32 751.28 559.85 747.98 562.55 745.68 C 562.87 753.27 562.63 760.88 562.69 768.48 C 570.94 768.54 579.20 768.53 587.46 768.48 C 587.43 735.67 587.45 702.85 587.45 670.03 C 587.47 659.73 585.71 649.27 581.06 640.01 C 574.27 626.19 561.21 616.03 546.59 611.59 C 532.87 607.44 518.14 606.76 504.02 609.09 Z" />
<path fill="#ffffff" opacity="1.00" d=" M 765.61 616.47 C 779.77 606.24 797.74 602.30 815.00 603.25 C 829.35 604.13 843.85 608.05 855.64 616.52 C 869.65 626.06 879.68 640.85 884.51 657.01 C 887.84 668.37 889.56 680.32 888.66 692.17 C 888.36 695.50 887.45 700.22 883.13 700.05 C 843.84 700.21 804.53 700.06 765.24 700.13 C 766.36 712.01 771.35 723.70 779.99 732.06 C 790.07 742.07 804.94 746.64 818.97 744.88 C 833.02 743.66 845.46 734.63 852.78 722.84 C 854.37 720.54 855.58 717.03 858.95 717.12 C 861.49 717.52 863.69 718.92 865.99 719.99 C 871.54 722.77 877.21 725.34 882.73 728.19 C 885.26 729.27 886.14 732.59 884.81 734.93 C 875.88 751.94 860.96 766.12 842.84 772.87 C 824.97 779.14 805.11 779.83 786.93 774.42 C 763.74 767.68 744.74 749.26 736.14 726.84 C 728.65 707.24 727.59 685.28 732.91 664.99 C 737.70 645.70 749.10 627.78 765.61 616.47 M 779.00 614.09 C 763.72 621.13 751.25 633.75 743.84 648.80 C 735.13 666.05 732.63 686.01 735.21 705.04 C 737.47 721.62 744.55 737.67 756.02 749.94 C 767.96 762.73 784.57 771.01 801.98 772.83 C 816.98 774.36 832.63 772.79 846.39 766.34 C 861.27 759.30 873.22 746.92 880.95 732.50 C 873.64 728.87 866.29 725.33 858.94 721.78 C 851.67 734.64 839.76 745.55 824.96 748.57 C 806.86 752.73 786.47 746.92 774.21 732.74 C 765.04 722.61 760.81 708.95 760.20 695.49 C 801.28 695.49 842.36 695.47 883.44 695.49 C 884.76 689.04 884.28 682.41 883.67 675.91 C 882.08 660.49 876.65 645.22 866.82 633.11 C 856.77 620.68 842.15 612.14 826.45 609.30 C 810.64 606.44 793.75 607.34 779.00 614.09 Z" />
<path fill="#ffffff" opacity="1.00" d=" M 584.65 609.68 C 586.20 607.83 588.84 608.05 591.01 607.94 C 599.04 608.00 607.07 607.86 615.09 608.01 C 617.46 607.87 619.76 609.23 620.48 611.55 C 635.20 649.64 649.84 687.77 664.55 725.86 C 679.38 687.90 694.19 649.93 709.00 611.97 C 709.60 609.70 711.58 607.95 713.99 608.06 C 721.32 607.78 728.66 608.05 735.99 607.94 C 738.39 608.02 740.97 607.68 743.22 608.72 C 745.77 610.15 745.84 613.61 744.60 615.96 C 723.68 667.24 702.78 718.54 681.83 769.82 C 681.07 772.27 678.44 773.28 676.07 773.12 C 667.69 773.08 659.31 773.24 650.95 773.04 C 648.81 773.05 647.13 771.49 646.50 769.56 C 625.80 718.34 605.12 667.12 584.43 615.90 C 583.54 613.94 583.13 611.45 584.65 609.68 M 588.16 612.67 C 609.09 664.62 630.11 716.54 651.07 768.49 C 659.82 768.53 668.56 768.46 677.31 768.52 C 698.57 716.60 719.73 664.63 740.90 612.67 C 731.85 612.66 722.80 612.68 713.76 612.66 C 697.32 654.53 681.07 696.48 664.64 738.36 C 662.77 734.71 661.52 730.80 660.01 727.01 C 645.32 688.90 630.64 650.79 615.95 612.67 C 606.69 612.66 597.42 612.67 588.16 612.67 Z" />
<path fill="#ffffff" opacity="1.00" d=" M 784.41 638.37 C 794.82 631.41 808.04 630.11 820.15 632.18 C 834.27 634.39 847.12 644.12 852.62 657.39 C 854.97 662.65 856.30 668.32 856.84 674.05 C 825.13 674.13 793.43 674.08 761.72 674.08 C 764.56 659.95 772.16 646.35 784.41 638.37 M 791.87 639.57 C 779.68 645.09 771.46 656.87 767.64 669.40 C 795.64 669.41 823.65 669.43 851.65 669.39 C 850.88 666.02 849.87 662.70 848.47 659.54 C 843.36 646.83 830.66 637.75 817.10 636.40 C 808.62 635.58 799.66 635.71 791.87 639.57 Z" />
<path fill="#ffffff" opacity="1.00" d=" M 488.76 699.73 C 498.32 691.34 511.76 689.84 523.98 690.00 C 537.54 690.34 551.38 693.62 562.83 701.11 C 562.66 714.33 557.11 727.31 547.53 736.44 C 537.93 745.80 524.48 751.25 511.02 750.42 C 500.19 750.07 488.91 745.35 482.88 736.02 C 475.84 724.63 478.47 708.33 488.76 699.73 M 491.49 703.53 C 482.88 710.99 480.87 725.12 487.46 734.49 C 493.30 742.35 503.40 745.99 512.97 745.80 C 535.97 746.57 557.33 726.35 557.92 703.37 C 546.67 697.25 533.84 694.36 521.07 694.62 C 510.72 694.74 499.45 696.30 491.49 703.53 Z" />
<path fill="#ffffff" opacity="1.00" d=" M 632.16 789.88 C 631.92 786.21 635.36 782.99 638.99 783.31 C 651.25 783.58 664.58 781.60 675.60 788.32 C 683.01 792.62 688.39 800.03 690.50 808.31 C 698.93 797.80 715.56 796.25 726.25 804.13 C 728.85 799.00 735.21 800.54 739.87 800.55 C 742.12 800.62 743.74 802.42 744.41 804.45 C 747.03 811.16 749.54 817.91 752.21 824.61 C 755.04 817.57 757.63 810.44 760.54 803.44 C 761.37 801.29 763.72 800.38 765.88 800.45 C 769.69 800.53 774.12 799.59 777.17 802.52 C 785.59 797.95 796.25 798.07 804.49 802.97 C 807.07 799.76 811.40 800.44 815.03 800.42 C 817.46 800.34 820.55 800.73 821.58 803.35 C 824.46 809.83 827.12 816.42 829.90 822.96 C 832.66 816.33 835.15 809.59 838.09 803.05 C 839.09 800.79 841.82 800.40 844.02 800.43 C 847.64 800.52 851.96 799.64 854.74 802.64 C 860.90 799.32 868.32 798.15 875.12 800.07 C 882.32 801.67 889.31 807.33 890.37 814.92 C 889.89 819.33 884.66 819.92 881.51 821.74 C 885.47 824.12 889.23 827.49 890.41 832.15 C 892.70 839.24 889.69 847.55 883.42 851.58 C 872.36 858.89 855.18 856.90 847.69 845.38 C 845.84 842.40 843.12 838.12 845.91 834.91 C 848.16 833.04 851.06 832.25 853.67 831.00 C 851.66 829.47 849.93 827.63 848.48 825.59 C 842.16 840.19 835.86 854.80 829.47 869.37 C 827.56 873.84 821.84 872.35 818.01 872.56 C 813.78 872.98 810.10 867.92 811.91 864.08 C 814.53 858.01 817.44 852.06 820.15 846.03 C 816.38 837.12 812.05 828.44 808.66 819.38 C 807.03 820.19 805.41 821.01 803.79 821.81 C 807.87 824.15 811.60 827.69 812.75 832.42 C 814.90 839.47 811.84 847.64 805.63 851.61 C 794.50 858.94 777.22 856.84 769.80 845.18 C 768.08 842.30 765.51 838.29 767.97 835.12 C 770.16 833.04 773.25 832.32 775.92 831.01 C 774.13 829.56 772.49 827.97 771.10 826.15 C 767.66 834.62 764.28 843.12 760.72 851.54 C 759.34 855.05 755.08 854.57 752.04 854.61 C 749.04 854.58 744.85 855.03 743.46 851.61 C 740.75 845.13 738.15 838.60 735.58 832.06 C 735.01 832.60 733.86 833.66 733.29 834.19 C 735.73 837.11 735.88 841.37 733.29 844.25 C 725.57 856.54 707.41 859.38 695.72 851.26 C 691.39 848.42 688.24 844.11 686.17 839.42 C 681.60 846.36 674.33 851.47 666.19 853.25 C 658.64 855.26 650.78 854.37 643.07 854.58 C 640.10 854.46 636.52 855.16 634.23 852.79 C 632.50 851.39 632.03 849.14 632.13 847.05 C 632.16 827.99 632.11 808.93 632.16 789.88 M 636.70 788.67 C 636.86 808.87 636.79 829.07 636.74 849.28 C 643.05 850.59 649.59 849.58 655.99 849.87 C 666.31 850.10 677.09 845.47 682.55 836.43 C 690.46 823.27 688.56 803.73 675.92 794.13 C 669.18 788.85 660.32 787.58 652.00 787.95 C 646.91 788.28 641.66 787.20 636.70 788.67 M 697.24 808.24 C 685.58 817.63 685.62 838.26 697.90 847.13 C 708.24 854.82 725.13 851.44 730.69 839.47 C 729.87 836.37 725.66 836.12 723.26 834.63 C 720.72 839.88 715.02 843.59 709.08 842.37 C 702.87 841.60 698.67 835.94 697.89 830.03 C 709.14 829.78 720.39 830.18 731.64 829.82 C 732.65 821.04 729.51 811.07 721.43 806.56 C 714.01 802.41 703.93 802.78 697.24 808.24 M 777.34 808.30 C 772.33 812.42 771.86 820.84 776.53 825.39 C 780.18 829.16 785.51 830.25 790.42 831.46 C 793.62 832.50 798.48 833.06 799.35 837.01 C 799.70 841.78 793.66 842.93 790.00 842.67 C 784.87 842.64 781.87 838.23 779.12 834.58 C 776.58 835.81 774.00 836.96 771.42 838.07 C 773.20 843.00 776.80 847.31 781.65 849.43 C 789.01 852.43 798.37 851.86 804.56 846.56 C 809.75 842.21 810.35 833.38 805.33 828.69 C 799.95 823.36 791.85 823.61 785.31 820.66 C 782.95 819.83 781.67 816.51 783.70 814.69 C 788.69 810.38 797.41 812.14 800.07 818.30 C 802.76 817.08 805.44 815.85 808.13 814.62 C 803.58 802.75 786.43 800.51 777.34 808.30 M 854.66 808.70 C 849.76 813.12 849.81 821.78 854.94 826.01 C 860.49 831.13 868.71 830.40 875.02 834.00 C 877.50 835.25 877.92 839.13 875.58 840.73 C 872.13 843.10 867.32 843.35 863.58 841.54 C 860.56 840.16 859.00 837.08 857.05 834.59 C 854.40 835.75 851.76 836.93 849.15 838.14 C 850.98 842.84 854.30 847.08 858.96 849.22 C 866.42 852.51 876.09 851.94 882.40 846.48 C 887.68 841.99 888.04 832.86 882.67 828.31 C 877.12 823.17 868.99 823.63 862.54 820.37 C 860.38 819.36 859.60 816.12 861.59 814.56 C 866.65 810.41 875.18 812.23 877.88 818.31 C 880.61 817.08 883.31 815.79 885.98 814.42 C 880.95 802.65 863.68 800.39 854.66 808.70 M 731.14 805.28 C 730.96 805.63 730.60 806.35 730.42 806.71 C 736.01 821.18 741.97 835.53 747.80 849.92 C 750.69 849.89 753.60 849.87 756.51 849.82 C 762.28 835.13 768.55 820.64 774.22 805.92 C 771.26 804.67 768.01 805.19 764.91 805.08 C 760.51 815.81 756.49 826.68 752.17 837.45 C 747.97 826.70 743.85 815.93 739.72 805.16 C 736.86 805.14 733.98 804.97 731.14 805.28 M 808.00 806.13 C 808.48 808.65 809.76 810.92 810.78 813.28 C 815.62 824.20 820.43 835.13 825.26 846.06 C 822.30 853.01 818.57 859.66 816.06 866.78 C 818.36 869.01 822.13 867.45 825.06 867.87 C 833.85 847.51 842.86 827.23 851.46 806.79 C 851.31 806.42 851.01 805.67 850.86 805.30 C 847.96 804.98 845.05 805.13 842.15 805.14 C 838.71 813.66 835.19 822.15 831.81 830.69 C 831.20 831.83 831.00 833.36 829.88 834.14 C 825.25 824.76 821.57 814.87 817.45 805.23 C 814.36 805.51 810.56 804.05 808.00 806.13 M 788.67 817.31 C 790.77 817.87 792.91 818.36 795.08 818.69 C 793.29 817.09 790.93 816.95 788.67 817.31 M 867.37 817.78 C 868.62 818.39 871.29 819.29 872.30 818.18 C 871.41 816.77 867.81 815.69 867.37 817.78 M 704.64 834.68 C 707.76 839.07 714.67 838.83 717.91 834.69 C 713.49 834.57 709.06 834.56 704.64 834.68 M 785.04 835.05 C 787.28 837.86 790.95 838.67 794.32 837.57 C 791.34 836.36 788.23 835.44 785.04 835.05 M 862.78 834.98 C 864.96 837.93 868.65 838.48 872.06 837.72 C 869.14 836.29 865.97 835.48 862.78 834.98 Z" />
<path fill="#ffffff" opacity="1.00" d=" M 646.04 796.97 C 653.39 797.13 661.36 795.95 668.03 799.79 C 673.87 802.95 677.27 809.42 677.66 815.93 C 678.44 823.54 676.46 832.23 669.87 836.85 C 663.02 842.00 654.05 840.75 646.05 840.88 C 646.03 826.25 646.04 811.61 646.04 796.97 M 650.70 801.62 C 650.69 813.14 650.70 824.66 650.70 836.18 C 656.05 836.18 661.91 836.73 666.55 833.49 C 671.72 830.24 673.52 823.74 673.14 817.94 C 673.24 812.32 670.65 806.36 665.48 803.71 C 661.00 801.10 655.66 801.66 650.70 801.62 Z" />
<path fill="#ffffff" opacity="1.00" d=" M 704.73 813.78 C 709.27 811.46 715.49 812.09 719.06 815.91 C 720.64 817.53 721.26 819.76 722.09 821.81 C 714.24 821.91 706.39 821.89 698.54 821.83 C 699.84 818.67 701.58 815.43 704.73 813.78 Z" />
<path fill="#ffffff" opacity="1.00" d=" M 375.44 862.05 C 375.33 859.05 377.79 856.16 380.87 856.19 C 385.97 856.16 391.10 855.87 396.18 856.39 C 402.82 857.21 408.35 862.78 409.13 869.43 C 413.61 865.98 419.71 864.70 425.16 866.34 C 431.49 867.78 436.25 873.52 437.23 879.84 C 438.55 884.32 436.08 888.64 436.73 893.14 C 434.59 898.29 429.59 902.18 424.06 903.00 C 417.75 904.36 410.98 901.93 406.70 897.16 C 402.97 901.23 397.38 902.94 391.97 902.61 C 387.99 902.50 384.00 902.81 380.04 902.42 C 377.08 901.98 375.19 898.96 375.41 896.10 C 375.41 884.75 375.36 873.40 375.44 862.05 M 380.33 861.29 C 380.46 873.40 380.38 885.52 380.38 897.63 C 385.59 897.50 390.81 897.80 396.02 897.50 C 401.24 896.98 405.60 892.30 405.49 887.02 C 405.61 883.49 403.26 880.40 400.18 878.91 C 402.51 876.87 404.31 874.21 403.73 870.97 C 404.62 865.93 399.87 861.38 395.02 861.37 C 390.13 861.24 385.23 861.44 380.33 861.29 M 416.19 871.14 C 410.63 873.11 407.02 879.14 407.41 884.97 C 407.14 892.58 414.38 899.66 422.09 898.40 C 426.10 898.27 429.14 895.44 431.66 892.62 C 431.67 892.16 431.68 891.22 431.68 890.76 C 430.50 890.22 429.33 889.69 428.16 889.18 C 426.98 890.69 425.71 892.14 424.37 893.53 C 421.95 893.49 419.40 893.98 417.08 893.11 C 414.19 891.71 412.62 888.66 412.22 885.59 C 419.07 885.71 425.92 885.58 432.78 885.69 C 432.60 882.88 432.75 879.93 431.36 877.41 C 429.02 871.68 421.82 869.22 416.19 871.14 Z" />
<path fill="#ffffff" opacity="1.00" d=" M 555.87 859.84 C 558.56 858.83 561.68 858.92 564.41 859.80 C 566.90 860.91 567.65 863.69 567.79 866.18 C 570.31 866.67 573.18 867.99 573.63 870.82 C 574.00 873.60 574.31 877.03 572.17 879.22 C 571.07 880.61 569.17 880.67 567.62 881.17 C 567.62 883.31 567.61 885.44 567.59 887.59 C 568.12 887.67 569.17 887.81 569.70 887.89 C 572.84 885.67 577.34 885.07 580.49 887.57 C 585.03 890.70 584.94 898.26 580.35 901.30 C 577.66 903.34 574.10 902.95 571.08 901.94 C 565.79 903.72 559.06 903.25 555.39 898.57 C 551.31 893.49 553.09 886.52 552.66 880.55 C 550.57 880.77 548.39 880.44 546.39 881.13 C 545.33 886.71 546.43 892.45 545.77 898.08 C 545.35 901.22 541.91 902.93 538.98 902.61 C 534.28 902.05 529.57 902.73 524.88 902.41 C 520.01 904.02 514.73 903.40 510.26 900.93 C 507.30 902.89 503.47 903.09 500.15 902.07 C 498.16 901.21 496.83 899.20 496.82 897.04 C 496.55 891.25 497.01 885.43 496.57 879.65 C 495.81 880.59 494.73 881.56 494.94 882.93 C 494.78 887.65 495.04 892.39 494.86 897.12 C 494.68 904.75 480.26 904.77 480.10 897.10 C 479.86 891.29 480.30 885.46 479.81 879.66 C 479.09 880.61 478.12 881.58 478.28 882.91 C 477.95 888.20 478.76 893.59 477.84 898.84 C 475.85 903.89 468.67 903.35 464.76 901.02 C 460.78 902.81 456.31 904.01 451.95 903.04 C 445.75 902.20 440.08 897.23 439.11 890.96 C 438.96 888.52 440.94 887.05 442.79 885.96 C 439.27 881.47 439.21 874.51 443.26 870.34 C 448.70 864.65 457.97 864.44 464.58 868.18 C 468.51 864.86 473.65 867.64 478.06 866.04 C 481.77 864.95 485.64 866.20 488.97 867.88 C 495.07 864.48 503.49 864.81 508.34 870.22 C 514.68 864.60 524.79 864.11 531.68 869.01 C 534.35 865.85 538.64 866.21 542.34 866.69 C 545.72 866.19 549.11 865.09 552.51 866.29 C 552.75 863.81 553.31 860.94 555.87 859.84 M 557.56 864.36 C 557.58 866.73 557.60 869.11 557.63 871.50 C 556.19 871.42 554.77 871.36 553.35 871.31 C 553.32 872.79 553.29 874.29 553.27 875.80 C 554.70 875.69 556.14 875.60 557.58 875.52 C 557.67 880.70 557.47 885.89 557.64 891.08 C 557.67 893.65 559.22 896.09 561.47 897.31 C 563.80 897.89 566.26 897.61 568.65 897.71 C 568.67 896.20 568.71 894.69 568.76 893.21 C 567.07 893.29 565.38 893.37 563.71 893.48 C 561.49 887.79 563.21 881.48 562.56 875.53 C 564.61 875.60 566.67 875.68 568.74 875.77 C 568.70 874.27 568.68 872.79 568.67 871.31 C 566.63 871.37 564.58 871.41 562.55 871.49 C 562.61 869.08 562.66 866.69 562.71 864.30 C 560.99 864.31 559.27 864.33 557.56 864.36 M 446.86 873.85 C 444.68 875.72 445.16 878.98 445.66 881.49 C 448.88 886.67 455.83 885.72 460.52 888.70 C 460.55 889.64 460.62 891.52 460.65 892.46 C 457.10 894.35 451.48 894.66 449.37 890.54 C 448.36 888.13 445.70 890.55 444.02 890.78 C 446.51 898.73 457.60 900.94 463.55 895.55 C 465.95 893.50 466.29 889.71 465.03 886.99 C 461.79 881.97 455.23 882.50 450.34 880.24 C 450.54 878.63 449.80 876.44 451.70 875.63 C 453.91 875.21 456.16 875.34 458.40 875.37 C 459.24 876.45 460.09 877.53 460.94 878.63 C 462.19 878.12 463.44 877.60 464.70 877.11 C 464.97 874.42 462.59 872.81 460.49 871.73 C 456.12 869.66 450.21 870.14 446.86 873.85 M 473.66 873.90 C 473.41 873.26 472.92 871.98 472.68 871.34 C 471.22 871.35 469.77 871.36 468.32 871.39 C 468.37 880.14 468.36 888.90 468.33 897.65 C 470.00 897.61 471.68 897.59 473.36 897.57 C 473.48 892.04 473.15 886.49 473.52 880.97 C 473.58 878.67 475.60 877.15 476.82 875.41 C 478.93 875.42 481.04 875.46 483.15 875.53 C 487.08 882.23 484.77 890.32 485.28 897.67 C 486.75 897.65 488.23 897.65 489.71 897.66 C 489.72 892.39 489.42 887.11 489.81 881.86 C 490.04 879.22 491.87 877.22 493.61 875.40 C 495.51 875.41 497.41 875.42 499.32 875.45 C 500.02 876.17 500.73 876.90 501.44 877.65 C 501.78 884.28 501.56 890.93 501.64 897.58 C 503.31 897.59 504.98 897.61 506.66 897.64 C 506.58 891.76 506.74 885.88 506.60 880.01 C 506.59 876.34 504.79 872.23 501.05 871.07 C 496.65 869.44 491.80 871.19 488.93 874.77 C 486.88 872.53 484.31 870.27 481.05 870.50 C 478.14 870.26 475.68 872.03 473.66 873.90 M 510.38 875.55 C 510.31 876.63 511.77 876.96 512.31 877.76 C 512.88 877.72 514.02 877.63 514.59 877.59 C 517.27 875.04 520.96 875.13 524.40 875.44 C 526.13 877.17 527.74 879.13 527.71 881.75 C 523.94 880.87 519.89 879.82 516.09 881.16 C 512.27 882.19 508.75 885.79 509.35 889.99 C 509.21 893.93 512.36 897.07 516.00 898.02 C 520.09 899.51 524.26 897.53 527.48 895.07 C 527.45 895.70 527.37 896.96 527.33 897.59 C 528.79 897.61 530.25 897.65 531.73 897.71 C 531.21 893.82 532.52 889.97 531.89 886.11 C 531.36 882.94 532.00 879.68 531.37 876.55 C 527.57 868.67 515.16 868.63 510.38 875.55 M 540.47 874.25 C 540.54 873.52 540.68 872.08 540.75 871.35 C 539.25 871.34 537.76 871.33 536.28 871.34 C 536.39 880.11 536.39 888.89 536.29 897.66 C 537.76 897.65 539.23 897.65 540.72 897.67 C 540.62 892.44 540.61 887.20 540.70 881.98 C 541.10 880.97 541.49 879.98 541.88 878.99 C 543.12 877.83 544.37 876.68 545.63 875.55 C 547.30 875.60 548.98 875.67 550.66 875.73 C 550.62 873.98 550.60 872.23 550.58 870.50 C 546.81 870.25 543.21 871.65 540.47 874.25 M 572.48 891.43 C 572.44 893.35 572.08 895.35 572.73 897.23 C 574.52 897.71 577.11 898.32 578.44 896.61 C 578.85 894.98 578.76 893.25 578.28 891.67 C 576.38 891.16 574.40 891.40 572.48 891.43 Z" />
<path fill="#ffffff" opacity="1.00" d=" M 385.38 876.56 C 385.41 872.89 385.41 869.24 385.40 865.58 C 388.73 865.67 392.06 865.67 395.40 865.57 C 396.82 866.90 398.22 868.26 399.63 869.62 C 399.46 872.19 398.64 875.16 395.97 876.17 C 392.50 876.88 388.90 876.40 385.38 876.56 M 389.70 871.44 C 391.36 871.61 393.03 871.63 394.70 871.49 C 393.13 870.60 391.28 870.63 389.70 871.44 Z" />
<path fill="#ffffff" opacity="1.00" d=" M 413.60 878.61 C 414.63 877.56 415.65 876.53 416.68 875.49 C 419.09 875.37 421.50 875.41 423.92 875.59 C 425.48 877.35 427.17 879.09 427.84 881.44 C 422.91 881.45 417.99 881.41 413.08 881.45 C 413.21 880.74 413.47 879.32 413.60 878.61 Z" />
<path fill="#ffffff" opacity="1.00" d=" M 385.38 881.38 C 389.33 881.37 393.29 881.43 397.25 881.48 C 398.59 883.09 400.59 884.62 400.44 886.96 C 400.63 889.30 398.75 890.95 397.40 892.59 C 393.39 892.66 389.38 892.71 385.38 892.70 C 385.41 888.92 385.41 885.15 385.38 881.38 M 390.30 886.35 C 390.28 886.72 390.26 887.45 390.24 887.82 C 391.90 887.86 393.56 887.87 395.22 887.92 C 395.20 887.36 395.19 886.81 395.18 886.28 C 393.54 886.29 391.92 886.31 390.30 886.35 Z" />
<path fill="#ffffff" opacity="1.00" d=" M 514.44 887.55 C 517.73 883.31 523.22 884.72 527.68 885.76 C 527.59 888.98 525.54 891.43 523.36 893.55 C 520.92 893.68 518.47 893.64 516.05 893.39 C 515.67 892.84 514.92 891.74 514.55 891.19 C 514.52 890.28 514.46 888.46 514.44 887.55 Z" />
</g>
<g id="#01a0d6ff">
<path fill="#01a0d6" opacity="1.00" d=" M 463.61 88.77 C 495.34 83.52 529.14 94.43 552.01 116.98 C 579.60 146.77 607.19 176.55 634.72 206.39 C 655.15 229.14 672.39 256.33 677.06 287.04 C 682.11 318.18 671.72 351.22 650.10 374.13 C 629.57 394.58 608.94 414.93 588.43 435.41 C 568.84 456.56 546.67 476.07 520.37 488.39 C 501.94 497.05 481.31 501.57 460.94 499.56 C 440.21 497.63 420.24 489.08 404.22 475.84 C 385.32 458.71 366.05 441.98 346.95 425.08 C 331.45 413.10 317.22 399.47 304.60 384.48 C 285.93 362.25 270.73 335.79 267.23 306.54 C 263.22 275.17 274.71 242.37 297.20 220.19 C 317.94 198.63 338.64 177.02 359.36 155.44 C 380.22 131.85 404.54 110.35 433.63 97.60 C 443.21 93.44 453.28 90.37 463.61 88.77 M 463.90 103.18 C 434.39 108.46 408.93 126.31 387.58 146.57 C 366.18 166.95 347.42 191.54 339.54 220.44 C 333.83 241.19 334.87 264.64 346.44 283.26 C 358.50 271.72 370.07 259.66 381.95 247.93 C 412.60 217.25 443.22 186.53 473.90 155.89 C 483.70 147.87 496.44 144.37 508.88 143.43 C 529.25 141.93 549.50 147.15 568.02 155.33 C 559.42 145.81 550.65 136.45 541.92 127.05 C 521.65 107.38 491.76 97.89 463.90 103.18 M 485.73 164.91 C 527.95 207.17 570.13 249.46 612.35 291.72 C 621.74 302.79 629.50 315.72 632.31 330.13 C 635.59 345.52 633.01 361.53 627.71 376.16 C 634.33 369.62 641.42 363.41 646.76 355.72 C 657.70 340.45 664.12 321.83 664.04 302.98 C 664.06 285.35 658.70 268.06 650.43 252.60 C 640.98 234.88 628.07 219.22 613.89 205.08 C 591.47 182.79 563.58 164.53 532.02 158.97 C 516.58 156.34 499.46 156.44 485.73 164.91 M 421.34 228.69 C 437.14 244.49 452.94 260.29 468.75 276.09 C 468.75 244.45 468.75 212.82 468.75 181.19 C 452.95 197.03 437.13 212.85 421.34 228.69 M 482.49 181.90 C 482.52 213.39 482.44 244.88 482.54 276.37 C 484.88 274.45 486.98 272.27 489.10 270.11 C 502.70 256.52 516.30 242.93 529.89 229.32 C 514.09 213.52 498.36 197.63 482.49 181.90 M 307.76 229.81 C 296.10 241.31 287.75 256.08 283.57 271.90 C 278.46 291.10 280.62 311.75 287.84 330.12 C 296.82 353.16 312.26 373.08 329.52 390.53 C 338.13 398.23 346.79 405.89 355.50 413.47 C 372.80 426.63 393.01 437.36 415.02 439.11 C 432.89 440.69 451.19 434.92 465.04 423.55 C 422.46 380.93 379.90 338.28 337.35 295.62 C 333.11 288.81 329.02 281.79 326.58 274.10 C 319.44 252.89 321.19 229.57 328.21 208.57 C 321.33 215.59 314.60 222.75 307.76 229.81 M 356.03 294.12 C 374.20 312.31 392.33 330.55 410.55 348.68 C 429.06 330.08 447.68 311.59 466.20 292.99 C 448.01 274.79 429.82 256.61 411.64 238.42 C 393.09 256.97 374.56 275.54 356.03 294.12 M 485.67 292.98 C 504.03 311.37 522.35 329.79 540.81 348.07 C 558.64 329.99 576.68 312.12 594.58 294.11 C 576.27 275.75 557.93 257.42 539.63 239.04 C 521.61 257.00 503.66 275.01 485.67 292.98 M 477.05 432.07 C 468.92 439.52 459.21 445.21 448.83 448.91 C 432.50 454.80 414.53 454.86 397.76 450.82 C 401.65 454.40 405.71 457.78 409.56 461.41 C 419.89 471.02 432.54 478.09 446.04 482.13 C 465.13 487.91 485.96 486.40 504.55 479.50 C 531.38 469.58 553.87 450.85 573.46 430.45 C 586.93 416.29 599.46 400.98 608.59 383.61 C 616.18 369.08 621.29 352.51 619.04 335.98 C 617.60 324.27 611.98 313.45 604.50 304.46 C 561.93 346.91 519.55 389.55 477.05 432.07 M 468.74 309.91 C 452.57 326.08 436.42 342.27 420.24 358.41 C 436.38 374.64 452.57 390.82 468.75 407.01 C 468.73 374.65 468.76 342.28 468.74 309.91 M 482.52 406.26 C 498.77 390.21 514.81 373.93 531.00 357.82 C 514.89 341.66 498.76 325.53 482.60 309.42 C 482.38 341.70 482.55 373.98 482.52 406.26 Z" />
<path fill="#01a0d6" opacity="1.00" d=" M 325.39 533.45 C 428.19 533.40 530.98 533.54 633.78 533.47 C 633.78 534.78 633.80 536.09 633.82 537.41 C 531.03 537.43 428.23 537.47 325.43 537.47 C 325.41 536.12 325.40 534.78 325.39 533.45 Z" />
</g>
<g id="#818181ff">
<path fill="#818181" opacity="1.00" d=" M 59.84 768.49 C 87.46 695.56 115.00 622.60 142.70 549.70 C 152.45 549.75 162.21 549.70 171.97 549.73 C 199.66 622.66 227.44 695.56 255.05 768.52 C 245.59 768.50 236.14 768.52 226.68 768.51 C 219.32 748.45 212.01 728.37 204.66 708.31 C 173.19 708.29 141.72 708.30 110.26 708.30 C 102.91 728.37 95.60 748.44 88.25 768.50 C 78.78 768.49 69.31 768.51 59.84 768.49 M 119.11 683.84 C 144.64 683.94 170.18 683.72 195.71 683.95 C 183.87 651.07 171.68 618.31 159.49 585.56 C 158.91 583.88 158.05 582.33 157.09 580.86 C 144.30 615.13 131.84 649.54 119.11 683.84 Z" />
<path fill="#818181" opacity="1.00" d=" M 263.51 549.73 C 272.16 549.72 280.82 549.72 289.48 549.73 C 289.50 622.65 289.47 695.57 289.49 768.49 C 280.82 768.53 272.16 768.53 263.49 768.49 C 263.51 695.57 263.49 622.65 263.51 549.73 Z" />
<path fill="#818181" opacity="1.00" d=" M 342.62 617.65 C 361.02 607.18 383.53 605.47 403.88 610.37 C 424.41 615.34 441.86 630.99 449.09 650.84 C 441.26 654.12 433.42 657.34 425.60 660.63 C 422.36 653.05 417.73 645.89 411.11 640.84 C 401.03 632.90 387.59 630.35 375.03 631.63 C 359.49 633.35 345.53 643.29 337.63 656.61 C 329.29 670.05 327.27 686.61 329.51 702.05 C 331.97 718.85 341.74 734.87 356.64 743.39 C 368.13 750.28 382.36 751.34 395.20 748.14 C 409.49 744.84 421.37 734.07 426.83 720.55 C 434.55 723.81 442.28 727.05 450.00 730.32 C 443.17 747.05 429.48 760.83 412.78 767.74 C 399.61 773.13 384.98 774.33 370.92 772.72 C 352.69 770.60 335.43 761.48 323.32 747.70 C 312.61 735.56 305.97 720.07 303.89 704.06 C 301.41 685.06 303.97 665.07 313.11 648.06 C 319.77 635.37 330.09 624.63 342.62 617.65 Z" />
<path fill="#818181" opacity="1.00" d=" M 504.02 609.09 C 518.14 606.76 532.87 607.44 546.59 611.59 C 561.21 616.03 574.27 626.19 581.06 640.01 C 585.71 649.27 587.47 659.73 587.45 670.03 C 587.45 702.85 587.43 735.67 587.46 768.48 C 579.20 768.53 570.94 768.54 562.69 768.48 C 562.63 760.88 562.87 753.27 562.55 745.68 C 559.85 747.98 558.32 751.28 555.86 753.80 C 546.31 764.14 533.16 771.33 519.10 772.91 C 503.13 774.69 486.17 771.57 472.93 762.14 C 462.30 754.72 454.90 742.87 453.04 730.04 C 450.89 715.92 453.80 700.38 463.60 689.58 C 475.10 676.90 492.19 670.62 508.95 669.27 C 527.23 667.91 546.33 670.26 562.72 678.88 C 562.70 670.33 563.28 661.36 559.47 653.43 C 553.31 639.86 538.54 631.91 524.05 631.16 C 506.44 629.54 487.68 637.16 478.00 652.33 C 471.47 647.54 465.09 642.54 458.50 637.83 C 468.43 622.08 485.95 612.27 504.02 609.09 M 488.76 699.73 C 478.47 708.33 475.84 724.63 482.88 736.02 C 488.91 745.35 500.19 750.07 511.02 750.42 C 524.48 751.25 537.93 745.80 547.53 736.44 C 557.11 727.31 562.66 714.33 562.83 701.11 C 551.38 693.62 537.54 690.34 523.98 690.00 C 511.76 689.84 498.32 691.34 488.76 699.73 Z" />
<path fill="#818181" opacity="1.00" d=" M 779.00 614.09 C 793.75 607.34 810.64 606.44 826.45 609.30 C 842.15 612.14 856.77 620.68 866.82 633.11 C 876.65 645.22 882.08 660.49 883.67 675.91 C 884.28 682.41 884.76 689.04 883.44 695.49 C 842.36 695.47 801.28 695.49 760.20 695.49 C 760.81 708.95 765.04 722.61 774.21 732.74 C 786.47 746.92 806.86 752.73 824.96 748.57 C 839.76 745.55 851.67 734.64 858.94 721.78 C 866.29 725.33 873.64 728.87 880.95 732.50 C 873.22 746.92 861.27 759.30 846.39 766.34 C 832.63 772.79 816.98 774.36 801.98 772.83 C 784.57 771.01 767.96 762.73 756.02 749.94 C 744.55 737.67 737.47 721.62 735.21 705.04 C 732.63 686.01 735.13 666.05 743.84 648.80 C 751.25 633.75 763.72 621.13 779.00 614.09 M 784.41 638.37 C 772.16 646.35 764.56 659.95 761.72 674.08 C 793.43 674.08 825.13 674.13 856.84 674.05 C 856.30 668.32 854.97 662.65 852.62 657.39 C 847.12 644.12 834.27 634.39 820.15 632.18 C 808.04 630.11 794.82 631.41 784.41 638.37 Z" />
<path fill="#818181" opacity="1.00" d=" M 588.16 612.67 C 597.42 612.67 606.69 612.66 615.95 612.67 C 630.64 650.79 645.32 688.90 660.01 727.01 C 661.52 730.80 662.77 734.71 664.64 738.36 C 681.07 696.48 697.32 654.53 713.76 612.66 C 722.80 612.68 731.85 612.66 740.90 612.67 C 719.73 664.63 698.57 716.60 677.31 768.52 C 668.56 768.46 659.82 768.53 651.07 768.49 C 630.11 716.54 609.09 664.62 588.16 612.67 Z" />
<path fill="#818181" opacity="1.00" d=" M 636.70 788.67 C 641.66 787.20 646.91 788.28 652.00 787.95 C 660.32 787.58 669.18 788.85 675.92 794.13 C 688.56 803.73 690.46 823.27 682.55 836.43 C 677.09 845.47 666.31 850.10 655.99 849.87 C 649.59 849.58 643.05 850.59 636.74 849.28 C 636.79 829.07 636.86 808.87 636.70 788.67 M 646.04 796.97 C 646.04 811.61 646.03 826.25 646.05 840.88 C 654.05 840.75 663.02 842.00 669.87 836.85 C 676.46 832.23 678.44 823.54 677.66 815.93 C 677.27 809.42 673.87 802.95 668.03 799.79 C 661.36 795.95 653.39 797.13 646.04 796.97 Z" />
<path fill="#818181" opacity="1.00" d=" M 697.24 808.24 C 703.93 802.78 714.01 802.41 721.43 806.56 C 729.51 811.07 732.65 821.04 731.64 829.82 C 720.39 830.18 709.14 829.78 697.89 830.03 C 698.67 835.94 702.87 841.60 709.08 842.37 C 715.02 843.59 720.72 839.88 723.26 834.63 C 725.66 836.12 729.87 836.37 730.69 839.47 C 725.13 851.44 708.24 854.82 697.90 847.13 C 685.62 838.26 685.58 817.63 697.24 808.24 M 704.73 813.78 C 701.58 815.43 699.84 818.67 698.54 821.83 C 706.39 821.89 714.24 821.91 722.09 821.81 C 721.26 819.76 720.64 817.53 719.06 815.91 C 715.49 812.09 709.27 811.46 704.73 813.78 Z" />
<path fill="#818181" opacity="1.00" d=" M 777.34 808.30 C 786.43 800.51 803.58 802.75 808.13 814.62 C 805.44 815.85 802.76 817.08 800.07 818.30 C 797.41 812.14 788.69 810.38 783.70 814.69 C 781.67 816.51 782.95 819.83 785.31 820.66 C 791.85 823.61 799.95 823.36 805.33 828.69 C 810.35 833.38 809.75 842.21 804.56 846.56 C 798.37 851.86 789.01 852.43 781.65 849.43 C 776.80 847.31 773.20 843.00 771.42 838.07 C 774.00 836.96 776.58 835.81 779.12 834.58 C 781.87 838.23 784.87 842.64 790.00 842.67 C 793.66 842.93 799.70 841.78 799.35 837.01 C 798.48 833.06 793.62 832.50 790.42 831.46 C 785.51 830.25 780.18 829.16 776.53 825.39 C 771.86 820.84 772.33 812.42 777.34 808.30 Z" />
<path fill="#818181" opacity="1.00" d=" M 854.66 808.70 C 863.68 800.39 880.95 802.65 885.98 814.42 C 883.31 815.79 880.61 817.08 877.88 818.31 C 875.18 812.23 866.65 810.41 861.59 814.56 C 859.60 816.12 860.38 819.36 862.54 820.37 C 868.99 823.63 877.12 823.17 882.67 828.31 C 888.04 832.86 887.68 841.99 882.40 846.48 C 876.09 851.94 866.42 852.51 858.96 849.22 C 854.30 847.08 850.98 842.84 849.15 838.14 C 851.76 836.93 854.40 835.75 857.05 834.59 C 859.00 837.08 860.56 840.16 863.58 841.54 C 867.32 843.35 872.13 843.10 875.58 840.73 C 877.92 839.13 877.50 835.25 875.02 834.00 C 868.71 830.40 860.49 831.13 854.94 826.01 C 849.81 821.78 849.76 813.12 854.66 808.70 Z" />
<path fill="#818181" opacity="1.00" d=" M 731.14 805.28 C 733.98 804.97 736.86 805.14 739.72 805.16 C 743.85 815.93 747.97 826.70 752.17 837.45 C 756.49 826.68 760.51 815.81 764.91 805.08 C 768.01 805.19 771.26 804.67 774.22 805.92 C 768.55 820.64 762.28 835.13 756.51 849.82 C 753.60 849.87 750.69 849.89 747.80 849.92 C 741.97 835.53 736.01 821.18 730.42 806.71 C 730.60 806.35 730.96 805.63 731.14 805.28 Z" />
<path fill="#818181" opacity="1.00" d=" M 808.00 806.13 C 810.56 804.05 814.36 805.51 817.45 805.23 C 821.57 814.87 825.25 824.76 829.88 834.14 C 831.00 833.36 831.20 831.83 831.81 830.69 C 835.19 822.15 838.71 813.66 842.15 805.14 C 845.05 805.13 847.96 804.98 850.86 805.30 C 851.01 805.67 851.31 806.42 851.46 806.79 C 842.86 827.23 833.85 847.51 825.06 867.87 C 822.13 867.45 818.36 869.01 816.06 866.78 C 818.57 859.66 822.30 853.01 825.26 846.06 C 820.43 835.13 815.62 824.20 810.78 813.28 C 809.76 810.92 808.48 808.65 808.00 806.13 Z" />
<path fill="#818181" opacity="1.00" d=" M 380.33 861.29 C 385.23 861.44 390.13 861.24 395.02 861.37 C 399.87 861.38 404.62 865.93 403.73 870.97 C 404.31 874.21 402.51 876.87 400.18 878.91 C 403.26 880.40 405.61 883.49 405.49 887.02 C 405.60 892.30 401.24 896.98 396.02 897.50 C 390.81 897.80 385.59 897.50 380.38 897.63 C 380.38 885.52 380.46 873.40 380.33 861.29 M 385.38 876.56 C 388.90 876.40 392.50 876.88 395.97 876.17 C 398.64 875.16 399.46 872.19 399.63 869.62 C 398.22 868.26 396.82 866.90 395.40 865.57 C 392.06 865.67 388.73 865.67 385.40 865.58 C 385.41 869.24 385.41 872.89 385.38 876.56 M 385.38 881.38 C 385.41 885.15 385.41 888.92 385.38 892.70 C 389.38 892.71 393.39 892.66 397.40 892.59 C 398.75 890.95 400.63 889.30 400.44 886.96 C 400.59 884.62 398.59 883.09 397.25 881.48 C 393.29 881.43 389.33 881.37 385.38 881.38 Z" />
<path fill="#818181" opacity="1.00" d=" M 557.56 864.36 C 559.27 864.33 560.99 864.31 562.71 864.30 C 562.66 866.69 562.61 869.08 562.55 871.49 C 564.58 871.41 566.63 871.37 568.67 871.31 C 568.68 872.79 568.70 874.27 568.74 875.77 C 566.67 875.68 564.61 875.60 562.56 875.53 C 563.21 881.48 561.49 887.79 563.71 893.48 C 565.38 893.37 567.07 893.29 568.76 893.21 C 568.71 894.69 568.67 896.20 568.65 897.71 C 566.26 897.61 563.80 897.89 561.47 897.31 C 559.22 896.09 557.67 893.65 557.64 891.08 C 557.47 885.89 557.67 880.70 557.58 875.52 C 556.14 875.60 554.70 875.69 553.27 875.80 C 553.29 874.29 553.32 872.79 553.35 871.31 C 554.77 871.36 556.19 871.42 557.63 871.50 C 557.60 869.11 557.58 866.73 557.56 864.36 Z" />
<path fill="#818181" opacity="1.00" d=" M 416.19 871.14 C 421.82 869.22 429.02 871.68 431.36 877.41 C 432.75 879.93 432.60 882.88 432.78 885.69 C 425.92 885.58 419.07 885.71 412.22 885.59 C 412.62 888.66 414.19 891.71 417.08 893.11 C 419.40 893.98 421.95 893.49 424.37 893.53 C 425.71 892.14 426.98 890.69 428.16 889.18 C 429.33 889.69 430.50 890.22 431.68 890.76 C 431.68 891.22 431.67 892.16 431.66 892.62 C 429.14 895.44 426.10 898.27 422.09 898.40 C 414.38 899.66 407.14 892.58 407.41 884.97 C 407.02 879.14 410.63 873.11 416.19 871.14 M 413.60 878.61 C 413.47 879.32 413.21 880.74 413.08 881.45 C 417.99 881.41 422.91 881.45 427.84 881.44 C 427.17 879.09 425.48 877.35 423.92 875.59 C 421.50 875.41 419.09 875.37 416.68 875.49 C 415.65 876.53 414.63 877.56 413.60 878.61 Z" />
<path fill="#818181" opacity="1.00" d=" M 446.86 873.85 C 450.21 870.14 456.12 869.66 460.49 871.73 C 462.59 872.81 464.97 874.42 464.70 877.11 C 463.44 877.60 462.19 878.12 460.94 878.63 C 460.09 877.53 459.24 876.45 458.40 875.37 C 456.16 875.34 453.91 875.21 451.70 875.63 C 449.80 876.44 450.54 878.63 450.34 880.24 C 455.23 882.50 461.79 881.97 465.03 886.99 C 466.29 889.71 465.95 893.50 463.55 895.55 C 457.60 900.94 446.51 898.73 444.02 890.78 C 445.70 890.55 448.36 888.13 449.37 890.54 C 451.48 894.66 457.10 894.35 460.65 892.46 C 460.62 891.52 460.55 889.64 460.52 888.70 C 455.83 885.72 448.88 886.67 445.66 881.49 C 445.16 878.98 444.68 875.72 446.86 873.85 Z" />
<path fill="#818181" opacity="1.00" d=" M 473.66 873.90 C 475.68 872.03 478.14 870.26 481.05 870.50 C 484.31 870.27 486.88 872.53 488.93 874.77 C 491.80 871.19 496.65 869.44 501.05 871.07 C 504.79 872.23 506.59 876.34 506.60 880.01 C 506.74 885.88 506.58 891.76 506.66 897.64 C 504.98 897.61 503.31 897.59 501.64 897.58 C 501.56 890.93 501.78 884.28 501.44 877.65 C 500.73 876.90 500.02 876.17 499.32 875.45 C 497.41 875.42 495.51 875.41 493.61 875.40 C 491.87 877.22 490.04 879.22 489.81 881.86 C 489.42 887.11 489.72 892.39 489.71 897.66 C 488.23 897.65 486.75 897.65 485.28 897.67 C 484.77 890.32 487.08 882.23 483.15 875.53 C 481.04 875.46 478.93 875.42 476.82 875.41 C 475.60 877.15 473.58 878.67 473.52 880.97 C 473.15 886.49 473.48 892.04 473.36 897.57 C 471.68 897.59 470.00 897.61 468.33 897.65 C 468.36 888.90 468.37 880.14 468.32 871.39 C 469.77 871.36 471.22 871.35 472.68 871.34 C 472.92 871.98 473.41 873.26 473.66 873.90 Z" />
<path fill="#818181" opacity="1.00" d=" M 510.38 875.55 C 515.16 868.63 527.57 868.67 531.37 876.55 C 532.00 879.68 531.36 882.94 531.89 886.11 C 532.52 889.97 531.21 893.82 531.73 897.71 C 530.25 897.65 528.79 897.61 527.33 897.59 C 527.37 896.96 527.45 895.70 527.48 895.07 C 524.26 897.53 520.09 899.51 516.00 898.02 C 512.36 897.07 509.21 893.93 509.35 889.99 C 508.75 885.79 512.27 882.19 516.09 881.16 C 519.89 879.82 523.94 880.87 527.71 881.75 C 527.74 879.13 526.13 877.17 524.40 875.44 C 520.96 875.13 517.27 875.04 514.59 877.59 C 514.02 877.63 512.88 877.72 512.31 877.76 C 511.77 876.96 510.31 876.63 510.38 875.55 M 514.44 887.55 C 514.46 888.46 514.52 890.28 514.55 891.19 C 514.92 891.74 515.67 892.84 516.05 893.39 C 518.47 893.64 520.92 893.68 523.36 893.55 C 525.54 891.43 527.59 888.98 527.68 885.76 C 523.22 884.72 517.73 883.31 514.44 887.55 Z" />
<path fill="#818181" opacity="1.00" d=" M 540.47 874.25 C 543.21 871.65 546.81 870.25 550.58 870.50 C 550.60 872.23 550.62 873.98 550.66 875.73 C 548.98 875.67 547.30 875.60 545.63 875.55 C 544.37 876.68 543.12 877.83 541.88 878.99 C 541.49 879.98 541.10 880.97 540.70 881.98 C 540.61 887.20 540.62 892.44 540.72 897.67 C 539.23 897.65 537.76 897.65 536.29 897.66 C 536.39 888.89 536.39 880.11 536.28 871.34 C 537.76 871.33 539.25 871.34 540.75 871.35 C 540.68 872.08 540.54 873.52 540.47 874.25 Z" />
<path fill="#818181" opacity="1.00" d=" M 572.48 891.43 C 574.40 891.40 576.38 891.16 578.28 891.67 C 578.76 893.25 578.85 894.98 578.44 896.61 C 577.11 898.32 574.52 897.71 572.73 897.23 C 572.08 895.35 572.44 893.35 572.48 891.43 Z" />
</g>
</svg>
